M48
; DRILL file {KiCad 5.1.6-c6e7f7d~86~ubuntu18.04.1} date Mon May 25 11:30:21 2020
; FORMAT={-:-/ absolute / inch / decimal}
; #@! TF.CreationDate,2020-05-25T11:30:21+02:00
; #@! TF.GenerationSoftware,Kicad,Pcbnew,5.1.6-c6e7f7d~86~ubuntu18.04.1
FMAT,2
INCH
T1C0.0150
T2C0.0197
T3C0.0315
%
G90
G05
T1
X5.0Y-4.0158
X5.1181Y-3.7402
X5.1181Y-4.0748
X5.1772Y-3.6221
X5.2559Y-3.7008
X5.3937Y-4.0748
X5.4331Y-4.1733
X5.4922Y-3.7402
X5.4922Y-4.0748
X5.5315Y-3.5632
X5.5906Y-3.563
X5.7059Y-3.6018
X5.7284Y-3.8189
X5.7481Y-3.9666
X5.7678Y-3.6418
X5.8465Y-3.9666
X5.8859Y-4.1929
T2
X5.9449Y-3.7402
X5.9449Y-3.7894
X5.9449Y-3.8386
X5.9449Y-3.8878
X5.9449Y-4.0748
X5.9449Y-4.1241
X5.9449Y-4.1733
X5.0Y-3.7894
X5.0Y-3.8386
X5.0Y-3.8878
X5.0Y-3.937
X5.9449Y-3.504
X5.9449Y-3.5532
X5.0Y-3.4252
X5.0Y-3.4744
X5.0Y-3.5237
X5.0Y-3.5729
X5.0Y-3.6221
X5.0Y-4.1142
X5.0Y-4.1634
X5.0Y-4.2126
T3
X5.1181Y-3.3859
X5.1969Y-3.3859
X5.2756Y-3.3859
X5.3544Y-3.3859
X5.4331Y-3.3859
X5.5119Y-3.3859
X5.5906Y-3.3859
X5.6693Y-3.3859
X5.7481Y-3.3859
X5.8268Y-3.3859
X5.1181Y-4.252
X5.1969Y-4.252
X5.2756Y-4.252
X5.3544Y-4.252
X5.4331Y-4.252
X5.5119Y-4.252
X5.5906Y-4.252
X5.6693Y-4.252
X5.7481Y-4.252
X5.8268Y-4.252
T0
M30
