%TF.GenerationSoftware,KiCad,Pcbnew,5.1.6-c6e7f7d~86~ubuntu18.04.1*%
%TF.CreationDate,2020-05-25T11:30:19+02:00*%
%TF.ProjectId,cf-deck-carrier,63662d64-6563-46b2-9d63-617272696572,0.1A*%
%TF.SameCoordinates,Original*%
%TF.FileFunction,Copper,L4,Bot*%
%TF.FilePolarity,Positive*%
%FSLAX46Y46*%
G04 Gerber Fmt 4.6, Leading zero omitted, Abs format (unit mm)*
G04 Created by KiCad (PCBNEW 5.1.6-c6e7f7d~86~ubuntu18.04.1) date 2020-05-25 11:30:19*
%MOMM*%
%LPD*%
G01*
G04 APERTURE LIST*
%TA.AperFunction,SMDPad,CuDef*%
%ADD10R,0.650000X1.560000*%
%TD*%
%TA.AperFunction,SMDPad,CuDef*%
%ADD11R,1.300000X1.300000*%
%TD*%
%TA.AperFunction,ComponentPad*%
%ADD12O,1.300000X0.800000*%
%TD*%
%TA.AperFunction,SMDPad,CuDef*%
%ADD13C,1.050000*%
%TD*%
%TA.AperFunction,SMDPad,CuDef*%
%ADD14R,1.000000X1.600000*%
%TD*%
%TA.AperFunction,ComponentPad*%
%ADD15C,1.050000*%
%TD*%
%TA.AperFunction,ComponentPad*%
%ADD16R,1.050000X1.050000*%
%TD*%
%TA.AperFunction,ViaPad*%
%ADD17C,0.635000*%
%TD*%
%TA.AperFunction,Conductor*%
%ADD18C,0.203200*%
%TD*%
%TA.AperFunction,Conductor*%
%ADD19C,0.304800*%
%TD*%
%TA.AperFunction,Conductor*%
%ADD20C,0.508000*%
%TD*%
%TA.AperFunction,Conductor*%
%ADD21C,0.635000*%
%TD*%
%TA.AperFunction,Conductor*%
%ADD22C,0.254000*%
%TD*%
G04 APERTURE END LIST*
D10*
%TO.P,U1,5*%
%TO.N,VCC*%
X132051000Y-102350920D03*
%TO.P,U1,4*%
%TO.N,Net-(C2-Pad1)*%
X133951000Y-102350920D03*
%TO.P,U1,3*%
%TO.N,VCOM*%
X133951000Y-99650920D03*
%TO.P,U1,2*%
%TO.N,GND*%
X133001000Y-99650920D03*
%TO.P,U1,1*%
%TO.N,VCOM*%
X132051000Y-99650920D03*
%TD*%
%TO.P,U3,5*%
%TO.N,/OW*%
X144251000Y-102350920D03*
%TO.P,U3,6*%
%TO.N,VCC*%
X143301000Y-102350920D03*
%TO.P,U3,4*%
%TO.N,GND*%
X145201000Y-102350920D03*
%TO.P,U3,3*%
%TO.N,/SCL*%
X145201000Y-99650920D03*
%TO.P,U3,2*%
%TO.N,/SDA*%
X144251000Y-99650920D03*
%TO.P,U3,1*%
%TO.N,Net-(R3-Pad2)*%
X143301000Y-99650920D03*
%TD*%
D11*
%TO.P,SW1,1*%
%TO.N,/RX1*%
X143751000Y-90350920D03*
%TO.P,SW1,2*%
%TO.N,/RX_AUX*%
X145501000Y-90350920D03*
%TO.P,SW1,3*%
%TO.N,/RX2*%
X147251000Y-90350920D03*
%TO.P,SW1,4*%
%TO.N,/TX1*%
X143751000Y-95650920D03*
%TO.P,SW1,5*%
%TO.N,/TX_AUX*%
X145501000Y-95650920D03*
%TO.P,SW1,6*%
%TO.N,/TX2*%
X147251000Y-95650920D03*
%TD*%
%TO.P,J1,1*%
%TO.N,VUSB*%
%TA.AperFunction,ComponentPad*%
G36*
G01*
X127451000Y-107400920D02*
X126551000Y-107400920D01*
G75*
G02*
X126351000Y-107200920I0J200000D01*
G01*
X126351000Y-106800920D01*
G75*
G02*
X126551000Y-106600920I200000J0D01*
G01*
X127451000Y-106600920D01*
G75*
G02*
X127651000Y-106800920I0J-200000D01*
G01*
X127651000Y-107200920D01*
G75*
G02*
X127451000Y-107400920I-200000J0D01*
G01*
G37*
%TD.AperFunction*%
D12*
%TO.P,J1,2*%
%TO.N,VCOM*%
X127001000Y-105750920D03*
%TO.P,J1,3*%
%TO.N,GND*%
X127001000Y-104500920D03*
%TD*%
%TO.P,U2,8*%
%TO.N,VCC*%
%TA.AperFunction,SMDPad,CuDef*%
G36*
G01*
X131946000Y-94500920D02*
X132246000Y-94500920D01*
G75*
G02*
X132396000Y-94650920I0J-150000D01*
G01*
X132396000Y-96300920D01*
G75*
G02*
X132246000Y-96450920I-150000J0D01*
G01*
X131946000Y-96450920D01*
G75*
G02*
X131796000Y-96300920I0J150000D01*
G01*
X131796000Y-94650920D01*
G75*
G02*
X131946000Y-94500920I150000J0D01*
G01*
G37*
%TD.AperFunction*%
%TO.P,U2,7*%
%TO.N,/SDA*%
%TA.AperFunction,SMDPad,CuDef*%
G36*
G01*
X133216000Y-94500920D02*
X133516000Y-94500920D01*
G75*
G02*
X133666000Y-94650920I0J-150000D01*
G01*
X133666000Y-96300920D01*
G75*
G02*
X133516000Y-96450920I-150000J0D01*
G01*
X133216000Y-96450920D01*
G75*
G02*
X133066000Y-96300920I0J150000D01*
G01*
X133066000Y-94650920D01*
G75*
G02*
X133216000Y-94500920I150000J0D01*
G01*
G37*
%TD.AperFunction*%
%TO.P,U2,6*%
%TO.N,/SCL*%
%TA.AperFunction,SMDPad,CuDef*%
G36*
G01*
X134486000Y-94500920D02*
X134786000Y-94500920D01*
G75*
G02*
X134936000Y-94650920I0J-150000D01*
G01*
X134936000Y-96300920D01*
G75*
G02*
X134786000Y-96450920I-150000J0D01*
G01*
X134486000Y-96450920D01*
G75*
G02*
X134336000Y-96300920I0J150000D01*
G01*
X134336000Y-94650920D01*
G75*
G02*
X134486000Y-94500920I150000J0D01*
G01*
G37*
%TD.AperFunction*%
%TO.P,U2,5*%
%TO.N,/IO4*%
%TA.AperFunction,SMDPad,CuDef*%
G36*
G01*
X135756000Y-94500920D02*
X136056000Y-94500920D01*
G75*
G02*
X136206000Y-94650920I0J-150000D01*
G01*
X136206000Y-96300920D01*
G75*
G02*
X136056000Y-96450920I-150000J0D01*
G01*
X135756000Y-96450920D01*
G75*
G02*
X135606000Y-96300920I0J150000D01*
G01*
X135606000Y-94650920D01*
G75*
G02*
X135756000Y-94500920I150000J0D01*
G01*
G37*
%TD.AperFunction*%
%TO.P,U2,4*%
%TO.N,GND*%
%TA.AperFunction,SMDPad,CuDef*%
G36*
G01*
X135756000Y-89550920D02*
X136056000Y-89550920D01*
G75*
G02*
X136206000Y-89700920I0J-150000D01*
G01*
X136206000Y-91350920D01*
G75*
G02*
X136056000Y-91500920I-150000J0D01*
G01*
X135756000Y-91500920D01*
G75*
G02*
X135606000Y-91350920I0J150000D01*
G01*
X135606000Y-89700920D01*
G75*
G02*
X135756000Y-89550920I150000J0D01*
G01*
G37*
%TD.AperFunction*%
%TO.P,U2,3*%
%TO.N,/IO3*%
%TA.AperFunction,SMDPad,CuDef*%
G36*
G01*
X134486000Y-89550920D02*
X134786000Y-89550920D01*
G75*
G02*
X134936000Y-89700920I0J-150000D01*
G01*
X134936000Y-91350920D01*
G75*
G02*
X134786000Y-91500920I-150000J0D01*
G01*
X134486000Y-91500920D01*
G75*
G02*
X134336000Y-91350920I0J150000D01*
G01*
X134336000Y-89700920D01*
G75*
G02*
X134486000Y-89550920I150000J0D01*
G01*
G37*
%TD.AperFunction*%
%TO.P,U2,2*%
%TO.N,/IO2*%
%TA.AperFunction,SMDPad,CuDef*%
G36*
G01*
X133216000Y-89550920D02*
X133516000Y-89550920D01*
G75*
G02*
X133666000Y-89700920I0J-150000D01*
G01*
X133666000Y-91350920D01*
G75*
G02*
X133516000Y-91500920I-150000J0D01*
G01*
X133216000Y-91500920D01*
G75*
G02*
X133066000Y-91350920I0J150000D01*
G01*
X133066000Y-89700920D01*
G75*
G02*
X133216000Y-89550920I150000J0D01*
G01*
G37*
%TD.AperFunction*%
%TO.P,U2,1*%
%TO.N,/IO1*%
%TA.AperFunction,SMDPad,CuDef*%
G36*
G01*
X131946000Y-89550920D02*
X132246000Y-89550920D01*
G75*
G02*
X132396000Y-89700920I0J-150000D01*
G01*
X132396000Y-91350920D01*
G75*
G02*
X132246000Y-91500920I-150000J0D01*
G01*
X131946000Y-91500920D01*
G75*
G02*
X131796000Y-91350920I0J150000D01*
G01*
X131796000Y-89700920D01*
G75*
G02*
X131946000Y-89550920I150000J0D01*
G01*
G37*
%TD.AperFunction*%
%TD*%
D13*
%TO.P,P1,10*%
%TO.N,GND*%
X130001000Y-86000920D03*
%TO.P,P1,9*%
%TO.N,/IO4*%
X132001000Y-86000920D03*
%TO.P,P1,8*%
%TO.N,/IO3*%
X134001000Y-86000920D03*
%TO.P,P1,7*%
%TO.N,/IO2*%
X136001000Y-86000920D03*
%TO.P,P1,6*%
%TO.N,/IO1*%
X138001000Y-86000920D03*
%TO.P,P1,5*%
%TO.N,/SCL*%
X140001000Y-86000920D03*
%TO.P,P1,4*%
%TO.N,/SDA*%
X142001000Y-86000920D03*
%TO.P,P1,3*%
%TO.N,/TX1*%
X144001000Y-86000920D03*
%TO.P,P1,2*%
%TO.N,/RX1*%
X146001000Y-86000920D03*
%TO.P,P1,1*%
%TO.N,VCC*%
X148001000Y-86000920D03*
D14*
%TO.P,P1,10*%
%TO.N,GND*%
X130001000Y-87600920D03*
%TO.P,P1,9*%
%TO.N,/IO4*%
X132001000Y-84400920D03*
%TO.P,P1,8*%
%TO.N,/IO3*%
X134001000Y-87600920D03*
%TO.P,P1,7*%
%TO.N,/IO2*%
X136001000Y-84400920D03*
%TO.P,P1,6*%
%TO.N,/IO1*%
X138001000Y-87600920D03*
%TO.P,P1,5*%
%TO.N,/SCL*%
X140001000Y-84400920D03*
%TO.P,P1,4*%
%TO.N,/SDA*%
X142001000Y-87600920D03*
%TO.P,P1,3*%
%TO.N,/TX1*%
X144001000Y-84400920D03*
%TO.P,P1,2*%
%TO.N,/RX1*%
X146001000Y-87600920D03*
%TO.P,P1,1*%
%TO.N,VCC*%
X148001000Y-84400920D03*
D15*
%TO.P,P1,5*%
%TO.N,/SCL*%
X140001000Y-86000920D03*
%TO.P,P1,6*%
%TO.N,/IO1*%
X138001000Y-86000920D03*
%TO.P,P1,7*%
%TO.N,/IO2*%
X136001000Y-86000920D03*
%TO.P,P1,4*%
%TO.N,/SDA*%
X142001000Y-86000920D03*
%TO.P,P1,3*%
%TO.N,/TX1*%
X144001000Y-86000920D03*
%TO.P,P1,9*%
%TO.N,/IO4*%
X132001000Y-86000920D03*
%TO.P,P1,8*%
%TO.N,/IO3*%
X134001000Y-86000920D03*
D16*
%TO.P,P1,1*%
%TO.N,VCC*%
X148001000Y-86000920D03*
D15*
%TO.P,P1,2*%
%TO.N,/RX1*%
X146001000Y-86000920D03*
%TO.P,P1,10*%
%TO.N,GND*%
X130001000Y-86000920D03*
%TD*%
D13*
%TO.P,P2,10*%
%TO.N,VUSB*%
X130001000Y-108000920D03*
%TO.P,P2,9*%
%TO.N,VCOM*%
X132001000Y-108000920D03*
%TO.P,P2,8*%
%TO.N,/OW*%
X134001000Y-108000920D03*
%TO.P,P2,7*%
%TO.N,Net-(P2-Pad7)*%
X136001000Y-108000920D03*
%TO.P,P2,6*%
%TO.N,Net-(P2-Pad6)*%
X138001000Y-108000920D03*
%TO.P,P2,5*%
%TO.N,/MOSI*%
X140001000Y-108000920D03*
%TO.P,P2,4*%
%TO.N,/MISO*%
X142001000Y-108000920D03*
%TO.P,P2,3*%
%TO.N,/SCK*%
X144001000Y-108000920D03*
%TO.P,P2,2*%
%TO.N,/RX2*%
X146001000Y-108000920D03*
%TO.P,P2,1*%
%TO.N,/TX2*%
X148001000Y-108000920D03*
D14*
%TO.P,P2,10*%
%TO.N,VUSB*%
X130001000Y-109600920D03*
%TO.P,P2,9*%
%TO.N,VCOM*%
X132001000Y-106400920D03*
%TO.P,P2,8*%
%TO.N,/OW*%
X134001000Y-109600920D03*
%TO.P,P2,7*%
%TO.N,Net-(P2-Pad7)*%
X136001000Y-106400920D03*
%TO.P,P2,6*%
%TO.N,Net-(P2-Pad6)*%
X138001000Y-109600920D03*
%TO.P,P2,5*%
%TO.N,/MOSI*%
X140001000Y-106400920D03*
%TO.P,P2,4*%
%TO.N,/MISO*%
X142001000Y-109600920D03*
%TO.P,P2,3*%
%TO.N,/SCK*%
X144001000Y-106400920D03*
%TO.P,P2,2*%
%TO.N,/RX2*%
X146001000Y-109600920D03*
%TO.P,P2,1*%
%TO.N,/TX2*%
X148001000Y-106400920D03*
D15*
%TO.P,P2,5*%
%TO.N,/MOSI*%
X140001000Y-108000920D03*
%TO.P,P2,6*%
%TO.N,Net-(P2-Pad6)*%
X138001000Y-108000920D03*
%TO.P,P2,7*%
%TO.N,Net-(P2-Pad7)*%
X136001000Y-108000920D03*
%TO.P,P2,4*%
%TO.N,/MISO*%
X142001000Y-108000920D03*
%TO.P,P2,3*%
%TO.N,/SCK*%
X144001000Y-108000920D03*
%TO.P,P2,9*%
%TO.N,VCOM*%
X132001000Y-108000920D03*
%TO.P,P2,8*%
%TO.N,/OW*%
X134001000Y-108000920D03*
D16*
%TO.P,P2,1*%
%TO.N,/TX2*%
X148001000Y-108000920D03*
D15*
%TO.P,P2,2*%
%TO.N,/RX2*%
X146001000Y-108000920D03*
%TO.P,P2,10*%
%TO.N,VUSB*%
X130001000Y-108000920D03*
%TD*%
%TO.P,J5,1*%
%TO.N,/OW*%
%TA.AperFunction,ComponentPad*%
G36*
G01*
X127451000Y-92400920D02*
X126551000Y-92400920D01*
G75*
G02*
X126351000Y-92200920I0J200000D01*
G01*
X126351000Y-91800920D01*
G75*
G02*
X126551000Y-91600920I200000J0D01*
G01*
X127451000Y-91600920D01*
G75*
G02*
X127651000Y-91800920I0J-200000D01*
G01*
X127651000Y-92200920D01*
G75*
G02*
X127451000Y-92400920I-200000J0D01*
G01*
G37*
%TD.AperFunction*%
D12*
%TO.P,J5,2*%
%TO.N,/IO1*%
X127001000Y-90750920D03*
%TO.P,J5,3*%
%TO.N,/IO2*%
X127001000Y-89500920D03*
%TO.P,J5,4*%
%TO.N,/IO3*%
X127001000Y-88250920D03*
%TO.P,J5,5*%
%TO.N,/IO4*%
X127001000Y-87000920D03*
%TD*%
%TO.P,J4,1*%
%TO.N,/SCL*%
%TA.AperFunction,ComponentPad*%
G36*
G01*
X150551000Y-88600920D02*
X151451000Y-88600920D01*
G75*
G02*
X151651000Y-88800920I0J-200000D01*
G01*
X151651000Y-89200920D01*
G75*
G02*
X151451000Y-89400920I-200000J0D01*
G01*
X150551000Y-89400920D01*
G75*
G02*
X150351000Y-89200920I0J200000D01*
G01*
X150351000Y-88800920D01*
G75*
G02*
X150551000Y-88600920I200000J0D01*
G01*
G37*
%TD.AperFunction*%
%TO.P,J4,2*%
%TO.N,/SDA*%
X151001000Y-90250920D03*
%TD*%
%TO.P,J2,1*%
%TO.N,/RX1*%
%TA.AperFunction,ComponentPad*%
G36*
G01*
X150551000Y-94600920D02*
X151451000Y-94600920D01*
G75*
G02*
X151651000Y-94800920I0J-200000D01*
G01*
X151651000Y-95200920D01*
G75*
G02*
X151451000Y-95400920I-200000J0D01*
G01*
X150551000Y-95400920D01*
G75*
G02*
X150351000Y-95200920I0J200000D01*
G01*
X150351000Y-94800920D01*
G75*
G02*
X150551000Y-94600920I200000J0D01*
G01*
G37*
%TD.AperFunction*%
%TO.P,J2,2*%
%TO.N,/TX1*%
X151001000Y-96250920D03*
%TO.P,J2,3*%
%TO.N,/RX2*%
X151001000Y-97500920D03*
%TO.P,J2,4*%
%TO.N,/TX2*%
X151001000Y-98750920D03*
%TD*%
%TO.P,J6,1*%
%TO.N,GND*%
%TA.AperFunction,ComponentPad*%
G36*
G01*
X127451000Y-100400920D02*
X126551000Y-100400920D01*
G75*
G02*
X126351000Y-100200920I0J200000D01*
G01*
X126351000Y-99800920D01*
G75*
G02*
X126551000Y-99600920I200000J0D01*
G01*
X127451000Y-99600920D01*
G75*
G02*
X127651000Y-99800920I0J-200000D01*
G01*
X127651000Y-100200920D01*
G75*
G02*
X127451000Y-100400920I-200000J0D01*
G01*
G37*
%TD.AperFunction*%
%TO.P,J6,2*%
%TO.N,VCOM*%
X127001000Y-98750920D03*
%TO.P,J6,3*%
%TO.N,/TX_AUX*%
X127001000Y-97500920D03*
%TO.P,J6,4*%
%TO.N,/RX_AUX*%
X127001000Y-96250920D03*
%TD*%
%TO.P,J3,1*%
%TO.N,/MOSI*%
%TA.AperFunction,ComponentPad*%
G36*
G01*
X150551000Y-103100920D02*
X151451000Y-103100920D01*
G75*
G02*
X151651000Y-103300920I0J-200000D01*
G01*
X151651000Y-103700920D01*
G75*
G02*
X151451000Y-103900920I-200000J0D01*
G01*
X150551000Y-103900920D01*
G75*
G02*
X150351000Y-103700920I0J200000D01*
G01*
X150351000Y-103300920D01*
G75*
G02*
X150551000Y-103100920I200000J0D01*
G01*
G37*
%TD.AperFunction*%
%TO.P,J3,2*%
%TO.N,/MISO*%
X151001000Y-104750920D03*
%TO.P,J3,3*%
%TO.N,/SCK*%
X151001000Y-106000920D03*
%TD*%
%TO.P,R3,2*%
%TO.N,Net-(R3-Pad2)*%
%TA.AperFunction,SMDPad,CuDef*%
G36*
G01*
X141701001Y-100550920D02*
X140800999Y-100550920D01*
G75*
G02*
X140551000Y-100300921I0J249999D01*
G01*
X140551000Y-99650919D01*
G75*
G02*
X140800999Y-99400920I249999J0D01*
G01*
X141701001Y-99400920D01*
G75*
G02*
X141951000Y-99650919I0J-249999D01*
G01*
X141951000Y-100300921D01*
G75*
G02*
X141701001Y-100550920I-249999J0D01*
G01*
G37*
%TD.AperFunction*%
%TO.P,R3,1*%
%TO.N,VCC*%
%TA.AperFunction,SMDPad,CuDef*%
G36*
G01*
X141701001Y-102600920D02*
X140800999Y-102600920D01*
G75*
G02*
X140551000Y-102350921I0J249999D01*
G01*
X140551000Y-101700919D01*
G75*
G02*
X140800999Y-101450920I249999J0D01*
G01*
X141701001Y-101450920D01*
G75*
G02*
X141951000Y-101700919I0J-249999D01*
G01*
X141951000Y-102350921D01*
G75*
G02*
X141701001Y-102600920I-249999J0D01*
G01*
G37*
%TD.AperFunction*%
%TD*%
%TO.P,R2,2*%
%TO.N,/SCL*%
%TA.AperFunction,SMDPad,CuDef*%
G36*
G01*
X138951001Y-92550920D02*
X138050999Y-92550920D01*
G75*
G02*
X137801000Y-92300921I0J249999D01*
G01*
X137801000Y-91650919D01*
G75*
G02*
X138050999Y-91400920I249999J0D01*
G01*
X138951001Y-91400920D01*
G75*
G02*
X139201000Y-91650919I0J-249999D01*
G01*
X139201000Y-92300921D01*
G75*
G02*
X138951001Y-92550920I-249999J0D01*
G01*
G37*
%TD.AperFunction*%
%TO.P,R2,1*%
%TO.N,VCC*%
%TA.AperFunction,SMDPad,CuDef*%
G36*
G01*
X138951001Y-94600920D02*
X138050999Y-94600920D01*
G75*
G02*
X137801000Y-94350921I0J249999D01*
G01*
X137801000Y-93700919D01*
G75*
G02*
X138050999Y-93450920I249999J0D01*
G01*
X138951001Y-93450920D01*
G75*
G02*
X139201000Y-93700919I0J-249999D01*
G01*
X139201000Y-94350921D01*
G75*
G02*
X138951001Y-94600920I-249999J0D01*
G01*
G37*
%TD.AperFunction*%
%TD*%
%TO.P,R1,2*%
%TO.N,/SDA*%
%TA.AperFunction,SMDPad,CuDef*%
G36*
G01*
X140951001Y-92550920D02*
X140050999Y-92550920D01*
G75*
G02*
X139801000Y-92300921I0J249999D01*
G01*
X139801000Y-91650919D01*
G75*
G02*
X140050999Y-91400920I249999J0D01*
G01*
X140951001Y-91400920D01*
G75*
G02*
X141201000Y-91650919I0J-249999D01*
G01*
X141201000Y-92300921D01*
G75*
G02*
X140951001Y-92550920I-249999J0D01*
G01*
G37*
%TD.AperFunction*%
%TO.P,R1,1*%
%TO.N,VCC*%
%TA.AperFunction,SMDPad,CuDef*%
G36*
G01*
X140951001Y-94600920D02*
X140050999Y-94600920D01*
G75*
G02*
X139801000Y-94350921I0J249999D01*
G01*
X139801000Y-93700919D01*
G75*
G02*
X140050999Y-93450920I249999J0D01*
G01*
X140951001Y-93450920D01*
G75*
G02*
X141201000Y-93700919I0J-249999D01*
G01*
X141201000Y-94350921D01*
G75*
G02*
X140951001Y-94600920I-249999J0D01*
G01*
G37*
%TD.AperFunction*%
%TD*%
%TO.P,C5,2*%
%TO.N,GND*%
%TA.AperFunction,SMDPad,CuDef*%
G36*
G01*
X147701001Y-100550920D02*
X146800999Y-100550920D01*
G75*
G02*
X146551000Y-100300921I0J249999D01*
G01*
X146551000Y-99650919D01*
G75*
G02*
X146800999Y-99400920I249999J0D01*
G01*
X147701001Y-99400920D01*
G75*
G02*
X147951000Y-99650919I0J-249999D01*
G01*
X147951000Y-100300921D01*
G75*
G02*
X147701001Y-100550920I-249999J0D01*
G01*
G37*
%TD.AperFunction*%
%TO.P,C5,1*%
%TO.N,VCC*%
%TA.AperFunction,SMDPad,CuDef*%
G36*
G01*
X147701001Y-102600920D02*
X146800999Y-102600920D01*
G75*
G02*
X146551000Y-102350921I0J249999D01*
G01*
X146551000Y-101700919D01*
G75*
G02*
X146800999Y-101450920I249999J0D01*
G01*
X147701001Y-101450920D01*
G75*
G02*
X147951000Y-101700919I0J-249999D01*
G01*
X147951000Y-102350921D01*
G75*
G02*
X147701001Y-102600920I-249999J0D01*
G01*
G37*
%TD.AperFunction*%
%TD*%
%TO.P,C4,2*%
%TO.N,GND*%
%TA.AperFunction,SMDPad,CuDef*%
G36*
G01*
X130451001Y-92550920D02*
X129550999Y-92550920D01*
G75*
G02*
X129301000Y-92300921I0J249999D01*
G01*
X129301000Y-91650919D01*
G75*
G02*
X129550999Y-91400920I249999J0D01*
G01*
X130451001Y-91400920D01*
G75*
G02*
X130701000Y-91650919I0J-249999D01*
G01*
X130701000Y-92300921D01*
G75*
G02*
X130451001Y-92550920I-249999J0D01*
G01*
G37*
%TD.AperFunction*%
%TO.P,C4,1*%
%TO.N,VCC*%
%TA.AperFunction,SMDPad,CuDef*%
G36*
G01*
X130451001Y-94600920D02*
X129550999Y-94600920D01*
G75*
G02*
X129301000Y-94350921I0J249999D01*
G01*
X129301000Y-93700919D01*
G75*
G02*
X129550999Y-93450920I249999J0D01*
G01*
X130451001Y-93450920D01*
G75*
G02*
X130701000Y-93700919I0J-249999D01*
G01*
X130701000Y-94350921D01*
G75*
G02*
X130451001Y-94600920I-249999J0D01*
G01*
G37*
%TD.AperFunction*%
%TD*%
%TO.P,C3,2*%
%TO.N,GND*%
%TA.AperFunction,SMDPad,CuDef*%
G36*
G01*
X130451001Y-100550920D02*
X129550999Y-100550920D01*
G75*
G02*
X129301000Y-100300921I0J249999D01*
G01*
X129301000Y-99650919D01*
G75*
G02*
X129550999Y-99400920I249999J0D01*
G01*
X130451001Y-99400920D01*
G75*
G02*
X130701000Y-99650919I0J-249999D01*
G01*
X130701000Y-100300921D01*
G75*
G02*
X130451001Y-100550920I-249999J0D01*
G01*
G37*
%TD.AperFunction*%
%TO.P,C3,1*%
%TO.N,VCC*%
%TA.AperFunction,SMDPad,CuDef*%
G36*
G01*
X130451001Y-102600920D02*
X129550999Y-102600920D01*
G75*
G02*
X129301000Y-102350921I0J249999D01*
G01*
X129301000Y-101700919D01*
G75*
G02*
X129550999Y-101450920I249999J0D01*
G01*
X130451001Y-101450920D01*
G75*
G02*
X130701000Y-101700919I0J-249999D01*
G01*
X130701000Y-102350921D01*
G75*
G02*
X130451001Y-102600920I-249999J0D01*
G01*
G37*
%TD.AperFunction*%
%TD*%
%TO.P,C2,2*%
%TO.N,GND*%
%TA.AperFunction,SMDPad,CuDef*%
G36*
G01*
X136451001Y-100550920D02*
X135550999Y-100550920D01*
G75*
G02*
X135301000Y-100300921I0J249999D01*
G01*
X135301000Y-99650919D01*
G75*
G02*
X135550999Y-99400920I249999J0D01*
G01*
X136451001Y-99400920D01*
G75*
G02*
X136701000Y-99650919I0J-249999D01*
G01*
X136701000Y-100300921D01*
G75*
G02*
X136451001Y-100550920I-249999J0D01*
G01*
G37*
%TD.AperFunction*%
%TO.P,C2,1*%
%TO.N,Net-(C2-Pad1)*%
%TA.AperFunction,SMDPad,CuDef*%
G36*
G01*
X136451001Y-102600920D02*
X135550999Y-102600920D01*
G75*
G02*
X135301000Y-102350921I0J249999D01*
G01*
X135301000Y-101700919D01*
G75*
G02*
X135550999Y-101450920I249999J0D01*
G01*
X136451001Y-101450920D01*
G75*
G02*
X136701000Y-101700919I0J-249999D01*
G01*
X136701000Y-102350921D01*
G75*
G02*
X136451001Y-102600920I-249999J0D01*
G01*
G37*
%TD.AperFunction*%
%TD*%
%TO.P,C1,2*%
%TO.N,GND*%
%TA.AperFunction,SMDPad,CuDef*%
G36*
G01*
X138451001Y-100550920D02*
X137550999Y-100550920D01*
G75*
G02*
X137301000Y-100300921I0J249999D01*
G01*
X137301000Y-99650919D01*
G75*
G02*
X137550999Y-99400920I249999J0D01*
G01*
X138451001Y-99400920D01*
G75*
G02*
X138701000Y-99650919I0J-249999D01*
G01*
X138701000Y-100300921D01*
G75*
G02*
X138451001Y-100550920I-249999J0D01*
G01*
G37*
%TD.AperFunction*%
%TO.P,C1,1*%
%TO.N,VCOM*%
%TA.AperFunction,SMDPad,CuDef*%
G36*
G01*
X138451001Y-102600920D02*
X137550999Y-102600920D01*
G75*
G02*
X137301000Y-102350921I0J249999D01*
G01*
X137301000Y-101700919D01*
G75*
G02*
X137550999Y-101450920I249999J0D01*
G01*
X138451001Y-101450920D01*
G75*
G02*
X138701000Y-101700919I0J-249999D01*
G01*
X138701000Y-102350921D01*
G75*
G02*
X138451001Y-102600920I-249999J0D01*
G01*
G37*
%TD.AperFunction*%
%TD*%
D17*
%TO.N,GND*%
X131501000Y-92000920D03*
X148501000Y-100750920D03*
%TO.N,VCC*%
X139501000Y-95000920D03*
X130001000Y-95000920D03*
X146001000Y-100750920D03*
X130001000Y-103500920D03*
X137001000Y-103500920D03*
%TO.N,GND*%
X149501000Y-106500920D03*
X127001000Y-102000920D03*
X138001000Y-106000920D03*
X139501000Y-103500920D03*
X146501000Y-92500920D03*
X142001000Y-90500920D03*
%TO.N,/SDA*%
X133501000Y-94000920D03*
X140501000Y-90504459D03*
%TO.N,/RX_AUX*%
X144929490Y-91486694D03*
%TO.N,/TX_AUX*%
X145501000Y-97000920D03*
%TD*%
D18*
%TO.N,Net-(P2-Pad7)*%
X136001000Y-106400920D02*
X136001000Y-108000920D01*
%TO.N,Net-(P2-Pad6)*%
X138001000Y-109600920D02*
X138001000Y-108000920D01*
D19*
%TO.N,GND*%
X130001000Y-87600920D02*
X130001000Y-86000920D01*
X135906000Y-91500920D02*
X135906000Y-90525920D01*
X135431000Y-91975920D02*
X135906000Y-91500920D01*
X130001000Y-91975920D02*
X135431000Y-91975920D01*
D20*
X138001000Y-99975920D02*
X136001000Y-99975920D01*
D19*
X136001000Y-99975920D02*
X136001000Y-100000920D01*
D20*
X136001000Y-100000920D02*
X135001000Y-101000920D01*
X135001000Y-101000920D02*
X133738798Y-101000920D01*
X130001000Y-100500920D02*
X130001000Y-99975920D01*
X130501000Y-101000920D02*
X130001000Y-100500920D01*
X133738798Y-101000920D02*
X130501000Y-101000920D01*
D19*
X127026000Y-99975920D02*
X127001000Y-100000920D01*
D20*
X130001000Y-99975920D02*
X127026000Y-99975920D01*
D19*
X131476000Y-91975920D02*
X131501000Y-92000920D01*
X130001000Y-91975920D02*
X131476000Y-91975920D01*
D20*
X133001000Y-101000920D02*
X133001000Y-99900920D01*
X133738798Y-101000920D02*
X133001000Y-101000920D01*
D19*
X148255810Y-100980730D02*
X147251000Y-99975920D01*
X148255810Y-102580732D02*
X148255810Y-100980730D01*
X147930812Y-102905730D02*
X148255810Y-102580732D01*
X145755810Y-102905730D02*
X147930812Y-102905730D01*
X145201000Y-102350920D02*
X145755810Y-102905730D01*
X148255810Y-100980730D02*
X148271190Y-100980730D01*
X148271190Y-100980730D02*
X148501000Y-100750920D01*
D20*
%TO.N,VCOM*%
X132001000Y-106400920D02*
X132001000Y-108000920D01*
X131351000Y-105750920D02*
X132001000Y-106400920D01*
X127001000Y-105750920D02*
X131351000Y-105750920D01*
X138476000Y-102025920D02*
X138001000Y-102025920D01*
X128251000Y-98750920D02*
X128751000Y-98250920D01*
X127001000Y-98750920D02*
X128251000Y-98750920D01*
X139251000Y-101250920D02*
X138476000Y-102025920D01*
X138285054Y-98250920D02*
X139251000Y-99216866D01*
X139251000Y-99216866D02*
X139251000Y-101250920D01*
D19*
X132051000Y-98300920D02*
X132001000Y-98250920D01*
D20*
X132051000Y-99650920D02*
X132051000Y-98300920D01*
X128751000Y-98250920D02*
X132001000Y-98250920D01*
D19*
X133951000Y-98300920D02*
X134001000Y-98250920D01*
D20*
X133951000Y-99650920D02*
X133951000Y-98300920D01*
X132001000Y-98250920D02*
X134001000Y-98250920D01*
X134001000Y-98250920D02*
X138285054Y-98250920D01*
D18*
%TO.N,Net-(C2-Pad1)*%
X134026000Y-102025920D02*
X133951000Y-102100920D01*
X136001000Y-102025920D02*
X134026000Y-102025920D01*
D19*
%TO.N,VCC*%
X148001000Y-84400920D02*
X148001000Y-86000920D01*
X130076000Y-102100920D02*
X130001000Y-102025920D01*
D21*
X132051000Y-102100920D02*
X130076000Y-102100920D01*
D19*
X140501000Y-94025920D02*
X139526000Y-95000920D01*
X139476000Y-95000920D02*
X139501000Y-95000920D01*
X138501000Y-94025920D02*
X139476000Y-95000920D01*
X139526000Y-95000920D02*
X139501000Y-95000920D01*
X130001000Y-94025920D02*
X130001000Y-95000920D01*
X130001000Y-94025920D02*
X131586000Y-94025920D01*
X132096000Y-94535920D02*
X132096000Y-95475920D01*
X131586000Y-94025920D02*
X132096000Y-94535920D01*
X142026000Y-101250920D02*
X141251000Y-102025920D01*
X147251000Y-102025920D02*
X146476000Y-101250920D01*
X146476000Y-101250920D02*
X146476000Y-101225920D01*
X146476000Y-101225920D02*
X146001000Y-100750920D01*
X143301000Y-101300920D02*
X143251000Y-101250920D01*
X143301000Y-102350920D02*
X143301000Y-101300920D01*
X146476000Y-101250920D02*
X143251000Y-101250920D01*
X143251000Y-101250920D02*
X142026000Y-101250920D01*
D21*
X130001000Y-102025920D02*
X130001000Y-103500920D01*
X136751000Y-103750920D02*
X137001000Y-103500920D01*
X130251000Y-103750920D02*
X136751000Y-103750920D01*
X130001000Y-103500920D02*
X130251000Y-103750920D01*
D19*
%TO.N,VUSB*%
X130001000Y-109600920D02*
X130001000Y-108000920D01*
X129001000Y-107000920D02*
X130001000Y-108000920D01*
X127001000Y-107000920D02*
X129001000Y-107000920D01*
D18*
%TO.N,/RX2*%
X146001000Y-109600920D02*
X146001000Y-108000920D01*
X152501000Y-94604886D02*
X148247034Y-90350920D01*
X152501000Y-97000920D02*
X152501000Y-94604886D01*
X148247034Y-90350920D02*
X147251000Y-90350920D01*
X151001000Y-97500920D02*
X152001000Y-97500920D01*
X152001000Y-97500920D02*
X152501000Y-97000920D01*
%TO.N,/TX2*%
X148001000Y-106400920D02*
X148001000Y-108000920D01*
X150351000Y-98750920D02*
X147251000Y-95650920D01*
X151001000Y-98750920D02*
X150351000Y-98750920D01*
%TO.N,/RX1*%
X146001000Y-87600920D02*
X146001000Y-86000920D01*
X149501000Y-95000920D02*
X151001000Y-95000920D01*
X144501000Y-94000920D02*
X148501000Y-94000920D01*
X148501000Y-94000920D02*
X149501000Y-95000920D01*
X143751000Y-90350920D02*
X143751000Y-93250920D01*
X143751000Y-93250920D02*
X144501000Y-94000920D01*
%TO.N,/TX1*%
X144001000Y-84400920D02*
X144001000Y-86000920D01*
X143751000Y-95650920D02*
X143751000Y-95250920D01*
X143751000Y-95250920D02*
X144501000Y-94500920D01*
X148397800Y-94500920D02*
X150147800Y-96250920D01*
X150147800Y-96250920D02*
X151001000Y-96250920D01*
X144501000Y-94500920D02*
X148397800Y-94500920D01*
%TO.N,/MOSI*%
X140001000Y-106400920D02*
X140001000Y-108000920D01*
X151001000Y-103500920D02*
X150489935Y-103500920D01*
X141410611Y-104991309D02*
X140001000Y-106400920D01*
X148999546Y-104991309D02*
X141410611Y-104991309D01*
X150489935Y-103500920D02*
X148999546Y-104991309D01*
%TO.N,/MISO*%
X142001000Y-109600920D02*
X142001000Y-108000920D01*
X151001000Y-104750920D02*
X149751000Y-104750920D01*
X149751000Y-104750920D02*
X149155001Y-105346919D01*
X142001000Y-106643718D02*
X142001000Y-108000920D01*
X143297799Y-105346919D02*
X142001000Y-106643718D01*
X149155001Y-105346919D02*
X143297799Y-105346919D01*
%TO.N,/SCK*%
X144001000Y-106400920D02*
X144001000Y-108000920D01*
%TO.N,/SCL*%
X140001000Y-84400920D02*
X140001000Y-86000920D01*
X143001000Y-86358122D02*
X143001000Y-85424459D01*
X151001000Y-89000920D02*
X145643798Y-89000920D01*
X141977461Y-84400920D02*
X140001000Y-84400920D01*
X143001000Y-85424459D02*
X141977461Y-84400920D01*
X145643798Y-89000920D02*
X143001000Y-86358122D01*
X134636000Y-95475920D02*
X134636000Y-96635920D01*
X134636000Y-96635920D02*
X135001000Y-97000920D01*
X135001000Y-97000920D02*
X136501000Y-97000920D01*
X136501000Y-97000920D02*
X137001000Y-96500920D01*
X137001000Y-93475920D02*
X138501000Y-91975920D01*
X137001000Y-96500920D02*
X137001000Y-93475920D01*
X138501000Y-91975920D02*
X138501000Y-91400920D01*
X138501000Y-91400920D02*
X140001000Y-89900920D01*
X140001000Y-89900920D02*
X140001000Y-86000920D01*
X145030190Y-100804930D02*
X145201000Y-100634120D01*
X140296990Y-100509690D02*
X140592230Y-100804930D01*
X139526000Y-93000920D02*
X141001000Y-93000920D01*
X138501000Y-91975920D02*
X139526000Y-93000920D01*
X142001000Y-96750920D02*
X140296990Y-98454930D01*
X141001000Y-93000920D02*
X142001000Y-94000920D01*
X142001000Y-94000920D02*
X142001000Y-96750920D01*
X145201000Y-100634120D02*
X145201000Y-99650920D01*
X140592230Y-100804930D02*
X145030190Y-100804930D01*
X140296990Y-98454930D02*
X140296990Y-100509690D01*
%TO.N,/SDA*%
X142001000Y-87600920D02*
X142001000Y-86000920D01*
X141201000Y-87600920D02*
X142001000Y-87600920D01*
X140501000Y-88300920D02*
X141201000Y-87600920D01*
X143740890Y-87600920D02*
X142001000Y-87600920D01*
X145496500Y-89356530D02*
X143740890Y-87600920D01*
X148860211Y-89356530D02*
X145496500Y-89356530D01*
X151001000Y-90250920D02*
X149754601Y-90250920D01*
X149754601Y-90250920D02*
X148860211Y-89356530D01*
X133366000Y-95475920D02*
X133366000Y-94135920D01*
X133366000Y-94135920D02*
X133501000Y-94000920D01*
X140501000Y-91975920D02*
X140501000Y-90500920D01*
X140501000Y-90500920D02*
X140501000Y-88300920D01*
X140501000Y-90500920D02*
X140501000Y-90504459D01*
X140501000Y-91998012D02*
X140501000Y-91975920D01*
X142356610Y-93853622D02*
X140501000Y-91998012D01*
X142356610Y-96750920D02*
X142356610Y-93853622D01*
X144251000Y-99650920D02*
X144251000Y-98645310D01*
X144251000Y-98645310D02*
X142356610Y-96750920D01*
%TO.N,/OW*%
X134001000Y-109600920D02*
X134001000Y-108000920D01*
X135846824Y-104500920D02*
X134001000Y-106346744D01*
X134001000Y-106346744D02*
X134001000Y-108000920D01*
X144251000Y-102350920D02*
X144251000Y-103334120D01*
X143084200Y-104500920D02*
X135846824Y-104500920D01*
X144251000Y-103334120D02*
X143084200Y-104500920D01*
%TO.N,/IO4*%
X132001000Y-84400920D02*
X132001000Y-86000920D01*
X126001000Y-87000920D02*
X127001000Y-87000920D01*
X135906000Y-95475920D02*
X135906000Y-93905920D01*
X135906000Y-93905920D02*
X135001000Y-93000920D01*
X135001000Y-93000920D02*
X126001000Y-93000920D01*
X126001000Y-93000920D02*
X125501000Y-92500920D01*
X125501000Y-92500920D02*
X125501000Y-87500920D01*
X125501000Y-87500920D02*
X126001000Y-87000920D01*
%TO.N,/IO3*%
X134001000Y-87600920D02*
X134001000Y-86000920D01*
X134636000Y-88235920D02*
X134001000Y-87600920D01*
X134636000Y-90525920D02*
X134636000Y-88235920D01*
%TO.N,/IO2*%
X136001000Y-84400920D02*
X136001000Y-86000920D01*
X133366000Y-90525920D02*
X133476000Y-90525920D01*
X133366000Y-90525920D02*
X133366000Y-89365920D01*
X133366000Y-89365920D02*
X133001000Y-89000920D01*
X133001000Y-89000920D02*
X133001000Y-85500920D01*
X134101000Y-84400920D02*
X136001000Y-84400920D01*
X133001000Y-85500920D02*
X134101000Y-84400920D01*
%TO.N,/IO1*%
X138001000Y-87600920D02*
X138001000Y-86000920D01*
X132096000Y-90525920D02*
X132026000Y-90525920D01*
X131871000Y-90750920D02*
X132096000Y-90525920D01*
X127001000Y-90750920D02*
X131871000Y-90750920D01*
%TO.N,/RX_AUX*%
X145501000Y-90915184D02*
X144929490Y-91486694D01*
X145501000Y-90350920D02*
X145501000Y-90915184D01*
%TO.N,/TX_AUX*%
X145501000Y-95650920D02*
X145501000Y-97000920D01*
%TO.N,Net-(R3-Pad2)*%
X142976000Y-99975920D02*
X143301000Y-99650920D01*
X141251000Y-99975920D02*
X142976000Y-99975920D01*
%TD*%
D22*
%TO.N,GND*%
G36*
X131125513Y-83526231D02*
G01*
X131118157Y-83600920D01*
X131118157Y-85200920D01*
X131125513Y-85275609D01*
X131147299Y-85347428D01*
X131182678Y-85413616D01*
X131230289Y-85471631D01*
X131252722Y-85490041D01*
X131198113Y-85571768D01*
X131130724Y-85734460D01*
X131116422Y-85662560D01*
X131028979Y-85451454D01*
X130902031Y-85261463D01*
X130740457Y-85099889D01*
X130550466Y-84972941D01*
X130339360Y-84885498D01*
X130115250Y-84840920D01*
X129886750Y-84840920D01*
X129662640Y-84885498D01*
X129451534Y-84972941D01*
X129261543Y-85099889D01*
X129099969Y-85261463D01*
X128973021Y-85451454D01*
X128885578Y-85662560D01*
X128841000Y-85886670D01*
X128841000Y-86115170D01*
X128885578Y-86339280D01*
X128947643Y-86489118D01*
X128911498Y-86556740D01*
X128875188Y-86676438D01*
X128862928Y-86800920D01*
X128862928Y-88400920D01*
X128875188Y-88525402D01*
X128911498Y-88645100D01*
X128970463Y-88755414D01*
X129049815Y-88852105D01*
X129146506Y-88931457D01*
X129256820Y-88990422D01*
X129376518Y-89026732D01*
X129501000Y-89038992D01*
X130501000Y-89038992D01*
X130625482Y-89026732D01*
X130745180Y-88990422D01*
X130855494Y-88931457D01*
X130952185Y-88852105D01*
X131031537Y-88755414D01*
X131090502Y-88645100D01*
X131126812Y-88525402D01*
X131139072Y-88400920D01*
X131139072Y-86800920D01*
X131126812Y-86676438D01*
X131090502Y-86556740D01*
X131054357Y-86489118D01*
X131116422Y-86339280D01*
X131130724Y-86267380D01*
X131198113Y-86430072D01*
X131297264Y-86578461D01*
X131423459Y-86704656D01*
X131571848Y-86803807D01*
X131736729Y-86872103D01*
X131911767Y-86906920D01*
X132090233Y-86906920D01*
X132265271Y-86872103D01*
X132430152Y-86803807D01*
X132518401Y-86744841D01*
X132518400Y-88977215D01*
X132516065Y-89000920D01*
X132518400Y-89024625D01*
X132518400Y-89024626D01*
X132525383Y-89095525D01*
X132552978Y-89186496D01*
X132597791Y-89270335D01*
X132658099Y-89343821D01*
X132676517Y-89358937D01*
X132755371Y-89437790D01*
X132731000Y-89483384D01*
X132689043Y-89404888D01*
X132622777Y-89324143D01*
X132542032Y-89257877D01*
X132449910Y-89208637D01*
X132349953Y-89178315D01*
X132246000Y-89168077D01*
X131946000Y-89168077D01*
X131842047Y-89178315D01*
X131742090Y-89208637D01*
X131649968Y-89257877D01*
X131569223Y-89324143D01*
X131502957Y-89404888D01*
X131453717Y-89497010D01*
X131423395Y-89596967D01*
X131413157Y-89700920D01*
X131413157Y-90268320D01*
X127865275Y-90268320D01*
X127805922Y-90195998D01*
X127720531Y-90125920D01*
X127805922Y-90055842D01*
X127903519Y-89936919D01*
X127976040Y-89801242D01*
X128020699Y-89654023D01*
X128035778Y-89500920D01*
X128020699Y-89347817D01*
X127976040Y-89200598D01*
X127903519Y-89064921D01*
X127805922Y-88945998D01*
X127720531Y-88875920D01*
X127805922Y-88805842D01*
X127903519Y-88686919D01*
X127976040Y-88551242D01*
X128020699Y-88404023D01*
X128035778Y-88250920D01*
X128020699Y-88097817D01*
X127976040Y-87950598D01*
X127903519Y-87814921D01*
X127805922Y-87695998D01*
X127720531Y-87625920D01*
X127805922Y-87555842D01*
X127903519Y-87436919D01*
X127976040Y-87301242D01*
X128020699Y-87154023D01*
X128035778Y-87000920D01*
X128020699Y-86847817D01*
X127976040Y-86700598D01*
X127903519Y-86564921D01*
X127805922Y-86445998D01*
X127686999Y-86348401D01*
X127551322Y-86275880D01*
X127404103Y-86231221D01*
X127289360Y-86219920D01*
X126712640Y-86219920D01*
X126597897Y-86231221D01*
X126450678Y-86275880D01*
X126315001Y-86348401D01*
X126196078Y-86445998D01*
X126136725Y-86518320D01*
X126024707Y-86518320D01*
X126001000Y-86515985D01*
X125906393Y-86525303D01*
X125845752Y-86543698D01*
X125815423Y-86552898D01*
X125731585Y-86597711D01*
X125658099Y-86658019D01*
X125642987Y-86676433D01*
X125176513Y-87142908D01*
X125158100Y-87158019D01*
X125142989Y-87176432D01*
X125142987Y-87176434D01*
X125097792Y-87231505D01*
X125052978Y-87315344D01*
X125025384Y-87406314D01*
X125016065Y-87500920D01*
X125018401Y-87524635D01*
X125018400Y-92477215D01*
X125016065Y-92500920D01*
X125018400Y-92524625D01*
X125018400Y-92524626D01*
X125025383Y-92595525D01*
X125052978Y-92686496D01*
X125097791Y-92770335D01*
X125158099Y-92843821D01*
X125176518Y-92858937D01*
X125642986Y-93325406D01*
X125658099Y-93343821D01*
X125676512Y-93358932D01*
X125676513Y-93358933D01*
X125698743Y-93377176D01*
X125731585Y-93404129D01*
X125815423Y-93448942D01*
X125906393Y-93476537D01*
X126001000Y-93485855D01*
X126024707Y-93483520D01*
X128958812Y-93483520D01*
X128930317Y-93577458D01*
X128918157Y-93700919D01*
X128918157Y-94350921D01*
X128930317Y-94474382D01*
X128966329Y-94593099D01*
X129024810Y-94702509D01*
X129103512Y-94798408D01*
X129199411Y-94877110D01*
X129302500Y-94932212D01*
X129302500Y-95069716D01*
X129329343Y-95204665D01*
X129381997Y-95331784D01*
X129458439Y-95446188D01*
X129555732Y-95543481D01*
X129670136Y-95619923D01*
X129797255Y-95672577D01*
X129932204Y-95699420D01*
X130069796Y-95699420D01*
X130204745Y-95672577D01*
X130331864Y-95619923D01*
X130446268Y-95543481D01*
X130543561Y-95446188D01*
X130620003Y-95331784D01*
X130672657Y-95204665D01*
X130699500Y-95069716D01*
X130699500Y-94932212D01*
X130802589Y-94877110D01*
X130898488Y-94798408D01*
X130977190Y-94702509D01*
X131035671Y-94593099D01*
X131045918Y-94559320D01*
X131365059Y-94559320D01*
X131417057Y-94611319D01*
X131413157Y-94650920D01*
X131413157Y-96300920D01*
X131423395Y-96404873D01*
X131453717Y-96504830D01*
X131502957Y-96596952D01*
X131569223Y-96677697D01*
X131649968Y-96743963D01*
X131742090Y-96793203D01*
X131842047Y-96823525D01*
X131946000Y-96833763D01*
X132246000Y-96833763D01*
X132349953Y-96823525D01*
X132449910Y-96793203D01*
X132542032Y-96743963D01*
X132622777Y-96677697D01*
X132689043Y-96596952D01*
X132731000Y-96518456D01*
X132772957Y-96596952D01*
X132839223Y-96677697D01*
X132919968Y-96743963D01*
X133012090Y-96793203D01*
X133112047Y-96823525D01*
X133216000Y-96833763D01*
X133516000Y-96833763D01*
X133619953Y-96823525D01*
X133719910Y-96793203D01*
X133812032Y-96743963D01*
X133892777Y-96677697D01*
X133959043Y-96596952D01*
X134001000Y-96518456D01*
X134042957Y-96596952D01*
X134109223Y-96677697D01*
X134159222Y-96718730D01*
X134160384Y-96730526D01*
X134187978Y-96821496D01*
X134231779Y-96903439D01*
X134232792Y-96905335D01*
X134293100Y-96978821D01*
X134311513Y-96993932D01*
X134642987Y-97325407D01*
X134658099Y-97343821D01*
X134731585Y-97404129D01*
X134810271Y-97446188D01*
X134815423Y-97448942D01*
X134906393Y-97476537D01*
X135001000Y-97485855D01*
X135024707Y-97483520D01*
X136477295Y-97483520D01*
X136501000Y-97485855D01*
X136524705Y-97483520D01*
X136524707Y-97483520D01*
X136595606Y-97476537D01*
X136686577Y-97448942D01*
X136770415Y-97404129D01*
X136843901Y-97343821D01*
X136859017Y-97325402D01*
X137325487Y-96858933D01*
X137343901Y-96843821D01*
X137404209Y-96770335D01*
X137449022Y-96686497D01*
X137451691Y-96677697D01*
X137476617Y-96595527D01*
X137485935Y-96500920D01*
X137483600Y-96477213D01*
X137483600Y-94625411D01*
X137524810Y-94702509D01*
X137603512Y-94798408D01*
X137699411Y-94877110D01*
X137808821Y-94935591D01*
X137927538Y-94971603D01*
X138050999Y-94983763D01*
X138704501Y-94983763D01*
X138805491Y-95084753D01*
X138829343Y-95204665D01*
X138881997Y-95331784D01*
X138958439Y-95446188D01*
X139055732Y-95543481D01*
X139170136Y-95619923D01*
X139297255Y-95672577D01*
X139432204Y-95699420D01*
X139569796Y-95699420D01*
X139704745Y-95672577D01*
X139831864Y-95619923D01*
X139946268Y-95543481D01*
X140043561Y-95446188D01*
X140120003Y-95331784D01*
X140172657Y-95204665D01*
X140196509Y-95084752D01*
X140297498Y-94983763D01*
X140951001Y-94983763D01*
X141074462Y-94971603D01*
X141193179Y-94935591D01*
X141302589Y-94877110D01*
X141398488Y-94798408D01*
X141477190Y-94702509D01*
X141518400Y-94625410D01*
X141518401Y-96551019D01*
X139972508Y-98096913D01*
X139954089Y-98112029D01*
X139893781Y-98185515D01*
X139848968Y-98269354D01*
X139821373Y-98360325D01*
X139816676Y-98408019D01*
X139812055Y-98454930D01*
X139814390Y-98478635D01*
X139814390Y-98923834D01*
X139781538Y-98862372D01*
X139728569Y-98797830D01*
X139702185Y-98765681D01*
X139677956Y-98745797D01*
X138756128Y-97823970D01*
X138736239Y-97799735D01*
X138639548Y-97720383D01*
X138529234Y-97661418D01*
X138409536Y-97625108D01*
X138316246Y-97615920D01*
X138316235Y-97615920D01*
X138285054Y-97612849D01*
X138253873Y-97615920D01*
X128782189Y-97615920D01*
X128751000Y-97612848D01*
X128719811Y-97615920D01*
X128719808Y-97615920D01*
X128626518Y-97625108D01*
X128506820Y-97661418D01*
X128396506Y-97720382D01*
X128324043Y-97779851D01*
X128324039Y-97779855D01*
X128299815Y-97799735D01*
X128279934Y-97823960D01*
X127987975Y-98115920D01*
X127732716Y-98115920D01*
X127805922Y-98055842D01*
X127903519Y-97936919D01*
X127976040Y-97801242D01*
X128020699Y-97654023D01*
X128035778Y-97500920D01*
X128020699Y-97347817D01*
X127976040Y-97200598D01*
X127903519Y-97064921D01*
X127805922Y-96945998D01*
X127720531Y-96875920D01*
X127805922Y-96805842D01*
X127903519Y-96686919D01*
X127976040Y-96551242D01*
X128020699Y-96404023D01*
X128035778Y-96250920D01*
X128020699Y-96097817D01*
X127976040Y-95950598D01*
X127903519Y-95814921D01*
X127805922Y-95695998D01*
X127686999Y-95598401D01*
X127551322Y-95525880D01*
X127404103Y-95481221D01*
X127289360Y-95469920D01*
X126712640Y-95469920D01*
X126597897Y-95481221D01*
X126450678Y-95525880D01*
X126315001Y-95598401D01*
X126196078Y-95695998D01*
X126098481Y-95814921D01*
X126025960Y-95950598D01*
X125981301Y-96097817D01*
X125966222Y-96250920D01*
X125981301Y-96404023D01*
X126025960Y-96551242D01*
X126098481Y-96686919D01*
X126196078Y-96805842D01*
X126281469Y-96875920D01*
X126196078Y-96945998D01*
X126098481Y-97064921D01*
X126025960Y-97200598D01*
X125981301Y-97347817D01*
X125966222Y-97500920D01*
X125981301Y-97654023D01*
X126025960Y-97801242D01*
X126098481Y-97936919D01*
X126196078Y-98055842D01*
X126281469Y-98125920D01*
X126196078Y-98195998D01*
X126098481Y-98314921D01*
X126025960Y-98450598D01*
X125981301Y-98597817D01*
X125966222Y-98750920D01*
X125981301Y-98904023D01*
X126025960Y-99051242D01*
X126063716Y-99121878D01*
X125958394Y-99208314D01*
X125854169Y-99335312D01*
X125776722Y-99480204D01*
X125729031Y-99637420D01*
X125712928Y-99800920D01*
X125712928Y-100200920D01*
X125729031Y-100364420D01*
X125776722Y-100521636D01*
X125854169Y-100666528D01*
X125958394Y-100793526D01*
X126085392Y-100897751D01*
X126230284Y-100975198D01*
X126387500Y-101022889D01*
X126551000Y-101038992D01*
X127451000Y-101038992D01*
X127614500Y-101022889D01*
X127771716Y-100975198D01*
X127916608Y-100897751D01*
X128043606Y-100793526D01*
X128147831Y-100666528D01*
X128225278Y-100521636D01*
X128272969Y-100364420D01*
X128289072Y-100200920D01*
X128289072Y-99800920D01*
X128272969Y-99637420D01*
X128225278Y-99480204D01*
X128174882Y-99385920D01*
X128219819Y-99385920D01*
X128251000Y-99388991D01*
X128282181Y-99385920D01*
X128282192Y-99385920D01*
X128375482Y-99376732D01*
X128495180Y-99340422D01*
X128605494Y-99281457D01*
X128702185Y-99202105D01*
X128722074Y-99177870D01*
X129014025Y-98885920D01*
X129107369Y-98885920D01*
X129057613Y-98912515D01*
X128923038Y-99022958D01*
X128812595Y-99157533D01*
X128730528Y-99311069D01*
X128679992Y-99477665D01*
X128662928Y-99650919D01*
X128662928Y-100300921D01*
X128679992Y-100474175D01*
X128730528Y-100640771D01*
X128812595Y-100794307D01*
X128923038Y-100928882D01*
X129057613Y-101039325D01*
X129211149Y-101121392D01*
X129267321Y-101138431D01*
X129199411Y-101174730D01*
X129103512Y-101253432D01*
X129024810Y-101349331D01*
X128966329Y-101458741D01*
X128930317Y-101577458D01*
X128918157Y-101700919D01*
X128918157Y-102350921D01*
X128930317Y-102474382D01*
X128966329Y-102593099D01*
X129024810Y-102702509D01*
X129103512Y-102798408D01*
X129199411Y-102877110D01*
X129302501Y-102932213D01*
X129302501Y-103432119D01*
X129302500Y-103432124D01*
X129302500Y-103466622D01*
X129299122Y-103500920D01*
X129302500Y-103535218D01*
X129302500Y-103569716D01*
X129309230Y-103603548D01*
X129312608Y-103637850D01*
X129322614Y-103670834D01*
X129329343Y-103704665D01*
X129342544Y-103736534D01*
X129352549Y-103769518D01*
X129368797Y-103799916D01*
X129381997Y-103831784D01*
X129401161Y-103860465D01*
X129417409Y-103890863D01*
X129439274Y-103917505D01*
X129458439Y-103946188D01*
X129482839Y-103970588D01*
X129504698Y-103997223D01*
X129531333Y-104019082D01*
X129555732Y-104043481D01*
X129555738Y-104043485D01*
X129732825Y-104220572D01*
X129754697Y-104247223D01*
X129861057Y-104334511D01*
X129982403Y-104399372D01*
X130114070Y-104439313D01*
X130216691Y-104449420D01*
X130216701Y-104449420D01*
X130250999Y-104452798D01*
X130285297Y-104449420D01*
X135215825Y-104449420D01*
X133676518Y-105988727D01*
X133658099Y-106003843D01*
X133597791Y-106077329D01*
X133552978Y-106161168D01*
X133525383Y-106252139D01*
X133520589Y-106300817D01*
X133516065Y-106346744D01*
X133518400Y-106370449D01*
X133518401Y-107233746D01*
X133423459Y-107297184D01*
X133297264Y-107423379D01*
X133198113Y-107571768D01*
X133129817Y-107736649D01*
X133095000Y-107911687D01*
X133095000Y-108090153D01*
X133129817Y-108265191D01*
X133198113Y-108430072D01*
X133252722Y-108511799D01*
X133230289Y-108530209D01*
X133182678Y-108588224D01*
X133147299Y-108654412D01*
X133125513Y-108726231D01*
X133118157Y-108800920D01*
X133118157Y-110400920D01*
X133125513Y-110475609D01*
X133146538Y-110544920D01*
X130855462Y-110544920D01*
X130876487Y-110475609D01*
X130883843Y-110400920D01*
X130883843Y-108800920D01*
X130876487Y-108726231D01*
X130854701Y-108654412D01*
X130819322Y-108588224D01*
X130771711Y-108530209D01*
X130749278Y-108511799D01*
X130803887Y-108430072D01*
X130872183Y-108265191D01*
X130907000Y-108090153D01*
X130907000Y-107911687D01*
X130872183Y-107736649D01*
X130803887Y-107571768D01*
X130704736Y-107423379D01*
X130578541Y-107297184D01*
X130430152Y-107198033D01*
X130265271Y-107129737D01*
X130090233Y-107094920D01*
X129911767Y-107094920D01*
X129859698Y-107105277D01*
X129396696Y-106642275D01*
X129379995Y-106621925D01*
X129298775Y-106555269D01*
X129206111Y-106505739D01*
X129105565Y-106475239D01*
X129027195Y-106467520D01*
X129027187Y-106467520D01*
X129001000Y-106464941D01*
X128974813Y-106467520D01*
X127927746Y-106467520D01*
X127863132Y-106388788D01*
X127859637Y-106385920D01*
X131087975Y-106385920D01*
X131118157Y-106416102D01*
X131118157Y-107200920D01*
X131125513Y-107275609D01*
X131147299Y-107347428D01*
X131182678Y-107413616D01*
X131230289Y-107471631D01*
X131252722Y-107490041D01*
X131198113Y-107571768D01*
X131129817Y-107736649D01*
X131095000Y-107911687D01*
X131095000Y-108090153D01*
X131129817Y-108265191D01*
X131198113Y-108430072D01*
X131297264Y-108578461D01*
X131423459Y-108704656D01*
X131571848Y-108803807D01*
X131736729Y-108872103D01*
X131911767Y-108906920D01*
X132090233Y-108906920D01*
X132265271Y-108872103D01*
X132430152Y-108803807D01*
X132578541Y-108704656D01*
X132704736Y-108578461D01*
X132803887Y-108430072D01*
X132872183Y-108265191D01*
X132907000Y-108090153D01*
X132907000Y-107911687D01*
X132872183Y-107736649D01*
X132803887Y-107571768D01*
X132749278Y-107490041D01*
X132771711Y-107471631D01*
X132819322Y-107413616D01*
X132854701Y-107347428D01*
X132876487Y-107275609D01*
X132883843Y-107200920D01*
X132883843Y-105600920D01*
X132876487Y-105526231D01*
X132854701Y-105454412D01*
X132819322Y-105388224D01*
X132771711Y-105330209D01*
X132713696Y-105282598D01*
X132647508Y-105247219D01*
X132575689Y-105225433D01*
X132501000Y-105218077D01*
X131701180Y-105218077D01*
X131595180Y-105161418D01*
X131475482Y-105125108D01*
X131382192Y-105115920D01*
X131382181Y-105115920D01*
X131351000Y-105112849D01*
X131319819Y-105115920D01*
X128085202Y-105115920D01*
X128115734Y-105078717D01*
X128211841Y-104898913D01*
X128271024Y-104703815D01*
X128291007Y-104500920D01*
X128271024Y-104298025D01*
X128211841Y-104102927D01*
X128115734Y-103923123D01*
X127986396Y-103765524D01*
X127828797Y-103636186D01*
X127648993Y-103540079D01*
X127453895Y-103480896D01*
X127301838Y-103465920D01*
X126700162Y-103465920D01*
X126548105Y-103480896D01*
X126353007Y-103540079D01*
X126173203Y-103636186D01*
X126015604Y-103765524D01*
X125886266Y-103923123D01*
X125790159Y-104102927D01*
X125730976Y-104298025D01*
X125710993Y-104500920D01*
X125730976Y-104703815D01*
X125790159Y-104898913D01*
X125886266Y-105078717D01*
X126015604Y-105236316D01*
X126103674Y-105308593D01*
X126098481Y-105314921D01*
X126025960Y-105450598D01*
X125981301Y-105597817D01*
X125966222Y-105750920D01*
X125981301Y-105904023D01*
X126025960Y-106051242D01*
X126098481Y-106186919D01*
X126196078Y-106305842D01*
X126218008Y-106323839D01*
X126138868Y-106388788D01*
X126066384Y-106477110D01*
X126012523Y-106577876D01*
X125979356Y-106687213D01*
X125968157Y-106800920D01*
X125968157Y-107200920D01*
X125979356Y-107314627D01*
X126012523Y-107423964D01*
X126066384Y-107524730D01*
X126138868Y-107613052D01*
X126227190Y-107685536D01*
X126327956Y-107739397D01*
X126437293Y-107772564D01*
X126551000Y-107783763D01*
X127451000Y-107783763D01*
X127564707Y-107772564D01*
X127674044Y-107739397D01*
X127774810Y-107685536D01*
X127863132Y-107613052D01*
X127927746Y-107534320D01*
X128780059Y-107534320D01*
X129105357Y-107859618D01*
X129095000Y-107911687D01*
X129095000Y-108090153D01*
X129129817Y-108265191D01*
X129198113Y-108430072D01*
X129252722Y-108511799D01*
X129230289Y-108530209D01*
X129182678Y-108588224D01*
X129147299Y-108654412D01*
X129125513Y-108726231D01*
X129118157Y-108800920D01*
X129118157Y-110400920D01*
X129125513Y-110475609D01*
X129146538Y-110544920D01*
X125689881Y-110544920D01*
X122957000Y-107812039D01*
X122957000Y-86189801D01*
X125689881Y-83456920D01*
X131146538Y-83456920D01*
X131125513Y-83526231D01*
G37*
X131125513Y-83526231D02*
X131118157Y-83600920D01*
X131118157Y-85200920D01*
X131125513Y-85275609D01*
X131147299Y-85347428D01*
X131182678Y-85413616D01*
X131230289Y-85471631D01*
X131252722Y-85490041D01*
X131198113Y-85571768D01*
X131130724Y-85734460D01*
X131116422Y-85662560D01*
X131028979Y-85451454D01*
X130902031Y-85261463D01*
X130740457Y-85099889D01*
X130550466Y-84972941D01*
X130339360Y-84885498D01*
X130115250Y-84840920D01*
X129886750Y-84840920D01*
X129662640Y-84885498D01*
X129451534Y-84972941D01*
X129261543Y-85099889D01*
X129099969Y-85261463D01*
X128973021Y-85451454D01*
X128885578Y-85662560D01*
X128841000Y-85886670D01*
X128841000Y-86115170D01*
X128885578Y-86339280D01*
X128947643Y-86489118D01*
X128911498Y-86556740D01*
X128875188Y-86676438D01*
X128862928Y-86800920D01*
X128862928Y-88400920D01*
X128875188Y-88525402D01*
X128911498Y-88645100D01*
X128970463Y-88755414D01*
X129049815Y-88852105D01*
X129146506Y-88931457D01*
X129256820Y-88990422D01*
X129376518Y-89026732D01*
X129501000Y-89038992D01*
X130501000Y-89038992D01*
X130625482Y-89026732D01*
X130745180Y-88990422D01*
X130855494Y-88931457D01*
X130952185Y-88852105D01*
X131031537Y-88755414D01*
X131090502Y-88645100D01*
X131126812Y-88525402D01*
X131139072Y-88400920D01*
X131139072Y-86800920D01*
X131126812Y-86676438D01*
X131090502Y-86556740D01*
X131054357Y-86489118D01*
X131116422Y-86339280D01*
X131130724Y-86267380D01*
X131198113Y-86430072D01*
X131297264Y-86578461D01*
X131423459Y-86704656D01*
X131571848Y-86803807D01*
X131736729Y-86872103D01*
X131911767Y-86906920D01*
X132090233Y-86906920D01*
X132265271Y-86872103D01*
X132430152Y-86803807D01*
X132518401Y-86744841D01*
X132518400Y-88977215D01*
X132516065Y-89000920D01*
X132518400Y-89024625D01*
X132518400Y-89024626D01*
X132525383Y-89095525D01*
X132552978Y-89186496D01*
X132597791Y-89270335D01*
X132658099Y-89343821D01*
X132676517Y-89358937D01*
X132755371Y-89437790D01*
X132731000Y-89483384D01*
X132689043Y-89404888D01*
X132622777Y-89324143D01*
X132542032Y-89257877D01*
X132449910Y-89208637D01*
X132349953Y-89178315D01*
X132246000Y-89168077D01*
X131946000Y-89168077D01*
X131842047Y-89178315D01*
X131742090Y-89208637D01*
X131649968Y-89257877D01*
X131569223Y-89324143D01*
X131502957Y-89404888D01*
X131453717Y-89497010D01*
X131423395Y-89596967D01*
X131413157Y-89700920D01*
X131413157Y-90268320D01*
X127865275Y-90268320D01*
X127805922Y-90195998D01*
X127720531Y-90125920D01*
X127805922Y-90055842D01*
X127903519Y-89936919D01*
X127976040Y-89801242D01*
X128020699Y-89654023D01*
X128035778Y-89500920D01*
X128020699Y-89347817D01*
X127976040Y-89200598D01*
X127903519Y-89064921D01*
X127805922Y-88945998D01*
X127720531Y-88875920D01*
X127805922Y-88805842D01*
X127903519Y-88686919D01*
X127976040Y-88551242D01*
X128020699Y-88404023D01*
X128035778Y-88250920D01*
X128020699Y-88097817D01*
X127976040Y-87950598D01*
X127903519Y-87814921D01*
X127805922Y-87695998D01*
X127720531Y-87625920D01*
X127805922Y-87555842D01*
X127903519Y-87436919D01*
X127976040Y-87301242D01*
X128020699Y-87154023D01*
X128035778Y-87000920D01*
X128020699Y-86847817D01*
X127976040Y-86700598D01*
X127903519Y-86564921D01*
X127805922Y-86445998D01*
X127686999Y-86348401D01*
X127551322Y-86275880D01*
X127404103Y-86231221D01*
X127289360Y-86219920D01*
X126712640Y-86219920D01*
X126597897Y-86231221D01*
X126450678Y-86275880D01*
X126315001Y-86348401D01*
X126196078Y-86445998D01*
X126136725Y-86518320D01*
X126024707Y-86518320D01*
X126001000Y-86515985D01*
X125906393Y-86525303D01*
X125845752Y-86543698D01*
X125815423Y-86552898D01*
X125731585Y-86597711D01*
X125658099Y-86658019D01*
X125642987Y-86676433D01*
X125176513Y-87142908D01*
X125158100Y-87158019D01*
X125142989Y-87176432D01*
X125142987Y-87176434D01*
X125097792Y-87231505D01*
X125052978Y-87315344D01*
X125025384Y-87406314D01*
X125016065Y-87500920D01*
X125018401Y-87524635D01*
X125018400Y-92477215D01*
X125016065Y-92500920D01*
X125018400Y-92524625D01*
X125018400Y-92524626D01*
X125025383Y-92595525D01*
X125052978Y-92686496D01*
X125097791Y-92770335D01*
X125158099Y-92843821D01*
X125176518Y-92858937D01*
X125642986Y-93325406D01*
X125658099Y-93343821D01*
X125676512Y-93358932D01*
X125676513Y-93358933D01*
X125698743Y-93377176D01*
X125731585Y-93404129D01*
X125815423Y-93448942D01*
X125906393Y-93476537D01*
X126001000Y-93485855D01*
X126024707Y-93483520D01*
X128958812Y-93483520D01*
X128930317Y-93577458D01*
X128918157Y-93700919D01*
X128918157Y-94350921D01*
X128930317Y-94474382D01*
X128966329Y-94593099D01*
X129024810Y-94702509D01*
X129103512Y-94798408D01*
X129199411Y-94877110D01*
X129302500Y-94932212D01*
X129302500Y-95069716D01*
X129329343Y-95204665D01*
X129381997Y-95331784D01*
X129458439Y-95446188D01*
X129555732Y-95543481D01*
X129670136Y-95619923D01*
X129797255Y-95672577D01*
X129932204Y-95699420D01*
X130069796Y-95699420D01*
X130204745Y-95672577D01*
X130331864Y-95619923D01*
X130446268Y-95543481D01*
X130543561Y-95446188D01*
X130620003Y-95331784D01*
X130672657Y-95204665D01*
X130699500Y-95069716D01*
X130699500Y-94932212D01*
X130802589Y-94877110D01*
X130898488Y-94798408D01*
X130977190Y-94702509D01*
X131035671Y-94593099D01*
X131045918Y-94559320D01*
X131365059Y-94559320D01*
X131417057Y-94611319D01*
X131413157Y-94650920D01*
X131413157Y-96300920D01*
X131423395Y-96404873D01*
X131453717Y-96504830D01*
X131502957Y-96596952D01*
X131569223Y-96677697D01*
X131649968Y-96743963D01*
X131742090Y-96793203D01*
X131842047Y-96823525D01*
X131946000Y-96833763D01*
X132246000Y-96833763D01*
X132349953Y-96823525D01*
X132449910Y-96793203D01*
X132542032Y-96743963D01*
X132622777Y-96677697D01*
X132689043Y-96596952D01*
X132731000Y-96518456D01*
X132772957Y-96596952D01*
X132839223Y-96677697D01*
X132919968Y-96743963D01*
X133012090Y-96793203D01*
X133112047Y-96823525D01*
X133216000Y-96833763D01*
X133516000Y-96833763D01*
X133619953Y-96823525D01*
X133719910Y-96793203D01*
X133812032Y-96743963D01*
X133892777Y-96677697D01*
X133959043Y-96596952D01*
X134001000Y-96518456D01*
X134042957Y-96596952D01*
X134109223Y-96677697D01*
X134159222Y-96718730D01*
X134160384Y-96730526D01*
X134187978Y-96821496D01*
X134231779Y-96903439D01*
X134232792Y-96905335D01*
X134293100Y-96978821D01*
X134311513Y-96993932D01*
X134642987Y-97325407D01*
X134658099Y-97343821D01*
X134731585Y-97404129D01*
X134810271Y-97446188D01*
X134815423Y-97448942D01*
X134906393Y-97476537D01*
X135001000Y-97485855D01*
X135024707Y-97483520D01*
X136477295Y-97483520D01*
X136501000Y-97485855D01*
X136524705Y-97483520D01*
X136524707Y-97483520D01*
X136595606Y-97476537D01*
X136686577Y-97448942D01*
X136770415Y-97404129D01*
X136843901Y-97343821D01*
X136859017Y-97325402D01*
X137325487Y-96858933D01*
X137343901Y-96843821D01*
X137404209Y-96770335D01*
X137449022Y-96686497D01*
X137451691Y-96677697D01*
X137476617Y-96595527D01*
X137485935Y-96500920D01*
X137483600Y-96477213D01*
X137483600Y-94625411D01*
X137524810Y-94702509D01*
X137603512Y-94798408D01*
X137699411Y-94877110D01*
X137808821Y-94935591D01*
X137927538Y-94971603D01*
X138050999Y-94983763D01*
X138704501Y-94983763D01*
X138805491Y-95084753D01*
X138829343Y-95204665D01*
X138881997Y-95331784D01*
X138958439Y-95446188D01*
X139055732Y-95543481D01*
X139170136Y-95619923D01*
X139297255Y-95672577D01*
X139432204Y-95699420D01*
X139569796Y-95699420D01*
X139704745Y-95672577D01*
X139831864Y-95619923D01*
X139946268Y-95543481D01*
X140043561Y-95446188D01*
X140120003Y-95331784D01*
X140172657Y-95204665D01*
X140196509Y-95084752D01*
X140297498Y-94983763D01*
X140951001Y-94983763D01*
X141074462Y-94971603D01*
X141193179Y-94935591D01*
X141302589Y-94877110D01*
X141398488Y-94798408D01*
X141477190Y-94702509D01*
X141518400Y-94625410D01*
X141518401Y-96551019D01*
X139972508Y-98096913D01*
X139954089Y-98112029D01*
X139893781Y-98185515D01*
X139848968Y-98269354D01*
X139821373Y-98360325D01*
X139816676Y-98408019D01*
X139812055Y-98454930D01*
X139814390Y-98478635D01*
X139814390Y-98923834D01*
X139781538Y-98862372D01*
X139728569Y-98797830D01*
X139702185Y-98765681D01*
X139677956Y-98745797D01*
X138756128Y-97823970D01*
X138736239Y-97799735D01*
X138639548Y-97720383D01*
X138529234Y-97661418D01*
X138409536Y-97625108D01*
X138316246Y-97615920D01*
X138316235Y-97615920D01*
X138285054Y-97612849D01*
X138253873Y-97615920D01*
X128782189Y-97615920D01*
X128751000Y-97612848D01*
X128719811Y-97615920D01*
X128719808Y-97615920D01*
X128626518Y-97625108D01*
X128506820Y-97661418D01*
X128396506Y-97720382D01*
X128324043Y-97779851D01*
X128324039Y-97779855D01*
X128299815Y-97799735D01*
X128279934Y-97823960D01*
X127987975Y-98115920D01*
X127732716Y-98115920D01*
X127805922Y-98055842D01*
X127903519Y-97936919D01*
X127976040Y-97801242D01*
X128020699Y-97654023D01*
X128035778Y-97500920D01*
X128020699Y-97347817D01*
X127976040Y-97200598D01*
X127903519Y-97064921D01*
X127805922Y-96945998D01*
X127720531Y-96875920D01*
X127805922Y-96805842D01*
X127903519Y-96686919D01*
X127976040Y-96551242D01*
X128020699Y-96404023D01*
X128035778Y-96250920D01*
X128020699Y-96097817D01*
X127976040Y-95950598D01*
X127903519Y-95814921D01*
X127805922Y-95695998D01*
X127686999Y-95598401D01*
X127551322Y-95525880D01*
X127404103Y-95481221D01*
X127289360Y-95469920D01*
X126712640Y-95469920D01*
X126597897Y-95481221D01*
X126450678Y-95525880D01*
X126315001Y-95598401D01*
X126196078Y-95695998D01*
X126098481Y-95814921D01*
X126025960Y-95950598D01*
X125981301Y-96097817D01*
X125966222Y-96250920D01*
X125981301Y-96404023D01*
X126025960Y-96551242D01*
X126098481Y-96686919D01*
X126196078Y-96805842D01*
X126281469Y-96875920D01*
X126196078Y-96945998D01*
X126098481Y-97064921D01*
X126025960Y-97200598D01*
X125981301Y-97347817D01*
X125966222Y-97500920D01*
X125981301Y-97654023D01*
X126025960Y-97801242D01*
X126098481Y-97936919D01*
X126196078Y-98055842D01*
X126281469Y-98125920D01*
X126196078Y-98195998D01*
X126098481Y-98314921D01*
X126025960Y-98450598D01*
X125981301Y-98597817D01*
X125966222Y-98750920D01*
X125981301Y-98904023D01*
X126025960Y-99051242D01*
X126063716Y-99121878D01*
X125958394Y-99208314D01*
X125854169Y-99335312D01*
X125776722Y-99480204D01*
X125729031Y-99637420D01*
X125712928Y-99800920D01*
X125712928Y-100200920D01*
X125729031Y-100364420D01*
X125776722Y-100521636D01*
X125854169Y-100666528D01*
X125958394Y-100793526D01*
X126085392Y-100897751D01*
X126230284Y-100975198D01*
X126387500Y-101022889D01*
X126551000Y-101038992D01*
X127451000Y-101038992D01*
X127614500Y-101022889D01*
X127771716Y-100975198D01*
X127916608Y-100897751D01*
X128043606Y-100793526D01*
X128147831Y-100666528D01*
X128225278Y-100521636D01*
X128272969Y-100364420D01*
X128289072Y-100200920D01*
X128289072Y-99800920D01*
X128272969Y-99637420D01*
X128225278Y-99480204D01*
X128174882Y-99385920D01*
X128219819Y-99385920D01*
X128251000Y-99388991D01*
X128282181Y-99385920D01*
X128282192Y-99385920D01*
X128375482Y-99376732D01*
X128495180Y-99340422D01*
X128605494Y-99281457D01*
X128702185Y-99202105D01*
X128722074Y-99177870D01*
X129014025Y-98885920D01*
X129107369Y-98885920D01*
X129057613Y-98912515D01*
X128923038Y-99022958D01*
X128812595Y-99157533D01*
X128730528Y-99311069D01*
X128679992Y-99477665D01*
X128662928Y-99650919D01*
X128662928Y-100300921D01*
X128679992Y-100474175D01*
X128730528Y-100640771D01*
X128812595Y-100794307D01*
X128923038Y-100928882D01*
X129057613Y-101039325D01*
X129211149Y-101121392D01*
X129267321Y-101138431D01*
X129199411Y-101174730D01*
X129103512Y-101253432D01*
X129024810Y-101349331D01*
X128966329Y-101458741D01*
X128930317Y-101577458D01*
X128918157Y-101700919D01*
X128918157Y-102350921D01*
X128930317Y-102474382D01*
X128966329Y-102593099D01*
X129024810Y-102702509D01*
X129103512Y-102798408D01*
X129199411Y-102877110D01*
X129302501Y-102932213D01*
X129302501Y-103432119D01*
X129302500Y-103432124D01*
X129302500Y-103466622D01*
X129299122Y-103500920D01*
X129302500Y-103535218D01*
X129302500Y-103569716D01*
X129309230Y-103603548D01*
X129312608Y-103637850D01*
X129322614Y-103670834D01*
X129329343Y-103704665D01*
X129342544Y-103736534D01*
X129352549Y-103769518D01*
X129368797Y-103799916D01*
X129381997Y-103831784D01*
X129401161Y-103860465D01*
X129417409Y-103890863D01*
X129439274Y-103917505D01*
X129458439Y-103946188D01*
X129482839Y-103970588D01*
X129504698Y-103997223D01*
X129531333Y-104019082D01*
X129555732Y-104043481D01*
X129555738Y-104043485D01*
X129732825Y-104220572D01*
X129754697Y-104247223D01*
X129861057Y-104334511D01*
X129982403Y-104399372D01*
X130114070Y-104439313D01*
X130216691Y-104449420D01*
X130216701Y-104449420D01*
X130250999Y-104452798D01*
X130285297Y-104449420D01*
X135215825Y-104449420D01*
X133676518Y-105988727D01*
X133658099Y-106003843D01*
X133597791Y-106077329D01*
X133552978Y-106161168D01*
X133525383Y-106252139D01*
X133520589Y-106300817D01*
X133516065Y-106346744D01*
X133518400Y-106370449D01*
X133518401Y-107233746D01*
X133423459Y-107297184D01*
X133297264Y-107423379D01*
X133198113Y-107571768D01*
X133129817Y-107736649D01*
X133095000Y-107911687D01*
X133095000Y-108090153D01*
X133129817Y-108265191D01*
X133198113Y-108430072D01*
X133252722Y-108511799D01*
X133230289Y-108530209D01*
X133182678Y-108588224D01*
X133147299Y-108654412D01*
X133125513Y-108726231D01*
X133118157Y-108800920D01*
X133118157Y-110400920D01*
X133125513Y-110475609D01*
X133146538Y-110544920D01*
X130855462Y-110544920D01*
X130876487Y-110475609D01*
X130883843Y-110400920D01*
X130883843Y-108800920D01*
X130876487Y-108726231D01*
X130854701Y-108654412D01*
X130819322Y-108588224D01*
X130771711Y-108530209D01*
X130749278Y-108511799D01*
X130803887Y-108430072D01*
X130872183Y-108265191D01*
X130907000Y-108090153D01*
X130907000Y-107911687D01*
X130872183Y-107736649D01*
X130803887Y-107571768D01*
X130704736Y-107423379D01*
X130578541Y-107297184D01*
X130430152Y-107198033D01*
X130265271Y-107129737D01*
X130090233Y-107094920D01*
X129911767Y-107094920D01*
X129859698Y-107105277D01*
X129396696Y-106642275D01*
X129379995Y-106621925D01*
X129298775Y-106555269D01*
X129206111Y-106505739D01*
X129105565Y-106475239D01*
X129027195Y-106467520D01*
X129027187Y-106467520D01*
X129001000Y-106464941D01*
X128974813Y-106467520D01*
X127927746Y-106467520D01*
X127863132Y-106388788D01*
X127859637Y-106385920D01*
X131087975Y-106385920D01*
X131118157Y-106416102D01*
X131118157Y-107200920D01*
X131125513Y-107275609D01*
X131147299Y-107347428D01*
X131182678Y-107413616D01*
X131230289Y-107471631D01*
X131252722Y-107490041D01*
X131198113Y-107571768D01*
X131129817Y-107736649D01*
X131095000Y-107911687D01*
X131095000Y-108090153D01*
X131129817Y-108265191D01*
X131198113Y-108430072D01*
X131297264Y-108578461D01*
X131423459Y-108704656D01*
X131571848Y-108803807D01*
X131736729Y-108872103D01*
X131911767Y-108906920D01*
X132090233Y-108906920D01*
X132265271Y-108872103D01*
X132430152Y-108803807D01*
X132578541Y-108704656D01*
X132704736Y-108578461D01*
X132803887Y-108430072D01*
X132872183Y-108265191D01*
X132907000Y-108090153D01*
X132907000Y-107911687D01*
X132872183Y-107736649D01*
X132803887Y-107571768D01*
X132749278Y-107490041D01*
X132771711Y-107471631D01*
X132819322Y-107413616D01*
X132854701Y-107347428D01*
X132876487Y-107275609D01*
X132883843Y-107200920D01*
X132883843Y-105600920D01*
X132876487Y-105526231D01*
X132854701Y-105454412D01*
X132819322Y-105388224D01*
X132771711Y-105330209D01*
X132713696Y-105282598D01*
X132647508Y-105247219D01*
X132575689Y-105225433D01*
X132501000Y-105218077D01*
X131701180Y-105218077D01*
X131595180Y-105161418D01*
X131475482Y-105125108D01*
X131382192Y-105115920D01*
X131382181Y-105115920D01*
X131351000Y-105112849D01*
X131319819Y-105115920D01*
X128085202Y-105115920D01*
X128115734Y-105078717D01*
X128211841Y-104898913D01*
X128271024Y-104703815D01*
X128291007Y-104500920D01*
X128271024Y-104298025D01*
X128211841Y-104102927D01*
X128115734Y-103923123D01*
X127986396Y-103765524D01*
X127828797Y-103636186D01*
X127648993Y-103540079D01*
X127453895Y-103480896D01*
X127301838Y-103465920D01*
X126700162Y-103465920D01*
X126548105Y-103480896D01*
X126353007Y-103540079D01*
X126173203Y-103636186D01*
X126015604Y-103765524D01*
X125886266Y-103923123D01*
X125790159Y-104102927D01*
X125730976Y-104298025D01*
X125710993Y-104500920D01*
X125730976Y-104703815D01*
X125790159Y-104898913D01*
X125886266Y-105078717D01*
X126015604Y-105236316D01*
X126103674Y-105308593D01*
X126098481Y-105314921D01*
X126025960Y-105450598D01*
X125981301Y-105597817D01*
X125966222Y-105750920D01*
X125981301Y-105904023D01*
X126025960Y-106051242D01*
X126098481Y-106186919D01*
X126196078Y-106305842D01*
X126218008Y-106323839D01*
X126138868Y-106388788D01*
X126066384Y-106477110D01*
X126012523Y-106577876D01*
X125979356Y-106687213D01*
X125968157Y-106800920D01*
X125968157Y-107200920D01*
X125979356Y-107314627D01*
X126012523Y-107423964D01*
X126066384Y-107524730D01*
X126138868Y-107613052D01*
X126227190Y-107685536D01*
X126327956Y-107739397D01*
X126437293Y-107772564D01*
X126551000Y-107783763D01*
X127451000Y-107783763D01*
X127564707Y-107772564D01*
X127674044Y-107739397D01*
X127774810Y-107685536D01*
X127863132Y-107613052D01*
X127927746Y-107534320D01*
X128780059Y-107534320D01*
X129105357Y-107859618D01*
X129095000Y-107911687D01*
X129095000Y-108090153D01*
X129129817Y-108265191D01*
X129198113Y-108430072D01*
X129252722Y-108511799D01*
X129230289Y-108530209D01*
X129182678Y-108588224D01*
X129147299Y-108654412D01*
X129125513Y-108726231D01*
X129118157Y-108800920D01*
X129118157Y-110400920D01*
X129125513Y-110475609D01*
X129146538Y-110544920D01*
X125689881Y-110544920D01*
X122957000Y-107812039D01*
X122957000Y-86189801D01*
X125689881Y-83456920D01*
X131146538Y-83456920D01*
X131125513Y-83526231D01*
G36*
X147125513Y-83526231D02*
G01*
X147118157Y-83600920D01*
X147118157Y-85200920D01*
X147125513Y-85275609D01*
X147134761Y-85306097D01*
X147122299Y-85329412D01*
X147100513Y-85401231D01*
X147093157Y-85475920D01*
X147093157Y-86525920D01*
X147100513Y-86600609D01*
X147122299Y-86672428D01*
X147157678Y-86738616D01*
X147205289Y-86796631D01*
X147263304Y-86844242D01*
X147329492Y-86879621D01*
X147401311Y-86901407D01*
X147476000Y-86908763D01*
X148526000Y-86908763D01*
X148600689Y-86901407D01*
X148672508Y-86879621D01*
X148738696Y-86844242D01*
X148796711Y-86796631D01*
X148844322Y-86738616D01*
X148879701Y-86672428D01*
X148901487Y-86600609D01*
X148908843Y-86525920D01*
X148908843Y-85475920D01*
X148901487Y-85401231D01*
X148879701Y-85329412D01*
X148867239Y-85306097D01*
X148876487Y-85275609D01*
X148883843Y-85200920D01*
X148883843Y-83600920D01*
X148876487Y-83526231D01*
X148855462Y-83456920D01*
X152312119Y-83456920D01*
X155045000Y-86189801D01*
X155045001Y-107812038D01*
X152312119Y-110544920D01*
X146855462Y-110544920D01*
X146876487Y-110475609D01*
X146883843Y-110400920D01*
X146883843Y-108800920D01*
X146876487Y-108726231D01*
X146854701Y-108654412D01*
X146819322Y-108588224D01*
X146771711Y-108530209D01*
X146749278Y-108511799D01*
X146803887Y-108430072D01*
X146872183Y-108265191D01*
X146907000Y-108090153D01*
X146907000Y-107911687D01*
X146872183Y-107736649D01*
X146803887Y-107571768D01*
X146704736Y-107423379D01*
X146578541Y-107297184D01*
X146430152Y-107198033D01*
X146265271Y-107129737D01*
X146090233Y-107094920D01*
X145911767Y-107094920D01*
X145736729Y-107129737D01*
X145571848Y-107198033D01*
X145423459Y-107297184D01*
X145297264Y-107423379D01*
X145198113Y-107571768D01*
X145129817Y-107736649D01*
X145095000Y-107911687D01*
X145095000Y-108090153D01*
X145129817Y-108265191D01*
X145198113Y-108430072D01*
X145252722Y-108511799D01*
X145230289Y-108530209D01*
X145182678Y-108588224D01*
X145147299Y-108654412D01*
X145125513Y-108726231D01*
X145118157Y-108800920D01*
X145118157Y-110400920D01*
X145125513Y-110475609D01*
X145146538Y-110544920D01*
X142855462Y-110544920D01*
X142876487Y-110475609D01*
X142883843Y-110400920D01*
X142883843Y-108800920D01*
X142876487Y-108726231D01*
X142854701Y-108654412D01*
X142819322Y-108588224D01*
X142771711Y-108530209D01*
X142749278Y-108511799D01*
X142803887Y-108430072D01*
X142872183Y-108265191D01*
X142907000Y-108090153D01*
X142907000Y-107911687D01*
X142872183Y-107736649D01*
X142803887Y-107571768D01*
X142704736Y-107423379D01*
X142578541Y-107297184D01*
X142483600Y-107233746D01*
X142483600Y-106843617D01*
X143118157Y-106209061D01*
X143118157Y-107200920D01*
X143125513Y-107275609D01*
X143147299Y-107347428D01*
X143182678Y-107413616D01*
X143230289Y-107471631D01*
X143252722Y-107490041D01*
X143198113Y-107571768D01*
X143129817Y-107736649D01*
X143095000Y-107911687D01*
X143095000Y-108090153D01*
X143129817Y-108265191D01*
X143198113Y-108430072D01*
X143297264Y-108578461D01*
X143423459Y-108704656D01*
X143571848Y-108803807D01*
X143736729Y-108872103D01*
X143911767Y-108906920D01*
X144090233Y-108906920D01*
X144265271Y-108872103D01*
X144430152Y-108803807D01*
X144578541Y-108704656D01*
X144704736Y-108578461D01*
X144803887Y-108430072D01*
X144872183Y-108265191D01*
X144907000Y-108090153D01*
X144907000Y-107911687D01*
X144872183Y-107736649D01*
X144803887Y-107571768D01*
X144749278Y-107490041D01*
X144771711Y-107471631D01*
X144819322Y-107413616D01*
X144854701Y-107347428D01*
X144876487Y-107275609D01*
X144883843Y-107200920D01*
X144883843Y-105829519D01*
X147118157Y-105829519D01*
X147118157Y-107200920D01*
X147125513Y-107275609D01*
X147134761Y-107306097D01*
X147122299Y-107329412D01*
X147100513Y-107401231D01*
X147093157Y-107475920D01*
X147093157Y-108525920D01*
X147100513Y-108600609D01*
X147122299Y-108672428D01*
X147157678Y-108738616D01*
X147205289Y-108796631D01*
X147263304Y-108844242D01*
X147329492Y-108879621D01*
X147401311Y-108901407D01*
X147476000Y-108908763D01*
X148526000Y-108908763D01*
X148600689Y-108901407D01*
X148672508Y-108879621D01*
X148738696Y-108844242D01*
X148796711Y-108796631D01*
X148844322Y-108738616D01*
X148879701Y-108672428D01*
X148901487Y-108600609D01*
X148908843Y-108525920D01*
X148908843Y-107475920D01*
X148901487Y-107401231D01*
X148879701Y-107329412D01*
X148867239Y-107306097D01*
X148876487Y-107275609D01*
X148883843Y-107200920D01*
X148883843Y-105829519D01*
X149131296Y-105829519D01*
X149155001Y-105831854D01*
X149178706Y-105829519D01*
X149178708Y-105829519D01*
X149249607Y-105822536D01*
X149340578Y-105794941D01*
X149424416Y-105750128D01*
X149497902Y-105689820D01*
X149513018Y-105671401D01*
X149950900Y-105233520D01*
X150136725Y-105233520D01*
X150196078Y-105305842D01*
X150281469Y-105375920D01*
X150196078Y-105445998D01*
X150098481Y-105564921D01*
X150025960Y-105700598D01*
X149981301Y-105847817D01*
X149966222Y-106000920D01*
X149981301Y-106154023D01*
X150025960Y-106301242D01*
X150098481Y-106436919D01*
X150196078Y-106555842D01*
X150315001Y-106653439D01*
X150450678Y-106725960D01*
X150597897Y-106770619D01*
X150712640Y-106781920D01*
X151289360Y-106781920D01*
X151404103Y-106770619D01*
X151551322Y-106725960D01*
X151686999Y-106653439D01*
X151805922Y-106555842D01*
X151903519Y-106436919D01*
X151976040Y-106301242D01*
X152020699Y-106154023D01*
X152035778Y-106000920D01*
X152020699Y-105847817D01*
X151976040Y-105700598D01*
X151903519Y-105564921D01*
X151805922Y-105445998D01*
X151720531Y-105375920D01*
X151805922Y-105305842D01*
X151903519Y-105186919D01*
X151976040Y-105051242D01*
X152020699Y-104904023D01*
X152035778Y-104750920D01*
X152020699Y-104597817D01*
X151976040Y-104450598D01*
X151903519Y-104314921D01*
X151805922Y-104195998D01*
X151783992Y-104178001D01*
X151863132Y-104113052D01*
X151935616Y-104024730D01*
X151989477Y-103923964D01*
X152022644Y-103814627D01*
X152033843Y-103700920D01*
X152033843Y-103300920D01*
X152022644Y-103187213D01*
X151989477Y-103077876D01*
X151935616Y-102977110D01*
X151863132Y-102888788D01*
X151774810Y-102816304D01*
X151674044Y-102762443D01*
X151564707Y-102729276D01*
X151451000Y-102718077D01*
X150551000Y-102718077D01*
X150437293Y-102729276D01*
X150327956Y-102762443D01*
X150227190Y-102816304D01*
X150138868Y-102888788D01*
X150066384Y-102977110D01*
X150012523Y-103077876D01*
X149979356Y-103187213D01*
X149968157Y-103300920D01*
X149968157Y-103340199D01*
X148799647Y-104508709D01*
X143758910Y-104508709D01*
X144575482Y-103692137D01*
X144576831Y-103691030D01*
X144631820Y-103720422D01*
X144751518Y-103756732D01*
X144876000Y-103768992D01*
X145526000Y-103768992D01*
X145650482Y-103756732D01*
X145770180Y-103720422D01*
X145880494Y-103661457D01*
X145977185Y-103582105D01*
X146056537Y-103485414D01*
X146115502Y-103375100D01*
X146151812Y-103255402D01*
X146164072Y-103130920D01*
X146164072Y-101784320D01*
X146168157Y-101784320D01*
X146168157Y-102350921D01*
X146180317Y-102474382D01*
X146216329Y-102593099D01*
X146274810Y-102702509D01*
X146353512Y-102798408D01*
X146449411Y-102877110D01*
X146558821Y-102935591D01*
X146677538Y-102971603D01*
X146800999Y-102983763D01*
X147701001Y-102983763D01*
X147824462Y-102971603D01*
X147943179Y-102935591D01*
X148052589Y-102877110D01*
X148148488Y-102798408D01*
X148227190Y-102702509D01*
X148285671Y-102593099D01*
X148321683Y-102474382D01*
X148333843Y-102350921D01*
X148333843Y-101700919D01*
X148321683Y-101577458D01*
X148285671Y-101458741D01*
X148227190Y-101349331D01*
X148148488Y-101253432D01*
X148052589Y-101174730D01*
X147984679Y-101138431D01*
X148040851Y-101121392D01*
X148194387Y-101039325D01*
X148328962Y-100928882D01*
X148439405Y-100794307D01*
X148521472Y-100640771D01*
X148572008Y-100474175D01*
X148589072Y-100300921D01*
X148589072Y-99650919D01*
X148572008Y-99477665D01*
X148521472Y-99311069D01*
X148439405Y-99157533D01*
X148328962Y-99022958D01*
X148194387Y-98912515D01*
X148040851Y-98830448D01*
X147874255Y-98779912D01*
X147701001Y-98762848D01*
X146800999Y-98762848D01*
X146627745Y-98779912D01*
X146461149Y-98830448D01*
X146307613Y-98912515D01*
X146173038Y-99022958D01*
X146062595Y-99157533D01*
X145980528Y-99311069D01*
X145929992Y-99477665D01*
X145912928Y-99650919D01*
X145912928Y-100056254D01*
X145908843Y-100057067D01*
X145908843Y-98870920D01*
X145901487Y-98796231D01*
X145879701Y-98724412D01*
X145844322Y-98658224D01*
X145796711Y-98600209D01*
X145738696Y-98552598D01*
X145672508Y-98517219D01*
X145600689Y-98495433D01*
X145526000Y-98488077D01*
X144876000Y-98488077D01*
X144801311Y-98495433D01*
X144729492Y-98517219D01*
X144726000Y-98519086D01*
X144722508Y-98517219D01*
X144715847Y-98515198D01*
X144699022Y-98459733D01*
X144654209Y-98375895D01*
X144593901Y-98302409D01*
X144575488Y-98287298D01*
X142929395Y-96641206D01*
X142954492Y-96654621D01*
X143026311Y-96676407D01*
X143101000Y-96683763D01*
X144401000Y-96683763D01*
X144475689Y-96676407D01*
X144547508Y-96654621D01*
X144613696Y-96619242D01*
X144626000Y-96609145D01*
X144638304Y-96619242D01*
X144704492Y-96654621D01*
X144776311Y-96676407D01*
X144851000Y-96683763D01*
X144876319Y-96683763D01*
X144829343Y-96797175D01*
X144802500Y-96932124D01*
X144802500Y-97069716D01*
X144829343Y-97204665D01*
X144881997Y-97331784D01*
X144958439Y-97446188D01*
X145055732Y-97543481D01*
X145170136Y-97619923D01*
X145297255Y-97672577D01*
X145432204Y-97699420D01*
X145569796Y-97699420D01*
X145704745Y-97672577D01*
X145831864Y-97619923D01*
X145946268Y-97543481D01*
X146043561Y-97446188D01*
X146120003Y-97331784D01*
X146172657Y-97204665D01*
X146199500Y-97069716D01*
X146199500Y-96932124D01*
X146172657Y-96797175D01*
X146125681Y-96683763D01*
X146151000Y-96683763D01*
X146225689Y-96676407D01*
X146297508Y-96654621D01*
X146363696Y-96619242D01*
X146376000Y-96609145D01*
X146388304Y-96619242D01*
X146454492Y-96654621D01*
X146526311Y-96676407D01*
X146601000Y-96683763D01*
X147601344Y-96683763D01*
X149992988Y-99075408D01*
X150008099Y-99093821D01*
X150080462Y-99153207D01*
X150098481Y-99186919D01*
X150196078Y-99305842D01*
X150315001Y-99403439D01*
X150450678Y-99475960D01*
X150597897Y-99520619D01*
X150712640Y-99531920D01*
X151289360Y-99531920D01*
X151404103Y-99520619D01*
X151551322Y-99475960D01*
X151686999Y-99403439D01*
X151805922Y-99305842D01*
X151903519Y-99186919D01*
X151976040Y-99051242D01*
X152020699Y-98904023D01*
X152035778Y-98750920D01*
X152020699Y-98597817D01*
X151976040Y-98450598D01*
X151903519Y-98314921D01*
X151805922Y-98195998D01*
X151720531Y-98125920D01*
X151805922Y-98055842D01*
X151865275Y-97983520D01*
X151977295Y-97983520D01*
X152001000Y-97985855D01*
X152024705Y-97983520D01*
X152024707Y-97983520D01*
X152095606Y-97976537D01*
X152186577Y-97948942D01*
X152270415Y-97904129D01*
X152343901Y-97843821D01*
X152359017Y-97825402D01*
X152825487Y-97358933D01*
X152843901Y-97343821D01*
X152904209Y-97270335D01*
X152949022Y-97186497D01*
X152949022Y-97186496D01*
X152976617Y-97095527D01*
X152985935Y-97000920D01*
X152983600Y-96977213D01*
X152983600Y-94628582D01*
X152985934Y-94604885D01*
X152983600Y-94581188D01*
X152983600Y-94581179D01*
X152976617Y-94510280D01*
X152949022Y-94419309D01*
X152904209Y-94335471D01*
X152843901Y-94261985D01*
X152825482Y-94246869D01*
X148605051Y-90026438D01*
X148589935Y-90008019D01*
X148516449Y-89947711D01*
X148432611Y-89902898D01*
X148341640Y-89875303D01*
X148283843Y-89869610D01*
X148283843Y-89839130D01*
X148660312Y-89839130D01*
X149396584Y-90575402D01*
X149411700Y-90593821D01*
X149485186Y-90654129D01*
X149569024Y-90698942D01*
X149659995Y-90726537D01*
X149730894Y-90733520D01*
X149730903Y-90733520D01*
X149754600Y-90735854D01*
X149778297Y-90733520D01*
X150136725Y-90733520D01*
X150196078Y-90805842D01*
X150315001Y-90903439D01*
X150450678Y-90975960D01*
X150597897Y-91020619D01*
X150712640Y-91031920D01*
X151289360Y-91031920D01*
X151404103Y-91020619D01*
X151551322Y-90975960D01*
X151686999Y-90903439D01*
X151805922Y-90805842D01*
X151903519Y-90686919D01*
X151976040Y-90551242D01*
X152020699Y-90404023D01*
X152035778Y-90250920D01*
X152020699Y-90097817D01*
X151976040Y-89950598D01*
X151903519Y-89814921D01*
X151805922Y-89695998D01*
X151783992Y-89678001D01*
X151863132Y-89613052D01*
X151935616Y-89524730D01*
X151989477Y-89423964D01*
X152022644Y-89314627D01*
X152033843Y-89200920D01*
X152033843Y-88800920D01*
X152022644Y-88687213D01*
X151989477Y-88577876D01*
X151935616Y-88477110D01*
X151863132Y-88388788D01*
X151774810Y-88316304D01*
X151674044Y-88262443D01*
X151564707Y-88229276D01*
X151451000Y-88218077D01*
X150551000Y-88218077D01*
X150437293Y-88229276D01*
X150327956Y-88262443D01*
X150227190Y-88316304D01*
X150138868Y-88388788D01*
X150066384Y-88477110D01*
X150044357Y-88518320D01*
X146863531Y-88518320D01*
X146876487Y-88475609D01*
X146883843Y-88400920D01*
X146883843Y-86800920D01*
X146876487Y-86726231D01*
X146854701Y-86654412D01*
X146819322Y-86588224D01*
X146771711Y-86530209D01*
X146749278Y-86511799D01*
X146803887Y-86430072D01*
X146872183Y-86265191D01*
X146907000Y-86090153D01*
X146907000Y-85911687D01*
X146872183Y-85736649D01*
X146803887Y-85571768D01*
X146704736Y-85423379D01*
X146578541Y-85297184D01*
X146430152Y-85198033D01*
X146265271Y-85129737D01*
X146090233Y-85094920D01*
X145911767Y-85094920D01*
X145736729Y-85129737D01*
X145571848Y-85198033D01*
X145423459Y-85297184D01*
X145297264Y-85423379D01*
X145198113Y-85571768D01*
X145129817Y-85736649D01*
X145095000Y-85911687D01*
X145095000Y-86090153D01*
X145129817Y-86265191D01*
X145198113Y-86430072D01*
X145252722Y-86511799D01*
X145230289Y-86530209D01*
X145182678Y-86588224D01*
X145147299Y-86654412D01*
X145125513Y-86726231D01*
X145118157Y-86800920D01*
X145118157Y-87792779D01*
X144208727Y-86883350D01*
X144265271Y-86872103D01*
X144430152Y-86803807D01*
X144578541Y-86704656D01*
X144704736Y-86578461D01*
X144803887Y-86430072D01*
X144872183Y-86265191D01*
X144907000Y-86090153D01*
X144907000Y-85911687D01*
X144872183Y-85736649D01*
X144803887Y-85571768D01*
X144749278Y-85490041D01*
X144771711Y-85471631D01*
X144819322Y-85413616D01*
X144854701Y-85347428D01*
X144876487Y-85275609D01*
X144883843Y-85200920D01*
X144883843Y-83600920D01*
X144876487Y-83526231D01*
X144855462Y-83456920D01*
X147146538Y-83456920D01*
X147125513Y-83526231D01*
G37*
X147125513Y-83526231D02*
X147118157Y-83600920D01*
X147118157Y-85200920D01*
X147125513Y-85275609D01*
X147134761Y-85306097D01*
X147122299Y-85329412D01*
X147100513Y-85401231D01*
X147093157Y-85475920D01*
X147093157Y-86525920D01*
X147100513Y-86600609D01*
X147122299Y-86672428D01*
X147157678Y-86738616D01*
X147205289Y-86796631D01*
X147263304Y-86844242D01*
X147329492Y-86879621D01*
X147401311Y-86901407D01*
X147476000Y-86908763D01*
X148526000Y-86908763D01*
X148600689Y-86901407D01*
X148672508Y-86879621D01*
X148738696Y-86844242D01*
X148796711Y-86796631D01*
X148844322Y-86738616D01*
X148879701Y-86672428D01*
X148901487Y-86600609D01*
X148908843Y-86525920D01*
X148908843Y-85475920D01*
X148901487Y-85401231D01*
X148879701Y-85329412D01*
X148867239Y-85306097D01*
X148876487Y-85275609D01*
X148883843Y-85200920D01*
X148883843Y-83600920D01*
X148876487Y-83526231D01*
X148855462Y-83456920D01*
X152312119Y-83456920D01*
X155045000Y-86189801D01*
X155045001Y-107812038D01*
X152312119Y-110544920D01*
X146855462Y-110544920D01*
X146876487Y-110475609D01*
X146883843Y-110400920D01*
X146883843Y-108800920D01*
X146876487Y-108726231D01*
X146854701Y-108654412D01*
X146819322Y-108588224D01*
X146771711Y-108530209D01*
X146749278Y-108511799D01*
X146803887Y-108430072D01*
X146872183Y-108265191D01*
X146907000Y-108090153D01*
X146907000Y-107911687D01*
X146872183Y-107736649D01*
X146803887Y-107571768D01*
X146704736Y-107423379D01*
X146578541Y-107297184D01*
X146430152Y-107198033D01*
X146265271Y-107129737D01*
X146090233Y-107094920D01*
X145911767Y-107094920D01*
X145736729Y-107129737D01*
X145571848Y-107198033D01*
X145423459Y-107297184D01*
X145297264Y-107423379D01*
X145198113Y-107571768D01*
X145129817Y-107736649D01*
X145095000Y-107911687D01*
X145095000Y-108090153D01*
X145129817Y-108265191D01*
X145198113Y-108430072D01*
X145252722Y-108511799D01*
X145230289Y-108530209D01*
X145182678Y-108588224D01*
X145147299Y-108654412D01*
X145125513Y-108726231D01*
X145118157Y-108800920D01*
X145118157Y-110400920D01*
X145125513Y-110475609D01*
X145146538Y-110544920D01*
X142855462Y-110544920D01*
X142876487Y-110475609D01*
X142883843Y-110400920D01*
X142883843Y-108800920D01*
X142876487Y-108726231D01*
X142854701Y-108654412D01*
X142819322Y-108588224D01*
X142771711Y-108530209D01*
X142749278Y-108511799D01*
X142803887Y-108430072D01*
X142872183Y-108265191D01*
X142907000Y-108090153D01*
X142907000Y-107911687D01*
X142872183Y-107736649D01*
X142803887Y-107571768D01*
X142704736Y-107423379D01*
X142578541Y-107297184D01*
X142483600Y-107233746D01*
X142483600Y-106843617D01*
X143118157Y-106209061D01*
X143118157Y-107200920D01*
X143125513Y-107275609D01*
X143147299Y-107347428D01*
X143182678Y-107413616D01*
X143230289Y-107471631D01*
X143252722Y-107490041D01*
X143198113Y-107571768D01*
X143129817Y-107736649D01*
X143095000Y-107911687D01*
X143095000Y-108090153D01*
X143129817Y-108265191D01*
X143198113Y-108430072D01*
X143297264Y-108578461D01*
X143423459Y-108704656D01*
X143571848Y-108803807D01*
X143736729Y-108872103D01*
X143911767Y-108906920D01*
X144090233Y-108906920D01*
X144265271Y-108872103D01*
X144430152Y-108803807D01*
X144578541Y-108704656D01*
X144704736Y-108578461D01*
X144803887Y-108430072D01*
X144872183Y-108265191D01*
X144907000Y-108090153D01*
X144907000Y-107911687D01*
X144872183Y-107736649D01*
X144803887Y-107571768D01*
X144749278Y-107490041D01*
X144771711Y-107471631D01*
X144819322Y-107413616D01*
X144854701Y-107347428D01*
X144876487Y-107275609D01*
X144883843Y-107200920D01*
X144883843Y-105829519D01*
X147118157Y-105829519D01*
X147118157Y-107200920D01*
X147125513Y-107275609D01*
X147134761Y-107306097D01*
X147122299Y-107329412D01*
X147100513Y-107401231D01*
X147093157Y-107475920D01*
X147093157Y-108525920D01*
X147100513Y-108600609D01*
X147122299Y-108672428D01*
X147157678Y-108738616D01*
X147205289Y-108796631D01*
X147263304Y-108844242D01*
X147329492Y-108879621D01*
X147401311Y-108901407D01*
X147476000Y-108908763D01*
X148526000Y-108908763D01*
X148600689Y-108901407D01*
X148672508Y-108879621D01*
X148738696Y-108844242D01*
X148796711Y-108796631D01*
X148844322Y-108738616D01*
X148879701Y-108672428D01*
X148901487Y-108600609D01*
X148908843Y-108525920D01*
X148908843Y-107475920D01*
X148901487Y-107401231D01*
X148879701Y-107329412D01*
X148867239Y-107306097D01*
X148876487Y-107275609D01*
X148883843Y-107200920D01*
X148883843Y-105829519D01*
X149131296Y-105829519D01*
X149155001Y-105831854D01*
X149178706Y-105829519D01*
X149178708Y-105829519D01*
X149249607Y-105822536D01*
X149340578Y-105794941D01*
X149424416Y-105750128D01*
X149497902Y-105689820D01*
X149513018Y-105671401D01*
X149950900Y-105233520D01*
X150136725Y-105233520D01*
X150196078Y-105305842D01*
X150281469Y-105375920D01*
X150196078Y-105445998D01*
X150098481Y-105564921D01*
X150025960Y-105700598D01*
X149981301Y-105847817D01*
X149966222Y-106000920D01*
X149981301Y-106154023D01*
X150025960Y-106301242D01*
X150098481Y-106436919D01*
X150196078Y-106555842D01*
X150315001Y-106653439D01*
X150450678Y-106725960D01*
X150597897Y-106770619D01*
X150712640Y-106781920D01*
X151289360Y-106781920D01*
X151404103Y-106770619D01*
X151551322Y-106725960D01*
X151686999Y-106653439D01*
X151805922Y-106555842D01*
X151903519Y-106436919D01*
X151976040Y-106301242D01*
X152020699Y-106154023D01*
X152035778Y-106000920D01*
X152020699Y-105847817D01*
X151976040Y-105700598D01*
X151903519Y-105564921D01*
X151805922Y-105445998D01*
X151720531Y-105375920D01*
X151805922Y-105305842D01*
X151903519Y-105186919D01*
X151976040Y-105051242D01*
X152020699Y-104904023D01*
X152035778Y-104750920D01*
X152020699Y-104597817D01*
X151976040Y-104450598D01*
X151903519Y-104314921D01*
X151805922Y-104195998D01*
X151783992Y-104178001D01*
X151863132Y-104113052D01*
X151935616Y-104024730D01*
X151989477Y-103923964D01*
X152022644Y-103814627D01*
X152033843Y-103700920D01*
X152033843Y-103300920D01*
X152022644Y-103187213D01*
X151989477Y-103077876D01*
X151935616Y-102977110D01*
X151863132Y-102888788D01*
X151774810Y-102816304D01*
X151674044Y-102762443D01*
X151564707Y-102729276D01*
X151451000Y-102718077D01*
X150551000Y-102718077D01*
X150437293Y-102729276D01*
X150327956Y-102762443D01*
X150227190Y-102816304D01*
X150138868Y-102888788D01*
X150066384Y-102977110D01*
X150012523Y-103077876D01*
X149979356Y-103187213D01*
X149968157Y-103300920D01*
X149968157Y-103340199D01*
X148799647Y-104508709D01*
X143758910Y-104508709D01*
X144575482Y-103692137D01*
X144576831Y-103691030D01*
X144631820Y-103720422D01*
X144751518Y-103756732D01*
X144876000Y-103768992D01*
X145526000Y-103768992D01*
X145650482Y-103756732D01*
X145770180Y-103720422D01*
X145880494Y-103661457D01*
X145977185Y-103582105D01*
X146056537Y-103485414D01*
X146115502Y-103375100D01*
X146151812Y-103255402D01*
X146164072Y-103130920D01*
X146164072Y-101784320D01*
X146168157Y-101784320D01*
X146168157Y-102350921D01*
X146180317Y-102474382D01*
X146216329Y-102593099D01*
X146274810Y-102702509D01*
X146353512Y-102798408D01*
X146449411Y-102877110D01*
X146558821Y-102935591D01*
X146677538Y-102971603D01*
X146800999Y-102983763D01*
X147701001Y-102983763D01*
X147824462Y-102971603D01*
X147943179Y-102935591D01*
X148052589Y-102877110D01*
X148148488Y-102798408D01*
X148227190Y-102702509D01*
X148285671Y-102593099D01*
X148321683Y-102474382D01*
X148333843Y-102350921D01*
X148333843Y-101700919D01*
X148321683Y-101577458D01*
X148285671Y-101458741D01*
X148227190Y-101349331D01*
X148148488Y-101253432D01*
X148052589Y-101174730D01*
X147984679Y-101138431D01*
X148040851Y-101121392D01*
X148194387Y-101039325D01*
X148328962Y-100928882D01*
X148439405Y-100794307D01*
X148521472Y-100640771D01*
X148572008Y-100474175D01*
X148589072Y-100300921D01*
X148589072Y-99650919D01*
X148572008Y-99477665D01*
X148521472Y-99311069D01*
X148439405Y-99157533D01*
X148328962Y-99022958D01*
X148194387Y-98912515D01*
X148040851Y-98830448D01*
X147874255Y-98779912D01*
X147701001Y-98762848D01*
X146800999Y-98762848D01*
X146627745Y-98779912D01*
X146461149Y-98830448D01*
X146307613Y-98912515D01*
X146173038Y-99022958D01*
X146062595Y-99157533D01*
X145980528Y-99311069D01*
X145929992Y-99477665D01*
X145912928Y-99650919D01*
X145912928Y-100056254D01*
X145908843Y-100057067D01*
X145908843Y-98870920D01*
X145901487Y-98796231D01*
X145879701Y-98724412D01*
X145844322Y-98658224D01*
X145796711Y-98600209D01*
X145738696Y-98552598D01*
X145672508Y-98517219D01*
X145600689Y-98495433D01*
X145526000Y-98488077D01*
X144876000Y-98488077D01*
X144801311Y-98495433D01*
X144729492Y-98517219D01*
X144726000Y-98519086D01*
X144722508Y-98517219D01*
X144715847Y-98515198D01*
X144699022Y-98459733D01*
X144654209Y-98375895D01*
X144593901Y-98302409D01*
X144575488Y-98287298D01*
X142929395Y-96641206D01*
X142954492Y-96654621D01*
X143026311Y-96676407D01*
X143101000Y-96683763D01*
X144401000Y-96683763D01*
X144475689Y-96676407D01*
X144547508Y-96654621D01*
X144613696Y-96619242D01*
X144626000Y-96609145D01*
X144638304Y-96619242D01*
X144704492Y-96654621D01*
X144776311Y-96676407D01*
X144851000Y-96683763D01*
X144876319Y-96683763D01*
X144829343Y-96797175D01*
X144802500Y-96932124D01*
X144802500Y-97069716D01*
X144829343Y-97204665D01*
X144881997Y-97331784D01*
X144958439Y-97446188D01*
X145055732Y-97543481D01*
X145170136Y-97619923D01*
X145297255Y-97672577D01*
X145432204Y-97699420D01*
X145569796Y-97699420D01*
X145704745Y-97672577D01*
X145831864Y-97619923D01*
X145946268Y-97543481D01*
X146043561Y-97446188D01*
X146120003Y-97331784D01*
X146172657Y-97204665D01*
X146199500Y-97069716D01*
X146199500Y-96932124D01*
X146172657Y-96797175D01*
X146125681Y-96683763D01*
X146151000Y-96683763D01*
X146225689Y-96676407D01*
X146297508Y-96654621D01*
X146363696Y-96619242D01*
X146376000Y-96609145D01*
X146388304Y-96619242D01*
X146454492Y-96654621D01*
X146526311Y-96676407D01*
X146601000Y-96683763D01*
X147601344Y-96683763D01*
X149992988Y-99075408D01*
X150008099Y-99093821D01*
X150080462Y-99153207D01*
X150098481Y-99186919D01*
X150196078Y-99305842D01*
X150315001Y-99403439D01*
X150450678Y-99475960D01*
X150597897Y-99520619D01*
X150712640Y-99531920D01*
X151289360Y-99531920D01*
X151404103Y-99520619D01*
X151551322Y-99475960D01*
X151686999Y-99403439D01*
X151805922Y-99305842D01*
X151903519Y-99186919D01*
X151976040Y-99051242D01*
X152020699Y-98904023D01*
X152035778Y-98750920D01*
X152020699Y-98597817D01*
X151976040Y-98450598D01*
X151903519Y-98314921D01*
X151805922Y-98195998D01*
X151720531Y-98125920D01*
X151805922Y-98055842D01*
X151865275Y-97983520D01*
X151977295Y-97983520D01*
X152001000Y-97985855D01*
X152024705Y-97983520D01*
X152024707Y-97983520D01*
X152095606Y-97976537D01*
X152186577Y-97948942D01*
X152270415Y-97904129D01*
X152343901Y-97843821D01*
X152359017Y-97825402D01*
X152825487Y-97358933D01*
X152843901Y-97343821D01*
X152904209Y-97270335D01*
X152949022Y-97186497D01*
X152949022Y-97186496D01*
X152976617Y-97095527D01*
X152985935Y-97000920D01*
X152983600Y-96977213D01*
X152983600Y-94628582D01*
X152985934Y-94604885D01*
X152983600Y-94581188D01*
X152983600Y-94581179D01*
X152976617Y-94510280D01*
X152949022Y-94419309D01*
X152904209Y-94335471D01*
X152843901Y-94261985D01*
X152825482Y-94246869D01*
X148605051Y-90026438D01*
X148589935Y-90008019D01*
X148516449Y-89947711D01*
X148432611Y-89902898D01*
X148341640Y-89875303D01*
X148283843Y-89869610D01*
X148283843Y-89839130D01*
X148660312Y-89839130D01*
X149396584Y-90575402D01*
X149411700Y-90593821D01*
X149485186Y-90654129D01*
X149569024Y-90698942D01*
X149659995Y-90726537D01*
X149730894Y-90733520D01*
X149730903Y-90733520D01*
X149754600Y-90735854D01*
X149778297Y-90733520D01*
X150136725Y-90733520D01*
X150196078Y-90805842D01*
X150315001Y-90903439D01*
X150450678Y-90975960D01*
X150597897Y-91020619D01*
X150712640Y-91031920D01*
X151289360Y-91031920D01*
X151404103Y-91020619D01*
X151551322Y-90975960D01*
X151686999Y-90903439D01*
X151805922Y-90805842D01*
X151903519Y-90686919D01*
X151976040Y-90551242D01*
X152020699Y-90404023D01*
X152035778Y-90250920D01*
X152020699Y-90097817D01*
X151976040Y-89950598D01*
X151903519Y-89814921D01*
X151805922Y-89695998D01*
X151783992Y-89678001D01*
X151863132Y-89613052D01*
X151935616Y-89524730D01*
X151989477Y-89423964D01*
X152022644Y-89314627D01*
X152033843Y-89200920D01*
X152033843Y-88800920D01*
X152022644Y-88687213D01*
X151989477Y-88577876D01*
X151935616Y-88477110D01*
X151863132Y-88388788D01*
X151774810Y-88316304D01*
X151674044Y-88262443D01*
X151564707Y-88229276D01*
X151451000Y-88218077D01*
X150551000Y-88218077D01*
X150437293Y-88229276D01*
X150327956Y-88262443D01*
X150227190Y-88316304D01*
X150138868Y-88388788D01*
X150066384Y-88477110D01*
X150044357Y-88518320D01*
X146863531Y-88518320D01*
X146876487Y-88475609D01*
X146883843Y-88400920D01*
X146883843Y-86800920D01*
X146876487Y-86726231D01*
X146854701Y-86654412D01*
X146819322Y-86588224D01*
X146771711Y-86530209D01*
X146749278Y-86511799D01*
X146803887Y-86430072D01*
X146872183Y-86265191D01*
X146907000Y-86090153D01*
X146907000Y-85911687D01*
X146872183Y-85736649D01*
X146803887Y-85571768D01*
X146704736Y-85423379D01*
X146578541Y-85297184D01*
X146430152Y-85198033D01*
X146265271Y-85129737D01*
X146090233Y-85094920D01*
X145911767Y-85094920D01*
X145736729Y-85129737D01*
X145571848Y-85198033D01*
X145423459Y-85297184D01*
X145297264Y-85423379D01*
X145198113Y-85571768D01*
X145129817Y-85736649D01*
X145095000Y-85911687D01*
X145095000Y-86090153D01*
X145129817Y-86265191D01*
X145198113Y-86430072D01*
X145252722Y-86511799D01*
X145230289Y-86530209D01*
X145182678Y-86588224D01*
X145147299Y-86654412D01*
X145125513Y-86726231D01*
X145118157Y-86800920D01*
X145118157Y-87792779D01*
X144208727Y-86883350D01*
X144265271Y-86872103D01*
X144430152Y-86803807D01*
X144578541Y-86704656D01*
X144704736Y-86578461D01*
X144803887Y-86430072D01*
X144872183Y-86265191D01*
X144907000Y-86090153D01*
X144907000Y-85911687D01*
X144872183Y-85736649D01*
X144803887Y-85571768D01*
X144749278Y-85490041D01*
X144771711Y-85471631D01*
X144819322Y-85413616D01*
X144854701Y-85347428D01*
X144876487Y-85275609D01*
X144883843Y-85200920D01*
X144883843Y-83600920D01*
X144876487Y-83526231D01*
X144855462Y-83456920D01*
X147146538Y-83456920D01*
X147125513Y-83526231D01*
G36*
X140501313Y-105218108D02*
G01*
X140501000Y-105218077D01*
X139501000Y-105218077D01*
X139426311Y-105225433D01*
X139354492Y-105247219D01*
X139288304Y-105282598D01*
X139230289Y-105330209D01*
X139182678Y-105388224D01*
X139147299Y-105454412D01*
X139125513Y-105526231D01*
X139118157Y-105600920D01*
X139118157Y-107200920D01*
X139125513Y-107275609D01*
X139147299Y-107347428D01*
X139182678Y-107413616D01*
X139230289Y-107471631D01*
X139252722Y-107490041D01*
X139198113Y-107571768D01*
X139129817Y-107736649D01*
X139095000Y-107911687D01*
X139095000Y-108090153D01*
X139129817Y-108265191D01*
X139198113Y-108430072D01*
X139297264Y-108578461D01*
X139423459Y-108704656D01*
X139571848Y-108803807D01*
X139736729Y-108872103D01*
X139911767Y-108906920D01*
X140090233Y-108906920D01*
X140265271Y-108872103D01*
X140430152Y-108803807D01*
X140578541Y-108704656D01*
X140704736Y-108578461D01*
X140803887Y-108430072D01*
X140872183Y-108265191D01*
X140907000Y-108090153D01*
X140907000Y-107911687D01*
X140872183Y-107736649D01*
X140803887Y-107571768D01*
X140749278Y-107490041D01*
X140771711Y-107471631D01*
X140819322Y-107413616D01*
X140854701Y-107347428D01*
X140876487Y-107275609D01*
X140883843Y-107200920D01*
X140883843Y-106200576D01*
X141610511Y-105473909D01*
X142488309Y-105473909D01*
X141676518Y-106285701D01*
X141658099Y-106300817D01*
X141597791Y-106374303D01*
X141552978Y-106458142D01*
X141525383Y-106549113D01*
X141518400Y-106620011D01*
X141516065Y-106643718D01*
X141518400Y-106667423D01*
X141518400Y-107233746D01*
X141423459Y-107297184D01*
X141297264Y-107423379D01*
X141198113Y-107571768D01*
X141129817Y-107736649D01*
X141095000Y-107911687D01*
X141095000Y-108090153D01*
X141129817Y-108265191D01*
X141198113Y-108430072D01*
X141252722Y-108511799D01*
X141230289Y-108530209D01*
X141182678Y-108588224D01*
X141147299Y-108654412D01*
X141125513Y-108726231D01*
X141118157Y-108800920D01*
X141118157Y-110400920D01*
X141125513Y-110475609D01*
X141146538Y-110544920D01*
X138855462Y-110544920D01*
X138876487Y-110475609D01*
X138883843Y-110400920D01*
X138883843Y-108800920D01*
X138876487Y-108726231D01*
X138854701Y-108654412D01*
X138819322Y-108588224D01*
X138771711Y-108530209D01*
X138749278Y-108511799D01*
X138803887Y-108430072D01*
X138872183Y-108265191D01*
X138907000Y-108090153D01*
X138907000Y-107911687D01*
X138872183Y-107736649D01*
X138803887Y-107571768D01*
X138704736Y-107423379D01*
X138578541Y-107297184D01*
X138430152Y-107198033D01*
X138265271Y-107129737D01*
X138090233Y-107094920D01*
X137911767Y-107094920D01*
X137736729Y-107129737D01*
X137571848Y-107198033D01*
X137423459Y-107297184D01*
X137297264Y-107423379D01*
X137198113Y-107571768D01*
X137129817Y-107736649D01*
X137095000Y-107911687D01*
X137095000Y-108090153D01*
X137129817Y-108265191D01*
X137198113Y-108430072D01*
X137252722Y-108511799D01*
X137230289Y-108530209D01*
X137182678Y-108588224D01*
X137147299Y-108654412D01*
X137125513Y-108726231D01*
X137118157Y-108800920D01*
X137118157Y-110400920D01*
X137125513Y-110475609D01*
X137146538Y-110544920D01*
X134855462Y-110544920D01*
X134876487Y-110475609D01*
X134883843Y-110400920D01*
X134883843Y-108800920D01*
X134876487Y-108726231D01*
X134854701Y-108654412D01*
X134819322Y-108588224D01*
X134771711Y-108530209D01*
X134749278Y-108511799D01*
X134803887Y-108430072D01*
X134872183Y-108265191D01*
X134907000Y-108090153D01*
X134907000Y-107911687D01*
X134872183Y-107736649D01*
X134803887Y-107571768D01*
X134704736Y-107423379D01*
X134578541Y-107297184D01*
X134483600Y-107233746D01*
X134483600Y-106546643D01*
X135118157Y-105912086D01*
X135118157Y-107200920D01*
X135125513Y-107275609D01*
X135147299Y-107347428D01*
X135182678Y-107413616D01*
X135230289Y-107471631D01*
X135252722Y-107490041D01*
X135198113Y-107571768D01*
X135129817Y-107736649D01*
X135095000Y-107911687D01*
X135095000Y-108090153D01*
X135129817Y-108265191D01*
X135198113Y-108430072D01*
X135297264Y-108578461D01*
X135423459Y-108704656D01*
X135571848Y-108803807D01*
X135736729Y-108872103D01*
X135911767Y-108906920D01*
X136090233Y-108906920D01*
X136265271Y-108872103D01*
X136430152Y-108803807D01*
X136578541Y-108704656D01*
X136704736Y-108578461D01*
X136803887Y-108430072D01*
X136872183Y-108265191D01*
X136907000Y-108090153D01*
X136907000Y-107911687D01*
X136872183Y-107736649D01*
X136803887Y-107571768D01*
X136749278Y-107490041D01*
X136771711Y-107471631D01*
X136819322Y-107413616D01*
X136854701Y-107347428D01*
X136876487Y-107275609D01*
X136883843Y-107200920D01*
X136883843Y-105600920D01*
X136876487Y-105526231D01*
X136854701Y-105454412D01*
X136819322Y-105388224D01*
X136771711Y-105330209D01*
X136713696Y-105282598D01*
X136647508Y-105247219D01*
X136575689Y-105225433D01*
X136501000Y-105218077D01*
X135812166Y-105218077D01*
X136046723Y-104983520D01*
X140735900Y-104983520D01*
X140501313Y-105218108D01*
G37*
X140501313Y-105218108D02*
X140501000Y-105218077D01*
X139501000Y-105218077D01*
X139426311Y-105225433D01*
X139354492Y-105247219D01*
X139288304Y-105282598D01*
X139230289Y-105330209D01*
X139182678Y-105388224D01*
X139147299Y-105454412D01*
X139125513Y-105526231D01*
X139118157Y-105600920D01*
X139118157Y-107200920D01*
X139125513Y-107275609D01*
X139147299Y-107347428D01*
X139182678Y-107413616D01*
X139230289Y-107471631D01*
X139252722Y-107490041D01*
X139198113Y-107571768D01*
X139129817Y-107736649D01*
X139095000Y-107911687D01*
X139095000Y-108090153D01*
X139129817Y-108265191D01*
X139198113Y-108430072D01*
X139297264Y-108578461D01*
X139423459Y-108704656D01*
X139571848Y-108803807D01*
X139736729Y-108872103D01*
X139911767Y-108906920D01*
X140090233Y-108906920D01*
X140265271Y-108872103D01*
X140430152Y-108803807D01*
X140578541Y-108704656D01*
X140704736Y-108578461D01*
X140803887Y-108430072D01*
X140872183Y-108265191D01*
X140907000Y-108090153D01*
X140907000Y-107911687D01*
X140872183Y-107736649D01*
X140803887Y-107571768D01*
X140749278Y-107490041D01*
X140771711Y-107471631D01*
X140819322Y-107413616D01*
X140854701Y-107347428D01*
X140876487Y-107275609D01*
X140883843Y-107200920D01*
X140883843Y-106200576D01*
X141610511Y-105473909D01*
X142488309Y-105473909D01*
X141676518Y-106285701D01*
X141658099Y-106300817D01*
X141597791Y-106374303D01*
X141552978Y-106458142D01*
X141525383Y-106549113D01*
X141518400Y-106620011D01*
X141516065Y-106643718D01*
X141518400Y-106667423D01*
X141518400Y-107233746D01*
X141423459Y-107297184D01*
X141297264Y-107423379D01*
X141198113Y-107571768D01*
X141129817Y-107736649D01*
X141095000Y-107911687D01*
X141095000Y-108090153D01*
X141129817Y-108265191D01*
X141198113Y-108430072D01*
X141252722Y-108511799D01*
X141230289Y-108530209D01*
X141182678Y-108588224D01*
X141147299Y-108654412D01*
X141125513Y-108726231D01*
X141118157Y-108800920D01*
X141118157Y-110400920D01*
X141125513Y-110475609D01*
X141146538Y-110544920D01*
X138855462Y-110544920D01*
X138876487Y-110475609D01*
X138883843Y-110400920D01*
X138883843Y-108800920D01*
X138876487Y-108726231D01*
X138854701Y-108654412D01*
X138819322Y-108588224D01*
X138771711Y-108530209D01*
X138749278Y-108511799D01*
X138803887Y-108430072D01*
X138872183Y-108265191D01*
X138907000Y-108090153D01*
X138907000Y-107911687D01*
X138872183Y-107736649D01*
X138803887Y-107571768D01*
X138704736Y-107423379D01*
X138578541Y-107297184D01*
X138430152Y-107198033D01*
X138265271Y-107129737D01*
X138090233Y-107094920D01*
X137911767Y-107094920D01*
X137736729Y-107129737D01*
X137571848Y-107198033D01*
X137423459Y-107297184D01*
X137297264Y-107423379D01*
X137198113Y-107571768D01*
X137129817Y-107736649D01*
X137095000Y-107911687D01*
X137095000Y-108090153D01*
X137129817Y-108265191D01*
X137198113Y-108430072D01*
X137252722Y-108511799D01*
X137230289Y-108530209D01*
X137182678Y-108588224D01*
X137147299Y-108654412D01*
X137125513Y-108726231D01*
X137118157Y-108800920D01*
X137118157Y-110400920D01*
X137125513Y-110475609D01*
X137146538Y-110544920D01*
X134855462Y-110544920D01*
X134876487Y-110475609D01*
X134883843Y-110400920D01*
X134883843Y-108800920D01*
X134876487Y-108726231D01*
X134854701Y-108654412D01*
X134819322Y-108588224D01*
X134771711Y-108530209D01*
X134749278Y-108511799D01*
X134803887Y-108430072D01*
X134872183Y-108265191D01*
X134907000Y-108090153D01*
X134907000Y-107911687D01*
X134872183Y-107736649D01*
X134803887Y-107571768D01*
X134704736Y-107423379D01*
X134578541Y-107297184D01*
X134483600Y-107233746D01*
X134483600Y-106546643D01*
X135118157Y-105912086D01*
X135118157Y-107200920D01*
X135125513Y-107275609D01*
X135147299Y-107347428D01*
X135182678Y-107413616D01*
X135230289Y-107471631D01*
X135252722Y-107490041D01*
X135198113Y-107571768D01*
X135129817Y-107736649D01*
X135095000Y-107911687D01*
X135095000Y-108090153D01*
X135129817Y-108265191D01*
X135198113Y-108430072D01*
X135297264Y-108578461D01*
X135423459Y-108704656D01*
X135571848Y-108803807D01*
X135736729Y-108872103D01*
X135911767Y-108906920D01*
X136090233Y-108906920D01*
X136265271Y-108872103D01*
X136430152Y-108803807D01*
X136578541Y-108704656D01*
X136704736Y-108578461D01*
X136803887Y-108430072D01*
X136872183Y-108265191D01*
X136907000Y-108090153D01*
X136907000Y-107911687D01*
X136872183Y-107736649D01*
X136803887Y-107571768D01*
X136749278Y-107490041D01*
X136771711Y-107471631D01*
X136819322Y-107413616D01*
X136854701Y-107347428D01*
X136876487Y-107275609D01*
X136883843Y-107200920D01*
X136883843Y-105600920D01*
X136876487Y-105526231D01*
X136854701Y-105454412D01*
X136819322Y-105388224D01*
X136771711Y-105330209D01*
X136713696Y-105282598D01*
X136647508Y-105247219D01*
X136575689Y-105225433D01*
X136501000Y-105218077D01*
X135812166Y-105218077D01*
X136046723Y-104983520D01*
X140735900Y-104983520D01*
X140501313Y-105218108D01*
G36*
X139891716Y-100775239D02*
G01*
X139893782Y-100779105D01*
X139954090Y-100852591D01*
X139972504Y-100867703D01*
X140234209Y-101129407D01*
X140249329Y-101147831D01*
X140322815Y-101208139D01*
X140374826Y-101235940D01*
X140353512Y-101253432D01*
X140274810Y-101349331D01*
X140216329Y-101458741D01*
X140180317Y-101577458D01*
X140168157Y-101700919D01*
X140168157Y-102350921D01*
X140180317Y-102474382D01*
X140216329Y-102593099D01*
X140274810Y-102702509D01*
X140353512Y-102798408D01*
X140449411Y-102877110D01*
X140558821Y-102935591D01*
X140677538Y-102971603D01*
X140800999Y-102983763D01*
X141701001Y-102983763D01*
X141824462Y-102971603D01*
X141943179Y-102935591D01*
X142052589Y-102877110D01*
X142148488Y-102798408D01*
X142227190Y-102702509D01*
X142285671Y-102593099D01*
X142321683Y-102474382D01*
X142333843Y-102350921D01*
X142333843Y-101784320D01*
X142593157Y-101784320D01*
X142593157Y-103130920D01*
X142600513Y-103205609D01*
X142622299Y-103277428D01*
X142657678Y-103343616D01*
X142705289Y-103401631D01*
X142763304Y-103449242D01*
X142829492Y-103484621D01*
X142901311Y-103506407D01*
X142976000Y-103513763D01*
X143388858Y-103513763D01*
X142884301Y-104018320D01*
X137471429Y-104018320D01*
X137543561Y-103946188D01*
X137562727Y-103917504D01*
X137584591Y-103890863D01*
X137600839Y-103860465D01*
X137620003Y-103831784D01*
X137633203Y-103799916D01*
X137649451Y-103769518D01*
X137659457Y-103736533D01*
X137672657Y-103704665D01*
X137679386Y-103670836D01*
X137689392Y-103637851D01*
X137692770Y-103603548D01*
X137699500Y-103569716D01*
X137699500Y-103535219D01*
X137702878Y-103500921D01*
X137699500Y-103466623D01*
X137699500Y-103432124D01*
X137692770Y-103398290D01*
X137689392Y-103363991D01*
X137679387Y-103331009D01*
X137672657Y-103297175D01*
X137659456Y-103265304D01*
X137649451Y-103232323D01*
X137633205Y-103201929D01*
X137620003Y-103170056D01*
X137600836Y-103141371D01*
X137584591Y-103110978D01*
X137562729Y-103084339D01*
X137543561Y-103055652D01*
X137519165Y-103031256D01*
X137497303Y-103004617D01*
X137470664Y-102982755D01*
X137463005Y-102975096D01*
X137550999Y-102983763D01*
X138451001Y-102983763D01*
X138574462Y-102971603D01*
X138693179Y-102935591D01*
X138802589Y-102877110D01*
X138898488Y-102798408D01*
X138977190Y-102702509D01*
X139035671Y-102593099D01*
X139071683Y-102474382D01*
X139083843Y-102350921D01*
X139083843Y-102316101D01*
X139677960Y-101721986D01*
X139702185Y-101702105D01*
X139722065Y-101677881D01*
X139722069Y-101677877D01*
X139781538Y-101605414D01*
X139840502Y-101495100D01*
X139852353Y-101456031D01*
X139876812Y-101375402D01*
X139886000Y-101282112D01*
X139886000Y-101282109D01*
X139889072Y-101250920D01*
X139886000Y-101219731D01*
X139886000Y-100764546D01*
X139891716Y-100775239D01*
G37*
X139891716Y-100775239D02*
X139893782Y-100779105D01*
X139954090Y-100852591D01*
X139972504Y-100867703D01*
X140234209Y-101129407D01*
X140249329Y-101147831D01*
X140322815Y-101208139D01*
X140374826Y-101235940D01*
X140353512Y-101253432D01*
X140274810Y-101349331D01*
X140216329Y-101458741D01*
X140180317Y-101577458D01*
X140168157Y-101700919D01*
X140168157Y-102350921D01*
X140180317Y-102474382D01*
X140216329Y-102593099D01*
X140274810Y-102702509D01*
X140353512Y-102798408D01*
X140449411Y-102877110D01*
X140558821Y-102935591D01*
X140677538Y-102971603D01*
X140800999Y-102983763D01*
X141701001Y-102983763D01*
X141824462Y-102971603D01*
X141943179Y-102935591D01*
X142052589Y-102877110D01*
X142148488Y-102798408D01*
X142227190Y-102702509D01*
X142285671Y-102593099D01*
X142321683Y-102474382D01*
X142333843Y-102350921D01*
X142333843Y-101784320D01*
X142593157Y-101784320D01*
X142593157Y-103130920D01*
X142600513Y-103205609D01*
X142622299Y-103277428D01*
X142657678Y-103343616D01*
X142705289Y-103401631D01*
X142763304Y-103449242D01*
X142829492Y-103484621D01*
X142901311Y-103506407D01*
X142976000Y-103513763D01*
X143388858Y-103513763D01*
X142884301Y-104018320D01*
X137471429Y-104018320D01*
X137543561Y-103946188D01*
X137562727Y-103917504D01*
X137584591Y-103890863D01*
X137600839Y-103860465D01*
X137620003Y-103831784D01*
X137633203Y-103799916D01*
X137649451Y-103769518D01*
X137659457Y-103736533D01*
X137672657Y-103704665D01*
X137679386Y-103670836D01*
X137689392Y-103637851D01*
X137692770Y-103603548D01*
X137699500Y-103569716D01*
X137699500Y-103535219D01*
X137702878Y-103500921D01*
X137699500Y-103466623D01*
X137699500Y-103432124D01*
X137692770Y-103398290D01*
X137689392Y-103363991D01*
X137679387Y-103331009D01*
X137672657Y-103297175D01*
X137659456Y-103265304D01*
X137649451Y-103232323D01*
X137633205Y-103201929D01*
X137620003Y-103170056D01*
X137600836Y-103141371D01*
X137584591Y-103110978D01*
X137562729Y-103084339D01*
X137543561Y-103055652D01*
X137519165Y-103031256D01*
X137497303Y-103004617D01*
X137470664Y-102982755D01*
X137463005Y-102975096D01*
X137550999Y-102983763D01*
X138451001Y-102983763D01*
X138574462Y-102971603D01*
X138693179Y-102935591D01*
X138802589Y-102877110D01*
X138898488Y-102798408D01*
X138977190Y-102702509D01*
X139035671Y-102593099D01*
X139071683Y-102474382D01*
X139083843Y-102350921D01*
X139083843Y-102316101D01*
X139677960Y-101721986D01*
X139702185Y-101702105D01*
X139722065Y-101677881D01*
X139722069Y-101677877D01*
X139781538Y-101605414D01*
X139840502Y-101495100D01*
X139852353Y-101456031D01*
X139876812Y-101375402D01*
X139886000Y-101282112D01*
X139886000Y-101282109D01*
X139889072Y-101250920D01*
X139886000Y-101219731D01*
X139886000Y-100764546D01*
X139891716Y-100775239D01*
G36*
X131343157Y-100430920D02*
G01*
X131350513Y-100505609D01*
X131372299Y-100577428D01*
X131407678Y-100643616D01*
X131455289Y-100701631D01*
X131513304Y-100749242D01*
X131579492Y-100784621D01*
X131651311Y-100806407D01*
X131726000Y-100813763D01*
X132168728Y-100813763D01*
X132224815Y-100882105D01*
X132321506Y-100961457D01*
X132431820Y-101020422D01*
X132551518Y-101056732D01*
X132676000Y-101068992D01*
X133326000Y-101068992D01*
X133450482Y-101056732D01*
X133570180Y-101020422D01*
X133680494Y-100961457D01*
X133777185Y-100882105D01*
X133833272Y-100813763D01*
X134276000Y-100813763D01*
X134350689Y-100806407D01*
X134422508Y-100784621D01*
X134488696Y-100749242D01*
X134546711Y-100701631D01*
X134594322Y-100643616D01*
X134629701Y-100577428D01*
X134651487Y-100505609D01*
X134658843Y-100430920D01*
X134658843Y-98885920D01*
X135107369Y-98885920D01*
X135057613Y-98912515D01*
X134923038Y-99022958D01*
X134812595Y-99157533D01*
X134730528Y-99311069D01*
X134679992Y-99477665D01*
X134662928Y-99650919D01*
X134662928Y-100300921D01*
X134679992Y-100474175D01*
X134730528Y-100640771D01*
X134812595Y-100794307D01*
X134923038Y-100928882D01*
X135057613Y-101039325D01*
X135211149Y-101121392D01*
X135267321Y-101138431D01*
X135199411Y-101174730D01*
X135103512Y-101253432D01*
X135024810Y-101349331D01*
X134966329Y-101458741D01*
X134940673Y-101543320D01*
X134656125Y-101543320D01*
X134651487Y-101496231D01*
X134629701Y-101424412D01*
X134594322Y-101358224D01*
X134546711Y-101300209D01*
X134488696Y-101252598D01*
X134422508Y-101217219D01*
X134350689Y-101195433D01*
X134276000Y-101188077D01*
X133626000Y-101188077D01*
X133551311Y-101195433D01*
X133479492Y-101217219D01*
X133413304Y-101252598D01*
X133355289Y-101300209D01*
X133307678Y-101358224D01*
X133272299Y-101424412D01*
X133250513Y-101496231D01*
X133243157Y-101570920D01*
X133243157Y-103052420D01*
X132758843Y-103052420D01*
X132758843Y-101570920D01*
X132751487Y-101496231D01*
X132729701Y-101424412D01*
X132694322Y-101358224D01*
X132646711Y-101300209D01*
X132588696Y-101252598D01*
X132522508Y-101217219D01*
X132450689Y-101195433D01*
X132376000Y-101188077D01*
X131726000Y-101188077D01*
X131651311Y-101195433D01*
X131579492Y-101217219D01*
X131513304Y-101252598D01*
X131455289Y-101300209D01*
X131407678Y-101358224D01*
X131384054Y-101402420D01*
X131005567Y-101402420D01*
X130977190Y-101349331D01*
X130898488Y-101253432D01*
X130802589Y-101174730D01*
X130734679Y-101138431D01*
X130790851Y-101121392D01*
X130944387Y-101039325D01*
X131078962Y-100928882D01*
X131189405Y-100794307D01*
X131271472Y-100640771D01*
X131322008Y-100474175D01*
X131339072Y-100300921D01*
X131339072Y-99650919D01*
X131322008Y-99477665D01*
X131271472Y-99311069D01*
X131189405Y-99157533D01*
X131078962Y-99022958D01*
X130944387Y-98912515D01*
X130894631Y-98885920D01*
X131343157Y-98885920D01*
X131343157Y-100430920D01*
G37*
X131343157Y-100430920D02*
X131350513Y-100505609D01*
X131372299Y-100577428D01*
X131407678Y-100643616D01*
X131455289Y-100701631D01*
X131513304Y-100749242D01*
X131579492Y-100784621D01*
X131651311Y-100806407D01*
X131726000Y-100813763D01*
X132168728Y-100813763D01*
X132224815Y-100882105D01*
X132321506Y-100961457D01*
X132431820Y-101020422D01*
X132551518Y-101056732D01*
X132676000Y-101068992D01*
X133326000Y-101068992D01*
X133450482Y-101056732D01*
X133570180Y-101020422D01*
X133680494Y-100961457D01*
X133777185Y-100882105D01*
X133833272Y-100813763D01*
X134276000Y-100813763D01*
X134350689Y-100806407D01*
X134422508Y-100784621D01*
X134488696Y-100749242D01*
X134546711Y-100701631D01*
X134594322Y-100643616D01*
X134629701Y-100577428D01*
X134651487Y-100505609D01*
X134658843Y-100430920D01*
X134658843Y-98885920D01*
X135107369Y-98885920D01*
X135057613Y-98912515D01*
X134923038Y-99022958D01*
X134812595Y-99157533D01*
X134730528Y-99311069D01*
X134679992Y-99477665D01*
X134662928Y-99650919D01*
X134662928Y-100300921D01*
X134679992Y-100474175D01*
X134730528Y-100640771D01*
X134812595Y-100794307D01*
X134923038Y-100928882D01*
X135057613Y-101039325D01*
X135211149Y-101121392D01*
X135267321Y-101138431D01*
X135199411Y-101174730D01*
X135103512Y-101253432D01*
X135024810Y-101349331D01*
X134966329Y-101458741D01*
X134940673Y-101543320D01*
X134656125Y-101543320D01*
X134651487Y-101496231D01*
X134629701Y-101424412D01*
X134594322Y-101358224D01*
X134546711Y-101300209D01*
X134488696Y-101252598D01*
X134422508Y-101217219D01*
X134350689Y-101195433D01*
X134276000Y-101188077D01*
X133626000Y-101188077D01*
X133551311Y-101195433D01*
X133479492Y-101217219D01*
X133413304Y-101252598D01*
X133355289Y-101300209D01*
X133307678Y-101358224D01*
X133272299Y-101424412D01*
X133250513Y-101496231D01*
X133243157Y-101570920D01*
X133243157Y-103052420D01*
X132758843Y-103052420D01*
X132758843Y-101570920D01*
X132751487Y-101496231D01*
X132729701Y-101424412D01*
X132694322Y-101358224D01*
X132646711Y-101300209D01*
X132588696Y-101252598D01*
X132522508Y-101217219D01*
X132450689Y-101195433D01*
X132376000Y-101188077D01*
X131726000Y-101188077D01*
X131651311Y-101195433D01*
X131579492Y-101217219D01*
X131513304Y-101252598D01*
X131455289Y-101300209D01*
X131407678Y-101358224D01*
X131384054Y-101402420D01*
X131005567Y-101402420D01*
X130977190Y-101349331D01*
X130898488Y-101253432D01*
X130802589Y-101174730D01*
X130734679Y-101138431D01*
X130790851Y-101121392D01*
X130944387Y-101039325D01*
X131078962Y-100928882D01*
X131189405Y-100794307D01*
X131271472Y-100640771D01*
X131322008Y-100474175D01*
X131339072Y-100300921D01*
X131339072Y-99650919D01*
X131322008Y-99477665D01*
X131271472Y-99311069D01*
X131189405Y-99157533D01*
X131078962Y-99022958D01*
X130944387Y-98912515D01*
X130894631Y-98885920D01*
X131343157Y-98885920D01*
X131343157Y-100430920D01*
G36*
X144782313Y-89324842D02*
G01*
X144776311Y-89325433D01*
X144704492Y-89347219D01*
X144638304Y-89382598D01*
X144626000Y-89392695D01*
X144613696Y-89382598D01*
X144547508Y-89347219D01*
X144475689Y-89325433D01*
X144401000Y-89318077D01*
X143101000Y-89318077D01*
X143026311Y-89325433D01*
X142954492Y-89347219D01*
X142888304Y-89382598D01*
X142830289Y-89430209D01*
X142782678Y-89488224D01*
X142747299Y-89554412D01*
X142725513Y-89626231D01*
X142718157Y-89700920D01*
X142718157Y-91000920D01*
X142725513Y-91075609D01*
X142747299Y-91147428D01*
X142782678Y-91213616D01*
X142830289Y-91271631D01*
X142888304Y-91319242D01*
X142954492Y-91354621D01*
X143026311Y-91376407D01*
X143101000Y-91383763D01*
X143268400Y-91383763D01*
X143268401Y-93227205D01*
X143266065Y-93250920D01*
X143275384Y-93345526D01*
X143302978Y-93436496D01*
X143347792Y-93520335D01*
X143382822Y-93563019D01*
X143408100Y-93593821D01*
X143426513Y-93608932D01*
X144068501Y-94250920D01*
X143701344Y-94618077D01*
X143101000Y-94618077D01*
X143026311Y-94625433D01*
X142954492Y-94647219D01*
X142888304Y-94682598D01*
X142839210Y-94722888D01*
X142839210Y-93877329D01*
X142841545Y-93853622D01*
X142832227Y-93759015D01*
X142804632Y-93668045D01*
X142787773Y-93636504D01*
X142759819Y-93584207D01*
X142699511Y-93510721D01*
X142681098Y-93495610D01*
X141575107Y-92389619D01*
X141583843Y-92300921D01*
X141583843Y-91650919D01*
X141571683Y-91527458D01*
X141535671Y-91408741D01*
X141477190Y-91299331D01*
X141398488Y-91203432D01*
X141302589Y-91124730D01*
X141193179Y-91066249D01*
X141074462Y-91030237D01*
X140983600Y-91021288D01*
X140983600Y-91009688D01*
X141043561Y-90949727D01*
X141120003Y-90835323D01*
X141172657Y-90708204D01*
X141199500Y-90573255D01*
X141199500Y-90435663D01*
X141172657Y-90300714D01*
X141120003Y-90173595D01*
X141043561Y-90059191D01*
X140983600Y-89999230D01*
X140983600Y-88500819D01*
X141118157Y-88366262D01*
X141118157Y-88400920D01*
X141125513Y-88475609D01*
X141147299Y-88547428D01*
X141182678Y-88613616D01*
X141230289Y-88671631D01*
X141288304Y-88719242D01*
X141354492Y-88754621D01*
X141426311Y-88776407D01*
X141501000Y-88783763D01*
X142501000Y-88783763D01*
X142575689Y-88776407D01*
X142647508Y-88754621D01*
X142713696Y-88719242D01*
X142771711Y-88671631D01*
X142819322Y-88613616D01*
X142854701Y-88547428D01*
X142876487Y-88475609D01*
X142883843Y-88400920D01*
X142883843Y-88083520D01*
X143540991Y-88083520D01*
X144782313Y-89324842D01*
G37*
X144782313Y-89324842D02*
X144776311Y-89325433D01*
X144704492Y-89347219D01*
X144638304Y-89382598D01*
X144626000Y-89392695D01*
X144613696Y-89382598D01*
X144547508Y-89347219D01*
X144475689Y-89325433D01*
X144401000Y-89318077D01*
X143101000Y-89318077D01*
X143026311Y-89325433D01*
X142954492Y-89347219D01*
X142888304Y-89382598D01*
X142830289Y-89430209D01*
X142782678Y-89488224D01*
X142747299Y-89554412D01*
X142725513Y-89626231D01*
X142718157Y-89700920D01*
X142718157Y-91000920D01*
X142725513Y-91075609D01*
X142747299Y-91147428D01*
X142782678Y-91213616D01*
X142830289Y-91271631D01*
X142888304Y-91319242D01*
X142954492Y-91354621D01*
X143026311Y-91376407D01*
X143101000Y-91383763D01*
X143268400Y-91383763D01*
X143268401Y-93227205D01*
X143266065Y-93250920D01*
X143275384Y-93345526D01*
X143302978Y-93436496D01*
X143347792Y-93520335D01*
X143382822Y-93563019D01*
X143408100Y-93593821D01*
X143426513Y-93608932D01*
X144068501Y-94250920D01*
X143701344Y-94618077D01*
X143101000Y-94618077D01*
X143026311Y-94625433D01*
X142954492Y-94647219D01*
X142888304Y-94682598D01*
X142839210Y-94722888D01*
X142839210Y-93877329D01*
X142841545Y-93853622D01*
X142832227Y-93759015D01*
X142804632Y-93668045D01*
X142787773Y-93636504D01*
X142759819Y-93584207D01*
X142699511Y-93510721D01*
X142681098Y-93495610D01*
X141575107Y-92389619D01*
X141583843Y-92300921D01*
X141583843Y-91650919D01*
X141571683Y-91527458D01*
X141535671Y-91408741D01*
X141477190Y-91299331D01*
X141398488Y-91203432D01*
X141302589Y-91124730D01*
X141193179Y-91066249D01*
X141074462Y-91030237D01*
X140983600Y-91021288D01*
X140983600Y-91009688D01*
X141043561Y-90949727D01*
X141120003Y-90835323D01*
X141172657Y-90708204D01*
X141199500Y-90573255D01*
X141199500Y-90435663D01*
X141172657Y-90300714D01*
X141120003Y-90173595D01*
X141043561Y-90059191D01*
X140983600Y-89999230D01*
X140983600Y-88500819D01*
X141118157Y-88366262D01*
X141118157Y-88400920D01*
X141125513Y-88475609D01*
X141147299Y-88547428D01*
X141182678Y-88613616D01*
X141230289Y-88671631D01*
X141288304Y-88719242D01*
X141354492Y-88754621D01*
X141426311Y-88776407D01*
X141501000Y-88783763D01*
X142501000Y-88783763D01*
X142575689Y-88776407D01*
X142647508Y-88754621D01*
X142713696Y-88719242D01*
X142771711Y-88671631D01*
X142819322Y-88613616D01*
X142854701Y-88547428D01*
X142876487Y-88475609D01*
X142883843Y-88400920D01*
X142883843Y-88083520D01*
X143540991Y-88083520D01*
X144782313Y-89324842D01*
G36*
X151431692Y-94218077D02*
G01*
X150551000Y-94218077D01*
X150437293Y-94229276D01*
X150327956Y-94262443D01*
X150227190Y-94316304D01*
X150138868Y-94388788D01*
X150066384Y-94477110D01*
X150044357Y-94518320D01*
X149700900Y-94518320D01*
X148859017Y-93676438D01*
X148843901Y-93658019D01*
X148770415Y-93597711D01*
X148686577Y-93552898D01*
X148595606Y-93525303D01*
X148524707Y-93518320D01*
X148524705Y-93518320D01*
X148501000Y-93515985D01*
X148477295Y-93518320D01*
X144700899Y-93518320D01*
X144233600Y-93051021D01*
X144233600Y-91568611D01*
X144257833Y-91690439D01*
X144310487Y-91817558D01*
X144386929Y-91931962D01*
X144484222Y-92029255D01*
X144598626Y-92105697D01*
X144725745Y-92158351D01*
X144860694Y-92185194D01*
X144998286Y-92185194D01*
X145133235Y-92158351D01*
X145260354Y-92105697D01*
X145374758Y-92029255D01*
X145472051Y-91931962D01*
X145548493Y-91817558D01*
X145601147Y-91690439D01*
X145627990Y-91555490D01*
X145627990Y-91470693D01*
X145714920Y-91383763D01*
X146151000Y-91383763D01*
X146225689Y-91376407D01*
X146297508Y-91354621D01*
X146363696Y-91319242D01*
X146376000Y-91309145D01*
X146388304Y-91319242D01*
X146454492Y-91354621D01*
X146526311Y-91376407D01*
X146601000Y-91383763D01*
X147901000Y-91383763D01*
X147975689Y-91376407D01*
X148047508Y-91354621D01*
X148113696Y-91319242D01*
X148171711Y-91271631D01*
X148219322Y-91213616D01*
X148254701Y-91147428D01*
X148276487Y-91075609D01*
X148277629Y-91064014D01*
X151431692Y-94218077D01*
G37*
X151431692Y-94218077D02*
X150551000Y-94218077D01*
X150437293Y-94229276D01*
X150327956Y-94262443D01*
X150227190Y-94316304D01*
X150138868Y-94388788D01*
X150066384Y-94477110D01*
X150044357Y-94518320D01*
X149700900Y-94518320D01*
X148859017Y-93676438D01*
X148843901Y-93658019D01*
X148770415Y-93597711D01*
X148686577Y-93552898D01*
X148595606Y-93525303D01*
X148524707Y-93518320D01*
X148524705Y-93518320D01*
X148501000Y-93515985D01*
X148477295Y-93518320D01*
X144700899Y-93518320D01*
X144233600Y-93051021D01*
X144233600Y-91568611D01*
X144257833Y-91690439D01*
X144310487Y-91817558D01*
X144386929Y-91931962D01*
X144484222Y-92029255D01*
X144598626Y-92105697D01*
X144725745Y-92158351D01*
X144860694Y-92185194D01*
X144998286Y-92185194D01*
X145133235Y-92158351D01*
X145260354Y-92105697D01*
X145374758Y-92029255D01*
X145472051Y-91931962D01*
X145548493Y-91817558D01*
X145601147Y-91690439D01*
X145627990Y-91555490D01*
X145627990Y-91470693D01*
X145714920Y-91383763D01*
X146151000Y-91383763D01*
X146225689Y-91376407D01*
X146297508Y-91354621D01*
X146363696Y-91319242D01*
X146376000Y-91309145D01*
X146388304Y-91319242D01*
X146454492Y-91354621D01*
X146526311Y-91376407D01*
X146601000Y-91383763D01*
X147901000Y-91383763D01*
X147975689Y-91376407D01*
X148047508Y-91354621D01*
X148113696Y-91319242D01*
X148171711Y-91271631D01*
X148219322Y-91213616D01*
X148254701Y-91147428D01*
X148276487Y-91075609D01*
X148277629Y-91064014D01*
X151431692Y-94218077D01*
G36*
X139125513Y-83526231D02*
G01*
X139118157Y-83600920D01*
X139118157Y-85200920D01*
X139125513Y-85275609D01*
X139147299Y-85347428D01*
X139182678Y-85413616D01*
X139230289Y-85471631D01*
X139252722Y-85490041D01*
X139198113Y-85571768D01*
X139129817Y-85736649D01*
X139095000Y-85911687D01*
X139095000Y-86090153D01*
X139129817Y-86265191D01*
X139198113Y-86430072D01*
X139297264Y-86578461D01*
X139423459Y-86704656D01*
X139518401Y-86768094D01*
X139518400Y-89701021D01*
X138201344Y-91018077D01*
X138050999Y-91018077D01*
X137927538Y-91030237D01*
X137808821Y-91066249D01*
X137699411Y-91124730D01*
X137603512Y-91203432D01*
X137524810Y-91299331D01*
X137466329Y-91408741D01*
X137430317Y-91527458D01*
X137418157Y-91650919D01*
X137418157Y-92300921D01*
X137424912Y-92369509D01*
X136676513Y-93117908D01*
X136658100Y-93133019D01*
X136642989Y-93151432D01*
X136642987Y-93151434D01*
X136597792Y-93206505D01*
X136552978Y-93290344D01*
X136525384Y-93381314D01*
X136516065Y-93475920D01*
X136518401Y-93499635D01*
X136518401Y-94391104D01*
X136499043Y-94354888D01*
X136432777Y-94274143D01*
X136388600Y-94237888D01*
X136388600Y-93929624D01*
X136390935Y-93905919D01*
X136385784Y-93853622D01*
X136381617Y-93811314D01*
X136354022Y-93720343D01*
X136309209Y-93636505D01*
X136248901Y-93563019D01*
X136230482Y-93547903D01*
X135359017Y-92676438D01*
X135343901Y-92658019D01*
X135270415Y-92597711D01*
X135186577Y-92552898D01*
X135095606Y-92525303D01*
X135024707Y-92518320D01*
X135024705Y-92518320D01*
X135001000Y-92515985D01*
X134977295Y-92518320D01*
X131308617Y-92518320D01*
X131322008Y-92474175D01*
X131339072Y-92300921D01*
X131339072Y-91650919D01*
X131322008Y-91477665D01*
X131271472Y-91311069D01*
X131230021Y-91233520D01*
X131413157Y-91233520D01*
X131413157Y-91350920D01*
X131423395Y-91454873D01*
X131453717Y-91554830D01*
X131502957Y-91646952D01*
X131569223Y-91727697D01*
X131649968Y-91793963D01*
X131742090Y-91843203D01*
X131842047Y-91873525D01*
X131946000Y-91883763D01*
X132246000Y-91883763D01*
X132349953Y-91873525D01*
X132449910Y-91843203D01*
X132542032Y-91793963D01*
X132622777Y-91727697D01*
X132689043Y-91646952D01*
X132731000Y-91568456D01*
X132772957Y-91646952D01*
X132839223Y-91727697D01*
X132919968Y-91793963D01*
X133012090Y-91843203D01*
X133112047Y-91873525D01*
X133216000Y-91883763D01*
X133516000Y-91883763D01*
X133619953Y-91873525D01*
X133719910Y-91843203D01*
X133812032Y-91793963D01*
X133892777Y-91727697D01*
X133959043Y-91646952D01*
X134001000Y-91568456D01*
X134042957Y-91646952D01*
X134109223Y-91727697D01*
X134189968Y-91793963D01*
X134282090Y-91843203D01*
X134382047Y-91873525D01*
X134486000Y-91883763D01*
X134786000Y-91883763D01*
X134889953Y-91873525D01*
X134989910Y-91843203D01*
X135082032Y-91793963D01*
X135096974Y-91781700D01*
X135100742Y-91788749D01*
X135198749Y-91908171D01*
X135318171Y-92006178D01*
X135454418Y-92079004D01*
X135602255Y-92123849D01*
X135756000Y-92138992D01*
X136056000Y-92138992D01*
X136209745Y-92123849D01*
X136357582Y-92079004D01*
X136493829Y-92006178D01*
X136613251Y-91908171D01*
X136711258Y-91788749D01*
X136784084Y-91652502D01*
X136828929Y-91504665D01*
X136844072Y-91350920D01*
X136844072Y-89700920D01*
X136828929Y-89547175D01*
X136784084Y-89399338D01*
X136711258Y-89263091D01*
X136613251Y-89143669D01*
X136493829Y-89045662D01*
X136357582Y-88972836D01*
X136209745Y-88927991D01*
X136056000Y-88912848D01*
X135756000Y-88912848D01*
X135602255Y-88927991D01*
X135454418Y-88972836D01*
X135318171Y-89045662D01*
X135198749Y-89143669D01*
X135118600Y-89241331D01*
X135118600Y-88259627D01*
X135120935Y-88235920D01*
X135111617Y-88141313D01*
X135084022Y-88050343D01*
X135073953Y-88031505D01*
X135039209Y-87966505D01*
X134978901Y-87893019D01*
X134960487Y-87877907D01*
X134883843Y-87801263D01*
X134883843Y-86800920D01*
X134876487Y-86726231D01*
X134854701Y-86654412D01*
X134819322Y-86588224D01*
X134771711Y-86530209D01*
X134749278Y-86511799D01*
X134803887Y-86430072D01*
X134872183Y-86265191D01*
X134907000Y-86090153D01*
X134907000Y-85911687D01*
X134872183Y-85736649D01*
X134803887Y-85571768D01*
X134704736Y-85423379D01*
X134578541Y-85297184D01*
X134430152Y-85198033D01*
X134265271Y-85129737D01*
X134090233Y-85094920D01*
X134089500Y-85094920D01*
X134300900Y-84883520D01*
X135118157Y-84883520D01*
X135118157Y-85200920D01*
X135125513Y-85275609D01*
X135147299Y-85347428D01*
X135182678Y-85413616D01*
X135230289Y-85471631D01*
X135252722Y-85490041D01*
X135198113Y-85571768D01*
X135129817Y-85736649D01*
X135095000Y-85911687D01*
X135095000Y-86090153D01*
X135129817Y-86265191D01*
X135198113Y-86430072D01*
X135297264Y-86578461D01*
X135423459Y-86704656D01*
X135571848Y-86803807D01*
X135736729Y-86872103D01*
X135911767Y-86906920D01*
X136090233Y-86906920D01*
X136265271Y-86872103D01*
X136430152Y-86803807D01*
X136578541Y-86704656D01*
X136704736Y-86578461D01*
X136803887Y-86430072D01*
X136872183Y-86265191D01*
X136907000Y-86090153D01*
X136907000Y-85911687D01*
X137095000Y-85911687D01*
X137095000Y-86090153D01*
X137129817Y-86265191D01*
X137198113Y-86430072D01*
X137252722Y-86511799D01*
X137230289Y-86530209D01*
X137182678Y-86588224D01*
X137147299Y-86654412D01*
X137125513Y-86726231D01*
X137118157Y-86800920D01*
X137118157Y-88400920D01*
X137125513Y-88475609D01*
X137147299Y-88547428D01*
X137182678Y-88613616D01*
X137230289Y-88671631D01*
X137288304Y-88719242D01*
X137354492Y-88754621D01*
X137426311Y-88776407D01*
X137501000Y-88783763D01*
X138501000Y-88783763D01*
X138575689Y-88776407D01*
X138647508Y-88754621D01*
X138713696Y-88719242D01*
X138771711Y-88671631D01*
X138819322Y-88613616D01*
X138854701Y-88547428D01*
X138876487Y-88475609D01*
X138883843Y-88400920D01*
X138883843Y-86800920D01*
X138876487Y-86726231D01*
X138854701Y-86654412D01*
X138819322Y-86588224D01*
X138771711Y-86530209D01*
X138749278Y-86511799D01*
X138803887Y-86430072D01*
X138872183Y-86265191D01*
X138907000Y-86090153D01*
X138907000Y-85911687D01*
X138872183Y-85736649D01*
X138803887Y-85571768D01*
X138704736Y-85423379D01*
X138578541Y-85297184D01*
X138430152Y-85198033D01*
X138265271Y-85129737D01*
X138090233Y-85094920D01*
X137911767Y-85094920D01*
X137736729Y-85129737D01*
X137571848Y-85198033D01*
X137423459Y-85297184D01*
X137297264Y-85423379D01*
X137198113Y-85571768D01*
X137129817Y-85736649D01*
X137095000Y-85911687D01*
X136907000Y-85911687D01*
X136872183Y-85736649D01*
X136803887Y-85571768D01*
X136749278Y-85490041D01*
X136771711Y-85471631D01*
X136819322Y-85413616D01*
X136854701Y-85347428D01*
X136876487Y-85275609D01*
X136883843Y-85200920D01*
X136883843Y-83600920D01*
X136876487Y-83526231D01*
X136855462Y-83456920D01*
X139146538Y-83456920D01*
X139125513Y-83526231D01*
G37*
X139125513Y-83526231D02*
X139118157Y-83600920D01*
X139118157Y-85200920D01*
X139125513Y-85275609D01*
X139147299Y-85347428D01*
X139182678Y-85413616D01*
X139230289Y-85471631D01*
X139252722Y-85490041D01*
X139198113Y-85571768D01*
X139129817Y-85736649D01*
X139095000Y-85911687D01*
X139095000Y-86090153D01*
X139129817Y-86265191D01*
X139198113Y-86430072D01*
X139297264Y-86578461D01*
X139423459Y-86704656D01*
X139518401Y-86768094D01*
X139518400Y-89701021D01*
X138201344Y-91018077D01*
X138050999Y-91018077D01*
X137927538Y-91030237D01*
X137808821Y-91066249D01*
X137699411Y-91124730D01*
X137603512Y-91203432D01*
X137524810Y-91299331D01*
X137466329Y-91408741D01*
X137430317Y-91527458D01*
X137418157Y-91650919D01*
X137418157Y-92300921D01*
X137424912Y-92369509D01*
X136676513Y-93117908D01*
X136658100Y-93133019D01*
X136642989Y-93151432D01*
X136642987Y-93151434D01*
X136597792Y-93206505D01*
X136552978Y-93290344D01*
X136525384Y-93381314D01*
X136516065Y-93475920D01*
X136518401Y-93499635D01*
X136518401Y-94391104D01*
X136499043Y-94354888D01*
X136432777Y-94274143D01*
X136388600Y-94237888D01*
X136388600Y-93929624D01*
X136390935Y-93905919D01*
X136385784Y-93853622D01*
X136381617Y-93811314D01*
X136354022Y-93720343D01*
X136309209Y-93636505D01*
X136248901Y-93563019D01*
X136230482Y-93547903D01*
X135359017Y-92676438D01*
X135343901Y-92658019D01*
X135270415Y-92597711D01*
X135186577Y-92552898D01*
X135095606Y-92525303D01*
X135024707Y-92518320D01*
X135024705Y-92518320D01*
X135001000Y-92515985D01*
X134977295Y-92518320D01*
X131308617Y-92518320D01*
X131322008Y-92474175D01*
X131339072Y-92300921D01*
X131339072Y-91650919D01*
X131322008Y-91477665D01*
X131271472Y-91311069D01*
X131230021Y-91233520D01*
X131413157Y-91233520D01*
X131413157Y-91350920D01*
X131423395Y-91454873D01*
X131453717Y-91554830D01*
X131502957Y-91646952D01*
X131569223Y-91727697D01*
X131649968Y-91793963D01*
X131742090Y-91843203D01*
X131842047Y-91873525D01*
X131946000Y-91883763D01*
X132246000Y-91883763D01*
X132349953Y-91873525D01*
X132449910Y-91843203D01*
X132542032Y-91793963D01*
X132622777Y-91727697D01*
X132689043Y-91646952D01*
X132731000Y-91568456D01*
X132772957Y-91646952D01*
X132839223Y-91727697D01*
X132919968Y-91793963D01*
X133012090Y-91843203D01*
X133112047Y-91873525D01*
X133216000Y-91883763D01*
X133516000Y-91883763D01*
X133619953Y-91873525D01*
X133719910Y-91843203D01*
X133812032Y-91793963D01*
X133892777Y-91727697D01*
X133959043Y-91646952D01*
X134001000Y-91568456D01*
X134042957Y-91646952D01*
X134109223Y-91727697D01*
X134189968Y-91793963D01*
X134282090Y-91843203D01*
X134382047Y-91873525D01*
X134486000Y-91883763D01*
X134786000Y-91883763D01*
X134889953Y-91873525D01*
X134989910Y-91843203D01*
X135082032Y-91793963D01*
X135096974Y-91781700D01*
X135100742Y-91788749D01*
X135198749Y-91908171D01*
X135318171Y-92006178D01*
X135454418Y-92079004D01*
X135602255Y-92123849D01*
X135756000Y-92138992D01*
X136056000Y-92138992D01*
X136209745Y-92123849D01*
X136357582Y-92079004D01*
X136493829Y-92006178D01*
X136613251Y-91908171D01*
X136711258Y-91788749D01*
X136784084Y-91652502D01*
X136828929Y-91504665D01*
X136844072Y-91350920D01*
X136844072Y-89700920D01*
X136828929Y-89547175D01*
X136784084Y-89399338D01*
X136711258Y-89263091D01*
X136613251Y-89143669D01*
X136493829Y-89045662D01*
X136357582Y-88972836D01*
X136209745Y-88927991D01*
X136056000Y-88912848D01*
X135756000Y-88912848D01*
X135602255Y-88927991D01*
X135454418Y-88972836D01*
X135318171Y-89045662D01*
X135198749Y-89143669D01*
X135118600Y-89241331D01*
X135118600Y-88259627D01*
X135120935Y-88235920D01*
X135111617Y-88141313D01*
X135084022Y-88050343D01*
X135073953Y-88031505D01*
X135039209Y-87966505D01*
X134978901Y-87893019D01*
X134960487Y-87877907D01*
X134883843Y-87801263D01*
X134883843Y-86800920D01*
X134876487Y-86726231D01*
X134854701Y-86654412D01*
X134819322Y-86588224D01*
X134771711Y-86530209D01*
X134749278Y-86511799D01*
X134803887Y-86430072D01*
X134872183Y-86265191D01*
X134907000Y-86090153D01*
X134907000Y-85911687D01*
X134872183Y-85736649D01*
X134803887Y-85571768D01*
X134704736Y-85423379D01*
X134578541Y-85297184D01*
X134430152Y-85198033D01*
X134265271Y-85129737D01*
X134090233Y-85094920D01*
X134089500Y-85094920D01*
X134300900Y-84883520D01*
X135118157Y-84883520D01*
X135118157Y-85200920D01*
X135125513Y-85275609D01*
X135147299Y-85347428D01*
X135182678Y-85413616D01*
X135230289Y-85471631D01*
X135252722Y-85490041D01*
X135198113Y-85571768D01*
X135129817Y-85736649D01*
X135095000Y-85911687D01*
X135095000Y-86090153D01*
X135129817Y-86265191D01*
X135198113Y-86430072D01*
X135297264Y-86578461D01*
X135423459Y-86704656D01*
X135571848Y-86803807D01*
X135736729Y-86872103D01*
X135911767Y-86906920D01*
X136090233Y-86906920D01*
X136265271Y-86872103D01*
X136430152Y-86803807D01*
X136578541Y-86704656D01*
X136704736Y-86578461D01*
X136803887Y-86430072D01*
X136872183Y-86265191D01*
X136907000Y-86090153D01*
X136907000Y-85911687D01*
X137095000Y-85911687D01*
X137095000Y-86090153D01*
X137129817Y-86265191D01*
X137198113Y-86430072D01*
X137252722Y-86511799D01*
X137230289Y-86530209D01*
X137182678Y-86588224D01*
X137147299Y-86654412D01*
X137125513Y-86726231D01*
X137118157Y-86800920D01*
X137118157Y-88400920D01*
X137125513Y-88475609D01*
X137147299Y-88547428D01*
X137182678Y-88613616D01*
X137230289Y-88671631D01*
X137288304Y-88719242D01*
X137354492Y-88754621D01*
X137426311Y-88776407D01*
X137501000Y-88783763D01*
X138501000Y-88783763D01*
X138575689Y-88776407D01*
X138647508Y-88754621D01*
X138713696Y-88719242D01*
X138771711Y-88671631D01*
X138819322Y-88613616D01*
X138854701Y-88547428D01*
X138876487Y-88475609D01*
X138883843Y-88400920D01*
X138883843Y-86800920D01*
X138876487Y-86726231D01*
X138854701Y-86654412D01*
X138819322Y-86588224D01*
X138771711Y-86530209D01*
X138749278Y-86511799D01*
X138803887Y-86430072D01*
X138872183Y-86265191D01*
X138907000Y-86090153D01*
X138907000Y-85911687D01*
X138872183Y-85736649D01*
X138803887Y-85571768D01*
X138704736Y-85423379D01*
X138578541Y-85297184D01*
X138430152Y-85198033D01*
X138265271Y-85129737D01*
X138090233Y-85094920D01*
X137911767Y-85094920D01*
X137736729Y-85129737D01*
X137571848Y-85198033D01*
X137423459Y-85297184D01*
X137297264Y-85423379D01*
X137198113Y-85571768D01*
X137129817Y-85736649D01*
X137095000Y-85911687D01*
X136907000Y-85911687D01*
X136872183Y-85736649D01*
X136803887Y-85571768D01*
X136749278Y-85490041D01*
X136771711Y-85471631D01*
X136819322Y-85413616D01*
X136854701Y-85347428D01*
X136876487Y-85275609D01*
X136883843Y-85200920D01*
X136883843Y-83600920D01*
X136876487Y-83526231D01*
X136855462Y-83456920D01*
X139146538Y-83456920D01*
X139125513Y-83526231D01*
%TD*%
M02*
