%TF.GenerationSoftware,KiCad,Pcbnew,5.1.6-c6e7f7d~86~ubuntu18.04.1*%
%TF.CreationDate,2020-05-19T13:12:04+02:00*%
%TF.ProjectId,cf-deck-carrier,63662d64-6563-46b2-9d63-617272696572,0.1A*%
%TF.SameCoordinates,Original*%
%TF.FileFunction,Copper,L4,Bot*%
%TF.FilePolarity,Positive*%
%FSLAX46Y46*%
G04 Gerber Fmt 4.6, Leading zero omitted, Abs format (unit mm)*
G04 Created by KiCad (PCBNEW 5.1.6-c6e7f7d~86~ubuntu18.04.1) date 2020-05-19 13:12:04*
%MOMM*%
%LPD*%
G01*
G04 APERTURE LIST*
%TA.AperFunction,Profile*%
%ADD10C,0.150000*%
%TD*%
%TA.AperFunction,ComponentPad*%
%ADD11O,1.300000X0.800000*%
%TD*%
%TA.AperFunction,SMDPad,CuDef*%
%ADD12C,1.050000*%
%TD*%
%TA.AperFunction,SMDPad,CuDef*%
%ADD13R,1.000000X1.600000*%
%TD*%
%TA.AperFunction,ComponentPad*%
%ADD14C,1.050000*%
%TD*%
%TA.AperFunction,ComponentPad*%
%ADD15R,1.050000X1.050000*%
%TD*%
%TA.AperFunction,SMDPad,CuDef*%
%ADD16R,1.000000X1.300000*%
%TD*%
%TA.AperFunction,SMDPad,CuDef*%
%ADD17R,0.650000X1.060000*%
%TD*%
%TA.AperFunction,ViaPad*%
%ADD18C,0.635000*%
%TD*%
%TA.AperFunction,Conductor*%
%ADD19C,0.203200*%
%TD*%
%TA.AperFunction,Conductor*%
%ADD20C,0.304800*%
%TD*%
G04 APERTURE END LIST*
D10*
X125501000Y-83000920D02*
X122501000Y-86000920D01*
X152501000Y-83000920D02*
X125501000Y-83000920D01*
X155501000Y-86000920D02*
X152501000Y-83000920D01*
X125501000Y-111000920D02*
X122501000Y-108000920D01*
X152501000Y-111000920D02*
X125501000Y-111000920D01*
X155501000Y-108000920D02*
X152501000Y-111000920D01*
X155501000Y-86000920D02*
X155501000Y-108000920D01*
X122501000Y-108000920D02*
X122501000Y-86000920D01*
%TO.P,J1,1*%
%TO.N,VUSB*%
%TA.AperFunction,ComponentPad*%
G36*
G01*
X127451000Y-107400920D02*
X126551000Y-107400920D01*
G75*
G02*
X126351000Y-107200920I0J200000D01*
G01*
X126351000Y-106800920D01*
G75*
G02*
X126551000Y-106600920I200000J0D01*
G01*
X127451000Y-106600920D01*
G75*
G02*
X127651000Y-106800920I0J-200000D01*
G01*
X127651000Y-107200920D01*
G75*
G02*
X127451000Y-107400920I-200000J0D01*
G01*
G37*
%TD.AperFunction*%
D11*
%TO.P,J1,2*%
%TO.N,VCOM*%
X127001000Y-105750920D03*
%TO.P,J1,3*%
%TO.N,GND*%
X127001000Y-104500920D03*
%TD*%
%TO.P,U2,8*%
%TO.N,VCC*%
%TA.AperFunction,SMDPad,CuDef*%
G36*
G01*
X131946000Y-94500920D02*
X132246000Y-94500920D01*
G75*
G02*
X132396000Y-94650920I0J-150000D01*
G01*
X132396000Y-96300920D01*
G75*
G02*
X132246000Y-96450920I-150000J0D01*
G01*
X131946000Y-96450920D01*
G75*
G02*
X131796000Y-96300920I0J150000D01*
G01*
X131796000Y-94650920D01*
G75*
G02*
X131946000Y-94500920I150000J0D01*
G01*
G37*
%TD.AperFunction*%
%TO.P,U2,7*%
%TO.N,/SDA*%
%TA.AperFunction,SMDPad,CuDef*%
G36*
G01*
X133216000Y-94500920D02*
X133516000Y-94500920D01*
G75*
G02*
X133666000Y-94650920I0J-150000D01*
G01*
X133666000Y-96300920D01*
G75*
G02*
X133516000Y-96450920I-150000J0D01*
G01*
X133216000Y-96450920D01*
G75*
G02*
X133066000Y-96300920I0J150000D01*
G01*
X133066000Y-94650920D01*
G75*
G02*
X133216000Y-94500920I150000J0D01*
G01*
G37*
%TD.AperFunction*%
%TO.P,U2,6*%
%TO.N,/SCL*%
%TA.AperFunction,SMDPad,CuDef*%
G36*
G01*
X134486000Y-94500920D02*
X134786000Y-94500920D01*
G75*
G02*
X134936000Y-94650920I0J-150000D01*
G01*
X134936000Y-96300920D01*
G75*
G02*
X134786000Y-96450920I-150000J0D01*
G01*
X134486000Y-96450920D01*
G75*
G02*
X134336000Y-96300920I0J150000D01*
G01*
X134336000Y-94650920D01*
G75*
G02*
X134486000Y-94500920I150000J0D01*
G01*
G37*
%TD.AperFunction*%
%TO.P,U2,5*%
%TO.N,/IO4*%
%TA.AperFunction,SMDPad,CuDef*%
G36*
G01*
X135756000Y-94500920D02*
X136056000Y-94500920D01*
G75*
G02*
X136206000Y-94650920I0J-150000D01*
G01*
X136206000Y-96300920D01*
G75*
G02*
X136056000Y-96450920I-150000J0D01*
G01*
X135756000Y-96450920D01*
G75*
G02*
X135606000Y-96300920I0J150000D01*
G01*
X135606000Y-94650920D01*
G75*
G02*
X135756000Y-94500920I150000J0D01*
G01*
G37*
%TD.AperFunction*%
%TO.P,U2,4*%
%TO.N,GND*%
%TA.AperFunction,SMDPad,CuDef*%
G36*
G01*
X135756000Y-89550920D02*
X136056000Y-89550920D01*
G75*
G02*
X136206000Y-89700920I0J-150000D01*
G01*
X136206000Y-91350920D01*
G75*
G02*
X136056000Y-91500920I-150000J0D01*
G01*
X135756000Y-91500920D01*
G75*
G02*
X135606000Y-91350920I0J150000D01*
G01*
X135606000Y-89700920D01*
G75*
G02*
X135756000Y-89550920I150000J0D01*
G01*
G37*
%TD.AperFunction*%
%TO.P,U2,3*%
%TO.N,/IO3*%
%TA.AperFunction,SMDPad,CuDef*%
G36*
G01*
X134486000Y-89550920D02*
X134786000Y-89550920D01*
G75*
G02*
X134936000Y-89700920I0J-150000D01*
G01*
X134936000Y-91350920D01*
G75*
G02*
X134786000Y-91500920I-150000J0D01*
G01*
X134486000Y-91500920D01*
G75*
G02*
X134336000Y-91350920I0J150000D01*
G01*
X134336000Y-89700920D01*
G75*
G02*
X134486000Y-89550920I150000J0D01*
G01*
G37*
%TD.AperFunction*%
%TO.P,U2,2*%
%TO.N,/IO2*%
%TA.AperFunction,SMDPad,CuDef*%
G36*
G01*
X133216000Y-89550920D02*
X133516000Y-89550920D01*
G75*
G02*
X133666000Y-89700920I0J-150000D01*
G01*
X133666000Y-91350920D01*
G75*
G02*
X133516000Y-91500920I-150000J0D01*
G01*
X133216000Y-91500920D01*
G75*
G02*
X133066000Y-91350920I0J150000D01*
G01*
X133066000Y-89700920D01*
G75*
G02*
X133216000Y-89550920I150000J0D01*
G01*
G37*
%TD.AperFunction*%
%TO.P,U2,1*%
%TO.N,/IO1*%
%TA.AperFunction,SMDPad,CuDef*%
G36*
G01*
X131946000Y-89550920D02*
X132246000Y-89550920D01*
G75*
G02*
X132396000Y-89700920I0J-150000D01*
G01*
X132396000Y-91350920D01*
G75*
G02*
X132246000Y-91500920I-150000J0D01*
G01*
X131946000Y-91500920D01*
G75*
G02*
X131796000Y-91350920I0J150000D01*
G01*
X131796000Y-89700920D01*
G75*
G02*
X131946000Y-89550920I150000J0D01*
G01*
G37*
%TD.AperFunction*%
%TD*%
D12*
%TO.P,P1,10*%
%TO.N,GND*%
X130001000Y-86000920D03*
%TO.P,P1,9*%
%TO.N,/IO4*%
X132001000Y-86000920D03*
%TO.P,P1,8*%
%TO.N,/IO3*%
X134001000Y-86000920D03*
%TO.P,P1,7*%
%TO.N,/IO2*%
X136001000Y-86000920D03*
%TO.P,P1,6*%
%TO.N,/IO1*%
X138001000Y-86000920D03*
%TO.P,P1,5*%
%TO.N,/SCL*%
X140001000Y-86000920D03*
%TO.P,P1,4*%
%TO.N,/SDA*%
X142001000Y-86000920D03*
%TO.P,P1,3*%
%TO.N,/TX1*%
X144001000Y-86000920D03*
%TO.P,P1,2*%
%TO.N,/RX1*%
X146001000Y-86000920D03*
%TO.P,P1,1*%
%TO.N,VCC*%
X148001000Y-86000920D03*
D13*
%TO.P,P1,10*%
%TO.N,GND*%
X130001000Y-87600920D03*
%TO.P,P1,9*%
%TO.N,/IO4*%
X132001000Y-84400920D03*
%TO.P,P1,8*%
%TO.N,/IO3*%
X134001000Y-87600920D03*
%TO.P,P1,7*%
%TO.N,/IO2*%
X136001000Y-84400920D03*
%TO.P,P1,6*%
%TO.N,/IO1*%
X138001000Y-87600920D03*
%TO.P,P1,5*%
%TO.N,/SCL*%
X140001000Y-84400920D03*
%TO.P,P1,4*%
%TO.N,/SDA*%
X142001000Y-87600920D03*
%TO.P,P1,3*%
%TO.N,/TX1*%
X144001000Y-84400920D03*
%TO.P,P1,2*%
%TO.N,/RX1*%
X146001000Y-87600920D03*
%TO.P,P1,1*%
%TO.N,VCC*%
X148001000Y-84400920D03*
D14*
%TO.P,P1,5*%
%TO.N,/SCL*%
X140001000Y-86000920D03*
%TO.P,P1,6*%
%TO.N,/IO1*%
X138001000Y-86000920D03*
%TO.P,P1,7*%
%TO.N,/IO2*%
X136001000Y-86000920D03*
%TO.P,P1,4*%
%TO.N,/SDA*%
X142001000Y-86000920D03*
%TO.P,P1,3*%
%TO.N,/TX1*%
X144001000Y-86000920D03*
%TO.P,P1,9*%
%TO.N,/IO4*%
X132001000Y-86000920D03*
%TO.P,P1,8*%
%TO.N,/IO3*%
X134001000Y-86000920D03*
D15*
%TO.P,P1,1*%
%TO.N,VCC*%
X148001000Y-86000920D03*
D14*
%TO.P,P1,2*%
%TO.N,/RX1*%
X146001000Y-86000920D03*
%TO.P,P1,10*%
%TO.N,GND*%
X130001000Y-86000920D03*
%TD*%
D12*
%TO.P,P2,10*%
%TO.N,VUSB*%
X130001000Y-108000920D03*
%TO.P,P2,9*%
%TO.N,VCOM*%
X132001000Y-108000920D03*
%TO.P,P2,8*%
%TO.N,/OW*%
X134001000Y-108000920D03*
%TO.P,P2,7*%
%TO.N,Net-(P2-Pad7)*%
X136001000Y-108000920D03*
%TO.P,P2,6*%
%TO.N,Net-(P2-Pad6)*%
X138001000Y-108000920D03*
%TO.P,P2,5*%
%TO.N,/MOSI*%
X140001000Y-108000920D03*
%TO.P,P2,4*%
%TO.N,/MISO*%
X142001000Y-108000920D03*
%TO.P,P2,3*%
%TO.N,/SCK*%
X144001000Y-108000920D03*
%TO.P,P2,2*%
%TO.N,/RX2*%
X146001000Y-108000920D03*
%TO.P,P2,1*%
%TO.N,/TX2*%
X148001000Y-108000920D03*
D13*
%TO.P,P2,10*%
%TO.N,VUSB*%
X130001000Y-109600920D03*
%TO.P,P2,9*%
%TO.N,VCOM*%
X132001000Y-106400920D03*
%TO.P,P2,8*%
%TO.N,/OW*%
X134001000Y-109600920D03*
%TO.P,P2,7*%
%TO.N,Net-(P2-Pad7)*%
X136001000Y-106400920D03*
%TO.P,P2,6*%
%TO.N,Net-(P2-Pad6)*%
X138001000Y-109600920D03*
%TO.P,P2,5*%
%TO.N,/MOSI*%
X140001000Y-106400920D03*
%TO.P,P2,4*%
%TO.N,/MISO*%
X142001000Y-109600920D03*
%TO.P,P2,3*%
%TO.N,/SCK*%
X144001000Y-106400920D03*
%TO.P,P2,2*%
%TO.N,/RX2*%
X146001000Y-109600920D03*
%TO.P,P2,1*%
%TO.N,/TX2*%
X148001000Y-106400920D03*
D14*
%TO.P,P2,5*%
%TO.N,/MOSI*%
X140001000Y-108000920D03*
%TO.P,P2,6*%
%TO.N,Net-(P2-Pad6)*%
X138001000Y-108000920D03*
%TO.P,P2,7*%
%TO.N,Net-(P2-Pad7)*%
X136001000Y-108000920D03*
%TO.P,P2,4*%
%TO.N,/MISO*%
X142001000Y-108000920D03*
%TO.P,P2,3*%
%TO.N,/SCK*%
X144001000Y-108000920D03*
%TO.P,P2,9*%
%TO.N,VCOM*%
X132001000Y-108000920D03*
%TO.P,P2,8*%
%TO.N,/OW*%
X134001000Y-108000920D03*
D15*
%TO.P,P2,1*%
%TO.N,/TX2*%
X148001000Y-108000920D03*
D14*
%TO.P,P2,2*%
%TO.N,/RX2*%
X146001000Y-108000920D03*
%TO.P,P2,10*%
%TO.N,VUSB*%
X130001000Y-108000920D03*
%TD*%
D16*
%TO.P,SW1,6*%
%TO.N,/TX2*%
X147251000Y-95650920D03*
%TO.P,SW1,5*%
%TO.N,/TX_AUX*%
X145501000Y-95650920D03*
%TO.P,SW1,4*%
%TO.N,/TX1*%
X143751000Y-95650920D03*
%TO.P,SW1,3*%
%TO.N,/RX2*%
X147251000Y-90350920D03*
%TO.P,SW1,2*%
%TO.N,/RX_AUX*%
X145501000Y-90350920D03*
%TO.P,SW1,1*%
%TO.N,/RX1*%
X143751000Y-90350920D03*
%TD*%
%TO.P,J5,1*%
%TO.N,/OW*%
%TA.AperFunction,ComponentPad*%
G36*
G01*
X127451000Y-92400920D02*
X126551000Y-92400920D01*
G75*
G02*
X126351000Y-92200920I0J200000D01*
G01*
X126351000Y-91800920D01*
G75*
G02*
X126551000Y-91600920I200000J0D01*
G01*
X127451000Y-91600920D01*
G75*
G02*
X127651000Y-91800920I0J-200000D01*
G01*
X127651000Y-92200920D01*
G75*
G02*
X127451000Y-92400920I-200000J0D01*
G01*
G37*
%TD.AperFunction*%
D11*
%TO.P,J5,2*%
%TO.N,/IO1*%
X127001000Y-90750920D03*
%TO.P,J5,3*%
%TO.N,/IO2*%
X127001000Y-89500920D03*
%TO.P,J5,4*%
%TO.N,/IO3*%
X127001000Y-88250920D03*
%TO.P,J5,5*%
%TO.N,/IO4*%
X127001000Y-87000920D03*
%TD*%
%TO.P,J4,1*%
%TO.N,/SCL*%
%TA.AperFunction,ComponentPad*%
G36*
G01*
X150551000Y-88600920D02*
X151451000Y-88600920D01*
G75*
G02*
X151651000Y-88800920I0J-200000D01*
G01*
X151651000Y-89200920D01*
G75*
G02*
X151451000Y-89400920I-200000J0D01*
G01*
X150551000Y-89400920D01*
G75*
G02*
X150351000Y-89200920I0J200000D01*
G01*
X150351000Y-88800920D01*
G75*
G02*
X150551000Y-88600920I200000J0D01*
G01*
G37*
%TD.AperFunction*%
%TO.P,J4,2*%
%TO.N,/SDA*%
X151001000Y-90250920D03*
%TD*%
%TO.P,J2,1*%
%TO.N,/RX1*%
%TA.AperFunction,ComponentPad*%
G36*
G01*
X150551000Y-94600920D02*
X151451000Y-94600920D01*
G75*
G02*
X151651000Y-94800920I0J-200000D01*
G01*
X151651000Y-95200920D01*
G75*
G02*
X151451000Y-95400920I-200000J0D01*
G01*
X150551000Y-95400920D01*
G75*
G02*
X150351000Y-95200920I0J200000D01*
G01*
X150351000Y-94800920D01*
G75*
G02*
X150551000Y-94600920I200000J0D01*
G01*
G37*
%TD.AperFunction*%
%TO.P,J2,2*%
%TO.N,/TX1*%
X151001000Y-96250920D03*
%TO.P,J2,3*%
%TO.N,/RX2*%
X151001000Y-97500920D03*
%TO.P,J2,4*%
%TO.N,/TX2*%
X151001000Y-98750920D03*
%TD*%
%TO.P,J6,1*%
%TO.N,GND*%
%TA.AperFunction,ComponentPad*%
G36*
G01*
X127451000Y-100400920D02*
X126551000Y-100400920D01*
G75*
G02*
X126351000Y-100200920I0J200000D01*
G01*
X126351000Y-99800920D01*
G75*
G02*
X126551000Y-99600920I200000J0D01*
G01*
X127451000Y-99600920D01*
G75*
G02*
X127651000Y-99800920I0J-200000D01*
G01*
X127651000Y-100200920D01*
G75*
G02*
X127451000Y-100400920I-200000J0D01*
G01*
G37*
%TD.AperFunction*%
%TO.P,J6,2*%
%TO.N,VCOM*%
X127001000Y-98750920D03*
%TO.P,J6,3*%
%TO.N,/TX_AUX*%
X127001000Y-97500920D03*
%TO.P,J6,4*%
%TO.N,/RX_AUX*%
X127001000Y-96250920D03*
%TD*%
%TO.P,J3,1*%
%TO.N,/MOSI*%
%TA.AperFunction,ComponentPad*%
G36*
G01*
X150551000Y-103100920D02*
X151451000Y-103100920D01*
G75*
G02*
X151651000Y-103300920I0J-200000D01*
G01*
X151651000Y-103700920D01*
G75*
G02*
X151451000Y-103900920I-200000J0D01*
G01*
X150551000Y-103900920D01*
G75*
G02*
X150351000Y-103700920I0J200000D01*
G01*
X150351000Y-103300920D01*
G75*
G02*
X150551000Y-103100920I200000J0D01*
G01*
G37*
%TD.AperFunction*%
%TO.P,J3,2*%
%TO.N,/MISO*%
X151001000Y-104750920D03*
%TO.P,J3,3*%
%TO.N,/SCK*%
X151001000Y-106000920D03*
%TD*%
%TO.P,U3,8*%
%TO.N,N/C*%
%TA.AperFunction,SMDPad,CuDef*%
G36*
G01*
X142196000Y-102500920D02*
X142496000Y-102500920D01*
G75*
G02*
X142646000Y-102650920I0J-150000D01*
G01*
X142646000Y-104300920D01*
G75*
G02*
X142496000Y-104450920I-150000J0D01*
G01*
X142196000Y-104450920D01*
G75*
G02*
X142046000Y-104300920I0J150000D01*
G01*
X142046000Y-102650920D01*
G75*
G02*
X142196000Y-102500920I150000J0D01*
G01*
G37*
%TD.AperFunction*%
%TO.P,U3,7*%
%TA.AperFunction,SMDPad,CuDef*%
G36*
G01*
X143466000Y-102500920D02*
X143766000Y-102500920D01*
G75*
G02*
X143916000Y-102650920I0J-150000D01*
G01*
X143916000Y-104300920D01*
G75*
G02*
X143766000Y-104450920I-150000J0D01*
G01*
X143466000Y-104450920D01*
G75*
G02*
X143316000Y-104300920I0J150000D01*
G01*
X143316000Y-102650920D01*
G75*
G02*
X143466000Y-102500920I150000J0D01*
G01*
G37*
%TD.AperFunction*%
%TO.P,U3,6*%
%TO.N,VCC*%
%TA.AperFunction,SMDPad,CuDef*%
G36*
G01*
X144736000Y-102500920D02*
X145036000Y-102500920D01*
G75*
G02*
X145186000Y-102650920I0J-150000D01*
G01*
X145186000Y-104300920D01*
G75*
G02*
X145036000Y-104450920I-150000J0D01*
G01*
X144736000Y-104450920D01*
G75*
G02*
X144586000Y-104300920I0J150000D01*
G01*
X144586000Y-102650920D01*
G75*
G02*
X144736000Y-102500920I150000J0D01*
G01*
G37*
%TD.AperFunction*%
%TO.P,U3,5*%
%TO.N,/OW*%
%TA.AperFunction,SMDPad,CuDef*%
G36*
G01*
X146006000Y-102500920D02*
X146306000Y-102500920D01*
G75*
G02*
X146456000Y-102650920I0J-150000D01*
G01*
X146456000Y-104300920D01*
G75*
G02*
X146306000Y-104450920I-150000J0D01*
G01*
X146006000Y-104450920D01*
G75*
G02*
X145856000Y-104300920I0J150000D01*
G01*
X145856000Y-102650920D01*
G75*
G02*
X146006000Y-102500920I150000J0D01*
G01*
G37*
%TD.AperFunction*%
%TO.P,U3,4*%
%TO.N,GND*%
%TA.AperFunction,SMDPad,CuDef*%
G36*
G01*
X146006000Y-97550920D02*
X146306000Y-97550920D01*
G75*
G02*
X146456000Y-97700920I0J-150000D01*
G01*
X146456000Y-99350920D01*
G75*
G02*
X146306000Y-99500920I-150000J0D01*
G01*
X146006000Y-99500920D01*
G75*
G02*
X145856000Y-99350920I0J150000D01*
G01*
X145856000Y-97700920D01*
G75*
G02*
X146006000Y-97550920I150000J0D01*
G01*
G37*
%TD.AperFunction*%
%TO.P,U3,3*%
%TO.N,/SCL*%
%TA.AperFunction,SMDPad,CuDef*%
G36*
G01*
X144736000Y-97550920D02*
X145036000Y-97550920D01*
G75*
G02*
X145186000Y-97700920I0J-150000D01*
G01*
X145186000Y-99350920D01*
G75*
G02*
X145036000Y-99500920I-150000J0D01*
G01*
X144736000Y-99500920D01*
G75*
G02*
X144586000Y-99350920I0J150000D01*
G01*
X144586000Y-97700920D01*
G75*
G02*
X144736000Y-97550920I150000J0D01*
G01*
G37*
%TD.AperFunction*%
%TO.P,U3,2*%
%TO.N,/SDA*%
%TA.AperFunction,SMDPad,CuDef*%
G36*
G01*
X143466000Y-97550920D02*
X143766000Y-97550920D01*
G75*
G02*
X143916000Y-97700920I0J-150000D01*
G01*
X143916000Y-99350920D01*
G75*
G02*
X143766000Y-99500920I-150000J0D01*
G01*
X143466000Y-99500920D01*
G75*
G02*
X143316000Y-99350920I0J150000D01*
G01*
X143316000Y-97700920D01*
G75*
G02*
X143466000Y-97550920I150000J0D01*
G01*
G37*
%TD.AperFunction*%
%TO.P,U3,1*%
%TO.N,Net-(R3-Pad2)*%
%TA.AperFunction,SMDPad,CuDef*%
G36*
G01*
X142196000Y-97550920D02*
X142496000Y-97550920D01*
G75*
G02*
X142646000Y-97700920I0J-150000D01*
G01*
X142646000Y-99350920D01*
G75*
G02*
X142496000Y-99500920I-150000J0D01*
G01*
X142196000Y-99500920D01*
G75*
G02*
X142046000Y-99350920I0J150000D01*
G01*
X142046000Y-97700920D01*
G75*
G02*
X142196000Y-97550920I150000J0D01*
G01*
G37*
%TD.AperFunction*%
%TD*%
D17*
%TO.P,U1,5*%
%TO.N,VCC*%
X132051000Y-102100920D03*
%TO.P,U1,4*%
%TO.N,Net-(C2-Pad1)*%
X133951000Y-102100920D03*
%TO.P,U1,3*%
%TO.N,VCOM*%
X133951000Y-99900920D03*
%TO.P,U1,2*%
%TO.N,GND*%
X133001000Y-99900920D03*
%TO.P,U1,1*%
%TO.N,VCOM*%
X132051000Y-99900920D03*
%TD*%
%TO.P,R3,2*%
%TO.N,Net-(R3-Pad2)*%
%TA.AperFunction,SMDPad,CuDef*%
G36*
G01*
X140701001Y-100550920D02*
X139800999Y-100550920D01*
G75*
G02*
X139551000Y-100300921I0J249999D01*
G01*
X139551000Y-99650919D01*
G75*
G02*
X139800999Y-99400920I249999J0D01*
G01*
X140701001Y-99400920D01*
G75*
G02*
X140951000Y-99650919I0J-249999D01*
G01*
X140951000Y-100300921D01*
G75*
G02*
X140701001Y-100550920I-249999J0D01*
G01*
G37*
%TD.AperFunction*%
%TO.P,R3,1*%
%TO.N,VCC*%
%TA.AperFunction,SMDPad,CuDef*%
G36*
G01*
X140701001Y-102600920D02*
X139800999Y-102600920D01*
G75*
G02*
X139551000Y-102350921I0J249999D01*
G01*
X139551000Y-101700919D01*
G75*
G02*
X139800999Y-101450920I249999J0D01*
G01*
X140701001Y-101450920D01*
G75*
G02*
X140951000Y-101700919I0J-249999D01*
G01*
X140951000Y-102350921D01*
G75*
G02*
X140701001Y-102600920I-249999J0D01*
G01*
G37*
%TD.AperFunction*%
%TD*%
%TO.P,R2,2*%
%TO.N,/SCL*%
%TA.AperFunction,SMDPad,CuDef*%
G36*
G01*
X138951001Y-92550920D02*
X138050999Y-92550920D01*
G75*
G02*
X137801000Y-92300921I0J249999D01*
G01*
X137801000Y-91650919D01*
G75*
G02*
X138050999Y-91400920I249999J0D01*
G01*
X138951001Y-91400920D01*
G75*
G02*
X139201000Y-91650919I0J-249999D01*
G01*
X139201000Y-92300921D01*
G75*
G02*
X138951001Y-92550920I-249999J0D01*
G01*
G37*
%TD.AperFunction*%
%TO.P,R2,1*%
%TO.N,VCC*%
%TA.AperFunction,SMDPad,CuDef*%
G36*
G01*
X138951001Y-94600920D02*
X138050999Y-94600920D01*
G75*
G02*
X137801000Y-94350921I0J249999D01*
G01*
X137801000Y-93700919D01*
G75*
G02*
X138050999Y-93450920I249999J0D01*
G01*
X138951001Y-93450920D01*
G75*
G02*
X139201000Y-93700919I0J-249999D01*
G01*
X139201000Y-94350921D01*
G75*
G02*
X138951001Y-94600920I-249999J0D01*
G01*
G37*
%TD.AperFunction*%
%TD*%
%TO.P,R1,2*%
%TO.N,/SDA*%
%TA.AperFunction,SMDPad,CuDef*%
G36*
G01*
X140951001Y-92550920D02*
X140050999Y-92550920D01*
G75*
G02*
X139801000Y-92300921I0J249999D01*
G01*
X139801000Y-91650919D01*
G75*
G02*
X140050999Y-91400920I249999J0D01*
G01*
X140951001Y-91400920D01*
G75*
G02*
X141201000Y-91650919I0J-249999D01*
G01*
X141201000Y-92300921D01*
G75*
G02*
X140951001Y-92550920I-249999J0D01*
G01*
G37*
%TD.AperFunction*%
%TO.P,R1,1*%
%TO.N,VCC*%
%TA.AperFunction,SMDPad,CuDef*%
G36*
G01*
X140951001Y-94600920D02*
X140050999Y-94600920D01*
G75*
G02*
X139801000Y-94350921I0J249999D01*
G01*
X139801000Y-93700919D01*
G75*
G02*
X140050999Y-93450920I249999J0D01*
G01*
X140951001Y-93450920D01*
G75*
G02*
X141201000Y-93700919I0J-249999D01*
G01*
X141201000Y-94350921D01*
G75*
G02*
X140951001Y-94600920I-249999J0D01*
G01*
G37*
%TD.AperFunction*%
%TD*%
%TO.P,C5,2*%
%TO.N,GND*%
%TA.AperFunction,SMDPad,CuDef*%
G36*
G01*
X148451001Y-100550920D02*
X147550999Y-100550920D01*
G75*
G02*
X147301000Y-100300921I0J249999D01*
G01*
X147301000Y-99650919D01*
G75*
G02*
X147550999Y-99400920I249999J0D01*
G01*
X148451001Y-99400920D01*
G75*
G02*
X148701000Y-99650919I0J-249999D01*
G01*
X148701000Y-100300921D01*
G75*
G02*
X148451001Y-100550920I-249999J0D01*
G01*
G37*
%TD.AperFunction*%
%TO.P,C5,1*%
%TO.N,VCC*%
%TA.AperFunction,SMDPad,CuDef*%
G36*
G01*
X148451001Y-102600920D02*
X147550999Y-102600920D01*
G75*
G02*
X147301000Y-102350921I0J249999D01*
G01*
X147301000Y-101700919D01*
G75*
G02*
X147550999Y-101450920I249999J0D01*
G01*
X148451001Y-101450920D01*
G75*
G02*
X148701000Y-101700919I0J-249999D01*
G01*
X148701000Y-102350921D01*
G75*
G02*
X148451001Y-102600920I-249999J0D01*
G01*
G37*
%TD.AperFunction*%
%TD*%
%TO.P,C4,2*%
%TO.N,GND*%
%TA.AperFunction,SMDPad,CuDef*%
G36*
G01*
X130451001Y-92550920D02*
X129550999Y-92550920D01*
G75*
G02*
X129301000Y-92300921I0J249999D01*
G01*
X129301000Y-91650919D01*
G75*
G02*
X129550999Y-91400920I249999J0D01*
G01*
X130451001Y-91400920D01*
G75*
G02*
X130701000Y-91650919I0J-249999D01*
G01*
X130701000Y-92300921D01*
G75*
G02*
X130451001Y-92550920I-249999J0D01*
G01*
G37*
%TD.AperFunction*%
%TO.P,C4,1*%
%TO.N,VCC*%
%TA.AperFunction,SMDPad,CuDef*%
G36*
G01*
X130451001Y-94600920D02*
X129550999Y-94600920D01*
G75*
G02*
X129301000Y-94350921I0J249999D01*
G01*
X129301000Y-93700919D01*
G75*
G02*
X129550999Y-93450920I249999J0D01*
G01*
X130451001Y-93450920D01*
G75*
G02*
X130701000Y-93700919I0J-249999D01*
G01*
X130701000Y-94350921D01*
G75*
G02*
X130451001Y-94600920I-249999J0D01*
G01*
G37*
%TD.AperFunction*%
%TD*%
%TO.P,C3,2*%
%TO.N,GND*%
%TA.AperFunction,SMDPad,CuDef*%
G36*
G01*
X130451001Y-100550920D02*
X129550999Y-100550920D01*
G75*
G02*
X129301000Y-100300921I0J249999D01*
G01*
X129301000Y-99650919D01*
G75*
G02*
X129550999Y-99400920I249999J0D01*
G01*
X130451001Y-99400920D01*
G75*
G02*
X130701000Y-99650919I0J-249999D01*
G01*
X130701000Y-100300921D01*
G75*
G02*
X130451001Y-100550920I-249999J0D01*
G01*
G37*
%TD.AperFunction*%
%TO.P,C3,1*%
%TO.N,VCC*%
%TA.AperFunction,SMDPad,CuDef*%
G36*
G01*
X130451001Y-102600920D02*
X129550999Y-102600920D01*
G75*
G02*
X129301000Y-102350921I0J249999D01*
G01*
X129301000Y-101700919D01*
G75*
G02*
X129550999Y-101450920I249999J0D01*
G01*
X130451001Y-101450920D01*
G75*
G02*
X130701000Y-101700919I0J-249999D01*
G01*
X130701000Y-102350921D01*
G75*
G02*
X130451001Y-102600920I-249999J0D01*
G01*
G37*
%TD.AperFunction*%
%TD*%
%TO.P,C2,2*%
%TO.N,GND*%
%TA.AperFunction,SMDPad,CuDef*%
G36*
G01*
X136451001Y-100550920D02*
X135550999Y-100550920D01*
G75*
G02*
X135301000Y-100300921I0J249999D01*
G01*
X135301000Y-99650919D01*
G75*
G02*
X135550999Y-99400920I249999J0D01*
G01*
X136451001Y-99400920D01*
G75*
G02*
X136701000Y-99650919I0J-249999D01*
G01*
X136701000Y-100300921D01*
G75*
G02*
X136451001Y-100550920I-249999J0D01*
G01*
G37*
%TD.AperFunction*%
%TO.P,C2,1*%
%TO.N,Net-(C2-Pad1)*%
%TA.AperFunction,SMDPad,CuDef*%
G36*
G01*
X136451001Y-102600920D02*
X135550999Y-102600920D01*
G75*
G02*
X135301000Y-102350921I0J249999D01*
G01*
X135301000Y-101700919D01*
G75*
G02*
X135550999Y-101450920I249999J0D01*
G01*
X136451001Y-101450920D01*
G75*
G02*
X136701000Y-101700919I0J-249999D01*
G01*
X136701000Y-102350921D01*
G75*
G02*
X136451001Y-102600920I-249999J0D01*
G01*
G37*
%TD.AperFunction*%
%TD*%
%TO.P,C1,2*%
%TO.N,GND*%
%TA.AperFunction,SMDPad,CuDef*%
G36*
G01*
X138451001Y-100550920D02*
X137550999Y-100550920D01*
G75*
G02*
X137301000Y-100300921I0J249999D01*
G01*
X137301000Y-99650919D01*
G75*
G02*
X137550999Y-99400920I249999J0D01*
G01*
X138451001Y-99400920D01*
G75*
G02*
X138701000Y-99650919I0J-249999D01*
G01*
X138701000Y-100300921D01*
G75*
G02*
X138451001Y-100550920I-249999J0D01*
G01*
G37*
%TD.AperFunction*%
%TO.P,C1,1*%
%TO.N,VCOM*%
%TA.AperFunction,SMDPad,CuDef*%
G36*
G01*
X138451001Y-102600920D02*
X137550999Y-102600920D01*
G75*
G02*
X137301000Y-102350921I0J249999D01*
G01*
X137301000Y-101700919D01*
G75*
G02*
X137550999Y-101450920I249999J0D01*
G01*
X138451001Y-101450920D01*
G75*
G02*
X138701000Y-101700919I0J-249999D01*
G01*
X138701000Y-102350921D01*
G75*
G02*
X138451001Y-102600920I-249999J0D01*
G01*
G37*
%TD.AperFunction*%
%TD*%
D18*
%TO.N,GND*%
X148001000Y-99000920D03*
X131501000Y-92000920D03*
%TO.N,VCC*%
X139501000Y-95000920D03*
X130001000Y-95000920D03*
X130001000Y-103000920D03*
X148001000Y-103000920D03*
%TO.N,/SDA*%
X133501000Y-94000920D03*
X140501000Y-90504459D03*
%TO.N,/OW*%
X147001000Y-103500920D03*
%TO.N,/RX_AUX*%
X144929490Y-91486694D03*
%TO.N,/TX_AUX*%
X145501000Y-97000920D03*
%TD*%
D19*
%TO.N,Net-(P2-Pad7)*%
X136001000Y-106400920D02*
X136001000Y-108000920D01*
%TO.N,Net-(P2-Pad6)*%
X138001000Y-109600920D02*
X138001000Y-108000920D01*
D20*
%TO.N,GND*%
X130001000Y-87600920D02*
X130001000Y-86000920D01*
X135906000Y-91500920D02*
X135906000Y-90525920D01*
X135431000Y-91975920D02*
X135906000Y-91500920D01*
X130001000Y-91975920D02*
X135431000Y-91975920D01*
X148001000Y-99975920D02*
X147606000Y-99975920D01*
X147606000Y-99975920D02*
X146156000Y-98525920D01*
X138001000Y-99975920D02*
X136001000Y-99975920D01*
X136001000Y-99975920D02*
X136001000Y-100000920D01*
X136001000Y-100000920D02*
X135001000Y-101000920D01*
X135001000Y-101000920D02*
X133738798Y-101000920D01*
X148001000Y-99975920D02*
X148001000Y-99000920D01*
X130001000Y-100500920D02*
X130001000Y-99975920D01*
X133738798Y-101000920D02*
X130501000Y-101000920D01*
X130501000Y-101000920D02*
X130001000Y-100500920D01*
X127026000Y-99975920D02*
X127001000Y-100000920D01*
X130001000Y-99975920D02*
X127026000Y-99975920D01*
X131476000Y-91975920D02*
X131501000Y-92000920D01*
X130001000Y-91975920D02*
X131476000Y-91975920D01*
X133001000Y-101000920D02*
X133001000Y-99900920D01*
X133738798Y-101000920D02*
X133001000Y-101000920D01*
%TO.N,VCOM*%
X132001000Y-106400920D02*
X132001000Y-108000920D01*
X133251000Y-98750920D02*
X131251000Y-98750920D01*
X128251000Y-98750920D02*
X127001000Y-98750920D01*
X131251000Y-98750920D02*
X128251000Y-98750920D01*
X131351000Y-105750920D02*
X132001000Y-106400920D01*
X127001000Y-105750920D02*
X131351000Y-105750920D01*
X133951000Y-98750920D02*
X133251000Y-98750920D01*
X133951000Y-99900920D02*
X133951000Y-98750920D01*
X132051000Y-98750920D02*
X131251000Y-98750920D01*
X132051000Y-99900920D02*
X132051000Y-98750920D01*
X139005810Y-100530732D02*
X139001000Y-100535542D01*
X139001000Y-100535542D02*
X139001000Y-101025920D01*
X139005810Y-99421108D02*
X139005810Y-100530732D01*
X133951000Y-98750920D02*
X138335622Y-98750920D01*
X139001000Y-101025920D02*
X138001000Y-102025920D01*
X138335622Y-98750920D02*
X139005810Y-99421108D01*
D19*
%TO.N,Net-(C2-Pad1)*%
X134026000Y-102025920D02*
X133951000Y-102100920D01*
X136001000Y-102025920D02*
X134026000Y-102025920D01*
D20*
%TO.N,VCC*%
X148001000Y-84400920D02*
X148001000Y-86000920D01*
X148001000Y-102025920D02*
X145361000Y-102025920D01*
X130076000Y-102100920D02*
X130001000Y-102025920D01*
X132051000Y-102100920D02*
X130076000Y-102100920D01*
X140501000Y-94025920D02*
X139526000Y-95000920D01*
X139476000Y-95000920D02*
X139501000Y-95000920D01*
X138501000Y-94025920D02*
X139476000Y-95000920D01*
X139526000Y-95000920D02*
X139501000Y-95000920D01*
X130001000Y-94025920D02*
X130001000Y-95000920D01*
X130001000Y-102025920D02*
X130001000Y-103000920D01*
X148001000Y-102025920D02*
X148001000Y-103000920D01*
X130001000Y-94025920D02*
X131586000Y-94025920D01*
X132096000Y-94535920D02*
X132096000Y-95475920D01*
X131586000Y-94025920D02*
X132096000Y-94535920D01*
X144886000Y-102115920D02*
X144976000Y-102025920D01*
X144886000Y-103475920D02*
X144886000Y-102115920D01*
X140251000Y-102025920D02*
X144976000Y-102025920D01*
X144976000Y-102025920D02*
X145361000Y-102025920D01*
%TO.N,VUSB*%
X130001000Y-109600920D02*
X130001000Y-108000920D01*
X129001000Y-107000920D02*
X130001000Y-108000920D01*
X127001000Y-107000920D02*
X129001000Y-107000920D01*
D19*
%TO.N,/RX2*%
X146001000Y-109600920D02*
X146001000Y-108000920D01*
X152501000Y-94604886D02*
X148247034Y-90350920D01*
X152501000Y-97000920D02*
X152501000Y-94604886D01*
X148247034Y-90350920D02*
X147251000Y-90350920D01*
X151001000Y-97500920D02*
X152001000Y-97500920D01*
X152001000Y-97500920D02*
X152501000Y-97000920D01*
%TO.N,/TX2*%
X148001000Y-106400920D02*
X148001000Y-108000920D01*
X150351000Y-98750920D02*
X147251000Y-95650920D01*
X151001000Y-98750920D02*
X150351000Y-98750920D01*
%TO.N,/RX1*%
X146001000Y-87600920D02*
X146001000Y-86000920D01*
X149501000Y-95000920D02*
X151001000Y-95000920D01*
X144501000Y-94000920D02*
X148501000Y-94000920D01*
X148501000Y-94000920D02*
X149501000Y-95000920D01*
X143751000Y-90350920D02*
X143751000Y-93250920D01*
X143751000Y-93250920D02*
X144501000Y-94000920D01*
%TO.N,/TX1*%
X144001000Y-84400920D02*
X144001000Y-86000920D01*
X143751000Y-95650920D02*
X143751000Y-95250920D01*
X143751000Y-95250920D02*
X144501000Y-94500920D01*
X148397800Y-94500920D02*
X150147800Y-96250920D01*
X150147800Y-96250920D02*
X151001000Y-96250920D01*
X144501000Y-94500920D02*
X148397800Y-94500920D01*
%TO.N,/MOSI*%
X140001000Y-106400920D02*
X140001000Y-108000920D01*
X151001000Y-103500920D02*
X150489935Y-103500920D01*
X141410611Y-104991309D02*
X140001000Y-106400920D01*
X148999546Y-104991309D02*
X141410611Y-104991309D01*
X150489935Y-103500920D02*
X148999546Y-104991309D01*
%TO.N,/MISO*%
X142001000Y-109600920D02*
X142001000Y-108000920D01*
X151001000Y-104750920D02*
X149751000Y-104750920D01*
X149751000Y-104750920D02*
X149155001Y-105346919D01*
X142001000Y-106643718D02*
X142001000Y-108000920D01*
X143297799Y-105346919D02*
X142001000Y-106643718D01*
X149155001Y-105346919D02*
X143297799Y-105346919D01*
%TO.N,/SCK*%
X144001000Y-106400920D02*
X144001000Y-108000920D01*
%TO.N,/SCL*%
X140001000Y-84400920D02*
X140001000Y-86000920D01*
X143001000Y-86358122D02*
X143001000Y-85424459D01*
X151001000Y-89000920D02*
X145643798Y-89000920D01*
X141977461Y-84400920D02*
X140001000Y-84400920D01*
X143001000Y-85424459D02*
X141977461Y-84400920D01*
X145643798Y-89000920D02*
X143001000Y-86358122D01*
X139526000Y-93000920D02*
X138501000Y-91975920D01*
X141001000Y-93000920D02*
X139526000Y-93000920D01*
X144886000Y-99615920D02*
X144501000Y-100000920D01*
X144886000Y-98525920D02*
X144886000Y-99615920D01*
X143001000Y-97500920D02*
X142001000Y-96500920D01*
X142001000Y-94000920D02*
X141001000Y-93000920D01*
X142001000Y-96500920D02*
X142001000Y-94000920D01*
X144501000Y-100000920D02*
X143501000Y-100000920D01*
X143501000Y-100000920D02*
X143001000Y-99500920D01*
X143001000Y-99500920D02*
X143001000Y-97500920D01*
X134636000Y-95475920D02*
X134636000Y-96635920D01*
X134636000Y-96635920D02*
X135001000Y-97000920D01*
X135001000Y-97000920D02*
X136501000Y-97000920D01*
X136501000Y-97000920D02*
X137001000Y-96500920D01*
X137001000Y-93475920D02*
X138501000Y-91975920D01*
X137001000Y-96500920D02*
X137001000Y-93475920D01*
X138501000Y-91975920D02*
X138501000Y-91400920D01*
X138501000Y-91400920D02*
X140001000Y-89900920D01*
X140001000Y-89900920D02*
X140001000Y-86000920D01*
%TO.N,/SDA*%
X142001000Y-87600920D02*
X142001000Y-86000920D01*
X141201000Y-87600920D02*
X142001000Y-87600920D01*
X140501000Y-88300920D02*
X141201000Y-87600920D01*
X140501000Y-91998012D02*
X140501000Y-91975920D01*
X142356609Y-93853621D02*
X140501000Y-91998012D01*
X142356610Y-96353622D02*
X142356609Y-93853621D01*
X143616000Y-97613012D02*
X142356610Y-96353622D01*
X143616000Y-98525920D02*
X143616000Y-97613012D01*
X143740890Y-87600920D02*
X142001000Y-87600920D01*
X145496500Y-89356530D02*
X143740890Y-87600920D01*
X148860211Y-89356530D02*
X145496500Y-89356530D01*
X151001000Y-90250920D02*
X149754601Y-90250920D01*
X149754601Y-90250920D02*
X148860211Y-89356530D01*
X133366000Y-95475920D02*
X133366000Y-94135920D01*
X133366000Y-94135920D02*
X133501000Y-94000920D01*
X140501000Y-91975920D02*
X140501000Y-90500920D01*
X140501000Y-90500920D02*
X140501000Y-88300920D01*
X140501000Y-90500920D02*
X140501000Y-90504459D01*
%TO.N,/OW*%
X134001000Y-109600920D02*
X134001000Y-108000920D01*
X146156000Y-103475920D02*
X146976000Y-103475920D01*
X146976000Y-103475920D02*
X147001000Y-103500920D01*
%TO.N,/IO4*%
X132001000Y-84400920D02*
X132001000Y-86000920D01*
X126001000Y-87000920D02*
X127001000Y-87000920D01*
X135906000Y-95475920D02*
X135906000Y-93905920D01*
X135906000Y-93905920D02*
X135001000Y-93000920D01*
X135001000Y-93000920D02*
X126001000Y-93000920D01*
X126001000Y-93000920D02*
X125501000Y-92500920D01*
X125501000Y-92500920D02*
X125501000Y-87500920D01*
X125501000Y-87500920D02*
X126001000Y-87000920D01*
%TO.N,/IO3*%
X134001000Y-87600920D02*
X134001000Y-86000920D01*
X134636000Y-88235920D02*
X134001000Y-87600920D01*
X134636000Y-90525920D02*
X134636000Y-88235920D01*
%TO.N,/IO2*%
X136001000Y-84400920D02*
X136001000Y-86000920D01*
X133366000Y-90525920D02*
X133476000Y-90525920D01*
X133366000Y-90525920D02*
X133366000Y-89365920D01*
X133366000Y-89365920D02*
X133001000Y-89000920D01*
X133001000Y-89000920D02*
X133001000Y-85500920D01*
X134101000Y-84400920D02*
X136001000Y-84400920D01*
X133001000Y-85500920D02*
X134101000Y-84400920D01*
%TO.N,/IO1*%
X138001000Y-87600920D02*
X138001000Y-86000920D01*
X132096000Y-90525920D02*
X132026000Y-90525920D01*
X131871000Y-90750920D02*
X132096000Y-90525920D01*
X127001000Y-90750920D02*
X131871000Y-90750920D01*
%TO.N,/RX_AUX*%
X145501000Y-90915184D02*
X144929490Y-91486694D01*
X145501000Y-90350920D02*
X145501000Y-90915184D01*
%TO.N,/TX_AUX*%
X145501000Y-95650920D02*
X145501000Y-97000920D01*
%TO.N,Net-(R3-Pad2)*%
X140896000Y-99975920D02*
X142346000Y-98525920D01*
X140251000Y-99975920D02*
X140896000Y-99975920D01*
%TD*%
M02*
