%TF.GenerationSoftware,KiCad,Pcbnew,5.1.6-c6e7f7d~86~ubuntu18.04.1*%
%TF.CreationDate,2020-05-27T14:43:56+02:00*%
%TF.ProjectId,cf-deck-carrier,63662d64-6563-46b2-9d63-617272696572,0.1A*%
%TF.SameCoordinates,Original*%
%TF.FileFunction,Copper,L2,Inr*%
%TF.FilePolarity,Positive*%
%FSLAX46Y46*%
G04 Gerber Fmt 4.6, Leading zero omitted, Abs format (unit mm)*
G04 Created by KiCad (PCBNEW 5.1.6-c6e7f7d~86~ubuntu18.04.1) date 2020-05-27 14:43:56*
%MOMM*%
%LPD*%
G01*
G04 APERTURE LIST*
%TA.AperFunction,ViaPad*%
%ADD10O,1.300000X0.800000*%
%TD*%
%TA.AperFunction,ViaPad*%
%ADD11C,1.050000*%
%TD*%
%TA.AperFunction,ViaPad*%
%ADD12R,1.050000X1.050000*%
%TD*%
%TA.AperFunction,ViaPad*%
%ADD13C,0.635000*%
%TD*%
%TA.AperFunction,Conductor*%
%ADD14C,0.254000*%
%TD*%
G04 APERTURE END LIST*
%TO.N,VUSB*%
%TO.C,J1*%
%TA.AperFunction,ViaPad*%
G36*
G01*
X127451000Y-107400920D02*
X126551000Y-107400920D01*
G75*
G02*
X126351000Y-107200920I0J200000D01*
G01*
X126351000Y-106800920D01*
G75*
G02*
X126551000Y-106600920I200000J0D01*
G01*
X127451000Y-106600920D01*
G75*
G02*
X127651000Y-106800920I0J-200000D01*
G01*
X127651000Y-107200920D01*
G75*
G02*
X127451000Y-107400920I-200000J0D01*
G01*
G37*
%TD.AperFunction*%
D10*
%TO.N,VCOM*%
X127001000Y-105750920D03*
%TO.N,GND*%
X127001000Y-104500920D03*
%TD*%
D11*
%TO.N,/SCL*%
%TO.C,P1*%
X140001000Y-86000920D03*
%TO.N,/IO1*%
X138001000Y-86000920D03*
%TO.N,/IO2*%
X136001000Y-86000920D03*
%TO.N,/SDA*%
X142001000Y-86000920D03*
%TO.N,/TX1*%
X144001000Y-86000920D03*
%TO.N,/IO4*%
X132001000Y-86000920D03*
%TO.N,/IO3*%
X134001000Y-86000920D03*
D12*
%TO.N,VCC*%
X148001000Y-86000920D03*
D11*
%TO.N,/RX1*%
X146001000Y-86000920D03*
%TO.N,GND*%
X130001000Y-86000920D03*
%TD*%
%TO.N,/MOSI*%
%TO.C,P2*%
X140001000Y-108000920D03*
%TO.N,Net-(P2-Pad6)*%
X138001000Y-108000920D03*
%TO.N,Net-(P2-Pad7)*%
X136001000Y-108000920D03*
%TO.N,/MISO*%
X142001000Y-108000920D03*
%TO.N,/SCK*%
X144001000Y-108000920D03*
%TO.N,VCOM*%
X132001000Y-108000920D03*
%TO.N,/OW*%
X134001000Y-108000920D03*
D12*
%TO.N,/TX2*%
X148001000Y-108000920D03*
D11*
%TO.N,/RX2*%
X146001000Y-108000920D03*
%TO.N,VUSB*%
X130001000Y-108000920D03*
%TD*%
%TO.N,/OW*%
%TO.C,J5*%
%TA.AperFunction,ViaPad*%
G36*
G01*
X127451000Y-92400920D02*
X126551000Y-92400920D01*
G75*
G02*
X126351000Y-92200920I0J200000D01*
G01*
X126351000Y-91800920D01*
G75*
G02*
X126551000Y-91600920I200000J0D01*
G01*
X127451000Y-91600920D01*
G75*
G02*
X127651000Y-91800920I0J-200000D01*
G01*
X127651000Y-92200920D01*
G75*
G02*
X127451000Y-92400920I-200000J0D01*
G01*
G37*
%TD.AperFunction*%
D10*
%TO.N,/IO1*%
X127001000Y-90750920D03*
%TO.N,/IO2*%
X127001000Y-89500920D03*
%TO.N,/IO3*%
X127001000Y-88250920D03*
%TO.N,/IO4*%
X127001000Y-87000920D03*
%TD*%
%TO.N,/SCL*%
%TO.C,J4*%
%TA.AperFunction,ViaPad*%
G36*
G01*
X150551000Y-88600920D02*
X151451000Y-88600920D01*
G75*
G02*
X151651000Y-88800920I0J-200000D01*
G01*
X151651000Y-89200920D01*
G75*
G02*
X151451000Y-89400920I-200000J0D01*
G01*
X150551000Y-89400920D01*
G75*
G02*
X150351000Y-89200920I0J200000D01*
G01*
X150351000Y-88800920D01*
G75*
G02*
X150551000Y-88600920I200000J0D01*
G01*
G37*
%TD.AperFunction*%
%TO.N,/SDA*%
X151001000Y-90250920D03*
%TD*%
%TO.N,/RX1*%
%TO.C,J2*%
%TA.AperFunction,ViaPad*%
G36*
G01*
X150551000Y-94600920D02*
X151451000Y-94600920D01*
G75*
G02*
X151651000Y-94800920I0J-200000D01*
G01*
X151651000Y-95200920D01*
G75*
G02*
X151451000Y-95400920I-200000J0D01*
G01*
X150551000Y-95400920D01*
G75*
G02*
X150351000Y-95200920I0J200000D01*
G01*
X150351000Y-94800920D01*
G75*
G02*
X150551000Y-94600920I200000J0D01*
G01*
G37*
%TD.AperFunction*%
%TO.N,/TX1*%
X151001000Y-96250920D03*
%TO.N,/RX2*%
X151001000Y-97500920D03*
%TO.N,/TX2*%
X151001000Y-98750920D03*
%TD*%
%TO.N,GND*%
%TO.C,J6*%
%TA.AperFunction,ViaPad*%
G36*
G01*
X127451000Y-100400920D02*
X126551000Y-100400920D01*
G75*
G02*
X126351000Y-100200920I0J200000D01*
G01*
X126351000Y-99800920D01*
G75*
G02*
X126551000Y-99600920I200000J0D01*
G01*
X127451000Y-99600920D01*
G75*
G02*
X127651000Y-99800920I0J-200000D01*
G01*
X127651000Y-100200920D01*
G75*
G02*
X127451000Y-100400920I-200000J0D01*
G01*
G37*
%TD.AperFunction*%
%TO.N,VCOM*%
X127001000Y-98750920D03*
%TO.N,/TX_AUX*%
X127001000Y-97500920D03*
%TO.N,/RX_AUX*%
X127001000Y-96250920D03*
%TD*%
%TO.N,/MOSI*%
%TO.C,J3*%
%TA.AperFunction,ViaPad*%
G36*
G01*
X150551000Y-103100920D02*
X151451000Y-103100920D01*
G75*
G02*
X151651000Y-103300920I0J-200000D01*
G01*
X151651000Y-103700920D01*
G75*
G02*
X151451000Y-103900920I-200000J0D01*
G01*
X150551000Y-103900920D01*
G75*
G02*
X150351000Y-103700920I0J200000D01*
G01*
X150351000Y-103300920D01*
G75*
G02*
X150551000Y-103100920I200000J0D01*
G01*
G37*
%TD.AperFunction*%
%TO.N,/MISO*%
X151001000Y-104750920D03*
%TO.N,/SCK*%
X151001000Y-106000920D03*
%TD*%
D13*
%TO.N,GND*%
X131501000Y-92000920D03*
X148501000Y-100750920D03*
X149501000Y-106500920D03*
X127001000Y-102000920D03*
X138001000Y-106000920D03*
X139501000Y-103500920D03*
X145826000Y-92775920D03*
X142001000Y-90500920D03*
%TO.N,VCC*%
X139501000Y-95000920D03*
X130001000Y-95000920D03*
X146001000Y-100750920D03*
X130001000Y-103500920D03*
X137001000Y-103500920D03*
%TO.N,/SDA*%
X133501000Y-94000920D03*
X140501000Y-90504459D03*
%TO.N,/RX_AUX*%
X144929490Y-91486694D03*
%TO.N,/TX_AUX*%
X145501000Y-97000920D03*
%TD*%
D14*
%TO.N,GND*%
G36*
X155045000Y-86189801D02*
G01*
X155045001Y-107812038D01*
X152312119Y-110544920D01*
X125689881Y-110544920D01*
X123056648Y-107911687D01*
X129095000Y-107911687D01*
X129095000Y-108090153D01*
X129129817Y-108265191D01*
X129198113Y-108430072D01*
X129297264Y-108578461D01*
X129423459Y-108704656D01*
X129571848Y-108803807D01*
X129736729Y-108872103D01*
X129911767Y-108906920D01*
X130090233Y-108906920D01*
X130265271Y-108872103D01*
X130430152Y-108803807D01*
X130578541Y-108704656D01*
X130704736Y-108578461D01*
X130803887Y-108430072D01*
X130872183Y-108265191D01*
X130907000Y-108090153D01*
X130907000Y-107911687D01*
X131095000Y-107911687D01*
X131095000Y-108090153D01*
X131129817Y-108265191D01*
X131198113Y-108430072D01*
X131297264Y-108578461D01*
X131423459Y-108704656D01*
X131571848Y-108803807D01*
X131736729Y-108872103D01*
X131911767Y-108906920D01*
X132090233Y-108906920D01*
X132265271Y-108872103D01*
X132430152Y-108803807D01*
X132578541Y-108704656D01*
X132704736Y-108578461D01*
X132803887Y-108430072D01*
X132872183Y-108265191D01*
X132907000Y-108090153D01*
X132907000Y-107911687D01*
X133095000Y-107911687D01*
X133095000Y-108090153D01*
X133129817Y-108265191D01*
X133198113Y-108430072D01*
X133297264Y-108578461D01*
X133423459Y-108704656D01*
X133571848Y-108803807D01*
X133736729Y-108872103D01*
X133911767Y-108906920D01*
X134090233Y-108906920D01*
X134265271Y-108872103D01*
X134430152Y-108803807D01*
X134578541Y-108704656D01*
X134704736Y-108578461D01*
X134803887Y-108430072D01*
X134872183Y-108265191D01*
X134907000Y-108090153D01*
X134907000Y-107911687D01*
X135095000Y-107911687D01*
X135095000Y-108090153D01*
X135129817Y-108265191D01*
X135198113Y-108430072D01*
X135297264Y-108578461D01*
X135423459Y-108704656D01*
X135571848Y-108803807D01*
X135736729Y-108872103D01*
X135911767Y-108906920D01*
X136090233Y-108906920D01*
X136265271Y-108872103D01*
X136430152Y-108803807D01*
X136578541Y-108704656D01*
X136704736Y-108578461D01*
X136803887Y-108430072D01*
X136872183Y-108265191D01*
X136907000Y-108090153D01*
X136907000Y-107911687D01*
X137095000Y-107911687D01*
X137095000Y-108090153D01*
X137129817Y-108265191D01*
X137198113Y-108430072D01*
X137297264Y-108578461D01*
X137423459Y-108704656D01*
X137571848Y-108803807D01*
X137736729Y-108872103D01*
X137911767Y-108906920D01*
X138090233Y-108906920D01*
X138265271Y-108872103D01*
X138430152Y-108803807D01*
X138578541Y-108704656D01*
X138704736Y-108578461D01*
X138803887Y-108430072D01*
X138872183Y-108265191D01*
X138907000Y-108090153D01*
X138907000Y-107911687D01*
X139095000Y-107911687D01*
X139095000Y-108090153D01*
X139129817Y-108265191D01*
X139198113Y-108430072D01*
X139297264Y-108578461D01*
X139423459Y-108704656D01*
X139571848Y-108803807D01*
X139736729Y-108872103D01*
X139911767Y-108906920D01*
X140090233Y-108906920D01*
X140265271Y-108872103D01*
X140430152Y-108803807D01*
X140578541Y-108704656D01*
X140704736Y-108578461D01*
X140803887Y-108430072D01*
X140872183Y-108265191D01*
X140907000Y-108090153D01*
X140907000Y-107911687D01*
X141095000Y-107911687D01*
X141095000Y-108090153D01*
X141129817Y-108265191D01*
X141198113Y-108430072D01*
X141297264Y-108578461D01*
X141423459Y-108704656D01*
X141571848Y-108803807D01*
X141736729Y-108872103D01*
X141911767Y-108906920D01*
X142090233Y-108906920D01*
X142265271Y-108872103D01*
X142430152Y-108803807D01*
X142578541Y-108704656D01*
X142704736Y-108578461D01*
X142803887Y-108430072D01*
X142872183Y-108265191D01*
X142907000Y-108090153D01*
X142907000Y-107911687D01*
X143095000Y-107911687D01*
X143095000Y-108090153D01*
X143129817Y-108265191D01*
X143198113Y-108430072D01*
X143297264Y-108578461D01*
X143423459Y-108704656D01*
X143571848Y-108803807D01*
X143736729Y-108872103D01*
X143911767Y-108906920D01*
X144090233Y-108906920D01*
X144265271Y-108872103D01*
X144430152Y-108803807D01*
X144578541Y-108704656D01*
X144704736Y-108578461D01*
X144803887Y-108430072D01*
X144872183Y-108265191D01*
X144907000Y-108090153D01*
X144907000Y-107911687D01*
X145095000Y-107911687D01*
X145095000Y-108090153D01*
X145129817Y-108265191D01*
X145198113Y-108430072D01*
X145297264Y-108578461D01*
X145423459Y-108704656D01*
X145571848Y-108803807D01*
X145736729Y-108872103D01*
X145911767Y-108906920D01*
X146090233Y-108906920D01*
X146265271Y-108872103D01*
X146430152Y-108803807D01*
X146578541Y-108704656D01*
X146704736Y-108578461D01*
X146803887Y-108430072D01*
X146872183Y-108265191D01*
X146907000Y-108090153D01*
X146907000Y-107911687D01*
X146872183Y-107736649D01*
X146803887Y-107571768D01*
X146739844Y-107475920D01*
X147093157Y-107475920D01*
X147093157Y-108525920D01*
X147100513Y-108600609D01*
X147122299Y-108672428D01*
X147157678Y-108738616D01*
X147205289Y-108796631D01*
X147263304Y-108844242D01*
X147329492Y-108879621D01*
X147401311Y-108901407D01*
X147476000Y-108908763D01*
X148526000Y-108908763D01*
X148600689Y-108901407D01*
X148672508Y-108879621D01*
X148738696Y-108844242D01*
X148796711Y-108796631D01*
X148844322Y-108738616D01*
X148879701Y-108672428D01*
X148901487Y-108600609D01*
X148908843Y-108525920D01*
X148908843Y-107475920D01*
X148901487Y-107401231D01*
X148879701Y-107329412D01*
X148844322Y-107263224D01*
X148796711Y-107205209D01*
X148738696Y-107157598D01*
X148672508Y-107122219D01*
X148600689Y-107100433D01*
X148526000Y-107093077D01*
X147476000Y-107093077D01*
X147401311Y-107100433D01*
X147329492Y-107122219D01*
X147263304Y-107157598D01*
X147205289Y-107205209D01*
X147157678Y-107263224D01*
X147122299Y-107329412D01*
X147100513Y-107401231D01*
X147093157Y-107475920D01*
X146739844Y-107475920D01*
X146704736Y-107423379D01*
X146578541Y-107297184D01*
X146430152Y-107198033D01*
X146265271Y-107129737D01*
X146090233Y-107094920D01*
X145911767Y-107094920D01*
X145736729Y-107129737D01*
X145571848Y-107198033D01*
X145423459Y-107297184D01*
X145297264Y-107423379D01*
X145198113Y-107571768D01*
X145129817Y-107736649D01*
X145095000Y-107911687D01*
X144907000Y-107911687D01*
X144872183Y-107736649D01*
X144803887Y-107571768D01*
X144704736Y-107423379D01*
X144578541Y-107297184D01*
X144430152Y-107198033D01*
X144265271Y-107129737D01*
X144090233Y-107094920D01*
X143911767Y-107094920D01*
X143736729Y-107129737D01*
X143571848Y-107198033D01*
X143423459Y-107297184D01*
X143297264Y-107423379D01*
X143198113Y-107571768D01*
X143129817Y-107736649D01*
X143095000Y-107911687D01*
X142907000Y-107911687D01*
X142872183Y-107736649D01*
X142803887Y-107571768D01*
X142704736Y-107423379D01*
X142578541Y-107297184D01*
X142430152Y-107198033D01*
X142265271Y-107129737D01*
X142090233Y-107094920D01*
X141911767Y-107094920D01*
X141736729Y-107129737D01*
X141571848Y-107198033D01*
X141423459Y-107297184D01*
X141297264Y-107423379D01*
X141198113Y-107571768D01*
X141129817Y-107736649D01*
X141095000Y-107911687D01*
X140907000Y-107911687D01*
X140872183Y-107736649D01*
X140803887Y-107571768D01*
X140704736Y-107423379D01*
X140578541Y-107297184D01*
X140430152Y-107198033D01*
X140265271Y-107129737D01*
X140090233Y-107094920D01*
X139911767Y-107094920D01*
X139736729Y-107129737D01*
X139571848Y-107198033D01*
X139423459Y-107297184D01*
X139297264Y-107423379D01*
X139198113Y-107571768D01*
X139129817Y-107736649D01*
X139095000Y-107911687D01*
X138907000Y-107911687D01*
X138872183Y-107736649D01*
X138803887Y-107571768D01*
X138704736Y-107423379D01*
X138578541Y-107297184D01*
X138430152Y-107198033D01*
X138265271Y-107129737D01*
X138090233Y-107094920D01*
X137911767Y-107094920D01*
X137736729Y-107129737D01*
X137571848Y-107198033D01*
X137423459Y-107297184D01*
X137297264Y-107423379D01*
X137198113Y-107571768D01*
X137129817Y-107736649D01*
X137095000Y-107911687D01*
X136907000Y-107911687D01*
X136872183Y-107736649D01*
X136803887Y-107571768D01*
X136704736Y-107423379D01*
X136578541Y-107297184D01*
X136430152Y-107198033D01*
X136265271Y-107129737D01*
X136090233Y-107094920D01*
X135911767Y-107094920D01*
X135736729Y-107129737D01*
X135571848Y-107198033D01*
X135423459Y-107297184D01*
X135297264Y-107423379D01*
X135198113Y-107571768D01*
X135129817Y-107736649D01*
X135095000Y-107911687D01*
X134907000Y-107911687D01*
X134872183Y-107736649D01*
X134803887Y-107571768D01*
X134704736Y-107423379D01*
X134578541Y-107297184D01*
X134430152Y-107198033D01*
X134265271Y-107129737D01*
X134090233Y-107094920D01*
X133911767Y-107094920D01*
X133736729Y-107129737D01*
X133571848Y-107198033D01*
X133423459Y-107297184D01*
X133297264Y-107423379D01*
X133198113Y-107571768D01*
X133129817Y-107736649D01*
X133095000Y-107911687D01*
X132907000Y-107911687D01*
X132872183Y-107736649D01*
X132803887Y-107571768D01*
X132704736Y-107423379D01*
X132578541Y-107297184D01*
X132430152Y-107198033D01*
X132265271Y-107129737D01*
X132090233Y-107094920D01*
X131911767Y-107094920D01*
X131736729Y-107129737D01*
X131571848Y-107198033D01*
X131423459Y-107297184D01*
X131297264Y-107423379D01*
X131198113Y-107571768D01*
X131129817Y-107736649D01*
X131095000Y-107911687D01*
X130907000Y-107911687D01*
X130872183Y-107736649D01*
X130803887Y-107571768D01*
X130704736Y-107423379D01*
X130578541Y-107297184D01*
X130430152Y-107198033D01*
X130265271Y-107129737D01*
X130090233Y-107094920D01*
X129911767Y-107094920D01*
X129736729Y-107129737D01*
X129571848Y-107198033D01*
X129423459Y-107297184D01*
X129297264Y-107423379D01*
X129198113Y-107571768D01*
X129129817Y-107736649D01*
X129095000Y-107911687D01*
X123056648Y-107911687D01*
X122957000Y-107812039D01*
X122957000Y-104787043D01*
X125756334Y-104787043D01*
X125766006Y-104863892D01*
X125855745Y-105049080D01*
X125979888Y-105213203D01*
X126097124Y-105317459D01*
X126025960Y-105450598D01*
X125981301Y-105597817D01*
X125966222Y-105750920D01*
X125981301Y-105904023D01*
X126025960Y-106051242D01*
X126098481Y-106186919D01*
X126196078Y-106305842D01*
X126218008Y-106323839D01*
X126138868Y-106388788D01*
X126066384Y-106477110D01*
X126012523Y-106577876D01*
X125979356Y-106687213D01*
X125968157Y-106800920D01*
X125968157Y-107200920D01*
X125979356Y-107314627D01*
X126012523Y-107423964D01*
X126066384Y-107524730D01*
X126138868Y-107613052D01*
X126227190Y-107685536D01*
X126327956Y-107739397D01*
X126437293Y-107772564D01*
X126551000Y-107783763D01*
X127451000Y-107783763D01*
X127564707Y-107772564D01*
X127674044Y-107739397D01*
X127774810Y-107685536D01*
X127863132Y-107613052D01*
X127935616Y-107524730D01*
X127989477Y-107423964D01*
X128022644Y-107314627D01*
X128033843Y-107200920D01*
X128033843Y-106800920D01*
X128022644Y-106687213D01*
X127989477Y-106577876D01*
X127935616Y-106477110D01*
X127863132Y-106388788D01*
X127783992Y-106323839D01*
X127805922Y-106305842D01*
X127903519Y-106186919D01*
X127976040Y-106051242D01*
X128020699Y-105904023D01*
X128035778Y-105750920D01*
X128020699Y-105597817D01*
X127976040Y-105450598D01*
X127904876Y-105317459D01*
X128022112Y-105213203D01*
X128146255Y-105049080D01*
X128235994Y-104863892D01*
X128245666Y-104787043D01*
X128216684Y-104750920D01*
X149966222Y-104750920D01*
X149981301Y-104904023D01*
X150025960Y-105051242D01*
X150098481Y-105186919D01*
X150196078Y-105305842D01*
X150281469Y-105375920D01*
X150196078Y-105445998D01*
X150098481Y-105564921D01*
X150025960Y-105700598D01*
X149981301Y-105847817D01*
X149966222Y-106000920D01*
X149981301Y-106154023D01*
X150025960Y-106301242D01*
X150098481Y-106436919D01*
X150196078Y-106555842D01*
X150315001Y-106653439D01*
X150450678Y-106725960D01*
X150597897Y-106770619D01*
X150712640Y-106781920D01*
X151289360Y-106781920D01*
X151404103Y-106770619D01*
X151551322Y-106725960D01*
X151686999Y-106653439D01*
X151805922Y-106555842D01*
X151903519Y-106436919D01*
X151976040Y-106301242D01*
X152020699Y-106154023D01*
X152035778Y-106000920D01*
X152020699Y-105847817D01*
X151976040Y-105700598D01*
X151903519Y-105564921D01*
X151805922Y-105445998D01*
X151720531Y-105375920D01*
X151805922Y-105305842D01*
X151903519Y-105186919D01*
X151976040Y-105051242D01*
X152020699Y-104904023D01*
X152035778Y-104750920D01*
X152020699Y-104597817D01*
X151976040Y-104450598D01*
X151903519Y-104314921D01*
X151805922Y-104195998D01*
X151783992Y-104178001D01*
X151863132Y-104113052D01*
X151935616Y-104024730D01*
X151989477Y-103923964D01*
X152022644Y-103814627D01*
X152033843Y-103700920D01*
X152033843Y-103300920D01*
X152022644Y-103187213D01*
X151989477Y-103077876D01*
X151935616Y-102977110D01*
X151863132Y-102888788D01*
X151774810Y-102816304D01*
X151674044Y-102762443D01*
X151564707Y-102729276D01*
X151451000Y-102718077D01*
X150551000Y-102718077D01*
X150437293Y-102729276D01*
X150327956Y-102762443D01*
X150227190Y-102816304D01*
X150138868Y-102888788D01*
X150066384Y-102977110D01*
X150012523Y-103077876D01*
X149979356Y-103187213D01*
X149968157Y-103300920D01*
X149968157Y-103700920D01*
X149979356Y-103814627D01*
X150012523Y-103923964D01*
X150066384Y-104024730D01*
X150138868Y-104113052D01*
X150218008Y-104178001D01*
X150196078Y-104195998D01*
X150098481Y-104314921D01*
X150025960Y-104450598D01*
X149981301Y-104597817D01*
X149966222Y-104750920D01*
X128216684Y-104750920D01*
X128117998Y-104627920D01*
X127128000Y-104627920D01*
X127128000Y-104647920D01*
X126874000Y-104647920D01*
X126874000Y-104627920D01*
X125884002Y-104627920D01*
X125756334Y-104787043D01*
X122957000Y-104787043D01*
X122957000Y-104214797D01*
X125756334Y-104214797D01*
X125884002Y-104373920D01*
X126874000Y-104373920D01*
X126874000Y-103617158D01*
X127128000Y-103617158D01*
X127128000Y-104373920D01*
X128117998Y-104373920D01*
X128245666Y-104214797D01*
X128235994Y-104137948D01*
X128146255Y-103952760D01*
X128022112Y-103788637D01*
X127868336Y-103651887D01*
X127690836Y-103547765D01*
X127496433Y-103480272D01*
X127292599Y-103452002D01*
X127128000Y-103617158D01*
X126874000Y-103617158D01*
X126709401Y-103452002D01*
X126505567Y-103480272D01*
X126311164Y-103547765D01*
X126133664Y-103651887D01*
X125979888Y-103788637D01*
X125855745Y-103952760D01*
X125766006Y-104137948D01*
X125756334Y-104214797D01*
X122957000Y-104214797D01*
X122957000Y-103432124D01*
X129302500Y-103432124D01*
X129302500Y-103569716D01*
X129329343Y-103704665D01*
X129381997Y-103831784D01*
X129458439Y-103946188D01*
X129555732Y-104043481D01*
X129670136Y-104119923D01*
X129797255Y-104172577D01*
X129932204Y-104199420D01*
X130069796Y-104199420D01*
X130204745Y-104172577D01*
X130331864Y-104119923D01*
X130446268Y-104043481D01*
X130543561Y-103946188D01*
X130620003Y-103831784D01*
X130672657Y-103704665D01*
X130699500Y-103569716D01*
X130699500Y-103432124D01*
X136302500Y-103432124D01*
X136302500Y-103569716D01*
X136329343Y-103704665D01*
X136381997Y-103831784D01*
X136458439Y-103946188D01*
X136555732Y-104043481D01*
X136670136Y-104119923D01*
X136797255Y-104172577D01*
X136932204Y-104199420D01*
X137069796Y-104199420D01*
X137204745Y-104172577D01*
X137331864Y-104119923D01*
X137446268Y-104043481D01*
X137543561Y-103946188D01*
X137620003Y-103831784D01*
X137672657Y-103704665D01*
X137699500Y-103569716D01*
X137699500Y-103432124D01*
X137672657Y-103297175D01*
X137620003Y-103170056D01*
X137543561Y-103055652D01*
X137446268Y-102958359D01*
X137331864Y-102881917D01*
X137204745Y-102829263D01*
X137069796Y-102802420D01*
X136932204Y-102802420D01*
X136797255Y-102829263D01*
X136670136Y-102881917D01*
X136555732Y-102958359D01*
X136458439Y-103055652D01*
X136381997Y-103170056D01*
X136329343Y-103297175D01*
X136302500Y-103432124D01*
X130699500Y-103432124D01*
X130672657Y-103297175D01*
X130620003Y-103170056D01*
X130543561Y-103055652D01*
X130446268Y-102958359D01*
X130331864Y-102881917D01*
X130204745Y-102829263D01*
X130069796Y-102802420D01*
X129932204Y-102802420D01*
X129797255Y-102829263D01*
X129670136Y-102881917D01*
X129555732Y-102958359D01*
X129458439Y-103055652D01*
X129381997Y-103170056D01*
X129329343Y-103297175D01*
X129302500Y-103432124D01*
X122957000Y-103432124D01*
X122957000Y-100400920D01*
X125712928Y-100400920D01*
X125725188Y-100525402D01*
X125761498Y-100645100D01*
X125820463Y-100755414D01*
X125899815Y-100852105D01*
X125996506Y-100931457D01*
X126106820Y-100990422D01*
X126226518Y-101026732D01*
X126351000Y-101038992D01*
X126715250Y-101035920D01*
X126874000Y-100877170D01*
X126874000Y-100127920D01*
X127128000Y-100127920D01*
X127128000Y-100877170D01*
X127286750Y-101035920D01*
X127651000Y-101038992D01*
X127775482Y-101026732D01*
X127895180Y-100990422D01*
X128005494Y-100931457D01*
X128102185Y-100852105D01*
X128181537Y-100755414D01*
X128220711Y-100682124D01*
X145302500Y-100682124D01*
X145302500Y-100819716D01*
X145329343Y-100954665D01*
X145381997Y-101081784D01*
X145458439Y-101196188D01*
X145555732Y-101293481D01*
X145670136Y-101369923D01*
X145797255Y-101422577D01*
X145932204Y-101449420D01*
X146069796Y-101449420D01*
X146204745Y-101422577D01*
X146331864Y-101369923D01*
X146446268Y-101293481D01*
X146543561Y-101196188D01*
X146620003Y-101081784D01*
X146672657Y-100954665D01*
X146699500Y-100819716D01*
X146699500Y-100682124D01*
X146672657Y-100547175D01*
X146620003Y-100420056D01*
X146543561Y-100305652D01*
X146446268Y-100208359D01*
X146331864Y-100131917D01*
X146204745Y-100079263D01*
X146069796Y-100052420D01*
X145932204Y-100052420D01*
X145797255Y-100079263D01*
X145670136Y-100131917D01*
X145555732Y-100208359D01*
X145458439Y-100305652D01*
X145381997Y-100420056D01*
X145329343Y-100547175D01*
X145302500Y-100682124D01*
X128220711Y-100682124D01*
X128240502Y-100645100D01*
X128276812Y-100525402D01*
X128289072Y-100400920D01*
X128286000Y-100286670D01*
X128127250Y-100127920D01*
X127128000Y-100127920D01*
X126874000Y-100127920D01*
X125874750Y-100127920D01*
X125716000Y-100286670D01*
X125712928Y-100400920D01*
X122957000Y-100400920D01*
X122957000Y-99600920D01*
X125712928Y-99600920D01*
X125716000Y-99715170D01*
X125874750Y-99873920D01*
X126874000Y-99873920D01*
X126874000Y-99853920D01*
X127128000Y-99853920D01*
X127128000Y-99873920D01*
X128127250Y-99873920D01*
X128286000Y-99715170D01*
X128289072Y-99600920D01*
X128276812Y-99476438D01*
X128240502Y-99356740D01*
X128181537Y-99246426D01*
X128102185Y-99149735D01*
X128005494Y-99070383D01*
X127974628Y-99053884D01*
X127976040Y-99051242D01*
X128020699Y-98904023D01*
X128035778Y-98750920D01*
X128020699Y-98597817D01*
X127976040Y-98450598D01*
X127903519Y-98314921D01*
X127805922Y-98195998D01*
X127720531Y-98125920D01*
X127805922Y-98055842D01*
X127903519Y-97936919D01*
X127976040Y-97801242D01*
X128020699Y-97654023D01*
X128035778Y-97500920D01*
X128020699Y-97347817D01*
X127976040Y-97200598D01*
X127903519Y-97064921D01*
X127805922Y-96945998D01*
X127789017Y-96932124D01*
X144802500Y-96932124D01*
X144802500Y-97069716D01*
X144829343Y-97204665D01*
X144881997Y-97331784D01*
X144958439Y-97446188D01*
X145055732Y-97543481D01*
X145170136Y-97619923D01*
X145297255Y-97672577D01*
X145432204Y-97699420D01*
X145569796Y-97699420D01*
X145704745Y-97672577D01*
X145831864Y-97619923D01*
X145946268Y-97543481D01*
X146043561Y-97446188D01*
X146120003Y-97331784D01*
X146172657Y-97204665D01*
X146199500Y-97069716D01*
X146199500Y-96932124D01*
X146172657Y-96797175D01*
X146120003Y-96670056D01*
X146043561Y-96555652D01*
X145946268Y-96458359D01*
X145831864Y-96381917D01*
X145704745Y-96329263D01*
X145569796Y-96302420D01*
X145432204Y-96302420D01*
X145297255Y-96329263D01*
X145170136Y-96381917D01*
X145055732Y-96458359D01*
X144958439Y-96555652D01*
X144881997Y-96670056D01*
X144829343Y-96797175D01*
X144802500Y-96932124D01*
X127789017Y-96932124D01*
X127720531Y-96875920D01*
X127805922Y-96805842D01*
X127903519Y-96686919D01*
X127976040Y-96551242D01*
X128020699Y-96404023D01*
X128035778Y-96250920D01*
X149966222Y-96250920D01*
X149981301Y-96404023D01*
X150025960Y-96551242D01*
X150098481Y-96686919D01*
X150196078Y-96805842D01*
X150281469Y-96875920D01*
X150196078Y-96945998D01*
X150098481Y-97064921D01*
X150025960Y-97200598D01*
X149981301Y-97347817D01*
X149966222Y-97500920D01*
X149981301Y-97654023D01*
X150025960Y-97801242D01*
X150098481Y-97936919D01*
X150196078Y-98055842D01*
X150281469Y-98125920D01*
X150196078Y-98195998D01*
X150098481Y-98314921D01*
X150025960Y-98450598D01*
X149981301Y-98597817D01*
X149966222Y-98750920D01*
X149981301Y-98904023D01*
X150025960Y-99051242D01*
X150098481Y-99186919D01*
X150196078Y-99305842D01*
X150315001Y-99403439D01*
X150450678Y-99475960D01*
X150597897Y-99520619D01*
X150712640Y-99531920D01*
X151289360Y-99531920D01*
X151404103Y-99520619D01*
X151551322Y-99475960D01*
X151686999Y-99403439D01*
X151805922Y-99305842D01*
X151903519Y-99186919D01*
X151976040Y-99051242D01*
X152020699Y-98904023D01*
X152035778Y-98750920D01*
X152020699Y-98597817D01*
X151976040Y-98450598D01*
X151903519Y-98314921D01*
X151805922Y-98195998D01*
X151720531Y-98125920D01*
X151805922Y-98055842D01*
X151903519Y-97936919D01*
X151976040Y-97801242D01*
X152020699Y-97654023D01*
X152035778Y-97500920D01*
X152020699Y-97347817D01*
X151976040Y-97200598D01*
X151903519Y-97064921D01*
X151805922Y-96945998D01*
X151720531Y-96875920D01*
X151805922Y-96805842D01*
X151903519Y-96686919D01*
X151976040Y-96551242D01*
X152020699Y-96404023D01*
X152035778Y-96250920D01*
X152020699Y-96097817D01*
X151976040Y-95950598D01*
X151903519Y-95814921D01*
X151805922Y-95695998D01*
X151783992Y-95678001D01*
X151863132Y-95613052D01*
X151935616Y-95524730D01*
X151989477Y-95423964D01*
X152022644Y-95314627D01*
X152033843Y-95200920D01*
X152033843Y-94800920D01*
X152022644Y-94687213D01*
X151989477Y-94577876D01*
X151935616Y-94477110D01*
X151863132Y-94388788D01*
X151774810Y-94316304D01*
X151674044Y-94262443D01*
X151564707Y-94229276D01*
X151451000Y-94218077D01*
X150551000Y-94218077D01*
X150437293Y-94229276D01*
X150327956Y-94262443D01*
X150227190Y-94316304D01*
X150138868Y-94388788D01*
X150066384Y-94477110D01*
X150012523Y-94577876D01*
X149979356Y-94687213D01*
X149968157Y-94800920D01*
X149968157Y-95200920D01*
X149979356Y-95314627D01*
X150012523Y-95423964D01*
X150066384Y-95524730D01*
X150138868Y-95613052D01*
X150218008Y-95678001D01*
X150196078Y-95695998D01*
X150098481Y-95814921D01*
X150025960Y-95950598D01*
X149981301Y-96097817D01*
X149966222Y-96250920D01*
X128035778Y-96250920D01*
X128020699Y-96097817D01*
X127976040Y-95950598D01*
X127903519Y-95814921D01*
X127805922Y-95695998D01*
X127686999Y-95598401D01*
X127551322Y-95525880D01*
X127404103Y-95481221D01*
X127289360Y-95469920D01*
X126712640Y-95469920D01*
X126597897Y-95481221D01*
X126450678Y-95525880D01*
X126315001Y-95598401D01*
X126196078Y-95695998D01*
X126098481Y-95814921D01*
X126025960Y-95950598D01*
X125981301Y-96097817D01*
X125966222Y-96250920D01*
X125981301Y-96404023D01*
X126025960Y-96551242D01*
X126098481Y-96686919D01*
X126196078Y-96805842D01*
X126281469Y-96875920D01*
X126196078Y-96945998D01*
X126098481Y-97064921D01*
X126025960Y-97200598D01*
X125981301Y-97347817D01*
X125966222Y-97500920D01*
X125981301Y-97654023D01*
X126025960Y-97801242D01*
X126098481Y-97936919D01*
X126196078Y-98055842D01*
X126281469Y-98125920D01*
X126196078Y-98195998D01*
X126098481Y-98314921D01*
X126025960Y-98450598D01*
X125981301Y-98597817D01*
X125966222Y-98750920D01*
X125981301Y-98904023D01*
X126025960Y-99051242D01*
X126027372Y-99053884D01*
X125996506Y-99070383D01*
X125899815Y-99149735D01*
X125820463Y-99246426D01*
X125761498Y-99356740D01*
X125725188Y-99476438D01*
X125712928Y-99600920D01*
X122957000Y-99600920D01*
X122957000Y-94932124D01*
X129302500Y-94932124D01*
X129302500Y-95069716D01*
X129329343Y-95204665D01*
X129381997Y-95331784D01*
X129458439Y-95446188D01*
X129555732Y-95543481D01*
X129670136Y-95619923D01*
X129797255Y-95672577D01*
X129932204Y-95699420D01*
X130069796Y-95699420D01*
X130204745Y-95672577D01*
X130331864Y-95619923D01*
X130446268Y-95543481D01*
X130543561Y-95446188D01*
X130620003Y-95331784D01*
X130672657Y-95204665D01*
X130699500Y-95069716D01*
X130699500Y-94932124D01*
X138802500Y-94932124D01*
X138802500Y-95069716D01*
X138829343Y-95204665D01*
X138881997Y-95331784D01*
X138958439Y-95446188D01*
X139055732Y-95543481D01*
X139170136Y-95619923D01*
X139297255Y-95672577D01*
X139432204Y-95699420D01*
X139569796Y-95699420D01*
X139704745Y-95672577D01*
X139831864Y-95619923D01*
X139946268Y-95543481D01*
X140043561Y-95446188D01*
X140120003Y-95331784D01*
X140172657Y-95204665D01*
X140199500Y-95069716D01*
X140199500Y-94932124D01*
X140172657Y-94797175D01*
X140120003Y-94670056D01*
X140043561Y-94555652D01*
X139946268Y-94458359D01*
X139831864Y-94381917D01*
X139704745Y-94329263D01*
X139569796Y-94302420D01*
X139432204Y-94302420D01*
X139297255Y-94329263D01*
X139170136Y-94381917D01*
X139055732Y-94458359D01*
X138958439Y-94555652D01*
X138881997Y-94670056D01*
X138829343Y-94797175D01*
X138802500Y-94932124D01*
X130699500Y-94932124D01*
X130672657Y-94797175D01*
X130620003Y-94670056D01*
X130543561Y-94555652D01*
X130446268Y-94458359D01*
X130331864Y-94381917D01*
X130204745Y-94329263D01*
X130069796Y-94302420D01*
X129932204Y-94302420D01*
X129797255Y-94329263D01*
X129670136Y-94381917D01*
X129555732Y-94458359D01*
X129458439Y-94555652D01*
X129381997Y-94670056D01*
X129329343Y-94797175D01*
X129302500Y-94932124D01*
X122957000Y-94932124D01*
X122957000Y-93932124D01*
X132802500Y-93932124D01*
X132802500Y-94069716D01*
X132829343Y-94204665D01*
X132881997Y-94331784D01*
X132958439Y-94446188D01*
X133055732Y-94543481D01*
X133170136Y-94619923D01*
X133297255Y-94672577D01*
X133432204Y-94699420D01*
X133569796Y-94699420D01*
X133704745Y-94672577D01*
X133831864Y-94619923D01*
X133946268Y-94543481D01*
X134043561Y-94446188D01*
X134120003Y-94331784D01*
X134172657Y-94204665D01*
X134199500Y-94069716D01*
X134199500Y-93932124D01*
X134172657Y-93797175D01*
X134120003Y-93670056D01*
X134043561Y-93555652D01*
X133946268Y-93458359D01*
X133831864Y-93381917D01*
X133704745Y-93329263D01*
X133569796Y-93302420D01*
X133432204Y-93302420D01*
X133297255Y-93329263D01*
X133170136Y-93381917D01*
X133055732Y-93458359D01*
X132958439Y-93555652D01*
X132881997Y-93670056D01*
X132829343Y-93797175D01*
X132802500Y-93932124D01*
X122957000Y-93932124D01*
X122957000Y-87000920D01*
X125966222Y-87000920D01*
X125981301Y-87154023D01*
X126025960Y-87301242D01*
X126098481Y-87436919D01*
X126196078Y-87555842D01*
X126281469Y-87625920D01*
X126196078Y-87695998D01*
X126098481Y-87814921D01*
X126025960Y-87950598D01*
X125981301Y-88097817D01*
X125966222Y-88250920D01*
X125981301Y-88404023D01*
X126025960Y-88551242D01*
X126098481Y-88686919D01*
X126196078Y-88805842D01*
X126281469Y-88875920D01*
X126196078Y-88945998D01*
X126098481Y-89064921D01*
X126025960Y-89200598D01*
X125981301Y-89347817D01*
X125966222Y-89500920D01*
X125981301Y-89654023D01*
X126025960Y-89801242D01*
X126098481Y-89936919D01*
X126196078Y-90055842D01*
X126281469Y-90125920D01*
X126196078Y-90195998D01*
X126098481Y-90314921D01*
X126025960Y-90450598D01*
X125981301Y-90597817D01*
X125966222Y-90750920D01*
X125981301Y-90904023D01*
X126025960Y-91051242D01*
X126098481Y-91186919D01*
X126196078Y-91305842D01*
X126218008Y-91323839D01*
X126138868Y-91388788D01*
X126066384Y-91477110D01*
X126012523Y-91577876D01*
X125979356Y-91687213D01*
X125968157Y-91800920D01*
X125968157Y-92200920D01*
X125979356Y-92314627D01*
X126012523Y-92423964D01*
X126066384Y-92524730D01*
X126138868Y-92613052D01*
X126227190Y-92685536D01*
X126327956Y-92739397D01*
X126437293Y-92772564D01*
X126551000Y-92783763D01*
X127451000Y-92783763D01*
X127564707Y-92772564D01*
X127674044Y-92739397D01*
X127774810Y-92685536D01*
X127863132Y-92613052D01*
X127935616Y-92524730D01*
X127989477Y-92423964D01*
X128022644Y-92314627D01*
X128033843Y-92200920D01*
X128033843Y-91800920D01*
X128022644Y-91687213D01*
X127989477Y-91577876D01*
X127935616Y-91477110D01*
X127887022Y-91417898D01*
X144230990Y-91417898D01*
X144230990Y-91555490D01*
X144257833Y-91690439D01*
X144310487Y-91817558D01*
X144386929Y-91931962D01*
X144484222Y-92029255D01*
X144598626Y-92105697D01*
X144725745Y-92158351D01*
X144860694Y-92185194D01*
X144998286Y-92185194D01*
X145133235Y-92158351D01*
X145260354Y-92105697D01*
X145374758Y-92029255D01*
X145472051Y-91931962D01*
X145548493Y-91817558D01*
X145601147Y-91690439D01*
X145627990Y-91555490D01*
X145627990Y-91417898D01*
X145601147Y-91282949D01*
X145548493Y-91155830D01*
X145472051Y-91041426D01*
X145374758Y-90944133D01*
X145260354Y-90867691D01*
X145133235Y-90815037D01*
X144998286Y-90788194D01*
X144860694Y-90788194D01*
X144725745Y-90815037D01*
X144598626Y-90867691D01*
X144484222Y-90944133D01*
X144386929Y-91041426D01*
X144310487Y-91155830D01*
X144257833Y-91282949D01*
X144230990Y-91417898D01*
X127887022Y-91417898D01*
X127863132Y-91388788D01*
X127783992Y-91323839D01*
X127805922Y-91305842D01*
X127903519Y-91186919D01*
X127976040Y-91051242D01*
X128020699Y-90904023D01*
X128035778Y-90750920D01*
X128020699Y-90597817D01*
X127976040Y-90450598D01*
X127968058Y-90435663D01*
X139802500Y-90435663D01*
X139802500Y-90573255D01*
X139829343Y-90708204D01*
X139881997Y-90835323D01*
X139958439Y-90949727D01*
X140055732Y-91047020D01*
X140170136Y-91123462D01*
X140297255Y-91176116D01*
X140432204Y-91202959D01*
X140569796Y-91202959D01*
X140704745Y-91176116D01*
X140831864Y-91123462D01*
X140946268Y-91047020D01*
X141043561Y-90949727D01*
X141120003Y-90835323D01*
X141172657Y-90708204D01*
X141199500Y-90573255D01*
X141199500Y-90435663D01*
X141172657Y-90300714D01*
X141152032Y-90250920D01*
X149966222Y-90250920D01*
X149981301Y-90404023D01*
X150025960Y-90551242D01*
X150098481Y-90686919D01*
X150196078Y-90805842D01*
X150315001Y-90903439D01*
X150450678Y-90975960D01*
X150597897Y-91020619D01*
X150712640Y-91031920D01*
X151289360Y-91031920D01*
X151404103Y-91020619D01*
X151551322Y-90975960D01*
X151686999Y-90903439D01*
X151805922Y-90805842D01*
X151903519Y-90686919D01*
X151976040Y-90551242D01*
X152020699Y-90404023D01*
X152035778Y-90250920D01*
X152020699Y-90097817D01*
X151976040Y-89950598D01*
X151903519Y-89814921D01*
X151805922Y-89695998D01*
X151783992Y-89678001D01*
X151863132Y-89613052D01*
X151935616Y-89524730D01*
X151989477Y-89423964D01*
X152022644Y-89314627D01*
X152033843Y-89200920D01*
X152033843Y-88800920D01*
X152022644Y-88687213D01*
X151989477Y-88577876D01*
X151935616Y-88477110D01*
X151863132Y-88388788D01*
X151774810Y-88316304D01*
X151674044Y-88262443D01*
X151564707Y-88229276D01*
X151451000Y-88218077D01*
X150551000Y-88218077D01*
X150437293Y-88229276D01*
X150327956Y-88262443D01*
X150227190Y-88316304D01*
X150138868Y-88388788D01*
X150066384Y-88477110D01*
X150012523Y-88577876D01*
X149979356Y-88687213D01*
X149968157Y-88800920D01*
X149968157Y-89200920D01*
X149979356Y-89314627D01*
X150012523Y-89423964D01*
X150066384Y-89524730D01*
X150138868Y-89613052D01*
X150218008Y-89678001D01*
X150196078Y-89695998D01*
X150098481Y-89814921D01*
X150025960Y-89950598D01*
X149981301Y-90097817D01*
X149966222Y-90250920D01*
X141152032Y-90250920D01*
X141120003Y-90173595D01*
X141043561Y-90059191D01*
X140946268Y-89961898D01*
X140831864Y-89885456D01*
X140704745Y-89832802D01*
X140569796Y-89805959D01*
X140432204Y-89805959D01*
X140297255Y-89832802D01*
X140170136Y-89885456D01*
X140055732Y-89961898D01*
X139958439Y-90059191D01*
X139881997Y-90173595D01*
X139829343Y-90300714D01*
X139802500Y-90435663D01*
X127968058Y-90435663D01*
X127903519Y-90314921D01*
X127805922Y-90195998D01*
X127720531Y-90125920D01*
X127805922Y-90055842D01*
X127903519Y-89936919D01*
X127976040Y-89801242D01*
X128020699Y-89654023D01*
X128035778Y-89500920D01*
X128020699Y-89347817D01*
X127976040Y-89200598D01*
X127903519Y-89064921D01*
X127805922Y-88945998D01*
X127720531Y-88875920D01*
X127805922Y-88805842D01*
X127903519Y-88686919D01*
X127976040Y-88551242D01*
X128020699Y-88404023D01*
X128035778Y-88250920D01*
X128020699Y-88097817D01*
X127976040Y-87950598D01*
X127903519Y-87814921D01*
X127805922Y-87695998D01*
X127720531Y-87625920D01*
X127805922Y-87555842D01*
X127903519Y-87436919D01*
X127976040Y-87301242D01*
X128020699Y-87154023D01*
X128035778Y-87000920D01*
X128020699Y-86847817D01*
X128005283Y-86796996D01*
X129384529Y-86796996D01*
X129422693Y-87012956D01*
X129631244Y-87106332D01*
X129854004Y-87157228D01*
X130082413Y-87163687D01*
X130307693Y-87125462D01*
X130521187Y-87044022D01*
X130579307Y-87012956D01*
X130617471Y-86796996D01*
X130001000Y-86180525D01*
X129384529Y-86796996D01*
X128005283Y-86796996D01*
X127976040Y-86700598D01*
X127903519Y-86564921D01*
X127805922Y-86445998D01*
X127686999Y-86348401D01*
X127551322Y-86275880D01*
X127404103Y-86231221D01*
X127289360Y-86219920D01*
X126712640Y-86219920D01*
X126597897Y-86231221D01*
X126450678Y-86275880D01*
X126315001Y-86348401D01*
X126196078Y-86445998D01*
X126098481Y-86564921D01*
X126025960Y-86700598D01*
X125981301Y-86847817D01*
X125966222Y-87000920D01*
X122957000Y-87000920D01*
X122957000Y-86189801D01*
X123064468Y-86082333D01*
X128838233Y-86082333D01*
X128876458Y-86307613D01*
X128957898Y-86521107D01*
X128988964Y-86579227D01*
X129204924Y-86617391D01*
X129821395Y-86000920D01*
X130180605Y-86000920D01*
X130797076Y-86617391D01*
X131013036Y-86579227D01*
X131106412Y-86370676D01*
X131130266Y-86266274D01*
X131198113Y-86430072D01*
X131297264Y-86578461D01*
X131423459Y-86704656D01*
X131571848Y-86803807D01*
X131736729Y-86872103D01*
X131911767Y-86906920D01*
X132090233Y-86906920D01*
X132265271Y-86872103D01*
X132430152Y-86803807D01*
X132578541Y-86704656D01*
X132704736Y-86578461D01*
X132803887Y-86430072D01*
X132872183Y-86265191D01*
X132907000Y-86090153D01*
X132907000Y-85911687D01*
X133095000Y-85911687D01*
X133095000Y-86090153D01*
X133129817Y-86265191D01*
X133198113Y-86430072D01*
X133297264Y-86578461D01*
X133423459Y-86704656D01*
X133571848Y-86803807D01*
X133736729Y-86872103D01*
X133911767Y-86906920D01*
X134090233Y-86906920D01*
X134265271Y-86872103D01*
X134430152Y-86803807D01*
X134578541Y-86704656D01*
X134704736Y-86578461D01*
X134803887Y-86430072D01*
X134872183Y-86265191D01*
X134907000Y-86090153D01*
X134907000Y-85911687D01*
X135095000Y-85911687D01*
X135095000Y-86090153D01*
X135129817Y-86265191D01*
X135198113Y-86430072D01*
X135297264Y-86578461D01*
X135423459Y-86704656D01*
X135571848Y-86803807D01*
X135736729Y-86872103D01*
X135911767Y-86906920D01*
X136090233Y-86906920D01*
X136265271Y-86872103D01*
X136430152Y-86803807D01*
X136578541Y-86704656D01*
X136704736Y-86578461D01*
X136803887Y-86430072D01*
X136872183Y-86265191D01*
X136907000Y-86090153D01*
X136907000Y-85911687D01*
X137095000Y-85911687D01*
X137095000Y-86090153D01*
X137129817Y-86265191D01*
X137198113Y-86430072D01*
X137297264Y-86578461D01*
X137423459Y-86704656D01*
X137571848Y-86803807D01*
X137736729Y-86872103D01*
X137911767Y-86906920D01*
X138090233Y-86906920D01*
X138265271Y-86872103D01*
X138430152Y-86803807D01*
X138578541Y-86704656D01*
X138704736Y-86578461D01*
X138803887Y-86430072D01*
X138872183Y-86265191D01*
X138907000Y-86090153D01*
X138907000Y-85911687D01*
X139095000Y-85911687D01*
X139095000Y-86090153D01*
X139129817Y-86265191D01*
X139198113Y-86430072D01*
X139297264Y-86578461D01*
X139423459Y-86704656D01*
X139571848Y-86803807D01*
X139736729Y-86872103D01*
X139911767Y-86906920D01*
X140090233Y-86906920D01*
X140265271Y-86872103D01*
X140430152Y-86803807D01*
X140578541Y-86704656D01*
X140704736Y-86578461D01*
X140803887Y-86430072D01*
X140872183Y-86265191D01*
X140907000Y-86090153D01*
X140907000Y-85911687D01*
X141095000Y-85911687D01*
X141095000Y-86090153D01*
X141129817Y-86265191D01*
X141198113Y-86430072D01*
X141297264Y-86578461D01*
X141423459Y-86704656D01*
X141571848Y-86803807D01*
X141736729Y-86872103D01*
X141911767Y-86906920D01*
X142090233Y-86906920D01*
X142265271Y-86872103D01*
X142430152Y-86803807D01*
X142578541Y-86704656D01*
X142704736Y-86578461D01*
X142803887Y-86430072D01*
X142872183Y-86265191D01*
X142907000Y-86090153D01*
X142907000Y-85911687D01*
X143095000Y-85911687D01*
X143095000Y-86090153D01*
X143129817Y-86265191D01*
X143198113Y-86430072D01*
X143297264Y-86578461D01*
X143423459Y-86704656D01*
X143571848Y-86803807D01*
X143736729Y-86872103D01*
X143911767Y-86906920D01*
X144090233Y-86906920D01*
X144265271Y-86872103D01*
X144430152Y-86803807D01*
X144578541Y-86704656D01*
X144704736Y-86578461D01*
X144803887Y-86430072D01*
X144872183Y-86265191D01*
X144907000Y-86090153D01*
X144907000Y-85911687D01*
X145095000Y-85911687D01*
X145095000Y-86090153D01*
X145129817Y-86265191D01*
X145198113Y-86430072D01*
X145297264Y-86578461D01*
X145423459Y-86704656D01*
X145571848Y-86803807D01*
X145736729Y-86872103D01*
X145911767Y-86906920D01*
X146090233Y-86906920D01*
X146265271Y-86872103D01*
X146430152Y-86803807D01*
X146578541Y-86704656D01*
X146704736Y-86578461D01*
X146803887Y-86430072D01*
X146872183Y-86265191D01*
X146907000Y-86090153D01*
X146907000Y-85911687D01*
X146872183Y-85736649D01*
X146803887Y-85571768D01*
X146739844Y-85475920D01*
X147093157Y-85475920D01*
X147093157Y-86525920D01*
X147100513Y-86600609D01*
X147122299Y-86672428D01*
X147157678Y-86738616D01*
X147205289Y-86796631D01*
X147263304Y-86844242D01*
X147329492Y-86879621D01*
X147401311Y-86901407D01*
X147476000Y-86908763D01*
X148526000Y-86908763D01*
X148600689Y-86901407D01*
X148672508Y-86879621D01*
X148738696Y-86844242D01*
X148796711Y-86796631D01*
X148844322Y-86738616D01*
X148879701Y-86672428D01*
X148901487Y-86600609D01*
X148908843Y-86525920D01*
X148908843Y-85475920D01*
X148901487Y-85401231D01*
X148879701Y-85329412D01*
X148844322Y-85263224D01*
X148796711Y-85205209D01*
X148738696Y-85157598D01*
X148672508Y-85122219D01*
X148600689Y-85100433D01*
X148526000Y-85093077D01*
X147476000Y-85093077D01*
X147401311Y-85100433D01*
X147329492Y-85122219D01*
X147263304Y-85157598D01*
X147205289Y-85205209D01*
X147157678Y-85263224D01*
X147122299Y-85329412D01*
X147100513Y-85401231D01*
X147093157Y-85475920D01*
X146739844Y-85475920D01*
X146704736Y-85423379D01*
X146578541Y-85297184D01*
X146430152Y-85198033D01*
X146265271Y-85129737D01*
X146090233Y-85094920D01*
X145911767Y-85094920D01*
X145736729Y-85129737D01*
X145571848Y-85198033D01*
X145423459Y-85297184D01*
X145297264Y-85423379D01*
X145198113Y-85571768D01*
X145129817Y-85736649D01*
X145095000Y-85911687D01*
X144907000Y-85911687D01*
X144872183Y-85736649D01*
X144803887Y-85571768D01*
X144704736Y-85423379D01*
X144578541Y-85297184D01*
X144430152Y-85198033D01*
X144265271Y-85129737D01*
X144090233Y-85094920D01*
X143911767Y-85094920D01*
X143736729Y-85129737D01*
X143571848Y-85198033D01*
X143423459Y-85297184D01*
X143297264Y-85423379D01*
X143198113Y-85571768D01*
X143129817Y-85736649D01*
X143095000Y-85911687D01*
X142907000Y-85911687D01*
X142872183Y-85736649D01*
X142803887Y-85571768D01*
X142704736Y-85423379D01*
X142578541Y-85297184D01*
X142430152Y-85198033D01*
X142265271Y-85129737D01*
X142090233Y-85094920D01*
X141911767Y-85094920D01*
X141736729Y-85129737D01*
X141571848Y-85198033D01*
X141423459Y-85297184D01*
X141297264Y-85423379D01*
X141198113Y-85571768D01*
X141129817Y-85736649D01*
X141095000Y-85911687D01*
X140907000Y-85911687D01*
X140872183Y-85736649D01*
X140803887Y-85571768D01*
X140704736Y-85423379D01*
X140578541Y-85297184D01*
X140430152Y-85198033D01*
X140265271Y-85129737D01*
X140090233Y-85094920D01*
X139911767Y-85094920D01*
X139736729Y-85129737D01*
X139571848Y-85198033D01*
X139423459Y-85297184D01*
X139297264Y-85423379D01*
X139198113Y-85571768D01*
X139129817Y-85736649D01*
X139095000Y-85911687D01*
X138907000Y-85911687D01*
X138872183Y-85736649D01*
X138803887Y-85571768D01*
X138704736Y-85423379D01*
X138578541Y-85297184D01*
X138430152Y-85198033D01*
X138265271Y-85129737D01*
X138090233Y-85094920D01*
X137911767Y-85094920D01*
X137736729Y-85129737D01*
X137571848Y-85198033D01*
X137423459Y-85297184D01*
X137297264Y-85423379D01*
X137198113Y-85571768D01*
X137129817Y-85736649D01*
X137095000Y-85911687D01*
X136907000Y-85911687D01*
X136872183Y-85736649D01*
X136803887Y-85571768D01*
X136704736Y-85423379D01*
X136578541Y-85297184D01*
X136430152Y-85198033D01*
X136265271Y-85129737D01*
X136090233Y-85094920D01*
X135911767Y-85094920D01*
X135736729Y-85129737D01*
X135571848Y-85198033D01*
X135423459Y-85297184D01*
X135297264Y-85423379D01*
X135198113Y-85571768D01*
X135129817Y-85736649D01*
X135095000Y-85911687D01*
X134907000Y-85911687D01*
X134872183Y-85736649D01*
X134803887Y-85571768D01*
X134704736Y-85423379D01*
X134578541Y-85297184D01*
X134430152Y-85198033D01*
X134265271Y-85129737D01*
X134090233Y-85094920D01*
X133911767Y-85094920D01*
X133736729Y-85129737D01*
X133571848Y-85198033D01*
X133423459Y-85297184D01*
X133297264Y-85423379D01*
X133198113Y-85571768D01*
X133129817Y-85736649D01*
X133095000Y-85911687D01*
X132907000Y-85911687D01*
X132872183Y-85736649D01*
X132803887Y-85571768D01*
X132704736Y-85423379D01*
X132578541Y-85297184D01*
X132430152Y-85198033D01*
X132265271Y-85129737D01*
X132090233Y-85094920D01*
X131911767Y-85094920D01*
X131736729Y-85129737D01*
X131571848Y-85198033D01*
X131423459Y-85297184D01*
X131297264Y-85423379D01*
X131198113Y-85571768D01*
X131131891Y-85731643D01*
X131125542Y-85694227D01*
X131044102Y-85480733D01*
X131013036Y-85422613D01*
X130797076Y-85384449D01*
X130180605Y-86000920D01*
X129821395Y-86000920D01*
X129204924Y-85384449D01*
X128988964Y-85422613D01*
X128895588Y-85631164D01*
X128844692Y-85853924D01*
X128838233Y-86082333D01*
X123064468Y-86082333D01*
X123941957Y-85204844D01*
X129384529Y-85204844D01*
X130001000Y-85821315D01*
X130617471Y-85204844D01*
X130579307Y-84988884D01*
X130370756Y-84895508D01*
X130147996Y-84844612D01*
X129919587Y-84838153D01*
X129694307Y-84876378D01*
X129480813Y-84957818D01*
X129422693Y-84988884D01*
X129384529Y-85204844D01*
X123941957Y-85204844D01*
X125689881Y-83456920D01*
X152312119Y-83456920D01*
X155045000Y-86189801D01*
G37*
X155045000Y-86189801D02*
X155045001Y-107812038D01*
X152312119Y-110544920D01*
X125689881Y-110544920D01*
X123056648Y-107911687D01*
X129095000Y-107911687D01*
X129095000Y-108090153D01*
X129129817Y-108265191D01*
X129198113Y-108430072D01*
X129297264Y-108578461D01*
X129423459Y-108704656D01*
X129571848Y-108803807D01*
X129736729Y-108872103D01*
X129911767Y-108906920D01*
X130090233Y-108906920D01*
X130265271Y-108872103D01*
X130430152Y-108803807D01*
X130578541Y-108704656D01*
X130704736Y-108578461D01*
X130803887Y-108430072D01*
X130872183Y-108265191D01*
X130907000Y-108090153D01*
X130907000Y-107911687D01*
X131095000Y-107911687D01*
X131095000Y-108090153D01*
X131129817Y-108265191D01*
X131198113Y-108430072D01*
X131297264Y-108578461D01*
X131423459Y-108704656D01*
X131571848Y-108803807D01*
X131736729Y-108872103D01*
X131911767Y-108906920D01*
X132090233Y-108906920D01*
X132265271Y-108872103D01*
X132430152Y-108803807D01*
X132578541Y-108704656D01*
X132704736Y-108578461D01*
X132803887Y-108430072D01*
X132872183Y-108265191D01*
X132907000Y-108090153D01*
X132907000Y-107911687D01*
X133095000Y-107911687D01*
X133095000Y-108090153D01*
X133129817Y-108265191D01*
X133198113Y-108430072D01*
X133297264Y-108578461D01*
X133423459Y-108704656D01*
X133571848Y-108803807D01*
X133736729Y-108872103D01*
X133911767Y-108906920D01*
X134090233Y-108906920D01*
X134265271Y-108872103D01*
X134430152Y-108803807D01*
X134578541Y-108704656D01*
X134704736Y-108578461D01*
X134803887Y-108430072D01*
X134872183Y-108265191D01*
X134907000Y-108090153D01*
X134907000Y-107911687D01*
X135095000Y-107911687D01*
X135095000Y-108090153D01*
X135129817Y-108265191D01*
X135198113Y-108430072D01*
X135297264Y-108578461D01*
X135423459Y-108704656D01*
X135571848Y-108803807D01*
X135736729Y-108872103D01*
X135911767Y-108906920D01*
X136090233Y-108906920D01*
X136265271Y-108872103D01*
X136430152Y-108803807D01*
X136578541Y-108704656D01*
X136704736Y-108578461D01*
X136803887Y-108430072D01*
X136872183Y-108265191D01*
X136907000Y-108090153D01*
X136907000Y-107911687D01*
X137095000Y-107911687D01*
X137095000Y-108090153D01*
X137129817Y-108265191D01*
X137198113Y-108430072D01*
X137297264Y-108578461D01*
X137423459Y-108704656D01*
X137571848Y-108803807D01*
X137736729Y-108872103D01*
X137911767Y-108906920D01*
X138090233Y-108906920D01*
X138265271Y-108872103D01*
X138430152Y-108803807D01*
X138578541Y-108704656D01*
X138704736Y-108578461D01*
X138803887Y-108430072D01*
X138872183Y-108265191D01*
X138907000Y-108090153D01*
X138907000Y-107911687D01*
X139095000Y-107911687D01*
X139095000Y-108090153D01*
X139129817Y-108265191D01*
X139198113Y-108430072D01*
X139297264Y-108578461D01*
X139423459Y-108704656D01*
X139571848Y-108803807D01*
X139736729Y-108872103D01*
X139911767Y-108906920D01*
X140090233Y-108906920D01*
X140265271Y-108872103D01*
X140430152Y-108803807D01*
X140578541Y-108704656D01*
X140704736Y-108578461D01*
X140803887Y-108430072D01*
X140872183Y-108265191D01*
X140907000Y-108090153D01*
X140907000Y-107911687D01*
X141095000Y-107911687D01*
X141095000Y-108090153D01*
X141129817Y-108265191D01*
X141198113Y-108430072D01*
X141297264Y-108578461D01*
X141423459Y-108704656D01*
X141571848Y-108803807D01*
X141736729Y-108872103D01*
X141911767Y-108906920D01*
X142090233Y-108906920D01*
X142265271Y-108872103D01*
X142430152Y-108803807D01*
X142578541Y-108704656D01*
X142704736Y-108578461D01*
X142803887Y-108430072D01*
X142872183Y-108265191D01*
X142907000Y-108090153D01*
X142907000Y-107911687D01*
X143095000Y-107911687D01*
X143095000Y-108090153D01*
X143129817Y-108265191D01*
X143198113Y-108430072D01*
X143297264Y-108578461D01*
X143423459Y-108704656D01*
X143571848Y-108803807D01*
X143736729Y-108872103D01*
X143911767Y-108906920D01*
X144090233Y-108906920D01*
X144265271Y-108872103D01*
X144430152Y-108803807D01*
X144578541Y-108704656D01*
X144704736Y-108578461D01*
X144803887Y-108430072D01*
X144872183Y-108265191D01*
X144907000Y-108090153D01*
X144907000Y-107911687D01*
X145095000Y-107911687D01*
X145095000Y-108090153D01*
X145129817Y-108265191D01*
X145198113Y-108430072D01*
X145297264Y-108578461D01*
X145423459Y-108704656D01*
X145571848Y-108803807D01*
X145736729Y-108872103D01*
X145911767Y-108906920D01*
X146090233Y-108906920D01*
X146265271Y-108872103D01*
X146430152Y-108803807D01*
X146578541Y-108704656D01*
X146704736Y-108578461D01*
X146803887Y-108430072D01*
X146872183Y-108265191D01*
X146907000Y-108090153D01*
X146907000Y-107911687D01*
X146872183Y-107736649D01*
X146803887Y-107571768D01*
X146739844Y-107475920D01*
X147093157Y-107475920D01*
X147093157Y-108525920D01*
X147100513Y-108600609D01*
X147122299Y-108672428D01*
X147157678Y-108738616D01*
X147205289Y-108796631D01*
X147263304Y-108844242D01*
X147329492Y-108879621D01*
X147401311Y-108901407D01*
X147476000Y-108908763D01*
X148526000Y-108908763D01*
X148600689Y-108901407D01*
X148672508Y-108879621D01*
X148738696Y-108844242D01*
X148796711Y-108796631D01*
X148844322Y-108738616D01*
X148879701Y-108672428D01*
X148901487Y-108600609D01*
X148908843Y-108525920D01*
X148908843Y-107475920D01*
X148901487Y-107401231D01*
X148879701Y-107329412D01*
X148844322Y-107263224D01*
X148796711Y-107205209D01*
X148738696Y-107157598D01*
X148672508Y-107122219D01*
X148600689Y-107100433D01*
X148526000Y-107093077D01*
X147476000Y-107093077D01*
X147401311Y-107100433D01*
X147329492Y-107122219D01*
X147263304Y-107157598D01*
X147205289Y-107205209D01*
X147157678Y-107263224D01*
X147122299Y-107329412D01*
X147100513Y-107401231D01*
X147093157Y-107475920D01*
X146739844Y-107475920D01*
X146704736Y-107423379D01*
X146578541Y-107297184D01*
X146430152Y-107198033D01*
X146265271Y-107129737D01*
X146090233Y-107094920D01*
X145911767Y-107094920D01*
X145736729Y-107129737D01*
X145571848Y-107198033D01*
X145423459Y-107297184D01*
X145297264Y-107423379D01*
X145198113Y-107571768D01*
X145129817Y-107736649D01*
X145095000Y-107911687D01*
X144907000Y-107911687D01*
X144872183Y-107736649D01*
X144803887Y-107571768D01*
X144704736Y-107423379D01*
X144578541Y-107297184D01*
X144430152Y-107198033D01*
X144265271Y-107129737D01*
X144090233Y-107094920D01*
X143911767Y-107094920D01*
X143736729Y-107129737D01*
X143571848Y-107198033D01*
X143423459Y-107297184D01*
X143297264Y-107423379D01*
X143198113Y-107571768D01*
X143129817Y-107736649D01*
X143095000Y-107911687D01*
X142907000Y-107911687D01*
X142872183Y-107736649D01*
X142803887Y-107571768D01*
X142704736Y-107423379D01*
X142578541Y-107297184D01*
X142430152Y-107198033D01*
X142265271Y-107129737D01*
X142090233Y-107094920D01*
X141911767Y-107094920D01*
X141736729Y-107129737D01*
X141571848Y-107198033D01*
X141423459Y-107297184D01*
X141297264Y-107423379D01*
X141198113Y-107571768D01*
X141129817Y-107736649D01*
X141095000Y-107911687D01*
X140907000Y-107911687D01*
X140872183Y-107736649D01*
X140803887Y-107571768D01*
X140704736Y-107423379D01*
X140578541Y-107297184D01*
X140430152Y-107198033D01*
X140265271Y-107129737D01*
X140090233Y-107094920D01*
X139911767Y-107094920D01*
X139736729Y-107129737D01*
X139571848Y-107198033D01*
X139423459Y-107297184D01*
X139297264Y-107423379D01*
X139198113Y-107571768D01*
X139129817Y-107736649D01*
X139095000Y-107911687D01*
X138907000Y-107911687D01*
X138872183Y-107736649D01*
X138803887Y-107571768D01*
X138704736Y-107423379D01*
X138578541Y-107297184D01*
X138430152Y-107198033D01*
X138265271Y-107129737D01*
X138090233Y-107094920D01*
X137911767Y-107094920D01*
X137736729Y-107129737D01*
X137571848Y-107198033D01*
X137423459Y-107297184D01*
X137297264Y-107423379D01*
X137198113Y-107571768D01*
X137129817Y-107736649D01*
X137095000Y-107911687D01*
X136907000Y-107911687D01*
X136872183Y-107736649D01*
X136803887Y-107571768D01*
X136704736Y-107423379D01*
X136578541Y-107297184D01*
X136430152Y-107198033D01*
X136265271Y-107129737D01*
X136090233Y-107094920D01*
X135911767Y-107094920D01*
X135736729Y-107129737D01*
X135571848Y-107198033D01*
X135423459Y-107297184D01*
X135297264Y-107423379D01*
X135198113Y-107571768D01*
X135129817Y-107736649D01*
X135095000Y-107911687D01*
X134907000Y-107911687D01*
X134872183Y-107736649D01*
X134803887Y-107571768D01*
X134704736Y-107423379D01*
X134578541Y-107297184D01*
X134430152Y-107198033D01*
X134265271Y-107129737D01*
X134090233Y-107094920D01*
X133911767Y-107094920D01*
X133736729Y-107129737D01*
X133571848Y-107198033D01*
X133423459Y-107297184D01*
X133297264Y-107423379D01*
X133198113Y-107571768D01*
X133129817Y-107736649D01*
X133095000Y-107911687D01*
X132907000Y-107911687D01*
X132872183Y-107736649D01*
X132803887Y-107571768D01*
X132704736Y-107423379D01*
X132578541Y-107297184D01*
X132430152Y-107198033D01*
X132265271Y-107129737D01*
X132090233Y-107094920D01*
X131911767Y-107094920D01*
X131736729Y-107129737D01*
X131571848Y-107198033D01*
X131423459Y-107297184D01*
X131297264Y-107423379D01*
X131198113Y-107571768D01*
X131129817Y-107736649D01*
X131095000Y-107911687D01*
X130907000Y-107911687D01*
X130872183Y-107736649D01*
X130803887Y-107571768D01*
X130704736Y-107423379D01*
X130578541Y-107297184D01*
X130430152Y-107198033D01*
X130265271Y-107129737D01*
X130090233Y-107094920D01*
X129911767Y-107094920D01*
X129736729Y-107129737D01*
X129571848Y-107198033D01*
X129423459Y-107297184D01*
X129297264Y-107423379D01*
X129198113Y-107571768D01*
X129129817Y-107736649D01*
X129095000Y-107911687D01*
X123056648Y-107911687D01*
X122957000Y-107812039D01*
X122957000Y-104787043D01*
X125756334Y-104787043D01*
X125766006Y-104863892D01*
X125855745Y-105049080D01*
X125979888Y-105213203D01*
X126097124Y-105317459D01*
X126025960Y-105450598D01*
X125981301Y-105597817D01*
X125966222Y-105750920D01*
X125981301Y-105904023D01*
X126025960Y-106051242D01*
X126098481Y-106186919D01*
X126196078Y-106305842D01*
X126218008Y-106323839D01*
X126138868Y-106388788D01*
X126066384Y-106477110D01*
X126012523Y-106577876D01*
X125979356Y-106687213D01*
X125968157Y-106800920D01*
X125968157Y-107200920D01*
X125979356Y-107314627D01*
X126012523Y-107423964D01*
X126066384Y-107524730D01*
X126138868Y-107613052D01*
X126227190Y-107685536D01*
X126327956Y-107739397D01*
X126437293Y-107772564D01*
X126551000Y-107783763D01*
X127451000Y-107783763D01*
X127564707Y-107772564D01*
X127674044Y-107739397D01*
X127774810Y-107685536D01*
X127863132Y-107613052D01*
X127935616Y-107524730D01*
X127989477Y-107423964D01*
X128022644Y-107314627D01*
X128033843Y-107200920D01*
X128033843Y-106800920D01*
X128022644Y-106687213D01*
X127989477Y-106577876D01*
X127935616Y-106477110D01*
X127863132Y-106388788D01*
X127783992Y-106323839D01*
X127805922Y-106305842D01*
X127903519Y-106186919D01*
X127976040Y-106051242D01*
X128020699Y-105904023D01*
X128035778Y-105750920D01*
X128020699Y-105597817D01*
X127976040Y-105450598D01*
X127904876Y-105317459D01*
X128022112Y-105213203D01*
X128146255Y-105049080D01*
X128235994Y-104863892D01*
X128245666Y-104787043D01*
X128216684Y-104750920D01*
X149966222Y-104750920D01*
X149981301Y-104904023D01*
X150025960Y-105051242D01*
X150098481Y-105186919D01*
X150196078Y-105305842D01*
X150281469Y-105375920D01*
X150196078Y-105445998D01*
X150098481Y-105564921D01*
X150025960Y-105700598D01*
X149981301Y-105847817D01*
X149966222Y-106000920D01*
X149981301Y-106154023D01*
X150025960Y-106301242D01*
X150098481Y-106436919D01*
X150196078Y-106555842D01*
X150315001Y-106653439D01*
X150450678Y-106725960D01*
X150597897Y-106770619D01*
X150712640Y-106781920D01*
X151289360Y-106781920D01*
X151404103Y-106770619D01*
X151551322Y-106725960D01*
X151686999Y-106653439D01*
X151805922Y-106555842D01*
X151903519Y-106436919D01*
X151976040Y-106301242D01*
X152020699Y-106154023D01*
X152035778Y-106000920D01*
X152020699Y-105847817D01*
X151976040Y-105700598D01*
X151903519Y-105564921D01*
X151805922Y-105445998D01*
X151720531Y-105375920D01*
X151805922Y-105305842D01*
X151903519Y-105186919D01*
X151976040Y-105051242D01*
X152020699Y-104904023D01*
X152035778Y-104750920D01*
X152020699Y-104597817D01*
X151976040Y-104450598D01*
X151903519Y-104314921D01*
X151805922Y-104195998D01*
X151783992Y-104178001D01*
X151863132Y-104113052D01*
X151935616Y-104024730D01*
X151989477Y-103923964D01*
X152022644Y-103814627D01*
X152033843Y-103700920D01*
X152033843Y-103300920D01*
X152022644Y-103187213D01*
X151989477Y-103077876D01*
X151935616Y-102977110D01*
X151863132Y-102888788D01*
X151774810Y-102816304D01*
X151674044Y-102762443D01*
X151564707Y-102729276D01*
X151451000Y-102718077D01*
X150551000Y-102718077D01*
X150437293Y-102729276D01*
X150327956Y-102762443D01*
X150227190Y-102816304D01*
X150138868Y-102888788D01*
X150066384Y-102977110D01*
X150012523Y-103077876D01*
X149979356Y-103187213D01*
X149968157Y-103300920D01*
X149968157Y-103700920D01*
X149979356Y-103814627D01*
X150012523Y-103923964D01*
X150066384Y-104024730D01*
X150138868Y-104113052D01*
X150218008Y-104178001D01*
X150196078Y-104195998D01*
X150098481Y-104314921D01*
X150025960Y-104450598D01*
X149981301Y-104597817D01*
X149966222Y-104750920D01*
X128216684Y-104750920D01*
X128117998Y-104627920D01*
X127128000Y-104627920D01*
X127128000Y-104647920D01*
X126874000Y-104647920D01*
X126874000Y-104627920D01*
X125884002Y-104627920D01*
X125756334Y-104787043D01*
X122957000Y-104787043D01*
X122957000Y-104214797D01*
X125756334Y-104214797D01*
X125884002Y-104373920D01*
X126874000Y-104373920D01*
X126874000Y-103617158D01*
X127128000Y-103617158D01*
X127128000Y-104373920D01*
X128117998Y-104373920D01*
X128245666Y-104214797D01*
X128235994Y-104137948D01*
X128146255Y-103952760D01*
X128022112Y-103788637D01*
X127868336Y-103651887D01*
X127690836Y-103547765D01*
X127496433Y-103480272D01*
X127292599Y-103452002D01*
X127128000Y-103617158D01*
X126874000Y-103617158D01*
X126709401Y-103452002D01*
X126505567Y-103480272D01*
X126311164Y-103547765D01*
X126133664Y-103651887D01*
X125979888Y-103788637D01*
X125855745Y-103952760D01*
X125766006Y-104137948D01*
X125756334Y-104214797D01*
X122957000Y-104214797D01*
X122957000Y-103432124D01*
X129302500Y-103432124D01*
X129302500Y-103569716D01*
X129329343Y-103704665D01*
X129381997Y-103831784D01*
X129458439Y-103946188D01*
X129555732Y-104043481D01*
X129670136Y-104119923D01*
X129797255Y-104172577D01*
X129932204Y-104199420D01*
X130069796Y-104199420D01*
X130204745Y-104172577D01*
X130331864Y-104119923D01*
X130446268Y-104043481D01*
X130543561Y-103946188D01*
X130620003Y-103831784D01*
X130672657Y-103704665D01*
X130699500Y-103569716D01*
X130699500Y-103432124D01*
X136302500Y-103432124D01*
X136302500Y-103569716D01*
X136329343Y-103704665D01*
X136381997Y-103831784D01*
X136458439Y-103946188D01*
X136555732Y-104043481D01*
X136670136Y-104119923D01*
X136797255Y-104172577D01*
X136932204Y-104199420D01*
X137069796Y-104199420D01*
X137204745Y-104172577D01*
X137331864Y-104119923D01*
X137446268Y-104043481D01*
X137543561Y-103946188D01*
X137620003Y-103831784D01*
X137672657Y-103704665D01*
X137699500Y-103569716D01*
X137699500Y-103432124D01*
X137672657Y-103297175D01*
X137620003Y-103170056D01*
X137543561Y-103055652D01*
X137446268Y-102958359D01*
X137331864Y-102881917D01*
X137204745Y-102829263D01*
X137069796Y-102802420D01*
X136932204Y-102802420D01*
X136797255Y-102829263D01*
X136670136Y-102881917D01*
X136555732Y-102958359D01*
X136458439Y-103055652D01*
X136381997Y-103170056D01*
X136329343Y-103297175D01*
X136302500Y-103432124D01*
X130699500Y-103432124D01*
X130672657Y-103297175D01*
X130620003Y-103170056D01*
X130543561Y-103055652D01*
X130446268Y-102958359D01*
X130331864Y-102881917D01*
X130204745Y-102829263D01*
X130069796Y-102802420D01*
X129932204Y-102802420D01*
X129797255Y-102829263D01*
X129670136Y-102881917D01*
X129555732Y-102958359D01*
X129458439Y-103055652D01*
X129381997Y-103170056D01*
X129329343Y-103297175D01*
X129302500Y-103432124D01*
X122957000Y-103432124D01*
X122957000Y-100400920D01*
X125712928Y-100400920D01*
X125725188Y-100525402D01*
X125761498Y-100645100D01*
X125820463Y-100755414D01*
X125899815Y-100852105D01*
X125996506Y-100931457D01*
X126106820Y-100990422D01*
X126226518Y-101026732D01*
X126351000Y-101038992D01*
X126715250Y-101035920D01*
X126874000Y-100877170D01*
X126874000Y-100127920D01*
X127128000Y-100127920D01*
X127128000Y-100877170D01*
X127286750Y-101035920D01*
X127651000Y-101038992D01*
X127775482Y-101026732D01*
X127895180Y-100990422D01*
X128005494Y-100931457D01*
X128102185Y-100852105D01*
X128181537Y-100755414D01*
X128220711Y-100682124D01*
X145302500Y-100682124D01*
X145302500Y-100819716D01*
X145329343Y-100954665D01*
X145381997Y-101081784D01*
X145458439Y-101196188D01*
X145555732Y-101293481D01*
X145670136Y-101369923D01*
X145797255Y-101422577D01*
X145932204Y-101449420D01*
X146069796Y-101449420D01*
X146204745Y-101422577D01*
X146331864Y-101369923D01*
X146446268Y-101293481D01*
X146543561Y-101196188D01*
X146620003Y-101081784D01*
X146672657Y-100954665D01*
X146699500Y-100819716D01*
X146699500Y-100682124D01*
X146672657Y-100547175D01*
X146620003Y-100420056D01*
X146543561Y-100305652D01*
X146446268Y-100208359D01*
X146331864Y-100131917D01*
X146204745Y-100079263D01*
X146069796Y-100052420D01*
X145932204Y-100052420D01*
X145797255Y-100079263D01*
X145670136Y-100131917D01*
X145555732Y-100208359D01*
X145458439Y-100305652D01*
X145381997Y-100420056D01*
X145329343Y-100547175D01*
X145302500Y-100682124D01*
X128220711Y-100682124D01*
X128240502Y-100645100D01*
X128276812Y-100525402D01*
X128289072Y-100400920D01*
X128286000Y-100286670D01*
X128127250Y-100127920D01*
X127128000Y-100127920D01*
X126874000Y-100127920D01*
X125874750Y-100127920D01*
X125716000Y-100286670D01*
X125712928Y-100400920D01*
X122957000Y-100400920D01*
X122957000Y-99600920D01*
X125712928Y-99600920D01*
X125716000Y-99715170D01*
X125874750Y-99873920D01*
X126874000Y-99873920D01*
X126874000Y-99853920D01*
X127128000Y-99853920D01*
X127128000Y-99873920D01*
X128127250Y-99873920D01*
X128286000Y-99715170D01*
X128289072Y-99600920D01*
X128276812Y-99476438D01*
X128240502Y-99356740D01*
X128181537Y-99246426D01*
X128102185Y-99149735D01*
X128005494Y-99070383D01*
X127974628Y-99053884D01*
X127976040Y-99051242D01*
X128020699Y-98904023D01*
X128035778Y-98750920D01*
X128020699Y-98597817D01*
X127976040Y-98450598D01*
X127903519Y-98314921D01*
X127805922Y-98195998D01*
X127720531Y-98125920D01*
X127805922Y-98055842D01*
X127903519Y-97936919D01*
X127976040Y-97801242D01*
X128020699Y-97654023D01*
X128035778Y-97500920D01*
X128020699Y-97347817D01*
X127976040Y-97200598D01*
X127903519Y-97064921D01*
X127805922Y-96945998D01*
X127789017Y-96932124D01*
X144802500Y-96932124D01*
X144802500Y-97069716D01*
X144829343Y-97204665D01*
X144881997Y-97331784D01*
X144958439Y-97446188D01*
X145055732Y-97543481D01*
X145170136Y-97619923D01*
X145297255Y-97672577D01*
X145432204Y-97699420D01*
X145569796Y-97699420D01*
X145704745Y-97672577D01*
X145831864Y-97619923D01*
X145946268Y-97543481D01*
X146043561Y-97446188D01*
X146120003Y-97331784D01*
X146172657Y-97204665D01*
X146199500Y-97069716D01*
X146199500Y-96932124D01*
X146172657Y-96797175D01*
X146120003Y-96670056D01*
X146043561Y-96555652D01*
X145946268Y-96458359D01*
X145831864Y-96381917D01*
X145704745Y-96329263D01*
X145569796Y-96302420D01*
X145432204Y-96302420D01*
X145297255Y-96329263D01*
X145170136Y-96381917D01*
X145055732Y-96458359D01*
X144958439Y-96555652D01*
X144881997Y-96670056D01*
X144829343Y-96797175D01*
X144802500Y-96932124D01*
X127789017Y-96932124D01*
X127720531Y-96875920D01*
X127805922Y-96805842D01*
X127903519Y-96686919D01*
X127976040Y-96551242D01*
X128020699Y-96404023D01*
X128035778Y-96250920D01*
X149966222Y-96250920D01*
X149981301Y-96404023D01*
X150025960Y-96551242D01*
X150098481Y-96686919D01*
X150196078Y-96805842D01*
X150281469Y-96875920D01*
X150196078Y-96945998D01*
X150098481Y-97064921D01*
X150025960Y-97200598D01*
X149981301Y-97347817D01*
X149966222Y-97500920D01*
X149981301Y-97654023D01*
X150025960Y-97801242D01*
X150098481Y-97936919D01*
X150196078Y-98055842D01*
X150281469Y-98125920D01*
X150196078Y-98195998D01*
X150098481Y-98314921D01*
X150025960Y-98450598D01*
X149981301Y-98597817D01*
X149966222Y-98750920D01*
X149981301Y-98904023D01*
X150025960Y-99051242D01*
X150098481Y-99186919D01*
X150196078Y-99305842D01*
X150315001Y-99403439D01*
X150450678Y-99475960D01*
X150597897Y-99520619D01*
X150712640Y-99531920D01*
X151289360Y-99531920D01*
X151404103Y-99520619D01*
X151551322Y-99475960D01*
X151686999Y-99403439D01*
X151805922Y-99305842D01*
X151903519Y-99186919D01*
X151976040Y-99051242D01*
X152020699Y-98904023D01*
X152035778Y-98750920D01*
X152020699Y-98597817D01*
X151976040Y-98450598D01*
X151903519Y-98314921D01*
X151805922Y-98195998D01*
X151720531Y-98125920D01*
X151805922Y-98055842D01*
X151903519Y-97936919D01*
X151976040Y-97801242D01*
X152020699Y-97654023D01*
X152035778Y-97500920D01*
X152020699Y-97347817D01*
X151976040Y-97200598D01*
X151903519Y-97064921D01*
X151805922Y-96945998D01*
X151720531Y-96875920D01*
X151805922Y-96805842D01*
X151903519Y-96686919D01*
X151976040Y-96551242D01*
X152020699Y-96404023D01*
X152035778Y-96250920D01*
X152020699Y-96097817D01*
X151976040Y-95950598D01*
X151903519Y-95814921D01*
X151805922Y-95695998D01*
X151783992Y-95678001D01*
X151863132Y-95613052D01*
X151935616Y-95524730D01*
X151989477Y-95423964D01*
X152022644Y-95314627D01*
X152033843Y-95200920D01*
X152033843Y-94800920D01*
X152022644Y-94687213D01*
X151989477Y-94577876D01*
X151935616Y-94477110D01*
X151863132Y-94388788D01*
X151774810Y-94316304D01*
X151674044Y-94262443D01*
X151564707Y-94229276D01*
X151451000Y-94218077D01*
X150551000Y-94218077D01*
X150437293Y-94229276D01*
X150327956Y-94262443D01*
X150227190Y-94316304D01*
X150138868Y-94388788D01*
X150066384Y-94477110D01*
X150012523Y-94577876D01*
X149979356Y-94687213D01*
X149968157Y-94800920D01*
X149968157Y-95200920D01*
X149979356Y-95314627D01*
X150012523Y-95423964D01*
X150066384Y-95524730D01*
X150138868Y-95613052D01*
X150218008Y-95678001D01*
X150196078Y-95695998D01*
X150098481Y-95814921D01*
X150025960Y-95950598D01*
X149981301Y-96097817D01*
X149966222Y-96250920D01*
X128035778Y-96250920D01*
X128020699Y-96097817D01*
X127976040Y-95950598D01*
X127903519Y-95814921D01*
X127805922Y-95695998D01*
X127686999Y-95598401D01*
X127551322Y-95525880D01*
X127404103Y-95481221D01*
X127289360Y-95469920D01*
X126712640Y-95469920D01*
X126597897Y-95481221D01*
X126450678Y-95525880D01*
X126315001Y-95598401D01*
X126196078Y-95695998D01*
X126098481Y-95814921D01*
X126025960Y-95950598D01*
X125981301Y-96097817D01*
X125966222Y-96250920D01*
X125981301Y-96404023D01*
X126025960Y-96551242D01*
X126098481Y-96686919D01*
X126196078Y-96805842D01*
X126281469Y-96875920D01*
X126196078Y-96945998D01*
X126098481Y-97064921D01*
X126025960Y-97200598D01*
X125981301Y-97347817D01*
X125966222Y-97500920D01*
X125981301Y-97654023D01*
X126025960Y-97801242D01*
X126098481Y-97936919D01*
X126196078Y-98055842D01*
X126281469Y-98125920D01*
X126196078Y-98195998D01*
X126098481Y-98314921D01*
X126025960Y-98450598D01*
X125981301Y-98597817D01*
X125966222Y-98750920D01*
X125981301Y-98904023D01*
X126025960Y-99051242D01*
X126027372Y-99053884D01*
X125996506Y-99070383D01*
X125899815Y-99149735D01*
X125820463Y-99246426D01*
X125761498Y-99356740D01*
X125725188Y-99476438D01*
X125712928Y-99600920D01*
X122957000Y-99600920D01*
X122957000Y-94932124D01*
X129302500Y-94932124D01*
X129302500Y-95069716D01*
X129329343Y-95204665D01*
X129381997Y-95331784D01*
X129458439Y-95446188D01*
X129555732Y-95543481D01*
X129670136Y-95619923D01*
X129797255Y-95672577D01*
X129932204Y-95699420D01*
X130069796Y-95699420D01*
X130204745Y-95672577D01*
X130331864Y-95619923D01*
X130446268Y-95543481D01*
X130543561Y-95446188D01*
X130620003Y-95331784D01*
X130672657Y-95204665D01*
X130699500Y-95069716D01*
X130699500Y-94932124D01*
X138802500Y-94932124D01*
X138802500Y-95069716D01*
X138829343Y-95204665D01*
X138881997Y-95331784D01*
X138958439Y-95446188D01*
X139055732Y-95543481D01*
X139170136Y-95619923D01*
X139297255Y-95672577D01*
X139432204Y-95699420D01*
X139569796Y-95699420D01*
X139704745Y-95672577D01*
X139831864Y-95619923D01*
X139946268Y-95543481D01*
X140043561Y-95446188D01*
X140120003Y-95331784D01*
X140172657Y-95204665D01*
X140199500Y-95069716D01*
X140199500Y-94932124D01*
X140172657Y-94797175D01*
X140120003Y-94670056D01*
X140043561Y-94555652D01*
X139946268Y-94458359D01*
X139831864Y-94381917D01*
X139704745Y-94329263D01*
X139569796Y-94302420D01*
X139432204Y-94302420D01*
X139297255Y-94329263D01*
X139170136Y-94381917D01*
X139055732Y-94458359D01*
X138958439Y-94555652D01*
X138881997Y-94670056D01*
X138829343Y-94797175D01*
X138802500Y-94932124D01*
X130699500Y-94932124D01*
X130672657Y-94797175D01*
X130620003Y-94670056D01*
X130543561Y-94555652D01*
X130446268Y-94458359D01*
X130331864Y-94381917D01*
X130204745Y-94329263D01*
X130069796Y-94302420D01*
X129932204Y-94302420D01*
X129797255Y-94329263D01*
X129670136Y-94381917D01*
X129555732Y-94458359D01*
X129458439Y-94555652D01*
X129381997Y-94670056D01*
X129329343Y-94797175D01*
X129302500Y-94932124D01*
X122957000Y-94932124D01*
X122957000Y-93932124D01*
X132802500Y-93932124D01*
X132802500Y-94069716D01*
X132829343Y-94204665D01*
X132881997Y-94331784D01*
X132958439Y-94446188D01*
X133055732Y-94543481D01*
X133170136Y-94619923D01*
X133297255Y-94672577D01*
X133432204Y-94699420D01*
X133569796Y-94699420D01*
X133704745Y-94672577D01*
X133831864Y-94619923D01*
X133946268Y-94543481D01*
X134043561Y-94446188D01*
X134120003Y-94331784D01*
X134172657Y-94204665D01*
X134199500Y-94069716D01*
X134199500Y-93932124D01*
X134172657Y-93797175D01*
X134120003Y-93670056D01*
X134043561Y-93555652D01*
X133946268Y-93458359D01*
X133831864Y-93381917D01*
X133704745Y-93329263D01*
X133569796Y-93302420D01*
X133432204Y-93302420D01*
X133297255Y-93329263D01*
X133170136Y-93381917D01*
X133055732Y-93458359D01*
X132958439Y-93555652D01*
X132881997Y-93670056D01*
X132829343Y-93797175D01*
X132802500Y-93932124D01*
X122957000Y-93932124D01*
X122957000Y-87000920D01*
X125966222Y-87000920D01*
X125981301Y-87154023D01*
X126025960Y-87301242D01*
X126098481Y-87436919D01*
X126196078Y-87555842D01*
X126281469Y-87625920D01*
X126196078Y-87695998D01*
X126098481Y-87814921D01*
X126025960Y-87950598D01*
X125981301Y-88097817D01*
X125966222Y-88250920D01*
X125981301Y-88404023D01*
X126025960Y-88551242D01*
X126098481Y-88686919D01*
X126196078Y-88805842D01*
X126281469Y-88875920D01*
X126196078Y-88945998D01*
X126098481Y-89064921D01*
X126025960Y-89200598D01*
X125981301Y-89347817D01*
X125966222Y-89500920D01*
X125981301Y-89654023D01*
X126025960Y-89801242D01*
X126098481Y-89936919D01*
X126196078Y-90055842D01*
X126281469Y-90125920D01*
X126196078Y-90195998D01*
X126098481Y-90314921D01*
X126025960Y-90450598D01*
X125981301Y-90597817D01*
X125966222Y-90750920D01*
X125981301Y-90904023D01*
X126025960Y-91051242D01*
X126098481Y-91186919D01*
X126196078Y-91305842D01*
X126218008Y-91323839D01*
X126138868Y-91388788D01*
X126066384Y-91477110D01*
X126012523Y-91577876D01*
X125979356Y-91687213D01*
X125968157Y-91800920D01*
X125968157Y-92200920D01*
X125979356Y-92314627D01*
X126012523Y-92423964D01*
X126066384Y-92524730D01*
X126138868Y-92613052D01*
X126227190Y-92685536D01*
X126327956Y-92739397D01*
X126437293Y-92772564D01*
X126551000Y-92783763D01*
X127451000Y-92783763D01*
X127564707Y-92772564D01*
X127674044Y-92739397D01*
X127774810Y-92685536D01*
X127863132Y-92613052D01*
X127935616Y-92524730D01*
X127989477Y-92423964D01*
X128022644Y-92314627D01*
X128033843Y-92200920D01*
X128033843Y-91800920D01*
X128022644Y-91687213D01*
X127989477Y-91577876D01*
X127935616Y-91477110D01*
X127887022Y-91417898D01*
X144230990Y-91417898D01*
X144230990Y-91555490D01*
X144257833Y-91690439D01*
X144310487Y-91817558D01*
X144386929Y-91931962D01*
X144484222Y-92029255D01*
X144598626Y-92105697D01*
X144725745Y-92158351D01*
X144860694Y-92185194D01*
X144998286Y-92185194D01*
X145133235Y-92158351D01*
X145260354Y-92105697D01*
X145374758Y-92029255D01*
X145472051Y-91931962D01*
X145548493Y-91817558D01*
X145601147Y-91690439D01*
X145627990Y-91555490D01*
X145627990Y-91417898D01*
X145601147Y-91282949D01*
X145548493Y-91155830D01*
X145472051Y-91041426D01*
X145374758Y-90944133D01*
X145260354Y-90867691D01*
X145133235Y-90815037D01*
X144998286Y-90788194D01*
X144860694Y-90788194D01*
X144725745Y-90815037D01*
X144598626Y-90867691D01*
X144484222Y-90944133D01*
X144386929Y-91041426D01*
X144310487Y-91155830D01*
X144257833Y-91282949D01*
X144230990Y-91417898D01*
X127887022Y-91417898D01*
X127863132Y-91388788D01*
X127783992Y-91323839D01*
X127805922Y-91305842D01*
X127903519Y-91186919D01*
X127976040Y-91051242D01*
X128020699Y-90904023D01*
X128035778Y-90750920D01*
X128020699Y-90597817D01*
X127976040Y-90450598D01*
X127968058Y-90435663D01*
X139802500Y-90435663D01*
X139802500Y-90573255D01*
X139829343Y-90708204D01*
X139881997Y-90835323D01*
X139958439Y-90949727D01*
X140055732Y-91047020D01*
X140170136Y-91123462D01*
X140297255Y-91176116D01*
X140432204Y-91202959D01*
X140569796Y-91202959D01*
X140704745Y-91176116D01*
X140831864Y-91123462D01*
X140946268Y-91047020D01*
X141043561Y-90949727D01*
X141120003Y-90835323D01*
X141172657Y-90708204D01*
X141199500Y-90573255D01*
X141199500Y-90435663D01*
X141172657Y-90300714D01*
X141152032Y-90250920D01*
X149966222Y-90250920D01*
X149981301Y-90404023D01*
X150025960Y-90551242D01*
X150098481Y-90686919D01*
X150196078Y-90805842D01*
X150315001Y-90903439D01*
X150450678Y-90975960D01*
X150597897Y-91020619D01*
X150712640Y-91031920D01*
X151289360Y-91031920D01*
X151404103Y-91020619D01*
X151551322Y-90975960D01*
X151686999Y-90903439D01*
X151805922Y-90805842D01*
X151903519Y-90686919D01*
X151976040Y-90551242D01*
X152020699Y-90404023D01*
X152035778Y-90250920D01*
X152020699Y-90097817D01*
X151976040Y-89950598D01*
X151903519Y-89814921D01*
X151805922Y-89695998D01*
X151783992Y-89678001D01*
X151863132Y-89613052D01*
X151935616Y-89524730D01*
X151989477Y-89423964D01*
X152022644Y-89314627D01*
X152033843Y-89200920D01*
X152033843Y-88800920D01*
X152022644Y-88687213D01*
X151989477Y-88577876D01*
X151935616Y-88477110D01*
X151863132Y-88388788D01*
X151774810Y-88316304D01*
X151674044Y-88262443D01*
X151564707Y-88229276D01*
X151451000Y-88218077D01*
X150551000Y-88218077D01*
X150437293Y-88229276D01*
X150327956Y-88262443D01*
X150227190Y-88316304D01*
X150138868Y-88388788D01*
X150066384Y-88477110D01*
X150012523Y-88577876D01*
X149979356Y-88687213D01*
X149968157Y-88800920D01*
X149968157Y-89200920D01*
X149979356Y-89314627D01*
X150012523Y-89423964D01*
X150066384Y-89524730D01*
X150138868Y-89613052D01*
X150218008Y-89678001D01*
X150196078Y-89695998D01*
X150098481Y-89814921D01*
X150025960Y-89950598D01*
X149981301Y-90097817D01*
X149966222Y-90250920D01*
X141152032Y-90250920D01*
X141120003Y-90173595D01*
X141043561Y-90059191D01*
X140946268Y-89961898D01*
X140831864Y-89885456D01*
X140704745Y-89832802D01*
X140569796Y-89805959D01*
X140432204Y-89805959D01*
X140297255Y-89832802D01*
X140170136Y-89885456D01*
X140055732Y-89961898D01*
X139958439Y-90059191D01*
X139881997Y-90173595D01*
X139829343Y-90300714D01*
X139802500Y-90435663D01*
X127968058Y-90435663D01*
X127903519Y-90314921D01*
X127805922Y-90195998D01*
X127720531Y-90125920D01*
X127805922Y-90055842D01*
X127903519Y-89936919D01*
X127976040Y-89801242D01*
X128020699Y-89654023D01*
X128035778Y-89500920D01*
X128020699Y-89347817D01*
X127976040Y-89200598D01*
X127903519Y-89064921D01*
X127805922Y-88945998D01*
X127720531Y-88875920D01*
X127805922Y-88805842D01*
X127903519Y-88686919D01*
X127976040Y-88551242D01*
X128020699Y-88404023D01*
X128035778Y-88250920D01*
X128020699Y-88097817D01*
X127976040Y-87950598D01*
X127903519Y-87814921D01*
X127805922Y-87695998D01*
X127720531Y-87625920D01*
X127805922Y-87555842D01*
X127903519Y-87436919D01*
X127976040Y-87301242D01*
X128020699Y-87154023D01*
X128035778Y-87000920D01*
X128020699Y-86847817D01*
X128005283Y-86796996D01*
X129384529Y-86796996D01*
X129422693Y-87012956D01*
X129631244Y-87106332D01*
X129854004Y-87157228D01*
X130082413Y-87163687D01*
X130307693Y-87125462D01*
X130521187Y-87044022D01*
X130579307Y-87012956D01*
X130617471Y-86796996D01*
X130001000Y-86180525D01*
X129384529Y-86796996D01*
X128005283Y-86796996D01*
X127976040Y-86700598D01*
X127903519Y-86564921D01*
X127805922Y-86445998D01*
X127686999Y-86348401D01*
X127551322Y-86275880D01*
X127404103Y-86231221D01*
X127289360Y-86219920D01*
X126712640Y-86219920D01*
X126597897Y-86231221D01*
X126450678Y-86275880D01*
X126315001Y-86348401D01*
X126196078Y-86445998D01*
X126098481Y-86564921D01*
X126025960Y-86700598D01*
X125981301Y-86847817D01*
X125966222Y-87000920D01*
X122957000Y-87000920D01*
X122957000Y-86189801D01*
X123064468Y-86082333D01*
X128838233Y-86082333D01*
X128876458Y-86307613D01*
X128957898Y-86521107D01*
X128988964Y-86579227D01*
X129204924Y-86617391D01*
X129821395Y-86000920D01*
X130180605Y-86000920D01*
X130797076Y-86617391D01*
X131013036Y-86579227D01*
X131106412Y-86370676D01*
X131130266Y-86266274D01*
X131198113Y-86430072D01*
X131297264Y-86578461D01*
X131423459Y-86704656D01*
X131571848Y-86803807D01*
X131736729Y-86872103D01*
X131911767Y-86906920D01*
X132090233Y-86906920D01*
X132265271Y-86872103D01*
X132430152Y-86803807D01*
X132578541Y-86704656D01*
X132704736Y-86578461D01*
X132803887Y-86430072D01*
X132872183Y-86265191D01*
X132907000Y-86090153D01*
X132907000Y-85911687D01*
X133095000Y-85911687D01*
X133095000Y-86090153D01*
X133129817Y-86265191D01*
X133198113Y-86430072D01*
X133297264Y-86578461D01*
X133423459Y-86704656D01*
X133571848Y-86803807D01*
X133736729Y-86872103D01*
X133911767Y-86906920D01*
X134090233Y-86906920D01*
X134265271Y-86872103D01*
X134430152Y-86803807D01*
X134578541Y-86704656D01*
X134704736Y-86578461D01*
X134803887Y-86430072D01*
X134872183Y-86265191D01*
X134907000Y-86090153D01*
X134907000Y-85911687D01*
X135095000Y-85911687D01*
X135095000Y-86090153D01*
X135129817Y-86265191D01*
X135198113Y-86430072D01*
X135297264Y-86578461D01*
X135423459Y-86704656D01*
X135571848Y-86803807D01*
X135736729Y-86872103D01*
X135911767Y-86906920D01*
X136090233Y-86906920D01*
X136265271Y-86872103D01*
X136430152Y-86803807D01*
X136578541Y-86704656D01*
X136704736Y-86578461D01*
X136803887Y-86430072D01*
X136872183Y-86265191D01*
X136907000Y-86090153D01*
X136907000Y-85911687D01*
X137095000Y-85911687D01*
X137095000Y-86090153D01*
X137129817Y-86265191D01*
X137198113Y-86430072D01*
X137297264Y-86578461D01*
X137423459Y-86704656D01*
X137571848Y-86803807D01*
X137736729Y-86872103D01*
X137911767Y-86906920D01*
X138090233Y-86906920D01*
X138265271Y-86872103D01*
X138430152Y-86803807D01*
X138578541Y-86704656D01*
X138704736Y-86578461D01*
X138803887Y-86430072D01*
X138872183Y-86265191D01*
X138907000Y-86090153D01*
X138907000Y-85911687D01*
X139095000Y-85911687D01*
X139095000Y-86090153D01*
X139129817Y-86265191D01*
X139198113Y-86430072D01*
X139297264Y-86578461D01*
X139423459Y-86704656D01*
X139571848Y-86803807D01*
X139736729Y-86872103D01*
X139911767Y-86906920D01*
X140090233Y-86906920D01*
X140265271Y-86872103D01*
X140430152Y-86803807D01*
X140578541Y-86704656D01*
X140704736Y-86578461D01*
X140803887Y-86430072D01*
X140872183Y-86265191D01*
X140907000Y-86090153D01*
X140907000Y-85911687D01*
X141095000Y-85911687D01*
X141095000Y-86090153D01*
X141129817Y-86265191D01*
X141198113Y-86430072D01*
X141297264Y-86578461D01*
X141423459Y-86704656D01*
X141571848Y-86803807D01*
X141736729Y-86872103D01*
X141911767Y-86906920D01*
X142090233Y-86906920D01*
X142265271Y-86872103D01*
X142430152Y-86803807D01*
X142578541Y-86704656D01*
X142704736Y-86578461D01*
X142803887Y-86430072D01*
X142872183Y-86265191D01*
X142907000Y-86090153D01*
X142907000Y-85911687D01*
X143095000Y-85911687D01*
X143095000Y-86090153D01*
X143129817Y-86265191D01*
X143198113Y-86430072D01*
X143297264Y-86578461D01*
X143423459Y-86704656D01*
X143571848Y-86803807D01*
X143736729Y-86872103D01*
X143911767Y-86906920D01*
X144090233Y-86906920D01*
X144265271Y-86872103D01*
X144430152Y-86803807D01*
X144578541Y-86704656D01*
X144704736Y-86578461D01*
X144803887Y-86430072D01*
X144872183Y-86265191D01*
X144907000Y-86090153D01*
X144907000Y-85911687D01*
X145095000Y-85911687D01*
X145095000Y-86090153D01*
X145129817Y-86265191D01*
X145198113Y-86430072D01*
X145297264Y-86578461D01*
X145423459Y-86704656D01*
X145571848Y-86803807D01*
X145736729Y-86872103D01*
X145911767Y-86906920D01*
X146090233Y-86906920D01*
X146265271Y-86872103D01*
X146430152Y-86803807D01*
X146578541Y-86704656D01*
X146704736Y-86578461D01*
X146803887Y-86430072D01*
X146872183Y-86265191D01*
X146907000Y-86090153D01*
X146907000Y-85911687D01*
X146872183Y-85736649D01*
X146803887Y-85571768D01*
X146739844Y-85475920D01*
X147093157Y-85475920D01*
X147093157Y-86525920D01*
X147100513Y-86600609D01*
X147122299Y-86672428D01*
X147157678Y-86738616D01*
X147205289Y-86796631D01*
X147263304Y-86844242D01*
X147329492Y-86879621D01*
X147401311Y-86901407D01*
X147476000Y-86908763D01*
X148526000Y-86908763D01*
X148600689Y-86901407D01*
X148672508Y-86879621D01*
X148738696Y-86844242D01*
X148796711Y-86796631D01*
X148844322Y-86738616D01*
X148879701Y-86672428D01*
X148901487Y-86600609D01*
X148908843Y-86525920D01*
X148908843Y-85475920D01*
X148901487Y-85401231D01*
X148879701Y-85329412D01*
X148844322Y-85263224D01*
X148796711Y-85205209D01*
X148738696Y-85157598D01*
X148672508Y-85122219D01*
X148600689Y-85100433D01*
X148526000Y-85093077D01*
X147476000Y-85093077D01*
X147401311Y-85100433D01*
X147329492Y-85122219D01*
X147263304Y-85157598D01*
X147205289Y-85205209D01*
X147157678Y-85263224D01*
X147122299Y-85329412D01*
X147100513Y-85401231D01*
X147093157Y-85475920D01*
X146739844Y-85475920D01*
X146704736Y-85423379D01*
X146578541Y-85297184D01*
X146430152Y-85198033D01*
X146265271Y-85129737D01*
X146090233Y-85094920D01*
X145911767Y-85094920D01*
X145736729Y-85129737D01*
X145571848Y-85198033D01*
X145423459Y-85297184D01*
X145297264Y-85423379D01*
X145198113Y-85571768D01*
X145129817Y-85736649D01*
X145095000Y-85911687D01*
X144907000Y-85911687D01*
X144872183Y-85736649D01*
X144803887Y-85571768D01*
X144704736Y-85423379D01*
X144578541Y-85297184D01*
X144430152Y-85198033D01*
X144265271Y-85129737D01*
X144090233Y-85094920D01*
X143911767Y-85094920D01*
X143736729Y-85129737D01*
X143571848Y-85198033D01*
X143423459Y-85297184D01*
X143297264Y-85423379D01*
X143198113Y-85571768D01*
X143129817Y-85736649D01*
X143095000Y-85911687D01*
X142907000Y-85911687D01*
X142872183Y-85736649D01*
X142803887Y-85571768D01*
X142704736Y-85423379D01*
X142578541Y-85297184D01*
X142430152Y-85198033D01*
X142265271Y-85129737D01*
X142090233Y-85094920D01*
X141911767Y-85094920D01*
X141736729Y-85129737D01*
X141571848Y-85198033D01*
X141423459Y-85297184D01*
X141297264Y-85423379D01*
X141198113Y-85571768D01*
X141129817Y-85736649D01*
X141095000Y-85911687D01*
X140907000Y-85911687D01*
X140872183Y-85736649D01*
X140803887Y-85571768D01*
X140704736Y-85423379D01*
X140578541Y-85297184D01*
X140430152Y-85198033D01*
X140265271Y-85129737D01*
X140090233Y-85094920D01*
X139911767Y-85094920D01*
X139736729Y-85129737D01*
X139571848Y-85198033D01*
X139423459Y-85297184D01*
X139297264Y-85423379D01*
X139198113Y-85571768D01*
X139129817Y-85736649D01*
X139095000Y-85911687D01*
X138907000Y-85911687D01*
X138872183Y-85736649D01*
X138803887Y-85571768D01*
X138704736Y-85423379D01*
X138578541Y-85297184D01*
X138430152Y-85198033D01*
X138265271Y-85129737D01*
X138090233Y-85094920D01*
X137911767Y-85094920D01*
X137736729Y-85129737D01*
X137571848Y-85198033D01*
X137423459Y-85297184D01*
X137297264Y-85423379D01*
X137198113Y-85571768D01*
X137129817Y-85736649D01*
X137095000Y-85911687D01*
X136907000Y-85911687D01*
X136872183Y-85736649D01*
X136803887Y-85571768D01*
X136704736Y-85423379D01*
X136578541Y-85297184D01*
X136430152Y-85198033D01*
X136265271Y-85129737D01*
X136090233Y-85094920D01*
X135911767Y-85094920D01*
X135736729Y-85129737D01*
X135571848Y-85198033D01*
X135423459Y-85297184D01*
X135297264Y-85423379D01*
X135198113Y-85571768D01*
X135129817Y-85736649D01*
X135095000Y-85911687D01*
X134907000Y-85911687D01*
X134872183Y-85736649D01*
X134803887Y-85571768D01*
X134704736Y-85423379D01*
X134578541Y-85297184D01*
X134430152Y-85198033D01*
X134265271Y-85129737D01*
X134090233Y-85094920D01*
X133911767Y-85094920D01*
X133736729Y-85129737D01*
X133571848Y-85198033D01*
X133423459Y-85297184D01*
X133297264Y-85423379D01*
X133198113Y-85571768D01*
X133129817Y-85736649D01*
X133095000Y-85911687D01*
X132907000Y-85911687D01*
X132872183Y-85736649D01*
X132803887Y-85571768D01*
X132704736Y-85423379D01*
X132578541Y-85297184D01*
X132430152Y-85198033D01*
X132265271Y-85129737D01*
X132090233Y-85094920D01*
X131911767Y-85094920D01*
X131736729Y-85129737D01*
X131571848Y-85198033D01*
X131423459Y-85297184D01*
X131297264Y-85423379D01*
X131198113Y-85571768D01*
X131131891Y-85731643D01*
X131125542Y-85694227D01*
X131044102Y-85480733D01*
X131013036Y-85422613D01*
X130797076Y-85384449D01*
X130180605Y-86000920D01*
X129821395Y-86000920D01*
X129204924Y-85384449D01*
X128988964Y-85422613D01*
X128895588Y-85631164D01*
X128844692Y-85853924D01*
X128838233Y-86082333D01*
X123064468Y-86082333D01*
X123941957Y-85204844D01*
X129384529Y-85204844D01*
X130001000Y-85821315D01*
X130617471Y-85204844D01*
X130579307Y-84988884D01*
X130370756Y-84895508D01*
X130147996Y-84844612D01*
X129919587Y-84838153D01*
X129694307Y-84876378D01*
X129480813Y-84957818D01*
X129422693Y-84988884D01*
X129384529Y-85204844D01*
X123941957Y-85204844D01*
X125689881Y-83456920D01*
X152312119Y-83456920D01*
X155045000Y-86189801D01*
%TD*%
M02*
