%TF.GenerationSoftware,KiCad,Pcbnew,5.1.6-c6e7f7d~86~ubuntu18.04.1*%
%TF.CreationDate,2020-05-25T11:30:19+02:00*%
%TF.ProjectId,cf-deck-carrier,63662d64-6563-46b2-9d63-617272696572,0.1A*%
%TF.SameCoordinates,Original*%
%TF.FileFunction,Copper,L3,Inr*%
%TF.FilePolarity,Positive*%
%FSLAX46Y46*%
G04 Gerber Fmt 4.6, Leading zero omitted, Abs format (unit mm)*
G04 Created by KiCad (PCBNEW 5.1.6-c6e7f7d~86~ubuntu18.04.1) date 2020-05-25 11:30:19*
%MOMM*%
%LPD*%
G01*
G04 APERTURE LIST*
%TA.AperFunction,ViaPad*%
%ADD10O,1.300000X0.800000*%
%TD*%
%TA.AperFunction,ViaPad*%
%ADD11C,1.050000*%
%TD*%
%TA.AperFunction,ViaPad*%
%ADD12R,1.050000X1.050000*%
%TD*%
%TA.AperFunction,ViaPad*%
%ADD13C,0.635000*%
%TD*%
%TA.AperFunction,Conductor*%
%ADD14C,0.508000*%
%TD*%
%TA.AperFunction,Conductor*%
%ADD15C,0.203200*%
%TD*%
%TA.AperFunction,Conductor*%
%ADD16C,0.254000*%
%TD*%
G04 APERTURE END LIST*
%TO.N,VUSB*%
%TO.C,J1*%
%TA.AperFunction,ViaPad*%
G36*
G01*
X127451000Y-107400920D02*
X126551000Y-107400920D01*
G75*
G02*
X126351000Y-107200920I0J200000D01*
G01*
X126351000Y-106800920D01*
G75*
G02*
X126551000Y-106600920I200000J0D01*
G01*
X127451000Y-106600920D01*
G75*
G02*
X127651000Y-106800920I0J-200000D01*
G01*
X127651000Y-107200920D01*
G75*
G02*
X127451000Y-107400920I-200000J0D01*
G01*
G37*
%TD.AperFunction*%
D10*
%TO.N,VCOM*%
X127001000Y-105750920D03*
%TO.N,GND*%
X127001000Y-104500920D03*
%TD*%
D11*
%TO.N,/SCL*%
%TO.C,P1*%
X140001000Y-86000920D03*
%TO.N,/IO1*%
X138001000Y-86000920D03*
%TO.N,/IO2*%
X136001000Y-86000920D03*
%TO.N,/SDA*%
X142001000Y-86000920D03*
%TO.N,/TX1*%
X144001000Y-86000920D03*
%TO.N,/IO4*%
X132001000Y-86000920D03*
%TO.N,/IO3*%
X134001000Y-86000920D03*
D12*
%TO.N,VCC*%
X148001000Y-86000920D03*
D11*
%TO.N,/RX1*%
X146001000Y-86000920D03*
%TO.N,GND*%
X130001000Y-86000920D03*
%TD*%
%TO.N,/MOSI*%
%TO.C,P2*%
X140001000Y-108000920D03*
%TO.N,Net-(P2-Pad6)*%
X138001000Y-108000920D03*
%TO.N,Net-(P2-Pad7)*%
X136001000Y-108000920D03*
%TO.N,/MISO*%
X142001000Y-108000920D03*
%TO.N,/SCK*%
X144001000Y-108000920D03*
%TO.N,VCOM*%
X132001000Y-108000920D03*
%TO.N,/OW*%
X134001000Y-108000920D03*
D12*
%TO.N,/TX2*%
X148001000Y-108000920D03*
D11*
%TO.N,/RX2*%
X146001000Y-108000920D03*
%TO.N,VUSB*%
X130001000Y-108000920D03*
%TD*%
%TO.N,/OW*%
%TO.C,J5*%
%TA.AperFunction,ViaPad*%
G36*
G01*
X127451000Y-92400920D02*
X126551000Y-92400920D01*
G75*
G02*
X126351000Y-92200920I0J200000D01*
G01*
X126351000Y-91800920D01*
G75*
G02*
X126551000Y-91600920I200000J0D01*
G01*
X127451000Y-91600920D01*
G75*
G02*
X127651000Y-91800920I0J-200000D01*
G01*
X127651000Y-92200920D01*
G75*
G02*
X127451000Y-92400920I-200000J0D01*
G01*
G37*
%TD.AperFunction*%
D10*
%TO.N,/IO1*%
X127001000Y-90750920D03*
%TO.N,/IO2*%
X127001000Y-89500920D03*
%TO.N,/IO3*%
X127001000Y-88250920D03*
%TO.N,/IO4*%
X127001000Y-87000920D03*
%TD*%
%TO.N,/SCL*%
%TO.C,J4*%
%TA.AperFunction,ViaPad*%
G36*
G01*
X150551000Y-88600920D02*
X151451000Y-88600920D01*
G75*
G02*
X151651000Y-88800920I0J-200000D01*
G01*
X151651000Y-89200920D01*
G75*
G02*
X151451000Y-89400920I-200000J0D01*
G01*
X150551000Y-89400920D01*
G75*
G02*
X150351000Y-89200920I0J200000D01*
G01*
X150351000Y-88800920D01*
G75*
G02*
X150551000Y-88600920I200000J0D01*
G01*
G37*
%TD.AperFunction*%
%TO.N,/SDA*%
X151001000Y-90250920D03*
%TD*%
%TO.N,/RX1*%
%TO.C,J2*%
%TA.AperFunction,ViaPad*%
G36*
G01*
X150551000Y-94600920D02*
X151451000Y-94600920D01*
G75*
G02*
X151651000Y-94800920I0J-200000D01*
G01*
X151651000Y-95200920D01*
G75*
G02*
X151451000Y-95400920I-200000J0D01*
G01*
X150551000Y-95400920D01*
G75*
G02*
X150351000Y-95200920I0J200000D01*
G01*
X150351000Y-94800920D01*
G75*
G02*
X150551000Y-94600920I200000J0D01*
G01*
G37*
%TD.AperFunction*%
%TO.N,/TX1*%
X151001000Y-96250920D03*
%TO.N,/RX2*%
X151001000Y-97500920D03*
%TO.N,/TX2*%
X151001000Y-98750920D03*
%TD*%
%TO.N,GND*%
%TO.C,J6*%
%TA.AperFunction,ViaPad*%
G36*
G01*
X127451000Y-100400920D02*
X126551000Y-100400920D01*
G75*
G02*
X126351000Y-100200920I0J200000D01*
G01*
X126351000Y-99800920D01*
G75*
G02*
X126551000Y-99600920I200000J0D01*
G01*
X127451000Y-99600920D01*
G75*
G02*
X127651000Y-99800920I0J-200000D01*
G01*
X127651000Y-100200920D01*
G75*
G02*
X127451000Y-100400920I-200000J0D01*
G01*
G37*
%TD.AperFunction*%
%TO.N,VCOM*%
X127001000Y-98750920D03*
%TO.N,/TX_AUX*%
X127001000Y-97500920D03*
%TO.N,/RX_AUX*%
X127001000Y-96250920D03*
%TD*%
%TO.N,/MOSI*%
%TO.C,J3*%
%TA.AperFunction,ViaPad*%
G36*
G01*
X150551000Y-103100920D02*
X151451000Y-103100920D01*
G75*
G02*
X151651000Y-103300920I0J-200000D01*
G01*
X151651000Y-103700920D01*
G75*
G02*
X151451000Y-103900920I-200000J0D01*
G01*
X150551000Y-103900920D01*
G75*
G02*
X150351000Y-103700920I0J200000D01*
G01*
X150351000Y-103300920D01*
G75*
G02*
X150551000Y-103100920I200000J0D01*
G01*
G37*
%TD.AperFunction*%
%TO.N,/MISO*%
X151001000Y-104750920D03*
%TO.N,/SCK*%
X151001000Y-106000920D03*
%TD*%
D13*
%TO.N,GND*%
X131501000Y-92000920D03*
X148501000Y-100750920D03*
%TO.N,VCC*%
X139501000Y-95000920D03*
X130001000Y-95000920D03*
X146001000Y-100750920D03*
X130001000Y-103500920D03*
X137001000Y-103500920D03*
%TO.N,GND*%
X149501000Y-106500920D03*
X127001000Y-102000920D03*
X138001000Y-106000920D03*
X139501000Y-103500920D03*
X146501000Y-92500920D03*
X142001000Y-90500920D03*
%TO.N,/SDA*%
X133501000Y-94000920D03*
X140501000Y-90504459D03*
%TO.N,/RX_AUX*%
X144929490Y-91486694D03*
%TO.N,/TX_AUX*%
X145501000Y-97000920D03*
%TD*%
D14*
%TO.N,VCOM*%
X128501000Y-105000920D02*
X127751000Y-105750920D01*
X127751000Y-98750920D02*
X128501000Y-99500920D01*
X127001000Y-98750920D02*
X127751000Y-98750920D01*
X127751000Y-105750920D02*
X127001000Y-105750920D01*
X128501000Y-99500920D02*
X128501000Y-105000920D01*
D15*
%TO.N,/RX2*%
X146001000Y-106998012D02*
X149645390Y-103353622D01*
X146001000Y-108000920D02*
X146001000Y-106998012D01*
X149645390Y-103353622D02*
X149645390Y-98356530D01*
X150501000Y-97500920D02*
X151001000Y-97500920D01*
X149645390Y-98356530D02*
X150501000Y-97500920D01*
%TO.N,/TX2*%
X150501000Y-98750920D02*
X151001000Y-98750920D01*
X150001000Y-99250920D02*
X150501000Y-98750920D01*
X148001000Y-108000920D02*
X148001000Y-105500920D01*
X150001000Y-103500920D02*
X150001000Y-99250920D01*
X148001000Y-105500920D02*
X150001000Y-103500920D01*
%TO.N,/RX1*%
X151001000Y-95000920D02*
X150251000Y-95000920D01*
X146001000Y-90750920D02*
X146001000Y-86000920D01*
X150251000Y-95000920D02*
X146001000Y-90750920D01*
%TO.N,/TX1*%
X145645390Y-87645310D02*
X144001000Y-86000920D01*
X150001000Y-95253828D02*
X145645390Y-90898218D01*
X145645390Y-90898218D02*
X145645390Y-87645310D01*
X151001000Y-96250920D02*
X150501000Y-96250920D01*
X150001000Y-95750920D02*
X150001000Y-95253828D01*
X150501000Y-96250920D02*
X150001000Y-95750920D01*
%TO.N,/SCK*%
X145001000Y-109000920D02*
X144001000Y-108000920D01*
X149501000Y-109000920D02*
X145001000Y-109000920D01*
X151001000Y-106000920D02*
X151001000Y-107500920D01*
X151001000Y-107500920D02*
X149501000Y-109000920D01*
%TO.N,/SDA*%
X136997461Y-90504459D02*
X140501000Y-90504459D01*
X133501000Y-94000920D02*
X136997461Y-90504459D01*
%TO.N,/OW*%
X133001000Y-109000920D02*
X134001000Y-108000920D01*
X126501000Y-109000920D02*
X133001000Y-109000920D01*
X125501000Y-108000920D02*
X126501000Y-109000920D01*
X127001000Y-92000920D02*
X125501000Y-93500920D01*
X125501000Y-93500920D02*
X125501000Y-108000920D01*
%TO.N,/IO4*%
X131001000Y-87000920D02*
X132001000Y-86000920D01*
X127001000Y-87000920D02*
X131001000Y-87000920D01*
%TO.N,/IO3*%
X131751000Y-88250920D02*
X134001000Y-86000920D01*
X127001000Y-88250920D02*
X131751000Y-88250920D01*
%TO.N,/IO2*%
X132501000Y-89500920D02*
X136001000Y-86000920D01*
X127001000Y-89500920D02*
X132501000Y-89500920D01*
%TO.N,/IO1*%
X137476001Y-86525919D02*
X138001000Y-86000920D01*
X127001000Y-90750920D02*
X133251000Y-90750920D01*
X133251000Y-90750920D02*
X137476001Y-86525919D01*
%TO.N,/RX_AUX*%
X139415264Y-97000920D02*
X144929490Y-91486694D01*
X128251000Y-97000920D02*
X139415264Y-97000920D01*
X127001000Y-96250920D02*
X127501000Y-96250920D01*
X127501000Y-96250920D02*
X128251000Y-97000920D01*
%TO.N,/TX_AUX*%
X127001000Y-97500920D02*
X145001000Y-97500920D01*
X145001000Y-97500920D02*
X145501000Y-97000920D01*
%TD*%
D16*
%TO.N,GND*%
G36*
X155045000Y-86189801D02*
G01*
X155045001Y-107812038D01*
X152312119Y-110544920D01*
X125689881Y-110544920D01*
X122957000Y-107812039D01*
X122957000Y-93500920D01*
X125016065Y-93500920D01*
X125018400Y-93524625D01*
X125018401Y-107977205D01*
X125016065Y-108000920D01*
X125025384Y-108095526D01*
X125052978Y-108186496D01*
X125052979Y-108186497D01*
X125097792Y-108270335D01*
X125158100Y-108343821D01*
X125176513Y-108358932D01*
X126142988Y-109325407D01*
X126158099Y-109343821D01*
X126231585Y-109404129D01*
X126315423Y-109448942D01*
X126406393Y-109476537D01*
X126501000Y-109485855D01*
X126524707Y-109483520D01*
X132977295Y-109483520D01*
X133001000Y-109485855D01*
X133024705Y-109483520D01*
X133024707Y-109483520D01*
X133095606Y-109476537D01*
X133186577Y-109448942D01*
X133270415Y-109404129D01*
X133343901Y-109343821D01*
X133359017Y-109325402D01*
X133799776Y-108884644D01*
X133911767Y-108906920D01*
X134090233Y-108906920D01*
X134265271Y-108872103D01*
X134430152Y-108803807D01*
X134578541Y-108704656D01*
X134704736Y-108578461D01*
X134803887Y-108430072D01*
X134872183Y-108265191D01*
X134907000Y-108090153D01*
X134907000Y-107911687D01*
X135095000Y-107911687D01*
X135095000Y-108090153D01*
X135129817Y-108265191D01*
X135198113Y-108430072D01*
X135297264Y-108578461D01*
X135423459Y-108704656D01*
X135571848Y-108803807D01*
X135736729Y-108872103D01*
X135911767Y-108906920D01*
X136090233Y-108906920D01*
X136265271Y-108872103D01*
X136430152Y-108803807D01*
X136578541Y-108704656D01*
X136704736Y-108578461D01*
X136803887Y-108430072D01*
X136872183Y-108265191D01*
X136907000Y-108090153D01*
X136907000Y-107911687D01*
X137095000Y-107911687D01*
X137095000Y-108090153D01*
X137129817Y-108265191D01*
X137198113Y-108430072D01*
X137297264Y-108578461D01*
X137423459Y-108704656D01*
X137571848Y-108803807D01*
X137736729Y-108872103D01*
X137911767Y-108906920D01*
X138090233Y-108906920D01*
X138265271Y-108872103D01*
X138430152Y-108803807D01*
X138578541Y-108704656D01*
X138704736Y-108578461D01*
X138803887Y-108430072D01*
X138872183Y-108265191D01*
X138907000Y-108090153D01*
X138907000Y-107911687D01*
X139095000Y-107911687D01*
X139095000Y-108090153D01*
X139129817Y-108265191D01*
X139198113Y-108430072D01*
X139297264Y-108578461D01*
X139423459Y-108704656D01*
X139571848Y-108803807D01*
X139736729Y-108872103D01*
X139911767Y-108906920D01*
X140090233Y-108906920D01*
X140265271Y-108872103D01*
X140430152Y-108803807D01*
X140578541Y-108704656D01*
X140704736Y-108578461D01*
X140803887Y-108430072D01*
X140872183Y-108265191D01*
X140907000Y-108090153D01*
X140907000Y-107911687D01*
X141095000Y-107911687D01*
X141095000Y-108090153D01*
X141129817Y-108265191D01*
X141198113Y-108430072D01*
X141297264Y-108578461D01*
X141423459Y-108704656D01*
X141571848Y-108803807D01*
X141736729Y-108872103D01*
X141911767Y-108906920D01*
X142090233Y-108906920D01*
X142265271Y-108872103D01*
X142430152Y-108803807D01*
X142578541Y-108704656D01*
X142704736Y-108578461D01*
X142803887Y-108430072D01*
X142872183Y-108265191D01*
X142907000Y-108090153D01*
X142907000Y-107911687D01*
X142872183Y-107736649D01*
X142803887Y-107571768D01*
X142704736Y-107423379D01*
X142578541Y-107297184D01*
X142430152Y-107198033D01*
X142265271Y-107129737D01*
X142090233Y-107094920D01*
X141911767Y-107094920D01*
X141736729Y-107129737D01*
X141571848Y-107198033D01*
X141423459Y-107297184D01*
X141297264Y-107423379D01*
X141198113Y-107571768D01*
X141129817Y-107736649D01*
X141095000Y-107911687D01*
X140907000Y-107911687D01*
X140872183Y-107736649D01*
X140803887Y-107571768D01*
X140704736Y-107423379D01*
X140578541Y-107297184D01*
X140430152Y-107198033D01*
X140265271Y-107129737D01*
X140090233Y-107094920D01*
X139911767Y-107094920D01*
X139736729Y-107129737D01*
X139571848Y-107198033D01*
X139423459Y-107297184D01*
X139297264Y-107423379D01*
X139198113Y-107571768D01*
X139129817Y-107736649D01*
X139095000Y-107911687D01*
X138907000Y-107911687D01*
X138872183Y-107736649D01*
X138803887Y-107571768D01*
X138704736Y-107423379D01*
X138578541Y-107297184D01*
X138430152Y-107198033D01*
X138265271Y-107129737D01*
X138090233Y-107094920D01*
X137911767Y-107094920D01*
X137736729Y-107129737D01*
X137571848Y-107198033D01*
X137423459Y-107297184D01*
X137297264Y-107423379D01*
X137198113Y-107571768D01*
X137129817Y-107736649D01*
X137095000Y-107911687D01*
X136907000Y-107911687D01*
X136872183Y-107736649D01*
X136803887Y-107571768D01*
X136704736Y-107423379D01*
X136578541Y-107297184D01*
X136430152Y-107198033D01*
X136265271Y-107129737D01*
X136090233Y-107094920D01*
X135911767Y-107094920D01*
X135736729Y-107129737D01*
X135571848Y-107198033D01*
X135423459Y-107297184D01*
X135297264Y-107423379D01*
X135198113Y-107571768D01*
X135129817Y-107736649D01*
X135095000Y-107911687D01*
X134907000Y-107911687D01*
X134872183Y-107736649D01*
X134803887Y-107571768D01*
X134704736Y-107423379D01*
X134578541Y-107297184D01*
X134430152Y-107198033D01*
X134265271Y-107129737D01*
X134090233Y-107094920D01*
X133911767Y-107094920D01*
X133736729Y-107129737D01*
X133571848Y-107198033D01*
X133423459Y-107297184D01*
X133297264Y-107423379D01*
X133198113Y-107571768D01*
X133129817Y-107736649D01*
X133095000Y-107911687D01*
X133095000Y-108090153D01*
X133117276Y-108202144D01*
X132801101Y-108518320D01*
X132744921Y-108518320D01*
X132803887Y-108430072D01*
X132872183Y-108265191D01*
X132907000Y-108090153D01*
X132907000Y-107911687D01*
X132872183Y-107736649D01*
X132803887Y-107571768D01*
X132704736Y-107423379D01*
X132578541Y-107297184D01*
X132430152Y-107198033D01*
X132265271Y-107129737D01*
X132090233Y-107094920D01*
X131911767Y-107094920D01*
X131736729Y-107129737D01*
X131571848Y-107198033D01*
X131423459Y-107297184D01*
X131297264Y-107423379D01*
X131198113Y-107571768D01*
X131129817Y-107736649D01*
X131095000Y-107911687D01*
X131095000Y-108090153D01*
X131129817Y-108265191D01*
X131198113Y-108430072D01*
X131257079Y-108518320D01*
X130744921Y-108518320D01*
X130803887Y-108430072D01*
X130872183Y-108265191D01*
X130907000Y-108090153D01*
X130907000Y-107911687D01*
X130872183Y-107736649D01*
X130803887Y-107571768D01*
X130704736Y-107423379D01*
X130578541Y-107297184D01*
X130430152Y-107198033D01*
X130265271Y-107129737D01*
X130090233Y-107094920D01*
X129911767Y-107094920D01*
X129736729Y-107129737D01*
X129571848Y-107198033D01*
X129423459Y-107297184D01*
X129297264Y-107423379D01*
X129198113Y-107571768D01*
X129129817Y-107736649D01*
X129095000Y-107911687D01*
X129095000Y-108090153D01*
X129129817Y-108265191D01*
X129198113Y-108430072D01*
X129257079Y-108518320D01*
X126700900Y-108518320D01*
X125983600Y-107801021D01*
X125983600Y-107328618D01*
X126012523Y-107423964D01*
X126066384Y-107524730D01*
X126138868Y-107613052D01*
X126227190Y-107685536D01*
X126327956Y-107739397D01*
X126437293Y-107772564D01*
X126551000Y-107783763D01*
X127451000Y-107783763D01*
X127564707Y-107772564D01*
X127674044Y-107739397D01*
X127774810Y-107685536D01*
X127863132Y-107613052D01*
X127935616Y-107524730D01*
X127989477Y-107423964D01*
X128022644Y-107314627D01*
X128033843Y-107200920D01*
X128033843Y-106800920D01*
X128022644Y-106687213D01*
X127989477Y-106577876D01*
X127935616Y-106477110D01*
X127863132Y-106388788D01*
X127851339Y-106379110D01*
X127875482Y-106376732D01*
X127995180Y-106340422D01*
X128105494Y-106281457D01*
X128202185Y-106202105D01*
X128222074Y-106177870D01*
X128927955Y-105471990D01*
X128952185Y-105452105D01*
X129031537Y-105355414D01*
X129090502Y-105245100D01*
X129126812Y-105125402D01*
X129136000Y-105032112D01*
X129136000Y-105032102D01*
X129139071Y-105000921D01*
X129136000Y-104969740D01*
X129136000Y-103432124D01*
X129302500Y-103432124D01*
X129302500Y-103569716D01*
X129329343Y-103704665D01*
X129381997Y-103831784D01*
X129458439Y-103946188D01*
X129555732Y-104043481D01*
X129670136Y-104119923D01*
X129797255Y-104172577D01*
X129932204Y-104199420D01*
X130069796Y-104199420D01*
X130204745Y-104172577D01*
X130331864Y-104119923D01*
X130446268Y-104043481D01*
X130543561Y-103946188D01*
X130620003Y-103831784D01*
X130672657Y-103704665D01*
X130699500Y-103569716D01*
X130699500Y-103432124D01*
X136302500Y-103432124D01*
X136302500Y-103569716D01*
X136329343Y-103704665D01*
X136381997Y-103831784D01*
X136458439Y-103946188D01*
X136555732Y-104043481D01*
X136670136Y-104119923D01*
X136797255Y-104172577D01*
X136932204Y-104199420D01*
X137069796Y-104199420D01*
X137204745Y-104172577D01*
X137331864Y-104119923D01*
X137446268Y-104043481D01*
X137543561Y-103946188D01*
X137620003Y-103831784D01*
X137672657Y-103704665D01*
X137699500Y-103569716D01*
X137699500Y-103432124D01*
X137672657Y-103297175D01*
X137620003Y-103170056D01*
X137543561Y-103055652D01*
X137446268Y-102958359D01*
X137331864Y-102881917D01*
X137204745Y-102829263D01*
X137069796Y-102802420D01*
X136932204Y-102802420D01*
X136797255Y-102829263D01*
X136670136Y-102881917D01*
X136555732Y-102958359D01*
X136458439Y-103055652D01*
X136381997Y-103170056D01*
X136329343Y-103297175D01*
X136302500Y-103432124D01*
X130699500Y-103432124D01*
X130672657Y-103297175D01*
X130620003Y-103170056D01*
X130543561Y-103055652D01*
X130446268Y-102958359D01*
X130331864Y-102881917D01*
X130204745Y-102829263D01*
X130069796Y-102802420D01*
X129932204Y-102802420D01*
X129797255Y-102829263D01*
X129670136Y-102881917D01*
X129555732Y-102958359D01*
X129458439Y-103055652D01*
X129381997Y-103170056D01*
X129329343Y-103297175D01*
X129302500Y-103432124D01*
X129136000Y-103432124D01*
X129136000Y-100682124D01*
X145302500Y-100682124D01*
X145302500Y-100819716D01*
X145329343Y-100954665D01*
X145381997Y-101081784D01*
X145458439Y-101196188D01*
X145555732Y-101293481D01*
X145670136Y-101369923D01*
X145797255Y-101422577D01*
X145932204Y-101449420D01*
X146069796Y-101449420D01*
X146204745Y-101422577D01*
X146331864Y-101369923D01*
X146446268Y-101293481D01*
X146543561Y-101196188D01*
X146620003Y-101081784D01*
X146672657Y-100954665D01*
X146699500Y-100819716D01*
X146699500Y-100682124D01*
X146672657Y-100547175D01*
X146620003Y-100420056D01*
X146543561Y-100305652D01*
X146446268Y-100208359D01*
X146331864Y-100131917D01*
X146204745Y-100079263D01*
X146069796Y-100052420D01*
X145932204Y-100052420D01*
X145797255Y-100079263D01*
X145670136Y-100131917D01*
X145555732Y-100208359D01*
X145458439Y-100305652D01*
X145381997Y-100420056D01*
X145329343Y-100547175D01*
X145302500Y-100682124D01*
X129136000Y-100682124D01*
X129136000Y-99532100D01*
X129139071Y-99500919D01*
X129136000Y-99469738D01*
X129136000Y-99469728D01*
X129126812Y-99376438D01*
X129090502Y-99256740D01*
X129031537Y-99146426D01*
X128952185Y-99049735D01*
X128927956Y-99029851D01*
X128222074Y-98323970D01*
X128202185Y-98299735D01*
X128105494Y-98220383D01*
X127995180Y-98161418D01*
X127875482Y-98125108D01*
X127782192Y-98115920D01*
X127782181Y-98115920D01*
X127751000Y-98112849D01*
X127734475Y-98114477D01*
X127805922Y-98055842D01*
X127865275Y-97983520D01*
X144977295Y-97983520D01*
X145001000Y-97985855D01*
X145024705Y-97983520D01*
X145024707Y-97983520D01*
X145095606Y-97976537D01*
X145186577Y-97948942D01*
X145270415Y-97904129D01*
X145343901Y-97843821D01*
X145359017Y-97825402D01*
X145484999Y-97699420D01*
X145569796Y-97699420D01*
X145704745Y-97672577D01*
X145831864Y-97619923D01*
X145946268Y-97543481D01*
X146043561Y-97446188D01*
X146120003Y-97331784D01*
X146172657Y-97204665D01*
X146199500Y-97069716D01*
X146199500Y-96932124D01*
X146172657Y-96797175D01*
X146120003Y-96670056D01*
X146043561Y-96555652D01*
X145946268Y-96458359D01*
X145831864Y-96381917D01*
X145704745Y-96329263D01*
X145569796Y-96302420D01*
X145432204Y-96302420D01*
X145297255Y-96329263D01*
X145170136Y-96381917D01*
X145055732Y-96458359D01*
X144958439Y-96555652D01*
X144881997Y-96670056D01*
X144829343Y-96797175D01*
X144802500Y-96932124D01*
X144802500Y-97016921D01*
X144801101Y-97018320D01*
X140080363Y-97018320D01*
X144913489Y-92185194D01*
X144998286Y-92185194D01*
X145133235Y-92158351D01*
X145260354Y-92105697D01*
X145374758Y-92029255D01*
X145472051Y-91931962D01*
X145548493Y-91817558D01*
X145601147Y-91690439D01*
X145626691Y-91562018D01*
X149518401Y-95453729D01*
X149518400Y-95727214D01*
X149516065Y-95750920D01*
X149518400Y-95774625D01*
X149518400Y-95774626D01*
X149525383Y-95845525D01*
X149552978Y-95936496D01*
X149597791Y-96020335D01*
X149658099Y-96093821D01*
X149676518Y-96108937D01*
X149985524Y-96417943D01*
X150025960Y-96551242D01*
X150098481Y-96686919D01*
X150196078Y-96805842D01*
X150281469Y-96875920D01*
X150196078Y-96945998D01*
X150098481Y-97064921D01*
X150025960Y-97200598D01*
X149985523Y-97333898D01*
X149320903Y-97998518D01*
X149302490Y-98013629D01*
X149287379Y-98032042D01*
X149287377Y-98032044D01*
X149242182Y-98087115D01*
X149197368Y-98170954D01*
X149169774Y-98261924D01*
X149160455Y-98356530D01*
X149162791Y-98380245D01*
X149162790Y-103153722D01*
X145676513Y-106640000D01*
X145658100Y-106655111D01*
X145642989Y-106673524D01*
X145642987Y-106673526D01*
X145597792Y-106728597D01*
X145552978Y-106812436D01*
X145525384Y-106903406D01*
X145516065Y-106998012D01*
X145518401Y-107021726D01*
X145518401Y-107233746D01*
X145423459Y-107297184D01*
X145297264Y-107423379D01*
X145198113Y-107571768D01*
X145129817Y-107736649D01*
X145095000Y-107911687D01*
X145095000Y-108090153D01*
X145129817Y-108265191D01*
X145198113Y-108430072D01*
X145257079Y-108518320D01*
X145200900Y-108518320D01*
X144884724Y-108202144D01*
X144907000Y-108090153D01*
X144907000Y-107911687D01*
X144872183Y-107736649D01*
X144803887Y-107571768D01*
X144704736Y-107423379D01*
X144578541Y-107297184D01*
X144430152Y-107198033D01*
X144265271Y-107129737D01*
X144090233Y-107094920D01*
X143911767Y-107094920D01*
X143736729Y-107129737D01*
X143571848Y-107198033D01*
X143423459Y-107297184D01*
X143297264Y-107423379D01*
X143198113Y-107571768D01*
X143129817Y-107736649D01*
X143095000Y-107911687D01*
X143095000Y-108090153D01*
X143129817Y-108265191D01*
X143198113Y-108430072D01*
X143297264Y-108578461D01*
X143423459Y-108704656D01*
X143571848Y-108803807D01*
X143736729Y-108872103D01*
X143911767Y-108906920D01*
X144090233Y-108906920D01*
X144202224Y-108884644D01*
X144642988Y-109325407D01*
X144658099Y-109343821D01*
X144731585Y-109404129D01*
X144815423Y-109448942D01*
X144906393Y-109476537D01*
X145001000Y-109485855D01*
X145024707Y-109483520D01*
X149477295Y-109483520D01*
X149501000Y-109485855D01*
X149524705Y-109483520D01*
X149524707Y-109483520D01*
X149595606Y-109476537D01*
X149686577Y-109448942D01*
X149770415Y-109404129D01*
X149843901Y-109343821D01*
X149859017Y-109325402D01*
X151325482Y-107858937D01*
X151343901Y-107843821D01*
X151404209Y-107770335D01*
X151449022Y-107686497D01*
X151476617Y-107595526D01*
X151483600Y-107524627D01*
X151483600Y-107524626D01*
X151485935Y-107500921D01*
X151483600Y-107477216D01*
X151483600Y-106746504D01*
X151551322Y-106725960D01*
X151686999Y-106653439D01*
X151805922Y-106555842D01*
X151903519Y-106436919D01*
X151976040Y-106301242D01*
X152020699Y-106154023D01*
X152035778Y-106000920D01*
X152020699Y-105847817D01*
X151976040Y-105700598D01*
X151903519Y-105564921D01*
X151805922Y-105445998D01*
X151720531Y-105375920D01*
X151805922Y-105305842D01*
X151903519Y-105186919D01*
X151976040Y-105051242D01*
X152020699Y-104904023D01*
X152035778Y-104750920D01*
X152020699Y-104597817D01*
X151976040Y-104450598D01*
X151903519Y-104314921D01*
X151805922Y-104195998D01*
X151783992Y-104178001D01*
X151863132Y-104113052D01*
X151935616Y-104024730D01*
X151989477Y-103923964D01*
X152022644Y-103814627D01*
X152033843Y-103700920D01*
X152033843Y-103300920D01*
X152022644Y-103187213D01*
X151989477Y-103077876D01*
X151935616Y-102977110D01*
X151863132Y-102888788D01*
X151774810Y-102816304D01*
X151674044Y-102762443D01*
X151564707Y-102729276D01*
X151451000Y-102718077D01*
X150551000Y-102718077D01*
X150483600Y-102724715D01*
X150483600Y-99485947D01*
X150597897Y-99520619D01*
X150712640Y-99531920D01*
X151289360Y-99531920D01*
X151404103Y-99520619D01*
X151551322Y-99475960D01*
X151686999Y-99403439D01*
X151805922Y-99305842D01*
X151903519Y-99186919D01*
X151976040Y-99051242D01*
X152020699Y-98904023D01*
X152035778Y-98750920D01*
X152020699Y-98597817D01*
X151976040Y-98450598D01*
X151903519Y-98314921D01*
X151805922Y-98195998D01*
X151720531Y-98125920D01*
X151805922Y-98055842D01*
X151903519Y-97936919D01*
X151976040Y-97801242D01*
X152020699Y-97654023D01*
X152035778Y-97500920D01*
X152020699Y-97347817D01*
X151976040Y-97200598D01*
X151903519Y-97064921D01*
X151805922Y-96945998D01*
X151720531Y-96875920D01*
X151805922Y-96805842D01*
X151903519Y-96686919D01*
X151976040Y-96551242D01*
X152020699Y-96404023D01*
X152035778Y-96250920D01*
X152020699Y-96097817D01*
X151976040Y-95950598D01*
X151903519Y-95814921D01*
X151805922Y-95695998D01*
X151783992Y-95678001D01*
X151863132Y-95613052D01*
X151935616Y-95524730D01*
X151989477Y-95423964D01*
X152022644Y-95314627D01*
X152033843Y-95200920D01*
X152033843Y-94800920D01*
X152022644Y-94687213D01*
X151989477Y-94577876D01*
X151935616Y-94477110D01*
X151863132Y-94388788D01*
X151774810Y-94316304D01*
X151674044Y-94262443D01*
X151564707Y-94229276D01*
X151451000Y-94218077D01*
X150551000Y-94218077D01*
X150437293Y-94229276D01*
X150327956Y-94262443D01*
X150241327Y-94308747D01*
X146483600Y-90551021D01*
X146483600Y-90250920D01*
X149966222Y-90250920D01*
X149981301Y-90404023D01*
X150025960Y-90551242D01*
X150098481Y-90686919D01*
X150196078Y-90805842D01*
X150315001Y-90903439D01*
X150450678Y-90975960D01*
X150597897Y-91020619D01*
X150712640Y-91031920D01*
X151289360Y-91031920D01*
X151404103Y-91020619D01*
X151551322Y-90975960D01*
X151686999Y-90903439D01*
X151805922Y-90805842D01*
X151903519Y-90686919D01*
X151976040Y-90551242D01*
X152020699Y-90404023D01*
X152035778Y-90250920D01*
X152020699Y-90097817D01*
X151976040Y-89950598D01*
X151903519Y-89814921D01*
X151805922Y-89695998D01*
X151783992Y-89678001D01*
X151863132Y-89613052D01*
X151935616Y-89524730D01*
X151989477Y-89423964D01*
X152022644Y-89314627D01*
X152033843Y-89200920D01*
X152033843Y-88800920D01*
X152022644Y-88687213D01*
X151989477Y-88577876D01*
X151935616Y-88477110D01*
X151863132Y-88388788D01*
X151774810Y-88316304D01*
X151674044Y-88262443D01*
X151564707Y-88229276D01*
X151451000Y-88218077D01*
X150551000Y-88218077D01*
X150437293Y-88229276D01*
X150327956Y-88262443D01*
X150227190Y-88316304D01*
X150138868Y-88388788D01*
X150066384Y-88477110D01*
X150012523Y-88577876D01*
X149979356Y-88687213D01*
X149968157Y-88800920D01*
X149968157Y-89200920D01*
X149979356Y-89314627D01*
X150012523Y-89423964D01*
X150066384Y-89524730D01*
X150138868Y-89613052D01*
X150218008Y-89678001D01*
X150196078Y-89695998D01*
X150098481Y-89814921D01*
X150025960Y-89950598D01*
X149981301Y-90097817D01*
X149966222Y-90250920D01*
X146483600Y-90250920D01*
X146483600Y-86768094D01*
X146578541Y-86704656D01*
X146704736Y-86578461D01*
X146803887Y-86430072D01*
X146872183Y-86265191D01*
X146907000Y-86090153D01*
X146907000Y-85911687D01*
X146872183Y-85736649D01*
X146803887Y-85571768D01*
X146739844Y-85475920D01*
X147093157Y-85475920D01*
X147093157Y-86525920D01*
X147100513Y-86600609D01*
X147122299Y-86672428D01*
X147157678Y-86738616D01*
X147205289Y-86796631D01*
X147263304Y-86844242D01*
X147329492Y-86879621D01*
X147401311Y-86901407D01*
X147476000Y-86908763D01*
X148526000Y-86908763D01*
X148600689Y-86901407D01*
X148672508Y-86879621D01*
X148738696Y-86844242D01*
X148796711Y-86796631D01*
X148844322Y-86738616D01*
X148879701Y-86672428D01*
X148901487Y-86600609D01*
X148908843Y-86525920D01*
X148908843Y-85475920D01*
X148901487Y-85401231D01*
X148879701Y-85329412D01*
X148844322Y-85263224D01*
X148796711Y-85205209D01*
X148738696Y-85157598D01*
X148672508Y-85122219D01*
X148600689Y-85100433D01*
X148526000Y-85093077D01*
X147476000Y-85093077D01*
X147401311Y-85100433D01*
X147329492Y-85122219D01*
X147263304Y-85157598D01*
X147205289Y-85205209D01*
X147157678Y-85263224D01*
X147122299Y-85329412D01*
X147100513Y-85401231D01*
X147093157Y-85475920D01*
X146739844Y-85475920D01*
X146704736Y-85423379D01*
X146578541Y-85297184D01*
X146430152Y-85198033D01*
X146265271Y-85129737D01*
X146090233Y-85094920D01*
X145911767Y-85094920D01*
X145736729Y-85129737D01*
X145571848Y-85198033D01*
X145423459Y-85297184D01*
X145297264Y-85423379D01*
X145198113Y-85571768D01*
X145129817Y-85736649D01*
X145095000Y-85911687D01*
X145095000Y-86090153D01*
X145129817Y-86265191D01*
X145198113Y-86430072D01*
X145297264Y-86578461D01*
X145423459Y-86704656D01*
X145518401Y-86768095D01*
X145518401Y-86835821D01*
X144884724Y-86202144D01*
X144907000Y-86090153D01*
X144907000Y-85911687D01*
X144872183Y-85736649D01*
X144803887Y-85571768D01*
X144704736Y-85423379D01*
X144578541Y-85297184D01*
X144430152Y-85198033D01*
X144265271Y-85129737D01*
X144090233Y-85094920D01*
X143911767Y-85094920D01*
X143736729Y-85129737D01*
X143571848Y-85198033D01*
X143423459Y-85297184D01*
X143297264Y-85423379D01*
X143198113Y-85571768D01*
X143129817Y-85736649D01*
X143095000Y-85911687D01*
X143095000Y-86090153D01*
X143129817Y-86265191D01*
X143198113Y-86430072D01*
X143297264Y-86578461D01*
X143423459Y-86704656D01*
X143571848Y-86803807D01*
X143736729Y-86872103D01*
X143911767Y-86906920D01*
X144090233Y-86906920D01*
X144202224Y-86884644D01*
X145162791Y-87845211D01*
X145162790Y-90827279D01*
X145133235Y-90815037D01*
X144998286Y-90788194D01*
X144860694Y-90788194D01*
X144725745Y-90815037D01*
X144598626Y-90867691D01*
X144484222Y-90944133D01*
X144386929Y-91041426D01*
X144310487Y-91155830D01*
X144257833Y-91282949D01*
X144230990Y-91417898D01*
X144230990Y-91502695D01*
X139215365Y-96518320D01*
X128450899Y-96518320D01*
X128016477Y-96083898D01*
X127976040Y-95950598D01*
X127903519Y-95814921D01*
X127805922Y-95695998D01*
X127686999Y-95598401D01*
X127551322Y-95525880D01*
X127404103Y-95481221D01*
X127289360Y-95469920D01*
X126712640Y-95469920D01*
X126597897Y-95481221D01*
X126450678Y-95525880D01*
X126315001Y-95598401D01*
X126196078Y-95695998D01*
X126098481Y-95814921D01*
X126025960Y-95950598D01*
X125983600Y-96090238D01*
X125983600Y-94932124D01*
X129302500Y-94932124D01*
X129302500Y-95069716D01*
X129329343Y-95204665D01*
X129381997Y-95331784D01*
X129458439Y-95446188D01*
X129555732Y-95543481D01*
X129670136Y-95619923D01*
X129797255Y-95672577D01*
X129932204Y-95699420D01*
X130069796Y-95699420D01*
X130204745Y-95672577D01*
X130331864Y-95619923D01*
X130446268Y-95543481D01*
X130543561Y-95446188D01*
X130620003Y-95331784D01*
X130672657Y-95204665D01*
X130699500Y-95069716D01*
X130699500Y-94932124D01*
X138802500Y-94932124D01*
X138802500Y-95069716D01*
X138829343Y-95204665D01*
X138881997Y-95331784D01*
X138958439Y-95446188D01*
X139055732Y-95543481D01*
X139170136Y-95619923D01*
X139297255Y-95672577D01*
X139432204Y-95699420D01*
X139569796Y-95699420D01*
X139704745Y-95672577D01*
X139831864Y-95619923D01*
X139946268Y-95543481D01*
X140043561Y-95446188D01*
X140120003Y-95331784D01*
X140172657Y-95204665D01*
X140199500Y-95069716D01*
X140199500Y-94932124D01*
X140172657Y-94797175D01*
X140120003Y-94670056D01*
X140043561Y-94555652D01*
X139946268Y-94458359D01*
X139831864Y-94381917D01*
X139704745Y-94329263D01*
X139569796Y-94302420D01*
X139432204Y-94302420D01*
X139297255Y-94329263D01*
X139170136Y-94381917D01*
X139055732Y-94458359D01*
X138958439Y-94555652D01*
X138881997Y-94670056D01*
X138829343Y-94797175D01*
X138802500Y-94932124D01*
X130699500Y-94932124D01*
X130672657Y-94797175D01*
X130620003Y-94670056D01*
X130543561Y-94555652D01*
X130446268Y-94458359D01*
X130331864Y-94381917D01*
X130204745Y-94329263D01*
X130069796Y-94302420D01*
X129932204Y-94302420D01*
X129797255Y-94329263D01*
X129670136Y-94381917D01*
X129555732Y-94458359D01*
X129458439Y-94555652D01*
X129381997Y-94670056D01*
X129329343Y-94797175D01*
X129302500Y-94932124D01*
X125983600Y-94932124D01*
X125983600Y-93932124D01*
X132802500Y-93932124D01*
X132802500Y-94069716D01*
X132829343Y-94204665D01*
X132881997Y-94331784D01*
X132958439Y-94446188D01*
X133055732Y-94543481D01*
X133170136Y-94619923D01*
X133297255Y-94672577D01*
X133432204Y-94699420D01*
X133569796Y-94699420D01*
X133704745Y-94672577D01*
X133831864Y-94619923D01*
X133946268Y-94543481D01*
X134043561Y-94446188D01*
X134120003Y-94331784D01*
X134172657Y-94204665D01*
X134199500Y-94069716D01*
X134199500Y-93984919D01*
X137197361Y-90987059D01*
X139995771Y-90987059D01*
X140055732Y-91047020D01*
X140170136Y-91123462D01*
X140297255Y-91176116D01*
X140432204Y-91202959D01*
X140569796Y-91202959D01*
X140704745Y-91176116D01*
X140831864Y-91123462D01*
X140946268Y-91047020D01*
X141043561Y-90949727D01*
X141120003Y-90835323D01*
X141172657Y-90708204D01*
X141199500Y-90573255D01*
X141199500Y-90435663D01*
X141172657Y-90300714D01*
X141120003Y-90173595D01*
X141043561Y-90059191D01*
X140946268Y-89961898D01*
X140831864Y-89885456D01*
X140704745Y-89832802D01*
X140569796Y-89805959D01*
X140432204Y-89805959D01*
X140297255Y-89832802D01*
X140170136Y-89885456D01*
X140055732Y-89961898D01*
X139995771Y-90021859D01*
X137021168Y-90021859D01*
X136997461Y-90019524D01*
X136902854Y-90028842D01*
X136811884Y-90056437D01*
X136728046Y-90101250D01*
X136654560Y-90161558D01*
X136639449Y-90179971D01*
X133517001Y-93302420D01*
X133432204Y-93302420D01*
X133297255Y-93329263D01*
X133170136Y-93381917D01*
X133055732Y-93458359D01*
X132958439Y-93555652D01*
X132881997Y-93670056D01*
X132829343Y-93797175D01*
X132802500Y-93932124D01*
X125983600Y-93932124D01*
X125983600Y-93700819D01*
X126900656Y-92783763D01*
X127451000Y-92783763D01*
X127564707Y-92772564D01*
X127674044Y-92739397D01*
X127774810Y-92685536D01*
X127863132Y-92613052D01*
X127935616Y-92524730D01*
X127989477Y-92423964D01*
X128022644Y-92314627D01*
X128033843Y-92200920D01*
X128033843Y-91800920D01*
X128022644Y-91687213D01*
X127989477Y-91577876D01*
X127935616Y-91477110D01*
X127863132Y-91388788D01*
X127783992Y-91323839D01*
X127805922Y-91305842D01*
X127865275Y-91233520D01*
X133227295Y-91233520D01*
X133251000Y-91235855D01*
X133274705Y-91233520D01*
X133274707Y-91233520D01*
X133345606Y-91226537D01*
X133436577Y-91198942D01*
X133520415Y-91154129D01*
X133593901Y-91093821D01*
X133609017Y-91075402D01*
X137799776Y-86884644D01*
X137911767Y-86906920D01*
X138090233Y-86906920D01*
X138265271Y-86872103D01*
X138430152Y-86803807D01*
X138578541Y-86704656D01*
X138704736Y-86578461D01*
X138803887Y-86430072D01*
X138872183Y-86265191D01*
X138907000Y-86090153D01*
X138907000Y-85911687D01*
X139095000Y-85911687D01*
X139095000Y-86090153D01*
X139129817Y-86265191D01*
X139198113Y-86430072D01*
X139297264Y-86578461D01*
X139423459Y-86704656D01*
X139571848Y-86803807D01*
X139736729Y-86872103D01*
X139911767Y-86906920D01*
X140090233Y-86906920D01*
X140265271Y-86872103D01*
X140430152Y-86803807D01*
X140578541Y-86704656D01*
X140704736Y-86578461D01*
X140803887Y-86430072D01*
X140872183Y-86265191D01*
X140907000Y-86090153D01*
X140907000Y-85911687D01*
X141095000Y-85911687D01*
X141095000Y-86090153D01*
X141129817Y-86265191D01*
X141198113Y-86430072D01*
X141297264Y-86578461D01*
X141423459Y-86704656D01*
X141571848Y-86803807D01*
X141736729Y-86872103D01*
X141911767Y-86906920D01*
X142090233Y-86906920D01*
X142265271Y-86872103D01*
X142430152Y-86803807D01*
X142578541Y-86704656D01*
X142704736Y-86578461D01*
X142803887Y-86430072D01*
X142872183Y-86265191D01*
X142907000Y-86090153D01*
X142907000Y-85911687D01*
X142872183Y-85736649D01*
X142803887Y-85571768D01*
X142704736Y-85423379D01*
X142578541Y-85297184D01*
X142430152Y-85198033D01*
X142265271Y-85129737D01*
X142090233Y-85094920D01*
X141911767Y-85094920D01*
X141736729Y-85129737D01*
X141571848Y-85198033D01*
X141423459Y-85297184D01*
X141297264Y-85423379D01*
X141198113Y-85571768D01*
X141129817Y-85736649D01*
X141095000Y-85911687D01*
X140907000Y-85911687D01*
X140872183Y-85736649D01*
X140803887Y-85571768D01*
X140704736Y-85423379D01*
X140578541Y-85297184D01*
X140430152Y-85198033D01*
X140265271Y-85129737D01*
X140090233Y-85094920D01*
X139911767Y-85094920D01*
X139736729Y-85129737D01*
X139571848Y-85198033D01*
X139423459Y-85297184D01*
X139297264Y-85423379D01*
X139198113Y-85571768D01*
X139129817Y-85736649D01*
X139095000Y-85911687D01*
X138907000Y-85911687D01*
X138872183Y-85736649D01*
X138803887Y-85571768D01*
X138704736Y-85423379D01*
X138578541Y-85297184D01*
X138430152Y-85198033D01*
X138265271Y-85129737D01*
X138090233Y-85094920D01*
X137911767Y-85094920D01*
X137736729Y-85129737D01*
X137571848Y-85198033D01*
X137423459Y-85297184D01*
X137297264Y-85423379D01*
X137198113Y-85571768D01*
X137129817Y-85736649D01*
X137095000Y-85911687D01*
X137095000Y-86090153D01*
X137117276Y-86202144D01*
X133051101Y-90268320D01*
X127865275Y-90268320D01*
X127805922Y-90195998D01*
X127720531Y-90125920D01*
X127805922Y-90055842D01*
X127865275Y-89983520D01*
X132477295Y-89983520D01*
X132501000Y-89985855D01*
X132524705Y-89983520D01*
X132524707Y-89983520D01*
X132595606Y-89976537D01*
X132686577Y-89948942D01*
X132770415Y-89904129D01*
X132843901Y-89843821D01*
X132859017Y-89825402D01*
X135799775Y-86884644D01*
X135911767Y-86906920D01*
X136090233Y-86906920D01*
X136265271Y-86872103D01*
X136430152Y-86803807D01*
X136578541Y-86704656D01*
X136704736Y-86578461D01*
X136803887Y-86430072D01*
X136872183Y-86265191D01*
X136907000Y-86090153D01*
X136907000Y-85911687D01*
X136872183Y-85736649D01*
X136803887Y-85571768D01*
X136704736Y-85423379D01*
X136578541Y-85297184D01*
X136430152Y-85198033D01*
X136265271Y-85129737D01*
X136090233Y-85094920D01*
X135911767Y-85094920D01*
X135736729Y-85129737D01*
X135571848Y-85198033D01*
X135423459Y-85297184D01*
X135297264Y-85423379D01*
X135198113Y-85571768D01*
X135129817Y-85736649D01*
X135095000Y-85911687D01*
X135095000Y-86090153D01*
X135117276Y-86202145D01*
X132301101Y-89018320D01*
X127865275Y-89018320D01*
X127805922Y-88945998D01*
X127720531Y-88875920D01*
X127805922Y-88805842D01*
X127865275Y-88733520D01*
X131727295Y-88733520D01*
X131751000Y-88735855D01*
X131774705Y-88733520D01*
X131774707Y-88733520D01*
X131845606Y-88726537D01*
X131936577Y-88698942D01*
X132020415Y-88654129D01*
X132093901Y-88593821D01*
X132109017Y-88575402D01*
X133799776Y-86884644D01*
X133911767Y-86906920D01*
X134090233Y-86906920D01*
X134265271Y-86872103D01*
X134430152Y-86803807D01*
X134578541Y-86704656D01*
X134704736Y-86578461D01*
X134803887Y-86430072D01*
X134872183Y-86265191D01*
X134907000Y-86090153D01*
X134907000Y-85911687D01*
X134872183Y-85736649D01*
X134803887Y-85571768D01*
X134704736Y-85423379D01*
X134578541Y-85297184D01*
X134430152Y-85198033D01*
X134265271Y-85129737D01*
X134090233Y-85094920D01*
X133911767Y-85094920D01*
X133736729Y-85129737D01*
X133571848Y-85198033D01*
X133423459Y-85297184D01*
X133297264Y-85423379D01*
X133198113Y-85571768D01*
X133129817Y-85736649D01*
X133095000Y-85911687D01*
X133095000Y-86090153D01*
X133117276Y-86202144D01*
X131551101Y-87768320D01*
X127865275Y-87768320D01*
X127805922Y-87695998D01*
X127720531Y-87625920D01*
X127805922Y-87555842D01*
X127865275Y-87483520D01*
X130977295Y-87483520D01*
X131001000Y-87485855D01*
X131024705Y-87483520D01*
X131024707Y-87483520D01*
X131095606Y-87476537D01*
X131186577Y-87448942D01*
X131270415Y-87404129D01*
X131343901Y-87343821D01*
X131359017Y-87325402D01*
X131799776Y-86884644D01*
X131911767Y-86906920D01*
X132090233Y-86906920D01*
X132265271Y-86872103D01*
X132430152Y-86803807D01*
X132578541Y-86704656D01*
X132704736Y-86578461D01*
X132803887Y-86430072D01*
X132872183Y-86265191D01*
X132907000Y-86090153D01*
X132907000Y-85911687D01*
X132872183Y-85736649D01*
X132803887Y-85571768D01*
X132704736Y-85423379D01*
X132578541Y-85297184D01*
X132430152Y-85198033D01*
X132265271Y-85129737D01*
X132090233Y-85094920D01*
X131911767Y-85094920D01*
X131736729Y-85129737D01*
X131571848Y-85198033D01*
X131423459Y-85297184D01*
X131297264Y-85423379D01*
X131198113Y-85571768D01*
X131130724Y-85734460D01*
X131116422Y-85662560D01*
X131028979Y-85451454D01*
X130902031Y-85261463D01*
X130740457Y-85099889D01*
X130550466Y-84972941D01*
X130339360Y-84885498D01*
X130115250Y-84840920D01*
X129886750Y-84840920D01*
X129662640Y-84885498D01*
X129451534Y-84972941D01*
X129261543Y-85099889D01*
X129099969Y-85261463D01*
X128973021Y-85451454D01*
X128885578Y-85662560D01*
X128841000Y-85886670D01*
X128841000Y-86115170D01*
X128885578Y-86339280D01*
X128959739Y-86518320D01*
X127865275Y-86518320D01*
X127805922Y-86445998D01*
X127686999Y-86348401D01*
X127551322Y-86275880D01*
X127404103Y-86231221D01*
X127289360Y-86219920D01*
X126712640Y-86219920D01*
X126597897Y-86231221D01*
X126450678Y-86275880D01*
X126315001Y-86348401D01*
X126196078Y-86445998D01*
X126098481Y-86564921D01*
X126025960Y-86700598D01*
X125981301Y-86847817D01*
X125966222Y-87000920D01*
X125981301Y-87154023D01*
X126025960Y-87301242D01*
X126098481Y-87436919D01*
X126196078Y-87555842D01*
X126281469Y-87625920D01*
X126196078Y-87695998D01*
X126098481Y-87814921D01*
X126025960Y-87950598D01*
X125981301Y-88097817D01*
X125966222Y-88250920D01*
X125981301Y-88404023D01*
X126025960Y-88551242D01*
X126098481Y-88686919D01*
X126196078Y-88805842D01*
X126281469Y-88875920D01*
X126196078Y-88945998D01*
X126098481Y-89064921D01*
X126025960Y-89200598D01*
X125981301Y-89347817D01*
X125966222Y-89500920D01*
X125981301Y-89654023D01*
X126025960Y-89801242D01*
X126098481Y-89936919D01*
X126196078Y-90055842D01*
X126281469Y-90125920D01*
X126196078Y-90195998D01*
X126098481Y-90314921D01*
X126025960Y-90450598D01*
X125981301Y-90597817D01*
X125966222Y-90750920D01*
X125981301Y-90904023D01*
X126025960Y-91051242D01*
X126098481Y-91186919D01*
X126196078Y-91305842D01*
X126218008Y-91323839D01*
X126138868Y-91388788D01*
X126066384Y-91477110D01*
X126012523Y-91577876D01*
X125979356Y-91687213D01*
X125968157Y-91800920D01*
X125968157Y-92200920D01*
X125979356Y-92314627D01*
X125985277Y-92334144D01*
X125176518Y-93142903D01*
X125158099Y-93158019D01*
X125097791Y-93231505D01*
X125052978Y-93315344D01*
X125025383Y-93406315D01*
X125020257Y-93458359D01*
X125016065Y-93500920D01*
X122957000Y-93500920D01*
X122957000Y-86189801D01*
X125689881Y-83456920D01*
X152312119Y-83456920D01*
X155045000Y-86189801D01*
G37*
X155045000Y-86189801D02*
X155045001Y-107812038D01*
X152312119Y-110544920D01*
X125689881Y-110544920D01*
X122957000Y-107812039D01*
X122957000Y-93500920D01*
X125016065Y-93500920D01*
X125018400Y-93524625D01*
X125018401Y-107977205D01*
X125016065Y-108000920D01*
X125025384Y-108095526D01*
X125052978Y-108186496D01*
X125052979Y-108186497D01*
X125097792Y-108270335D01*
X125158100Y-108343821D01*
X125176513Y-108358932D01*
X126142988Y-109325407D01*
X126158099Y-109343821D01*
X126231585Y-109404129D01*
X126315423Y-109448942D01*
X126406393Y-109476537D01*
X126501000Y-109485855D01*
X126524707Y-109483520D01*
X132977295Y-109483520D01*
X133001000Y-109485855D01*
X133024705Y-109483520D01*
X133024707Y-109483520D01*
X133095606Y-109476537D01*
X133186577Y-109448942D01*
X133270415Y-109404129D01*
X133343901Y-109343821D01*
X133359017Y-109325402D01*
X133799776Y-108884644D01*
X133911767Y-108906920D01*
X134090233Y-108906920D01*
X134265271Y-108872103D01*
X134430152Y-108803807D01*
X134578541Y-108704656D01*
X134704736Y-108578461D01*
X134803887Y-108430072D01*
X134872183Y-108265191D01*
X134907000Y-108090153D01*
X134907000Y-107911687D01*
X135095000Y-107911687D01*
X135095000Y-108090153D01*
X135129817Y-108265191D01*
X135198113Y-108430072D01*
X135297264Y-108578461D01*
X135423459Y-108704656D01*
X135571848Y-108803807D01*
X135736729Y-108872103D01*
X135911767Y-108906920D01*
X136090233Y-108906920D01*
X136265271Y-108872103D01*
X136430152Y-108803807D01*
X136578541Y-108704656D01*
X136704736Y-108578461D01*
X136803887Y-108430072D01*
X136872183Y-108265191D01*
X136907000Y-108090153D01*
X136907000Y-107911687D01*
X137095000Y-107911687D01*
X137095000Y-108090153D01*
X137129817Y-108265191D01*
X137198113Y-108430072D01*
X137297264Y-108578461D01*
X137423459Y-108704656D01*
X137571848Y-108803807D01*
X137736729Y-108872103D01*
X137911767Y-108906920D01*
X138090233Y-108906920D01*
X138265271Y-108872103D01*
X138430152Y-108803807D01*
X138578541Y-108704656D01*
X138704736Y-108578461D01*
X138803887Y-108430072D01*
X138872183Y-108265191D01*
X138907000Y-108090153D01*
X138907000Y-107911687D01*
X139095000Y-107911687D01*
X139095000Y-108090153D01*
X139129817Y-108265191D01*
X139198113Y-108430072D01*
X139297264Y-108578461D01*
X139423459Y-108704656D01*
X139571848Y-108803807D01*
X139736729Y-108872103D01*
X139911767Y-108906920D01*
X140090233Y-108906920D01*
X140265271Y-108872103D01*
X140430152Y-108803807D01*
X140578541Y-108704656D01*
X140704736Y-108578461D01*
X140803887Y-108430072D01*
X140872183Y-108265191D01*
X140907000Y-108090153D01*
X140907000Y-107911687D01*
X141095000Y-107911687D01*
X141095000Y-108090153D01*
X141129817Y-108265191D01*
X141198113Y-108430072D01*
X141297264Y-108578461D01*
X141423459Y-108704656D01*
X141571848Y-108803807D01*
X141736729Y-108872103D01*
X141911767Y-108906920D01*
X142090233Y-108906920D01*
X142265271Y-108872103D01*
X142430152Y-108803807D01*
X142578541Y-108704656D01*
X142704736Y-108578461D01*
X142803887Y-108430072D01*
X142872183Y-108265191D01*
X142907000Y-108090153D01*
X142907000Y-107911687D01*
X142872183Y-107736649D01*
X142803887Y-107571768D01*
X142704736Y-107423379D01*
X142578541Y-107297184D01*
X142430152Y-107198033D01*
X142265271Y-107129737D01*
X142090233Y-107094920D01*
X141911767Y-107094920D01*
X141736729Y-107129737D01*
X141571848Y-107198033D01*
X141423459Y-107297184D01*
X141297264Y-107423379D01*
X141198113Y-107571768D01*
X141129817Y-107736649D01*
X141095000Y-107911687D01*
X140907000Y-107911687D01*
X140872183Y-107736649D01*
X140803887Y-107571768D01*
X140704736Y-107423379D01*
X140578541Y-107297184D01*
X140430152Y-107198033D01*
X140265271Y-107129737D01*
X140090233Y-107094920D01*
X139911767Y-107094920D01*
X139736729Y-107129737D01*
X139571848Y-107198033D01*
X139423459Y-107297184D01*
X139297264Y-107423379D01*
X139198113Y-107571768D01*
X139129817Y-107736649D01*
X139095000Y-107911687D01*
X138907000Y-107911687D01*
X138872183Y-107736649D01*
X138803887Y-107571768D01*
X138704736Y-107423379D01*
X138578541Y-107297184D01*
X138430152Y-107198033D01*
X138265271Y-107129737D01*
X138090233Y-107094920D01*
X137911767Y-107094920D01*
X137736729Y-107129737D01*
X137571848Y-107198033D01*
X137423459Y-107297184D01*
X137297264Y-107423379D01*
X137198113Y-107571768D01*
X137129817Y-107736649D01*
X137095000Y-107911687D01*
X136907000Y-107911687D01*
X136872183Y-107736649D01*
X136803887Y-107571768D01*
X136704736Y-107423379D01*
X136578541Y-107297184D01*
X136430152Y-107198033D01*
X136265271Y-107129737D01*
X136090233Y-107094920D01*
X135911767Y-107094920D01*
X135736729Y-107129737D01*
X135571848Y-107198033D01*
X135423459Y-107297184D01*
X135297264Y-107423379D01*
X135198113Y-107571768D01*
X135129817Y-107736649D01*
X135095000Y-107911687D01*
X134907000Y-107911687D01*
X134872183Y-107736649D01*
X134803887Y-107571768D01*
X134704736Y-107423379D01*
X134578541Y-107297184D01*
X134430152Y-107198033D01*
X134265271Y-107129737D01*
X134090233Y-107094920D01*
X133911767Y-107094920D01*
X133736729Y-107129737D01*
X133571848Y-107198033D01*
X133423459Y-107297184D01*
X133297264Y-107423379D01*
X133198113Y-107571768D01*
X133129817Y-107736649D01*
X133095000Y-107911687D01*
X133095000Y-108090153D01*
X133117276Y-108202144D01*
X132801101Y-108518320D01*
X132744921Y-108518320D01*
X132803887Y-108430072D01*
X132872183Y-108265191D01*
X132907000Y-108090153D01*
X132907000Y-107911687D01*
X132872183Y-107736649D01*
X132803887Y-107571768D01*
X132704736Y-107423379D01*
X132578541Y-107297184D01*
X132430152Y-107198033D01*
X132265271Y-107129737D01*
X132090233Y-107094920D01*
X131911767Y-107094920D01*
X131736729Y-107129737D01*
X131571848Y-107198033D01*
X131423459Y-107297184D01*
X131297264Y-107423379D01*
X131198113Y-107571768D01*
X131129817Y-107736649D01*
X131095000Y-107911687D01*
X131095000Y-108090153D01*
X131129817Y-108265191D01*
X131198113Y-108430072D01*
X131257079Y-108518320D01*
X130744921Y-108518320D01*
X130803887Y-108430072D01*
X130872183Y-108265191D01*
X130907000Y-108090153D01*
X130907000Y-107911687D01*
X130872183Y-107736649D01*
X130803887Y-107571768D01*
X130704736Y-107423379D01*
X130578541Y-107297184D01*
X130430152Y-107198033D01*
X130265271Y-107129737D01*
X130090233Y-107094920D01*
X129911767Y-107094920D01*
X129736729Y-107129737D01*
X129571848Y-107198033D01*
X129423459Y-107297184D01*
X129297264Y-107423379D01*
X129198113Y-107571768D01*
X129129817Y-107736649D01*
X129095000Y-107911687D01*
X129095000Y-108090153D01*
X129129817Y-108265191D01*
X129198113Y-108430072D01*
X129257079Y-108518320D01*
X126700900Y-108518320D01*
X125983600Y-107801021D01*
X125983600Y-107328618D01*
X126012523Y-107423964D01*
X126066384Y-107524730D01*
X126138868Y-107613052D01*
X126227190Y-107685536D01*
X126327956Y-107739397D01*
X126437293Y-107772564D01*
X126551000Y-107783763D01*
X127451000Y-107783763D01*
X127564707Y-107772564D01*
X127674044Y-107739397D01*
X127774810Y-107685536D01*
X127863132Y-107613052D01*
X127935616Y-107524730D01*
X127989477Y-107423964D01*
X128022644Y-107314627D01*
X128033843Y-107200920D01*
X128033843Y-106800920D01*
X128022644Y-106687213D01*
X127989477Y-106577876D01*
X127935616Y-106477110D01*
X127863132Y-106388788D01*
X127851339Y-106379110D01*
X127875482Y-106376732D01*
X127995180Y-106340422D01*
X128105494Y-106281457D01*
X128202185Y-106202105D01*
X128222074Y-106177870D01*
X128927955Y-105471990D01*
X128952185Y-105452105D01*
X129031537Y-105355414D01*
X129090502Y-105245100D01*
X129126812Y-105125402D01*
X129136000Y-105032112D01*
X129136000Y-105032102D01*
X129139071Y-105000921D01*
X129136000Y-104969740D01*
X129136000Y-103432124D01*
X129302500Y-103432124D01*
X129302500Y-103569716D01*
X129329343Y-103704665D01*
X129381997Y-103831784D01*
X129458439Y-103946188D01*
X129555732Y-104043481D01*
X129670136Y-104119923D01*
X129797255Y-104172577D01*
X129932204Y-104199420D01*
X130069796Y-104199420D01*
X130204745Y-104172577D01*
X130331864Y-104119923D01*
X130446268Y-104043481D01*
X130543561Y-103946188D01*
X130620003Y-103831784D01*
X130672657Y-103704665D01*
X130699500Y-103569716D01*
X130699500Y-103432124D01*
X136302500Y-103432124D01*
X136302500Y-103569716D01*
X136329343Y-103704665D01*
X136381997Y-103831784D01*
X136458439Y-103946188D01*
X136555732Y-104043481D01*
X136670136Y-104119923D01*
X136797255Y-104172577D01*
X136932204Y-104199420D01*
X137069796Y-104199420D01*
X137204745Y-104172577D01*
X137331864Y-104119923D01*
X137446268Y-104043481D01*
X137543561Y-103946188D01*
X137620003Y-103831784D01*
X137672657Y-103704665D01*
X137699500Y-103569716D01*
X137699500Y-103432124D01*
X137672657Y-103297175D01*
X137620003Y-103170056D01*
X137543561Y-103055652D01*
X137446268Y-102958359D01*
X137331864Y-102881917D01*
X137204745Y-102829263D01*
X137069796Y-102802420D01*
X136932204Y-102802420D01*
X136797255Y-102829263D01*
X136670136Y-102881917D01*
X136555732Y-102958359D01*
X136458439Y-103055652D01*
X136381997Y-103170056D01*
X136329343Y-103297175D01*
X136302500Y-103432124D01*
X130699500Y-103432124D01*
X130672657Y-103297175D01*
X130620003Y-103170056D01*
X130543561Y-103055652D01*
X130446268Y-102958359D01*
X130331864Y-102881917D01*
X130204745Y-102829263D01*
X130069796Y-102802420D01*
X129932204Y-102802420D01*
X129797255Y-102829263D01*
X129670136Y-102881917D01*
X129555732Y-102958359D01*
X129458439Y-103055652D01*
X129381997Y-103170056D01*
X129329343Y-103297175D01*
X129302500Y-103432124D01*
X129136000Y-103432124D01*
X129136000Y-100682124D01*
X145302500Y-100682124D01*
X145302500Y-100819716D01*
X145329343Y-100954665D01*
X145381997Y-101081784D01*
X145458439Y-101196188D01*
X145555732Y-101293481D01*
X145670136Y-101369923D01*
X145797255Y-101422577D01*
X145932204Y-101449420D01*
X146069796Y-101449420D01*
X146204745Y-101422577D01*
X146331864Y-101369923D01*
X146446268Y-101293481D01*
X146543561Y-101196188D01*
X146620003Y-101081784D01*
X146672657Y-100954665D01*
X146699500Y-100819716D01*
X146699500Y-100682124D01*
X146672657Y-100547175D01*
X146620003Y-100420056D01*
X146543561Y-100305652D01*
X146446268Y-100208359D01*
X146331864Y-100131917D01*
X146204745Y-100079263D01*
X146069796Y-100052420D01*
X145932204Y-100052420D01*
X145797255Y-100079263D01*
X145670136Y-100131917D01*
X145555732Y-100208359D01*
X145458439Y-100305652D01*
X145381997Y-100420056D01*
X145329343Y-100547175D01*
X145302500Y-100682124D01*
X129136000Y-100682124D01*
X129136000Y-99532100D01*
X129139071Y-99500919D01*
X129136000Y-99469738D01*
X129136000Y-99469728D01*
X129126812Y-99376438D01*
X129090502Y-99256740D01*
X129031537Y-99146426D01*
X128952185Y-99049735D01*
X128927956Y-99029851D01*
X128222074Y-98323970D01*
X128202185Y-98299735D01*
X128105494Y-98220383D01*
X127995180Y-98161418D01*
X127875482Y-98125108D01*
X127782192Y-98115920D01*
X127782181Y-98115920D01*
X127751000Y-98112849D01*
X127734475Y-98114477D01*
X127805922Y-98055842D01*
X127865275Y-97983520D01*
X144977295Y-97983520D01*
X145001000Y-97985855D01*
X145024705Y-97983520D01*
X145024707Y-97983520D01*
X145095606Y-97976537D01*
X145186577Y-97948942D01*
X145270415Y-97904129D01*
X145343901Y-97843821D01*
X145359017Y-97825402D01*
X145484999Y-97699420D01*
X145569796Y-97699420D01*
X145704745Y-97672577D01*
X145831864Y-97619923D01*
X145946268Y-97543481D01*
X146043561Y-97446188D01*
X146120003Y-97331784D01*
X146172657Y-97204665D01*
X146199500Y-97069716D01*
X146199500Y-96932124D01*
X146172657Y-96797175D01*
X146120003Y-96670056D01*
X146043561Y-96555652D01*
X145946268Y-96458359D01*
X145831864Y-96381917D01*
X145704745Y-96329263D01*
X145569796Y-96302420D01*
X145432204Y-96302420D01*
X145297255Y-96329263D01*
X145170136Y-96381917D01*
X145055732Y-96458359D01*
X144958439Y-96555652D01*
X144881997Y-96670056D01*
X144829343Y-96797175D01*
X144802500Y-96932124D01*
X144802500Y-97016921D01*
X144801101Y-97018320D01*
X140080363Y-97018320D01*
X144913489Y-92185194D01*
X144998286Y-92185194D01*
X145133235Y-92158351D01*
X145260354Y-92105697D01*
X145374758Y-92029255D01*
X145472051Y-91931962D01*
X145548493Y-91817558D01*
X145601147Y-91690439D01*
X145626691Y-91562018D01*
X149518401Y-95453729D01*
X149518400Y-95727214D01*
X149516065Y-95750920D01*
X149518400Y-95774625D01*
X149518400Y-95774626D01*
X149525383Y-95845525D01*
X149552978Y-95936496D01*
X149597791Y-96020335D01*
X149658099Y-96093821D01*
X149676518Y-96108937D01*
X149985524Y-96417943D01*
X150025960Y-96551242D01*
X150098481Y-96686919D01*
X150196078Y-96805842D01*
X150281469Y-96875920D01*
X150196078Y-96945998D01*
X150098481Y-97064921D01*
X150025960Y-97200598D01*
X149985523Y-97333898D01*
X149320903Y-97998518D01*
X149302490Y-98013629D01*
X149287379Y-98032042D01*
X149287377Y-98032044D01*
X149242182Y-98087115D01*
X149197368Y-98170954D01*
X149169774Y-98261924D01*
X149160455Y-98356530D01*
X149162791Y-98380245D01*
X149162790Y-103153722D01*
X145676513Y-106640000D01*
X145658100Y-106655111D01*
X145642989Y-106673524D01*
X145642987Y-106673526D01*
X145597792Y-106728597D01*
X145552978Y-106812436D01*
X145525384Y-106903406D01*
X145516065Y-106998012D01*
X145518401Y-107021726D01*
X145518401Y-107233746D01*
X145423459Y-107297184D01*
X145297264Y-107423379D01*
X145198113Y-107571768D01*
X145129817Y-107736649D01*
X145095000Y-107911687D01*
X145095000Y-108090153D01*
X145129817Y-108265191D01*
X145198113Y-108430072D01*
X145257079Y-108518320D01*
X145200900Y-108518320D01*
X144884724Y-108202144D01*
X144907000Y-108090153D01*
X144907000Y-107911687D01*
X144872183Y-107736649D01*
X144803887Y-107571768D01*
X144704736Y-107423379D01*
X144578541Y-107297184D01*
X144430152Y-107198033D01*
X144265271Y-107129737D01*
X144090233Y-107094920D01*
X143911767Y-107094920D01*
X143736729Y-107129737D01*
X143571848Y-107198033D01*
X143423459Y-107297184D01*
X143297264Y-107423379D01*
X143198113Y-107571768D01*
X143129817Y-107736649D01*
X143095000Y-107911687D01*
X143095000Y-108090153D01*
X143129817Y-108265191D01*
X143198113Y-108430072D01*
X143297264Y-108578461D01*
X143423459Y-108704656D01*
X143571848Y-108803807D01*
X143736729Y-108872103D01*
X143911767Y-108906920D01*
X144090233Y-108906920D01*
X144202224Y-108884644D01*
X144642988Y-109325407D01*
X144658099Y-109343821D01*
X144731585Y-109404129D01*
X144815423Y-109448942D01*
X144906393Y-109476537D01*
X145001000Y-109485855D01*
X145024707Y-109483520D01*
X149477295Y-109483520D01*
X149501000Y-109485855D01*
X149524705Y-109483520D01*
X149524707Y-109483520D01*
X149595606Y-109476537D01*
X149686577Y-109448942D01*
X149770415Y-109404129D01*
X149843901Y-109343821D01*
X149859017Y-109325402D01*
X151325482Y-107858937D01*
X151343901Y-107843821D01*
X151404209Y-107770335D01*
X151449022Y-107686497D01*
X151476617Y-107595526D01*
X151483600Y-107524627D01*
X151483600Y-107524626D01*
X151485935Y-107500921D01*
X151483600Y-107477216D01*
X151483600Y-106746504D01*
X151551322Y-106725960D01*
X151686999Y-106653439D01*
X151805922Y-106555842D01*
X151903519Y-106436919D01*
X151976040Y-106301242D01*
X152020699Y-106154023D01*
X152035778Y-106000920D01*
X152020699Y-105847817D01*
X151976040Y-105700598D01*
X151903519Y-105564921D01*
X151805922Y-105445998D01*
X151720531Y-105375920D01*
X151805922Y-105305842D01*
X151903519Y-105186919D01*
X151976040Y-105051242D01*
X152020699Y-104904023D01*
X152035778Y-104750920D01*
X152020699Y-104597817D01*
X151976040Y-104450598D01*
X151903519Y-104314921D01*
X151805922Y-104195998D01*
X151783992Y-104178001D01*
X151863132Y-104113052D01*
X151935616Y-104024730D01*
X151989477Y-103923964D01*
X152022644Y-103814627D01*
X152033843Y-103700920D01*
X152033843Y-103300920D01*
X152022644Y-103187213D01*
X151989477Y-103077876D01*
X151935616Y-102977110D01*
X151863132Y-102888788D01*
X151774810Y-102816304D01*
X151674044Y-102762443D01*
X151564707Y-102729276D01*
X151451000Y-102718077D01*
X150551000Y-102718077D01*
X150483600Y-102724715D01*
X150483600Y-99485947D01*
X150597897Y-99520619D01*
X150712640Y-99531920D01*
X151289360Y-99531920D01*
X151404103Y-99520619D01*
X151551322Y-99475960D01*
X151686999Y-99403439D01*
X151805922Y-99305842D01*
X151903519Y-99186919D01*
X151976040Y-99051242D01*
X152020699Y-98904023D01*
X152035778Y-98750920D01*
X152020699Y-98597817D01*
X151976040Y-98450598D01*
X151903519Y-98314921D01*
X151805922Y-98195998D01*
X151720531Y-98125920D01*
X151805922Y-98055842D01*
X151903519Y-97936919D01*
X151976040Y-97801242D01*
X152020699Y-97654023D01*
X152035778Y-97500920D01*
X152020699Y-97347817D01*
X151976040Y-97200598D01*
X151903519Y-97064921D01*
X151805922Y-96945998D01*
X151720531Y-96875920D01*
X151805922Y-96805842D01*
X151903519Y-96686919D01*
X151976040Y-96551242D01*
X152020699Y-96404023D01*
X152035778Y-96250920D01*
X152020699Y-96097817D01*
X151976040Y-95950598D01*
X151903519Y-95814921D01*
X151805922Y-95695998D01*
X151783992Y-95678001D01*
X151863132Y-95613052D01*
X151935616Y-95524730D01*
X151989477Y-95423964D01*
X152022644Y-95314627D01*
X152033843Y-95200920D01*
X152033843Y-94800920D01*
X152022644Y-94687213D01*
X151989477Y-94577876D01*
X151935616Y-94477110D01*
X151863132Y-94388788D01*
X151774810Y-94316304D01*
X151674044Y-94262443D01*
X151564707Y-94229276D01*
X151451000Y-94218077D01*
X150551000Y-94218077D01*
X150437293Y-94229276D01*
X150327956Y-94262443D01*
X150241327Y-94308747D01*
X146483600Y-90551021D01*
X146483600Y-90250920D01*
X149966222Y-90250920D01*
X149981301Y-90404023D01*
X150025960Y-90551242D01*
X150098481Y-90686919D01*
X150196078Y-90805842D01*
X150315001Y-90903439D01*
X150450678Y-90975960D01*
X150597897Y-91020619D01*
X150712640Y-91031920D01*
X151289360Y-91031920D01*
X151404103Y-91020619D01*
X151551322Y-90975960D01*
X151686999Y-90903439D01*
X151805922Y-90805842D01*
X151903519Y-90686919D01*
X151976040Y-90551242D01*
X152020699Y-90404023D01*
X152035778Y-90250920D01*
X152020699Y-90097817D01*
X151976040Y-89950598D01*
X151903519Y-89814921D01*
X151805922Y-89695998D01*
X151783992Y-89678001D01*
X151863132Y-89613052D01*
X151935616Y-89524730D01*
X151989477Y-89423964D01*
X152022644Y-89314627D01*
X152033843Y-89200920D01*
X152033843Y-88800920D01*
X152022644Y-88687213D01*
X151989477Y-88577876D01*
X151935616Y-88477110D01*
X151863132Y-88388788D01*
X151774810Y-88316304D01*
X151674044Y-88262443D01*
X151564707Y-88229276D01*
X151451000Y-88218077D01*
X150551000Y-88218077D01*
X150437293Y-88229276D01*
X150327956Y-88262443D01*
X150227190Y-88316304D01*
X150138868Y-88388788D01*
X150066384Y-88477110D01*
X150012523Y-88577876D01*
X149979356Y-88687213D01*
X149968157Y-88800920D01*
X149968157Y-89200920D01*
X149979356Y-89314627D01*
X150012523Y-89423964D01*
X150066384Y-89524730D01*
X150138868Y-89613052D01*
X150218008Y-89678001D01*
X150196078Y-89695998D01*
X150098481Y-89814921D01*
X150025960Y-89950598D01*
X149981301Y-90097817D01*
X149966222Y-90250920D01*
X146483600Y-90250920D01*
X146483600Y-86768094D01*
X146578541Y-86704656D01*
X146704736Y-86578461D01*
X146803887Y-86430072D01*
X146872183Y-86265191D01*
X146907000Y-86090153D01*
X146907000Y-85911687D01*
X146872183Y-85736649D01*
X146803887Y-85571768D01*
X146739844Y-85475920D01*
X147093157Y-85475920D01*
X147093157Y-86525920D01*
X147100513Y-86600609D01*
X147122299Y-86672428D01*
X147157678Y-86738616D01*
X147205289Y-86796631D01*
X147263304Y-86844242D01*
X147329492Y-86879621D01*
X147401311Y-86901407D01*
X147476000Y-86908763D01*
X148526000Y-86908763D01*
X148600689Y-86901407D01*
X148672508Y-86879621D01*
X148738696Y-86844242D01*
X148796711Y-86796631D01*
X148844322Y-86738616D01*
X148879701Y-86672428D01*
X148901487Y-86600609D01*
X148908843Y-86525920D01*
X148908843Y-85475920D01*
X148901487Y-85401231D01*
X148879701Y-85329412D01*
X148844322Y-85263224D01*
X148796711Y-85205209D01*
X148738696Y-85157598D01*
X148672508Y-85122219D01*
X148600689Y-85100433D01*
X148526000Y-85093077D01*
X147476000Y-85093077D01*
X147401311Y-85100433D01*
X147329492Y-85122219D01*
X147263304Y-85157598D01*
X147205289Y-85205209D01*
X147157678Y-85263224D01*
X147122299Y-85329412D01*
X147100513Y-85401231D01*
X147093157Y-85475920D01*
X146739844Y-85475920D01*
X146704736Y-85423379D01*
X146578541Y-85297184D01*
X146430152Y-85198033D01*
X146265271Y-85129737D01*
X146090233Y-85094920D01*
X145911767Y-85094920D01*
X145736729Y-85129737D01*
X145571848Y-85198033D01*
X145423459Y-85297184D01*
X145297264Y-85423379D01*
X145198113Y-85571768D01*
X145129817Y-85736649D01*
X145095000Y-85911687D01*
X145095000Y-86090153D01*
X145129817Y-86265191D01*
X145198113Y-86430072D01*
X145297264Y-86578461D01*
X145423459Y-86704656D01*
X145518401Y-86768095D01*
X145518401Y-86835821D01*
X144884724Y-86202144D01*
X144907000Y-86090153D01*
X144907000Y-85911687D01*
X144872183Y-85736649D01*
X144803887Y-85571768D01*
X144704736Y-85423379D01*
X144578541Y-85297184D01*
X144430152Y-85198033D01*
X144265271Y-85129737D01*
X144090233Y-85094920D01*
X143911767Y-85094920D01*
X143736729Y-85129737D01*
X143571848Y-85198033D01*
X143423459Y-85297184D01*
X143297264Y-85423379D01*
X143198113Y-85571768D01*
X143129817Y-85736649D01*
X143095000Y-85911687D01*
X143095000Y-86090153D01*
X143129817Y-86265191D01*
X143198113Y-86430072D01*
X143297264Y-86578461D01*
X143423459Y-86704656D01*
X143571848Y-86803807D01*
X143736729Y-86872103D01*
X143911767Y-86906920D01*
X144090233Y-86906920D01*
X144202224Y-86884644D01*
X145162791Y-87845211D01*
X145162790Y-90827279D01*
X145133235Y-90815037D01*
X144998286Y-90788194D01*
X144860694Y-90788194D01*
X144725745Y-90815037D01*
X144598626Y-90867691D01*
X144484222Y-90944133D01*
X144386929Y-91041426D01*
X144310487Y-91155830D01*
X144257833Y-91282949D01*
X144230990Y-91417898D01*
X144230990Y-91502695D01*
X139215365Y-96518320D01*
X128450899Y-96518320D01*
X128016477Y-96083898D01*
X127976040Y-95950598D01*
X127903519Y-95814921D01*
X127805922Y-95695998D01*
X127686999Y-95598401D01*
X127551322Y-95525880D01*
X127404103Y-95481221D01*
X127289360Y-95469920D01*
X126712640Y-95469920D01*
X126597897Y-95481221D01*
X126450678Y-95525880D01*
X126315001Y-95598401D01*
X126196078Y-95695998D01*
X126098481Y-95814921D01*
X126025960Y-95950598D01*
X125983600Y-96090238D01*
X125983600Y-94932124D01*
X129302500Y-94932124D01*
X129302500Y-95069716D01*
X129329343Y-95204665D01*
X129381997Y-95331784D01*
X129458439Y-95446188D01*
X129555732Y-95543481D01*
X129670136Y-95619923D01*
X129797255Y-95672577D01*
X129932204Y-95699420D01*
X130069796Y-95699420D01*
X130204745Y-95672577D01*
X130331864Y-95619923D01*
X130446268Y-95543481D01*
X130543561Y-95446188D01*
X130620003Y-95331784D01*
X130672657Y-95204665D01*
X130699500Y-95069716D01*
X130699500Y-94932124D01*
X138802500Y-94932124D01*
X138802500Y-95069716D01*
X138829343Y-95204665D01*
X138881997Y-95331784D01*
X138958439Y-95446188D01*
X139055732Y-95543481D01*
X139170136Y-95619923D01*
X139297255Y-95672577D01*
X139432204Y-95699420D01*
X139569796Y-95699420D01*
X139704745Y-95672577D01*
X139831864Y-95619923D01*
X139946268Y-95543481D01*
X140043561Y-95446188D01*
X140120003Y-95331784D01*
X140172657Y-95204665D01*
X140199500Y-95069716D01*
X140199500Y-94932124D01*
X140172657Y-94797175D01*
X140120003Y-94670056D01*
X140043561Y-94555652D01*
X139946268Y-94458359D01*
X139831864Y-94381917D01*
X139704745Y-94329263D01*
X139569796Y-94302420D01*
X139432204Y-94302420D01*
X139297255Y-94329263D01*
X139170136Y-94381917D01*
X139055732Y-94458359D01*
X138958439Y-94555652D01*
X138881997Y-94670056D01*
X138829343Y-94797175D01*
X138802500Y-94932124D01*
X130699500Y-94932124D01*
X130672657Y-94797175D01*
X130620003Y-94670056D01*
X130543561Y-94555652D01*
X130446268Y-94458359D01*
X130331864Y-94381917D01*
X130204745Y-94329263D01*
X130069796Y-94302420D01*
X129932204Y-94302420D01*
X129797255Y-94329263D01*
X129670136Y-94381917D01*
X129555732Y-94458359D01*
X129458439Y-94555652D01*
X129381997Y-94670056D01*
X129329343Y-94797175D01*
X129302500Y-94932124D01*
X125983600Y-94932124D01*
X125983600Y-93932124D01*
X132802500Y-93932124D01*
X132802500Y-94069716D01*
X132829343Y-94204665D01*
X132881997Y-94331784D01*
X132958439Y-94446188D01*
X133055732Y-94543481D01*
X133170136Y-94619923D01*
X133297255Y-94672577D01*
X133432204Y-94699420D01*
X133569796Y-94699420D01*
X133704745Y-94672577D01*
X133831864Y-94619923D01*
X133946268Y-94543481D01*
X134043561Y-94446188D01*
X134120003Y-94331784D01*
X134172657Y-94204665D01*
X134199500Y-94069716D01*
X134199500Y-93984919D01*
X137197361Y-90987059D01*
X139995771Y-90987059D01*
X140055732Y-91047020D01*
X140170136Y-91123462D01*
X140297255Y-91176116D01*
X140432204Y-91202959D01*
X140569796Y-91202959D01*
X140704745Y-91176116D01*
X140831864Y-91123462D01*
X140946268Y-91047020D01*
X141043561Y-90949727D01*
X141120003Y-90835323D01*
X141172657Y-90708204D01*
X141199500Y-90573255D01*
X141199500Y-90435663D01*
X141172657Y-90300714D01*
X141120003Y-90173595D01*
X141043561Y-90059191D01*
X140946268Y-89961898D01*
X140831864Y-89885456D01*
X140704745Y-89832802D01*
X140569796Y-89805959D01*
X140432204Y-89805959D01*
X140297255Y-89832802D01*
X140170136Y-89885456D01*
X140055732Y-89961898D01*
X139995771Y-90021859D01*
X137021168Y-90021859D01*
X136997461Y-90019524D01*
X136902854Y-90028842D01*
X136811884Y-90056437D01*
X136728046Y-90101250D01*
X136654560Y-90161558D01*
X136639449Y-90179971D01*
X133517001Y-93302420D01*
X133432204Y-93302420D01*
X133297255Y-93329263D01*
X133170136Y-93381917D01*
X133055732Y-93458359D01*
X132958439Y-93555652D01*
X132881997Y-93670056D01*
X132829343Y-93797175D01*
X132802500Y-93932124D01*
X125983600Y-93932124D01*
X125983600Y-93700819D01*
X126900656Y-92783763D01*
X127451000Y-92783763D01*
X127564707Y-92772564D01*
X127674044Y-92739397D01*
X127774810Y-92685536D01*
X127863132Y-92613052D01*
X127935616Y-92524730D01*
X127989477Y-92423964D01*
X128022644Y-92314627D01*
X128033843Y-92200920D01*
X128033843Y-91800920D01*
X128022644Y-91687213D01*
X127989477Y-91577876D01*
X127935616Y-91477110D01*
X127863132Y-91388788D01*
X127783992Y-91323839D01*
X127805922Y-91305842D01*
X127865275Y-91233520D01*
X133227295Y-91233520D01*
X133251000Y-91235855D01*
X133274705Y-91233520D01*
X133274707Y-91233520D01*
X133345606Y-91226537D01*
X133436577Y-91198942D01*
X133520415Y-91154129D01*
X133593901Y-91093821D01*
X133609017Y-91075402D01*
X137799776Y-86884644D01*
X137911767Y-86906920D01*
X138090233Y-86906920D01*
X138265271Y-86872103D01*
X138430152Y-86803807D01*
X138578541Y-86704656D01*
X138704736Y-86578461D01*
X138803887Y-86430072D01*
X138872183Y-86265191D01*
X138907000Y-86090153D01*
X138907000Y-85911687D01*
X139095000Y-85911687D01*
X139095000Y-86090153D01*
X139129817Y-86265191D01*
X139198113Y-86430072D01*
X139297264Y-86578461D01*
X139423459Y-86704656D01*
X139571848Y-86803807D01*
X139736729Y-86872103D01*
X139911767Y-86906920D01*
X140090233Y-86906920D01*
X140265271Y-86872103D01*
X140430152Y-86803807D01*
X140578541Y-86704656D01*
X140704736Y-86578461D01*
X140803887Y-86430072D01*
X140872183Y-86265191D01*
X140907000Y-86090153D01*
X140907000Y-85911687D01*
X141095000Y-85911687D01*
X141095000Y-86090153D01*
X141129817Y-86265191D01*
X141198113Y-86430072D01*
X141297264Y-86578461D01*
X141423459Y-86704656D01*
X141571848Y-86803807D01*
X141736729Y-86872103D01*
X141911767Y-86906920D01*
X142090233Y-86906920D01*
X142265271Y-86872103D01*
X142430152Y-86803807D01*
X142578541Y-86704656D01*
X142704736Y-86578461D01*
X142803887Y-86430072D01*
X142872183Y-86265191D01*
X142907000Y-86090153D01*
X142907000Y-85911687D01*
X142872183Y-85736649D01*
X142803887Y-85571768D01*
X142704736Y-85423379D01*
X142578541Y-85297184D01*
X142430152Y-85198033D01*
X142265271Y-85129737D01*
X142090233Y-85094920D01*
X141911767Y-85094920D01*
X141736729Y-85129737D01*
X141571848Y-85198033D01*
X141423459Y-85297184D01*
X141297264Y-85423379D01*
X141198113Y-85571768D01*
X141129817Y-85736649D01*
X141095000Y-85911687D01*
X140907000Y-85911687D01*
X140872183Y-85736649D01*
X140803887Y-85571768D01*
X140704736Y-85423379D01*
X140578541Y-85297184D01*
X140430152Y-85198033D01*
X140265271Y-85129737D01*
X140090233Y-85094920D01*
X139911767Y-85094920D01*
X139736729Y-85129737D01*
X139571848Y-85198033D01*
X139423459Y-85297184D01*
X139297264Y-85423379D01*
X139198113Y-85571768D01*
X139129817Y-85736649D01*
X139095000Y-85911687D01*
X138907000Y-85911687D01*
X138872183Y-85736649D01*
X138803887Y-85571768D01*
X138704736Y-85423379D01*
X138578541Y-85297184D01*
X138430152Y-85198033D01*
X138265271Y-85129737D01*
X138090233Y-85094920D01*
X137911767Y-85094920D01*
X137736729Y-85129737D01*
X137571848Y-85198033D01*
X137423459Y-85297184D01*
X137297264Y-85423379D01*
X137198113Y-85571768D01*
X137129817Y-85736649D01*
X137095000Y-85911687D01*
X137095000Y-86090153D01*
X137117276Y-86202144D01*
X133051101Y-90268320D01*
X127865275Y-90268320D01*
X127805922Y-90195998D01*
X127720531Y-90125920D01*
X127805922Y-90055842D01*
X127865275Y-89983520D01*
X132477295Y-89983520D01*
X132501000Y-89985855D01*
X132524705Y-89983520D01*
X132524707Y-89983520D01*
X132595606Y-89976537D01*
X132686577Y-89948942D01*
X132770415Y-89904129D01*
X132843901Y-89843821D01*
X132859017Y-89825402D01*
X135799775Y-86884644D01*
X135911767Y-86906920D01*
X136090233Y-86906920D01*
X136265271Y-86872103D01*
X136430152Y-86803807D01*
X136578541Y-86704656D01*
X136704736Y-86578461D01*
X136803887Y-86430072D01*
X136872183Y-86265191D01*
X136907000Y-86090153D01*
X136907000Y-85911687D01*
X136872183Y-85736649D01*
X136803887Y-85571768D01*
X136704736Y-85423379D01*
X136578541Y-85297184D01*
X136430152Y-85198033D01*
X136265271Y-85129737D01*
X136090233Y-85094920D01*
X135911767Y-85094920D01*
X135736729Y-85129737D01*
X135571848Y-85198033D01*
X135423459Y-85297184D01*
X135297264Y-85423379D01*
X135198113Y-85571768D01*
X135129817Y-85736649D01*
X135095000Y-85911687D01*
X135095000Y-86090153D01*
X135117276Y-86202145D01*
X132301101Y-89018320D01*
X127865275Y-89018320D01*
X127805922Y-88945998D01*
X127720531Y-88875920D01*
X127805922Y-88805842D01*
X127865275Y-88733520D01*
X131727295Y-88733520D01*
X131751000Y-88735855D01*
X131774705Y-88733520D01*
X131774707Y-88733520D01*
X131845606Y-88726537D01*
X131936577Y-88698942D01*
X132020415Y-88654129D01*
X132093901Y-88593821D01*
X132109017Y-88575402D01*
X133799776Y-86884644D01*
X133911767Y-86906920D01*
X134090233Y-86906920D01*
X134265271Y-86872103D01*
X134430152Y-86803807D01*
X134578541Y-86704656D01*
X134704736Y-86578461D01*
X134803887Y-86430072D01*
X134872183Y-86265191D01*
X134907000Y-86090153D01*
X134907000Y-85911687D01*
X134872183Y-85736649D01*
X134803887Y-85571768D01*
X134704736Y-85423379D01*
X134578541Y-85297184D01*
X134430152Y-85198033D01*
X134265271Y-85129737D01*
X134090233Y-85094920D01*
X133911767Y-85094920D01*
X133736729Y-85129737D01*
X133571848Y-85198033D01*
X133423459Y-85297184D01*
X133297264Y-85423379D01*
X133198113Y-85571768D01*
X133129817Y-85736649D01*
X133095000Y-85911687D01*
X133095000Y-86090153D01*
X133117276Y-86202144D01*
X131551101Y-87768320D01*
X127865275Y-87768320D01*
X127805922Y-87695998D01*
X127720531Y-87625920D01*
X127805922Y-87555842D01*
X127865275Y-87483520D01*
X130977295Y-87483520D01*
X131001000Y-87485855D01*
X131024705Y-87483520D01*
X131024707Y-87483520D01*
X131095606Y-87476537D01*
X131186577Y-87448942D01*
X131270415Y-87404129D01*
X131343901Y-87343821D01*
X131359017Y-87325402D01*
X131799776Y-86884644D01*
X131911767Y-86906920D01*
X132090233Y-86906920D01*
X132265271Y-86872103D01*
X132430152Y-86803807D01*
X132578541Y-86704656D01*
X132704736Y-86578461D01*
X132803887Y-86430072D01*
X132872183Y-86265191D01*
X132907000Y-86090153D01*
X132907000Y-85911687D01*
X132872183Y-85736649D01*
X132803887Y-85571768D01*
X132704736Y-85423379D01*
X132578541Y-85297184D01*
X132430152Y-85198033D01*
X132265271Y-85129737D01*
X132090233Y-85094920D01*
X131911767Y-85094920D01*
X131736729Y-85129737D01*
X131571848Y-85198033D01*
X131423459Y-85297184D01*
X131297264Y-85423379D01*
X131198113Y-85571768D01*
X131130724Y-85734460D01*
X131116422Y-85662560D01*
X131028979Y-85451454D01*
X130902031Y-85261463D01*
X130740457Y-85099889D01*
X130550466Y-84972941D01*
X130339360Y-84885498D01*
X130115250Y-84840920D01*
X129886750Y-84840920D01*
X129662640Y-84885498D01*
X129451534Y-84972941D01*
X129261543Y-85099889D01*
X129099969Y-85261463D01*
X128973021Y-85451454D01*
X128885578Y-85662560D01*
X128841000Y-85886670D01*
X128841000Y-86115170D01*
X128885578Y-86339280D01*
X128959739Y-86518320D01*
X127865275Y-86518320D01*
X127805922Y-86445998D01*
X127686999Y-86348401D01*
X127551322Y-86275880D01*
X127404103Y-86231221D01*
X127289360Y-86219920D01*
X126712640Y-86219920D01*
X126597897Y-86231221D01*
X126450678Y-86275880D01*
X126315001Y-86348401D01*
X126196078Y-86445998D01*
X126098481Y-86564921D01*
X126025960Y-86700598D01*
X125981301Y-86847817D01*
X125966222Y-87000920D01*
X125981301Y-87154023D01*
X126025960Y-87301242D01*
X126098481Y-87436919D01*
X126196078Y-87555842D01*
X126281469Y-87625920D01*
X126196078Y-87695998D01*
X126098481Y-87814921D01*
X126025960Y-87950598D01*
X125981301Y-88097817D01*
X125966222Y-88250920D01*
X125981301Y-88404023D01*
X126025960Y-88551242D01*
X126098481Y-88686919D01*
X126196078Y-88805842D01*
X126281469Y-88875920D01*
X126196078Y-88945998D01*
X126098481Y-89064921D01*
X126025960Y-89200598D01*
X125981301Y-89347817D01*
X125966222Y-89500920D01*
X125981301Y-89654023D01*
X126025960Y-89801242D01*
X126098481Y-89936919D01*
X126196078Y-90055842D01*
X126281469Y-90125920D01*
X126196078Y-90195998D01*
X126098481Y-90314921D01*
X126025960Y-90450598D01*
X125981301Y-90597817D01*
X125966222Y-90750920D01*
X125981301Y-90904023D01*
X126025960Y-91051242D01*
X126098481Y-91186919D01*
X126196078Y-91305842D01*
X126218008Y-91323839D01*
X126138868Y-91388788D01*
X126066384Y-91477110D01*
X126012523Y-91577876D01*
X125979356Y-91687213D01*
X125968157Y-91800920D01*
X125968157Y-92200920D01*
X125979356Y-92314627D01*
X125985277Y-92334144D01*
X125176518Y-93142903D01*
X125158099Y-93158019D01*
X125097791Y-93231505D01*
X125052978Y-93315344D01*
X125025383Y-93406315D01*
X125020257Y-93458359D01*
X125016065Y-93500920D01*
X122957000Y-93500920D01*
X122957000Y-86189801D01*
X125689881Y-83456920D01*
X152312119Y-83456920D01*
X155045000Y-86189801D01*
G36*
X150138868Y-104113052D02*
G01*
X150218008Y-104178001D01*
X150196078Y-104195998D01*
X150098481Y-104314921D01*
X150025960Y-104450598D01*
X149981301Y-104597817D01*
X149966222Y-104750920D01*
X149981301Y-104904023D01*
X150025960Y-105051242D01*
X150098481Y-105186919D01*
X150196078Y-105305842D01*
X150281469Y-105375920D01*
X150196078Y-105445998D01*
X150098481Y-105564921D01*
X150025960Y-105700598D01*
X149981301Y-105847817D01*
X149966222Y-106000920D01*
X149981301Y-106154023D01*
X150025960Y-106301242D01*
X150098481Y-106436919D01*
X150196078Y-106555842D01*
X150315001Y-106653439D01*
X150450678Y-106725960D01*
X150518400Y-106746504D01*
X150518401Y-107301020D01*
X149301101Y-108518320D01*
X148908843Y-108518320D01*
X148908843Y-107475920D01*
X148901487Y-107401231D01*
X148879701Y-107329412D01*
X148844322Y-107263224D01*
X148796711Y-107205209D01*
X148738696Y-107157598D01*
X148672508Y-107122219D01*
X148600689Y-107100433D01*
X148526000Y-107093077D01*
X148483600Y-107093077D01*
X148483600Y-105700819D01*
X150108442Y-104075978D01*
X150138868Y-104113052D01*
G37*
X150138868Y-104113052D02*
X150218008Y-104178001D01*
X150196078Y-104195998D01*
X150098481Y-104314921D01*
X150025960Y-104450598D01*
X149981301Y-104597817D01*
X149966222Y-104750920D01*
X149981301Y-104904023D01*
X150025960Y-105051242D01*
X150098481Y-105186919D01*
X150196078Y-105305842D01*
X150281469Y-105375920D01*
X150196078Y-105445998D01*
X150098481Y-105564921D01*
X150025960Y-105700598D01*
X149981301Y-105847817D01*
X149966222Y-106000920D01*
X149981301Y-106154023D01*
X150025960Y-106301242D01*
X150098481Y-106436919D01*
X150196078Y-106555842D01*
X150315001Y-106653439D01*
X150450678Y-106725960D01*
X150518400Y-106746504D01*
X150518401Y-107301020D01*
X149301101Y-108518320D01*
X148908843Y-108518320D01*
X148908843Y-107475920D01*
X148901487Y-107401231D01*
X148879701Y-107329412D01*
X148844322Y-107263224D01*
X148796711Y-107205209D01*
X148738696Y-107157598D01*
X148672508Y-107122219D01*
X148600689Y-107100433D01*
X148526000Y-107093077D01*
X148483600Y-107093077D01*
X148483600Y-105700819D01*
X150108442Y-104075978D01*
X150138868Y-104113052D01*
G36*
X126085392Y-100897751D02*
G01*
X126230284Y-100975198D01*
X126387500Y-101022889D01*
X126551000Y-101038992D01*
X127451000Y-101038992D01*
X127614500Y-101022889D01*
X127771716Y-100975198D01*
X127866000Y-100924802D01*
X127866001Y-103666718D01*
X127828797Y-103636186D01*
X127648993Y-103540079D01*
X127453895Y-103480896D01*
X127301838Y-103465920D01*
X126700162Y-103465920D01*
X126548105Y-103480896D01*
X126353007Y-103540079D01*
X126173203Y-103636186D01*
X126015604Y-103765524D01*
X125983600Y-103804521D01*
X125983600Y-100814212D01*
X126085392Y-100897751D01*
G37*
X126085392Y-100897751D02*
X126230284Y-100975198D01*
X126387500Y-101022889D01*
X126551000Y-101038992D01*
X127451000Y-101038992D01*
X127614500Y-101022889D01*
X127771716Y-100975198D01*
X127866000Y-100924802D01*
X127866001Y-103666718D01*
X127828797Y-103636186D01*
X127648993Y-103540079D01*
X127453895Y-103480896D01*
X127301838Y-103465920D01*
X126700162Y-103465920D01*
X126548105Y-103480896D01*
X126353007Y-103540079D01*
X126173203Y-103636186D01*
X126015604Y-103765524D01*
X125983600Y-103804521D01*
X125983600Y-100814212D01*
X126085392Y-100897751D01*
%TD*%
M02*
