%TF.GenerationSoftware,KiCad,Pcbnew,5.1.6-c6e7f7d~86~ubuntu18.04.1*%
%TF.CreationDate,2020-05-27T14:43:56+02:00*%
%TF.ProjectId,cf-deck-carrier,63662d64-6563-46b2-9d63-617272696572,0.1A*%
%TF.SameCoordinates,Original*%
%TF.FileFunction,Soldermask,Top*%
%TF.FilePolarity,Negative*%
%FSLAX46Y46*%
G04 Gerber Fmt 4.6, Leading zero omitted, Abs format (unit mm)*
G04 Created by KiCad (PCBNEW 5.1.6-c6e7f7d~86~ubuntu18.04.1) date 2020-05-27 14:43:56*
%MOMM*%
%LPD*%
G01*
G04 APERTURE LIST*
%ADD10C,0.150000*%
%ADD11O,1.400000X0.900000*%
%ADD12C,1.150000*%
%ADD13R,1.150000X1.150000*%
G04 APERTURE END LIST*
D10*
%TO.C,G\u002A\u002A\u002A*%
G36*
X134616680Y-106061660D02*
G01*
X134616676Y-106061679D01*
X134616391Y-106062617D01*
X134616383Y-106062635D01*
X134615921Y-106063500D01*
X134615910Y-106063516D01*
X134615289Y-106064273D01*
X134615275Y-106064287D01*
X134614517Y-106064909D01*
X134614501Y-106064920D01*
X134613637Y-106065382D01*
X134613619Y-106065390D01*
X134612681Y-106065675D01*
X134612661Y-106065679D01*
X134611613Y-106065774D01*
X134611603Y-106065774D01*
X134564843Y-106065102D01*
X134535121Y-106064676D01*
X134614534Y-106118527D01*
X134614542Y-106118533D01*
X134615296Y-106119160D01*
X134615310Y-106119174D01*
X134615926Y-106119936D01*
X134615937Y-106119952D01*
X134616393Y-106120819D01*
X134616400Y-106120838D01*
X134616678Y-106121778D01*
X134616682Y-106121796D01*
X134616772Y-106122738D01*
X134616772Y-106211517D01*
X134616676Y-106212492D01*
X134616672Y-106212511D01*
X134616387Y-106213449D01*
X134616379Y-106213467D01*
X134615917Y-106214332D01*
X134615906Y-106214348D01*
X134615285Y-106215106D01*
X134615271Y-106215120D01*
X134614513Y-106215741D01*
X134614497Y-106215752D01*
X134613632Y-106216214D01*
X134613614Y-106216222D01*
X134612676Y-106216507D01*
X134612657Y-106216511D01*
X134611682Y-106216607D01*
X134611662Y-106216607D01*
X134610687Y-106216511D01*
X134610672Y-106216508D01*
X134610089Y-106216355D01*
X134610083Y-106216353D01*
X134591611Y-106210297D01*
X134573138Y-106204241D01*
X134573129Y-106204238D01*
X134572232Y-106203843D01*
X134572215Y-106203833D01*
X134571413Y-106203270D01*
X134571398Y-106203257D01*
X134570720Y-106202549D01*
X134570708Y-106202534D01*
X134570182Y-106201707D01*
X134570173Y-106201689D01*
X134569818Y-106200775D01*
X134569812Y-106200753D01*
X134569628Y-106199409D01*
X134569627Y-106199395D01*
X134569627Y-106183850D01*
X134517082Y-106165876D01*
X134501764Y-106160635D01*
X134501762Y-106160634D01*
X134487816Y-106155859D01*
X134475872Y-106151767D01*
X134475860Y-106151764D01*
X134466514Y-106148559D01*
X134466510Y-106148557D01*
X134462156Y-106147060D01*
X134462114Y-106147304D01*
X134462062Y-106149685D01*
X134462062Y-106149688D01*
X134462049Y-106149956D01*
X134462049Y-106149959D01*
X134461563Y-106156408D01*
X134461562Y-106156417D01*
X134461393Y-106157382D01*
X134461387Y-106157401D01*
X134461033Y-106158315D01*
X134461026Y-106158329D01*
X134460723Y-106158848D01*
X134460720Y-106158853D01*
X134459172Y-106161174D01*
X134459166Y-106161182D01*
X134458545Y-106161941D01*
X134458531Y-106161955D01*
X134457773Y-106162577D01*
X134457757Y-106162588D01*
X134456893Y-106163051D01*
X134456875Y-106163059D01*
X134455938Y-106163344D01*
X134455919Y-106163348D01*
X134454943Y-106163445D01*
X134454927Y-106163445D01*
X134454323Y-106163409D01*
X134454317Y-106163408D01*
X134453465Y-106163305D01*
X134453455Y-106163303D01*
X134452420Y-106163064D01*
X134452409Y-106163062D01*
X134448920Y-106161855D01*
X134442390Y-106159661D01*
X134434273Y-106156965D01*
X134434011Y-106156879D01*
X134434005Y-106156877D01*
X134418419Y-106151732D01*
X134418411Y-106151728D01*
X134417514Y-106151331D01*
X134417496Y-106151322D01*
X134416695Y-106150758D01*
X134416681Y-106150745D01*
X134416005Y-106150035D01*
X134415993Y-106150020D01*
X134415468Y-106149192D01*
X134415459Y-106149174D01*
X134415106Y-106148260D01*
X134415100Y-106148237D01*
X134414919Y-106146902D01*
X134414918Y-106146889D01*
X134414918Y-106105244D01*
X134414988Y-106089837D01*
X134414988Y-106089836D01*
X134414989Y-106089756D01*
X134415221Y-106078482D01*
X134415221Y-106078479D01*
X134415228Y-106078302D01*
X134415228Y-106078300D01*
X134415656Y-106070677D01*
X134415657Y-106070673D01*
X134415703Y-106070220D01*
X134415703Y-106070215D01*
X134416363Y-106065760D01*
X134416365Y-106065751D01*
X134416603Y-106064800D01*
X134416608Y-106064784D01*
X134416885Y-106064152D01*
X134416888Y-106064146D01*
X134417813Y-106062376D01*
X134417818Y-106062367D01*
X134418355Y-106061547D01*
X134418368Y-106061532D01*
X134419054Y-106060833D01*
X134419069Y-106060820D01*
X134419879Y-106060268D01*
X134419896Y-106060259D01*
X134420798Y-106059875D01*
X134420819Y-106059869D01*
X134422053Y-106059647D01*
X134422066Y-106059645D01*
X134422637Y-106059615D01*
X134422647Y-106059615D01*
X134423626Y-106059660D01*
X134423645Y-106059663D01*
X134424562Y-106059886D01*
X134424571Y-106059888D01*
X134428055Y-106061093D01*
X134428062Y-106061095D01*
X134434591Y-106063289D01*
X134434600Y-106063293D01*
X134442687Y-106065978D01*
X134442698Y-106065981D01*
X134442974Y-106066072D01*
X134442975Y-106066072D01*
X134443054Y-106066099D01*
X134451208Y-106068939D01*
X134451214Y-106068942D01*
X134451746Y-106069163D01*
X134451752Y-106069165D01*
X134456428Y-106071427D01*
X134456436Y-106071432D01*
X134457273Y-106071943D01*
X134457289Y-106071954D01*
X134458000Y-106072609D01*
X134458007Y-106072616D01*
X134460162Y-106075023D01*
X134460168Y-106075031D01*
X134460747Y-106075822D01*
X134460757Y-106075839D01*
X134461171Y-106076727D01*
X134461177Y-106076744D01*
X134461380Y-106077516D01*
X134461381Y-106077523D01*
X134461969Y-106080797D01*
X134461971Y-106080805D01*
X134462050Y-106081625D01*
X134462050Y-106081634D01*
X134462056Y-106082090D01*
X134463055Y-106086273D01*
X134464031Y-106087295D01*
X134466371Y-106088304D01*
X134473208Y-106091007D01*
X134483051Y-106094787D01*
X134495016Y-106099304D01*
X134508410Y-106104291D01*
X134508418Y-106104295D01*
X134510744Y-106105155D01*
X134524548Y-106110256D01*
X134524551Y-106110257D01*
X134532606Y-106113238D01*
X134525945Y-106108680D01*
X134509648Y-106097578D01*
X134508791Y-106096995D01*
X134457558Y-106062135D01*
X134457550Y-106062129D01*
X134456798Y-106061501D01*
X134456784Y-106061487D01*
X134456168Y-106060724D01*
X134456157Y-106060707D01*
X134455703Y-106059838D01*
X134455696Y-106059820D01*
X134455419Y-106058880D01*
X134455416Y-106058864D01*
X134455333Y-106058150D01*
X134455332Y-106058142D01*
X134454644Y-106042534D01*
X134453955Y-106026926D01*
X134453955Y-106026917D01*
X134454008Y-106025938D01*
X134454011Y-106025918D01*
X134454254Y-106024969D01*
X134454261Y-106024951D01*
X134454684Y-106024067D01*
X134454694Y-106024050D01*
X134455282Y-106023266D01*
X134455295Y-106023252D01*
X134456025Y-106022597D01*
X134456041Y-106022585D01*
X134456884Y-106022085D01*
X134456902Y-106022077D01*
X134457827Y-106021752D01*
X134457849Y-106021747D01*
X134459181Y-106021605D01*
X134459195Y-106021604D01*
X134510684Y-106023071D01*
X134527834Y-106023560D01*
X134518843Y-106020548D01*
X134504948Y-106015911D01*
X134504936Y-106015906D01*
X134491796Y-106011553D01*
X134480311Y-106007781D01*
X134471428Y-106004901D01*
X134466448Y-106003330D01*
X134466448Y-106003331D01*
X134462063Y-106001997D01*
X134462063Y-106002173D01*
X134462006Y-106002923D01*
X134462005Y-106002930D01*
X134461230Y-106008035D01*
X134461228Y-106008045D01*
X134460987Y-106008995D01*
X134460980Y-106009013D01*
X134460558Y-106009898D01*
X134460548Y-106009915D01*
X134459961Y-106010700D01*
X134459948Y-106010714D01*
X134459220Y-106011370D01*
X134459202Y-106011383D01*
X134458163Y-106011971D01*
X134458153Y-106011976D01*
X134456042Y-106012857D01*
X134456032Y-106012861D01*
X134455095Y-106013148D01*
X134455076Y-106013151D01*
X134454100Y-106013250D01*
X134454081Y-106013251D01*
X134453106Y-106013158D01*
X134453089Y-106013155D01*
X134452416Y-106012973D01*
X134452409Y-106012971D01*
X134448920Y-106011764D01*
X134442390Y-106009570D01*
X134434273Y-106006874D01*
X134434011Y-106006788D01*
X134434005Y-106006786D01*
X134418419Y-106001641D01*
X134418411Y-106001637D01*
X134417514Y-106001240D01*
X134417496Y-106001231D01*
X134416695Y-106000667D01*
X134416681Y-106000654D01*
X134416005Y-105999944D01*
X134415993Y-105999929D01*
X134415468Y-105999101D01*
X134415459Y-105999083D01*
X134415106Y-105998169D01*
X134415100Y-105998146D01*
X134414919Y-105996811D01*
X134414918Y-105996798D01*
X134414918Y-105955386D01*
X134415016Y-105942141D01*
X134415016Y-105942140D01*
X134415017Y-105942058D01*
X134415017Y-105942057D01*
X134415290Y-105930568D01*
X134415290Y-105930566D01*
X134415294Y-105930455D01*
X134415294Y-105930454D01*
X134415709Y-105921451D01*
X134415709Y-105921449D01*
X134415724Y-105921228D01*
X134415724Y-105921226D01*
X134416248Y-105915441D01*
X134416250Y-105915431D01*
X134416436Y-105914462D01*
X134416438Y-105914453D01*
X134416987Y-105912600D01*
X134416990Y-105912590D01*
X134417359Y-105911682D01*
X134417368Y-105911665D01*
X134417907Y-105910846D01*
X134417920Y-105910831D01*
X134418609Y-105910134D01*
X134418624Y-105910121D01*
X134419435Y-105909571D01*
X134419452Y-105909562D01*
X134420356Y-105909181D01*
X134420375Y-105909175D01*
X134421335Y-105908977D01*
X134421354Y-105908975D01*
X134422334Y-105908969D01*
X134422351Y-105908970D01*
X134423029Y-105909080D01*
X134423036Y-105909082D01*
X134425997Y-105909773D01*
X134426000Y-105909773D01*
X134426300Y-105909853D01*
X134426303Y-105909854D01*
X134432378Y-105911675D01*
X134432485Y-105911708D01*
X134432487Y-105911709D01*
X134440425Y-105914284D01*
X134440471Y-105914299D01*
X134441393Y-105914608D01*
X134441399Y-105914610D01*
X134441400Y-105914610D01*
X134457436Y-105920006D01*
X134457445Y-105920010D01*
X134458338Y-105920412D01*
X134458355Y-105920422D01*
X134459154Y-105920991D01*
X134459169Y-105921003D01*
X134459841Y-105921717D01*
X134459853Y-105921733D01*
X134460372Y-105922564D01*
X134460380Y-105922581D01*
X134460728Y-105923497D01*
X134460733Y-105923514D01*
X134460874Y-105924244D01*
X134460875Y-105924251D01*
X134462029Y-105934179D01*
X134462813Y-105940916D01*
X134515992Y-105959184D01*
X134531254Y-105964400D01*
X134545120Y-105969088D01*
X134556946Y-105973034D01*
X134566133Y-105976040D01*
X134569403Y-105977068D01*
X134569589Y-105975757D01*
X134569627Y-105974208D01*
X134569627Y-105965251D01*
X134569723Y-105964276D01*
X134569727Y-105964257D01*
X134570012Y-105963319D01*
X134570020Y-105963301D01*
X134570482Y-105962436D01*
X134570493Y-105962420D01*
X134571114Y-105961662D01*
X134571128Y-105961648D01*
X134571886Y-105961027D01*
X134571902Y-105961016D01*
X134572767Y-105960554D01*
X134572785Y-105960546D01*
X134573723Y-105960261D01*
X134573742Y-105960257D01*
X134574717Y-105960161D01*
X134574737Y-105960161D01*
X134575712Y-105960257D01*
X134575727Y-105960260D01*
X134575918Y-105960310D01*
X134575918Y-105960174D01*
X134575996Y-105959385D01*
X134575005Y-105959079D01*
X134563590Y-105955579D01*
X134561127Y-105954827D01*
X134561126Y-105954827D01*
X134561117Y-105954825D01*
X134540913Y-105948665D01*
X134540904Y-105948661D01*
X134539999Y-105948284D01*
X134539981Y-105948275D01*
X134539167Y-105947730D01*
X134539152Y-105947718D01*
X134538459Y-105947024D01*
X134538447Y-105947008D01*
X134537904Y-105946192D01*
X134537895Y-105946175D01*
X134537521Y-105945269D01*
X134537514Y-105945246D01*
X134537301Y-105943801D01*
X134537300Y-105943786D01*
X134537300Y-105911449D01*
X134537396Y-105910474D01*
X134537400Y-105910455D01*
X134537685Y-105909517D01*
X134537693Y-105909499D01*
X134538155Y-105908634D01*
X134538166Y-105908618D01*
X134538787Y-105907860D01*
X134538801Y-105907846D01*
X134539559Y-105907225D01*
X134539575Y-105907214D01*
X134540440Y-105906752D01*
X134540458Y-105906744D01*
X134541396Y-105906459D01*
X134541415Y-105906455D01*
X134542390Y-105906359D01*
X134542405Y-105906359D01*
X134542895Y-105906383D01*
X134542900Y-105906383D01*
X134559233Y-105907992D01*
X134569400Y-105908994D01*
X134569243Y-105907342D01*
X134568806Y-105902779D01*
X134517631Y-105884948D01*
X134502543Y-105879741D01*
X134488711Y-105875060D01*
X134488711Y-105875059D01*
X134476905Y-105871158D01*
X134467634Y-105868202D01*
X134462223Y-105866603D01*
X134462147Y-105866872D01*
X134462060Y-105869439D01*
X134462060Y-105869443D01*
X134462035Y-105869802D01*
X134462034Y-105869806D01*
X134461418Y-105875608D01*
X134461417Y-105875617D01*
X134461219Y-105876577D01*
X134461213Y-105876596D01*
X134460831Y-105877498D01*
X134460822Y-105877515D01*
X134460271Y-105878326D01*
X134460258Y-105878341D01*
X134459589Y-105879005D01*
X134459582Y-105879011D01*
X134457675Y-105880576D01*
X134457668Y-105880582D01*
X134456853Y-105881127D01*
X134456835Y-105881136D01*
X134455929Y-105881511D01*
X134455910Y-105881517D01*
X134454949Y-105881708D01*
X134454930Y-105881710D01*
X134453950Y-105881710D01*
X134453932Y-105881708D01*
X134453082Y-105881549D01*
X134453073Y-105881547D01*
X134452710Y-105881446D01*
X134452707Y-105881445D01*
X134452412Y-105881353D01*
X134452409Y-105881353D01*
X134448920Y-105880146D01*
X134442390Y-105877952D01*
X134434273Y-105875256D01*
X134434011Y-105875170D01*
X134434005Y-105875168D01*
X134418419Y-105870023D01*
X134418411Y-105870019D01*
X134417514Y-105869622D01*
X134417496Y-105869613D01*
X134416695Y-105869049D01*
X134416681Y-105869036D01*
X134416005Y-105868326D01*
X134415993Y-105868311D01*
X134415468Y-105867483D01*
X134415459Y-105867465D01*
X134415106Y-105866551D01*
X134415100Y-105866528D01*
X134414919Y-105865193D01*
X134414918Y-105865180D01*
X134414918Y-105778215D01*
X134415014Y-105777240D01*
X134415018Y-105777221D01*
X134415303Y-105776283D01*
X134415311Y-105776265D01*
X134415773Y-105775400D01*
X134415784Y-105775384D01*
X134416405Y-105774626D01*
X134416419Y-105774612D01*
X134417177Y-105773991D01*
X134417193Y-105773980D01*
X134418058Y-105773518D01*
X134418076Y-105773510D01*
X134419014Y-105773225D01*
X134419033Y-105773221D01*
X134420008Y-105773125D01*
X134420028Y-105773125D01*
X134421003Y-105773221D01*
X134421018Y-105773224D01*
X134421601Y-105773377D01*
X134421607Y-105773379D01*
X134440080Y-105779435D01*
X134458552Y-105785491D01*
X134458561Y-105785494D01*
X134459458Y-105785889D01*
X134459475Y-105785899D01*
X134460277Y-105786462D01*
X134460292Y-105786475D01*
X134460970Y-105787183D01*
X134460982Y-105787198D01*
X134461508Y-105788025D01*
X134461517Y-105788043D01*
X134461872Y-105788956D01*
X134461878Y-105788978D01*
X134462062Y-105790323D01*
X134462063Y-105790337D01*
X134462063Y-105805961D01*
X134512306Y-105823215D01*
X134527466Y-105828414D01*
X134541407Y-105833182D01*
X134553458Y-105837290D01*
X134562950Y-105840511D01*
X134569206Y-105842615D01*
X134569319Y-105842652D01*
X134569230Y-105841518D01*
X134568697Y-105837807D01*
X134567785Y-105835914D01*
X134565260Y-105833599D01*
X134559371Y-105829854D01*
X134555425Y-105827562D01*
X134539858Y-105818614D01*
X134539850Y-105818609D01*
X134539052Y-105818039D01*
X134539037Y-105818026D01*
X134538366Y-105817312D01*
X134538354Y-105817297D01*
X134537835Y-105816466D01*
X134537826Y-105816448D01*
X134537479Y-105815531D01*
X134537474Y-105815509D01*
X134537301Y-105814206D01*
X134537300Y-105814193D01*
X134537300Y-105798155D01*
X134537301Y-105798081D01*
X134537425Y-105789679D01*
X134537425Y-105789674D01*
X134537457Y-105789178D01*
X134537458Y-105789173D01*
X134537994Y-105784499D01*
X134537995Y-105784489D01*
X134538201Y-105783531D01*
X134538209Y-105783509D01*
X134538776Y-105782315D01*
X134538782Y-105782304D01*
X134539971Y-105780472D01*
X134539977Y-105780464D01*
X134540589Y-105779698D01*
X134540603Y-105779684D01*
X134541352Y-105779052D01*
X134541368Y-105779040D01*
X134542226Y-105778567D01*
X134542244Y-105778560D01*
X134543178Y-105778263D01*
X134543200Y-105778258D01*
X134544533Y-105778157D01*
X134544547Y-105778157D01*
X134546633Y-105778279D01*
X134546645Y-105778281D01*
X134547839Y-105778498D01*
X134547851Y-105778501D01*
X134547957Y-105778534D01*
X134547958Y-105778534D01*
X134548029Y-105778557D01*
X134551635Y-105779739D01*
X134551649Y-105779743D01*
X134551652Y-105779744D01*
X134558697Y-105782080D01*
X134558703Y-105782082D01*
X134568247Y-105785261D01*
X134568250Y-105785262D01*
X134579353Y-105788969D01*
X134579356Y-105788970D01*
X134582117Y-105789893D01*
X134582118Y-105789893D01*
X134612136Y-105799935D01*
X134612145Y-105799939D01*
X134613040Y-105800340D01*
X134613057Y-105800349D01*
X134613856Y-105800916D01*
X134613871Y-105800929D01*
X134614544Y-105801642D01*
X134614556Y-105801658D01*
X134615078Y-105802488D01*
X134615086Y-105802505D01*
X134615435Y-105803421D01*
X134615441Y-105803443D01*
X134615617Y-105804720D01*
X134615618Y-105804733D01*
X134616225Y-105884771D01*
X134616225Y-105884776D01*
X134616350Y-105903479D01*
X134616350Y-105903488D01*
X134616432Y-105920638D01*
X134616432Y-105920649D01*
X134616472Y-105935722D01*
X134616472Y-105935737D01*
X134616468Y-105948208D01*
X134616468Y-105948232D01*
X134616422Y-105957576D01*
X134616422Y-105957578D01*
X134616421Y-105957631D01*
X134616332Y-105963323D01*
X134616332Y-105963325D01*
X134616321Y-105963589D01*
X134616321Y-105963592D01*
X134616213Y-105965167D01*
X134616212Y-105965177D01*
X134616050Y-105966144D01*
X134616044Y-105966163D01*
X134615696Y-105967079D01*
X134615688Y-105967096D01*
X134615168Y-105967927D01*
X134615156Y-105967943D01*
X134614483Y-105968656D01*
X134614468Y-105968668D01*
X134613670Y-105969237D01*
X134613653Y-105969247D01*
X134612759Y-105969648D01*
X134612740Y-105969654D01*
X134611785Y-105969874D01*
X134611766Y-105969877D01*
X134610786Y-105969906D01*
X134610766Y-105969905D01*
X134609770Y-105969735D01*
X134609760Y-105969732D01*
X134607420Y-105969082D01*
X134607419Y-105969082D01*
X134607308Y-105969049D01*
X134604251Y-105968123D01*
X134603954Y-105968679D01*
X134603949Y-105968688D01*
X134603517Y-105969333D01*
X134613261Y-105972527D01*
X134613270Y-105972530D01*
X134614167Y-105972925D01*
X134614184Y-105972935D01*
X134614986Y-105973498D01*
X134615001Y-105973511D01*
X134615679Y-105974219D01*
X134615691Y-105974234D01*
X134616217Y-105975061D01*
X134616226Y-105975079D01*
X134616581Y-105975992D01*
X134616587Y-105976014D01*
X134616771Y-105977359D01*
X134616772Y-105977373D01*
X134616776Y-106060675D01*
X134616776Y-106060685D01*
X134616680Y-106061660D01*
G37*
G36*
X134547488Y-105088953D02*
G01*
X134547488Y-105088955D01*
X134547454Y-105127063D01*
X134547454Y-105127067D01*
X134547399Y-105163642D01*
X134547399Y-105163645D01*
X134547323Y-105198432D01*
X134547323Y-105198435D01*
X134547230Y-105231181D01*
X134547230Y-105231185D01*
X134547119Y-105261635D01*
X134547119Y-105261640D01*
X134546992Y-105289541D01*
X134546992Y-105289546D01*
X134546850Y-105314645D01*
X134546850Y-105314652D01*
X134546695Y-105336694D01*
X134546695Y-105336704D01*
X134546528Y-105355436D01*
X134546528Y-105355451D01*
X134546350Y-105370619D01*
X134546350Y-105370622D01*
X134546349Y-105370645D01*
X134546162Y-105381992D01*
X134546161Y-105382044D01*
X134546161Y-105382045D01*
X134545966Y-105389323D01*
X134545966Y-105389325D01*
X134545956Y-105389532D01*
X134545956Y-105389534D01*
X134545754Y-105392487D01*
X134545753Y-105392497D01*
X134545591Y-105393464D01*
X134545584Y-105393485D01*
X134545094Y-105394666D01*
X134545089Y-105394678D01*
X134545058Y-105394732D01*
X134545052Y-105394740D01*
X134544483Y-105395538D01*
X134544471Y-105395553D01*
X134543758Y-105396225D01*
X134543742Y-105396237D01*
X134542910Y-105396757D01*
X134542892Y-105396766D01*
X134541976Y-105397113D01*
X134541958Y-105397118D01*
X134540991Y-105397280D01*
X134540971Y-105397281D01*
X134539992Y-105397252D01*
X134539973Y-105397250D01*
X134539102Y-105397057D01*
X134539094Y-105397054D01*
X134536760Y-105396314D01*
X134536683Y-105396289D01*
X134536681Y-105396289D01*
X134530201Y-105394119D01*
X134530201Y-105394118D01*
X134530187Y-105394114D01*
X134530185Y-105394114D01*
X134519778Y-105390588D01*
X134519771Y-105390585D01*
X134505655Y-105385780D01*
X134505651Y-105385779D01*
X134488048Y-105379770D01*
X134488045Y-105379769D01*
X134467172Y-105372630D01*
X134467170Y-105372629D01*
X134443258Y-105364439D01*
X134443246Y-105364436D01*
X134416493Y-105355264D01*
X134416489Y-105355262D01*
X134387128Y-105345188D01*
X134387127Y-105345188D01*
X134355371Y-105334284D01*
X134321443Y-105322627D01*
X134321441Y-105322626D01*
X134285560Y-105310292D01*
X134247946Y-105297354D01*
X134247944Y-105297354D01*
X134208815Y-105283889D01*
X134168392Y-105269972D01*
X134168391Y-105269971D01*
X134145055Y-105261933D01*
X134104004Y-105247796D01*
X134103991Y-105247793D01*
X134064094Y-105234062D01*
X134025583Y-105220816D01*
X134025578Y-105220813D01*
X133988693Y-105208134D01*
X133988681Y-105208131D01*
X133953602Y-105196081D01*
X133920582Y-105184745D01*
X133920570Y-105184742D01*
X133889802Y-105174189D01*
X133861519Y-105164497D01*
X133835942Y-105155743D01*
X133835936Y-105155740D01*
X133813288Y-105147999D01*
X133793796Y-105141349D01*
X133793784Y-105141346D01*
X133777636Y-105135852D01*
X133765077Y-105131597D01*
X133760945Y-105130209D01*
X133762563Y-105133377D01*
X133764184Y-105136292D01*
X133764220Y-105136358D01*
X133764221Y-105136360D01*
X133781110Y-105167855D01*
X133781111Y-105167857D01*
X133781210Y-105168052D01*
X133781211Y-105168054D01*
X133797084Y-105201039D01*
X133797085Y-105201040D01*
X133797172Y-105201229D01*
X133797173Y-105201231D01*
X133811488Y-105234453D01*
X133811489Y-105234456D01*
X133811572Y-105234662D01*
X133811573Y-105234664D01*
X133823785Y-105266869D01*
X133823785Y-105266871D01*
X133823868Y-105267106D01*
X133823869Y-105267108D01*
X133832556Y-105293989D01*
X133832557Y-105293992D01*
X133832638Y-105294272D01*
X133832639Y-105294275D01*
X133842761Y-105333203D01*
X133842762Y-105333206D01*
X133842835Y-105333528D01*
X133842835Y-105333531D01*
X133850140Y-105371851D01*
X133850141Y-105371855D01*
X133850194Y-105372197D01*
X133850194Y-105372200D01*
X133854864Y-105411244D01*
X133854865Y-105411247D01*
X133854893Y-105411572D01*
X133854893Y-105411576D01*
X133857111Y-105452675D01*
X133857111Y-105452677D01*
X133857118Y-105452891D01*
X133857118Y-105452893D01*
X133857363Y-105475264D01*
X133857363Y-105475267D01*
X133857359Y-105475520D01*
X133857359Y-105475522D01*
X133855366Y-105525877D01*
X133855366Y-105525881D01*
X133855334Y-105526284D01*
X133855333Y-105526288D01*
X133849556Y-105574013D01*
X133849556Y-105574017D01*
X133849483Y-105574454D01*
X133849482Y-105574459D01*
X133839900Y-105619600D01*
X133839899Y-105619604D01*
X133839777Y-105620067D01*
X133839775Y-105620072D01*
X133826370Y-105662675D01*
X133826369Y-105662680D01*
X133826193Y-105663154D01*
X133826191Y-105663159D01*
X133808942Y-105703267D01*
X133808940Y-105703271D01*
X133808708Y-105703741D01*
X133808705Y-105703746D01*
X133787594Y-105741406D01*
X133787592Y-105741410D01*
X133787310Y-105741857D01*
X133787307Y-105741862D01*
X133762313Y-105777118D01*
X133762309Y-105777122D01*
X133761987Y-105777530D01*
X133761984Y-105777534D01*
X133733089Y-105810431D01*
X133733086Y-105810435D01*
X133732738Y-105810793D01*
X133732734Y-105810796D01*
X133699918Y-105841379D01*
X133699916Y-105841381D01*
X133699730Y-105841546D01*
X133699728Y-105841547D01*
X133698250Y-105842793D01*
X133698248Y-105842795D01*
X133698041Y-105842960D01*
X133698039Y-105842962D01*
X133662114Y-105870136D01*
X133662110Y-105870139D01*
X133661700Y-105870418D01*
X133661696Y-105870420D01*
X133622783Y-105894188D01*
X133622779Y-105894191D01*
X133622359Y-105894421D01*
X133622355Y-105894423D01*
X133580698Y-105914678D01*
X133580694Y-105914680D01*
X133580271Y-105914862D01*
X133580266Y-105914864D01*
X133536109Y-105931500D01*
X133536105Y-105931501D01*
X133535682Y-105931639D01*
X133535678Y-105931640D01*
X133489266Y-105944550D01*
X133489262Y-105944551D01*
X133488874Y-105944643D01*
X133488870Y-105944644D01*
X133447707Y-105952626D01*
X133447704Y-105952627D01*
X133447360Y-105952681D01*
X133447356Y-105952681D01*
X133433529Y-105954376D01*
X133433527Y-105954376D01*
X133433320Y-105954397D01*
X133433318Y-105954398D01*
X133415886Y-105955800D01*
X133415885Y-105955800D01*
X133415755Y-105955809D01*
X133415753Y-105955809D01*
X133395720Y-105956896D01*
X133395719Y-105956896D01*
X133395622Y-105956900D01*
X133373993Y-105957651D01*
X133373991Y-105957651D01*
X133373905Y-105957653D01*
X133351684Y-105958045D01*
X133351683Y-105958045D01*
X133351598Y-105958046D01*
X133351597Y-105958046D01*
X133329791Y-105958058D01*
X133329790Y-105958058D01*
X133329691Y-105958057D01*
X133309302Y-105957666D01*
X133309300Y-105957666D01*
X133309170Y-105957662D01*
X133309168Y-105957662D01*
X133291203Y-105956848D01*
X133291202Y-105956848D01*
X133291058Y-105956839D01*
X133291057Y-105956839D01*
X133283079Y-105956247D01*
X133283077Y-105956247D01*
X133282855Y-105956226D01*
X133282852Y-105956225D01*
X133216646Y-105948329D01*
X133216643Y-105948329D01*
X133216338Y-105948283D01*
X133216335Y-105948282D01*
X133150290Y-105936233D01*
X133150287Y-105936233D01*
X133149993Y-105936170D01*
X133149990Y-105936169D01*
X133084619Y-105920131D01*
X133084616Y-105920130D01*
X133084329Y-105920051D01*
X133084326Y-105920051D01*
X133020142Y-105900189D01*
X133020139Y-105900188D01*
X133019855Y-105900090D01*
X133019853Y-105900089D01*
X132957369Y-105876567D01*
X132957366Y-105876566D01*
X132957083Y-105876450D01*
X132957080Y-105876448D01*
X132896810Y-105849432D01*
X132896807Y-105849431D01*
X132896519Y-105849291D01*
X132896516Y-105849289D01*
X132838974Y-105818941D01*
X132838972Y-105818940D01*
X132838778Y-105818831D01*
X132838776Y-105818830D01*
X132820122Y-105807902D01*
X132820121Y-105807901D01*
X132819930Y-105807784D01*
X132819928Y-105807783D01*
X132769253Y-105774966D01*
X132769250Y-105774964D01*
X132768991Y-105774784D01*
X132768988Y-105774782D01*
X132719674Y-105738230D01*
X132719672Y-105738229D01*
X132719436Y-105738043D01*
X132719434Y-105738041D01*
X132671999Y-105698249D01*
X132671996Y-105698247D01*
X132671776Y-105698051D01*
X132671774Y-105698049D01*
X132626738Y-105655513D01*
X132626736Y-105655511D01*
X132626527Y-105655301D01*
X132626525Y-105655299D01*
X132584408Y-105610514D01*
X132584406Y-105610511D01*
X132584203Y-105610282D01*
X132584201Y-105610280D01*
X132545523Y-105563744D01*
X132545521Y-105563741D01*
X132545321Y-105563484D01*
X132545319Y-105563482D01*
X132510598Y-105515688D01*
X132510597Y-105515686D01*
X132510480Y-105515518D01*
X132510479Y-105515516D01*
X132504815Y-105507010D01*
X132504814Y-105507008D01*
X132504695Y-105506820D01*
X132504693Y-105506819D01*
X132474643Y-105457017D01*
X132474641Y-105457013D01*
X132474453Y-105456673D01*
X132474452Y-105456670D01*
X132448745Y-105405444D01*
X132448743Y-105405440D01*
X132448579Y-105405078D01*
X132448577Y-105405075D01*
X132427248Y-105352553D01*
X132427247Y-105352549D01*
X132427111Y-105352170D01*
X132427110Y-105352166D01*
X132410195Y-105298476D01*
X132410193Y-105298472D01*
X132410087Y-105298081D01*
X132410086Y-105298077D01*
X132397619Y-105243348D01*
X132397619Y-105243344D01*
X132397545Y-105242943D01*
X132397544Y-105242939D01*
X132389561Y-105187299D01*
X132389561Y-105187295D01*
X132389519Y-105186891D01*
X132389518Y-105186887D01*
X132386055Y-105130464D01*
X132386055Y-105130460D01*
X132386047Y-105130080D01*
X132386047Y-105130077D01*
X132386798Y-105079236D01*
X132386798Y-105079232D01*
X132386817Y-105078864D01*
X132386817Y-105078860D01*
X132391080Y-105030776D01*
X132391081Y-105030772D01*
X132391133Y-105030369D01*
X132391133Y-105030365D01*
X132398929Y-104984915D01*
X132398930Y-104984911D01*
X132399024Y-104984478D01*
X132399025Y-104984473D01*
X132410320Y-104941752D01*
X132410322Y-104941748D01*
X132410466Y-104941292D01*
X132410467Y-104941287D01*
X132425223Y-104901388D01*
X132425225Y-104901383D01*
X132425428Y-104900911D01*
X132425430Y-104900907D01*
X132443612Y-104863923D01*
X132443615Y-104863918D01*
X132443881Y-104863444D01*
X132443884Y-104863439D01*
X132465455Y-104829462D01*
X132465458Y-104829458D01*
X132465788Y-104828998D01*
X132465791Y-104828993D01*
X132490714Y-104798116D01*
X132490717Y-104798113D01*
X132490978Y-104797815D01*
X132490980Y-104797812D01*
X132500924Y-104787314D01*
X132500926Y-104787313D01*
X132501079Y-104787158D01*
X132501080Y-104787156D01*
X132515598Y-104773104D01*
X132515600Y-104773102D01*
X132515794Y-104772924D01*
X132515796Y-104772923D01*
X132530434Y-104760179D01*
X132530436Y-104760177D01*
X132530662Y-104759991D01*
X132530665Y-104759989D01*
X132546271Y-104747932D01*
X132546273Y-104747930D01*
X132546495Y-104747768D01*
X132546497Y-104747767D01*
X132563922Y-104735773D01*
X132563924Y-104735771D01*
X132564110Y-104735650D01*
X132564112Y-104735649D01*
X132584203Y-104723096D01*
X132584332Y-104723017D01*
X132584335Y-104723016D01*
X132599286Y-104714293D01*
X132589607Y-104710967D01*
X132576907Y-104706651D01*
X132576907Y-104706652D01*
X132561679Y-104701515D01*
X132561670Y-104701511D01*
X132544389Y-104695714D01*
X132525505Y-104689407D01*
X132516884Y-104686537D01*
X132516872Y-104686534D01*
X132426817Y-104656585D01*
X132426808Y-104656581D01*
X132425913Y-104656182D01*
X132425896Y-104656173D01*
X132425096Y-104655607D01*
X132425081Y-104655594D01*
X132424406Y-104654882D01*
X132424394Y-104654866D01*
X132423871Y-104654037D01*
X132423863Y-104654020D01*
X132423512Y-104653105D01*
X132423506Y-104653082D01*
X132423328Y-104651767D01*
X132423327Y-104651754D01*
X132422742Y-104313087D01*
X132422742Y-104313085D01*
X132422684Y-104273929D01*
X132422684Y-104273927D01*
X132422647Y-104236052D01*
X132422647Y-104236049D01*
X132422631Y-104199711D01*
X132422631Y-104199709D01*
X132422634Y-104165162D01*
X132422634Y-104165159D01*
X132422656Y-104132661D01*
X132422656Y-104132657D01*
X132422696Y-104102461D01*
X132422696Y-104102458D01*
X132422754Y-104074819D01*
X132422754Y-104074814D01*
X132422830Y-104049989D01*
X132422830Y-104049983D01*
X132422921Y-104028226D01*
X132422921Y-104028218D01*
X132423028Y-104009785D01*
X132423028Y-104009772D01*
X132423151Y-103994918D01*
X132423151Y-103994897D01*
X132423287Y-103983877D01*
X132423287Y-103983876D01*
X132423288Y-103983829D01*
X132423439Y-103976898D01*
X132423439Y-103976896D01*
X132423448Y-103976690D01*
X132423448Y-103976688D01*
X132423611Y-103974102D01*
X132423612Y-103974092D01*
X132423769Y-103973125D01*
X132423774Y-103973106D01*
X132424117Y-103972188D01*
X132424126Y-103972170D01*
X132424642Y-103971336D01*
X132424652Y-103971323D01*
X132425090Y-103970821D01*
X132425094Y-103970816D01*
X132425106Y-103970804D01*
X132425114Y-103970798D01*
X132425872Y-103970177D01*
X132425888Y-103970166D01*
X132426753Y-103969704D01*
X132426771Y-103969696D01*
X132427709Y-103969411D01*
X132427728Y-103969407D01*
X132428703Y-103969311D01*
X132428723Y-103969311D01*
X132429698Y-103969407D01*
X132429713Y-103969410D01*
X132430231Y-103969542D01*
X132430236Y-103969544D01*
X132432582Y-103970278D01*
X132432583Y-103970278D01*
X132432669Y-103970306D01*
X132439078Y-103972439D01*
X132439096Y-103972445D01*
X132439097Y-103972445D01*
X132449267Y-103975873D01*
X132449270Y-103975874D01*
X132449278Y-103975877D01*
X132462900Y-103980495D01*
X132462905Y-103980496D01*
X132479684Y-103986204D01*
X132479689Y-103986206D01*
X132499316Y-103992899D01*
X132499318Y-103992899D01*
X132521491Y-104000473D01*
X132521494Y-104000474D01*
X132545909Y-104008825D01*
X132545912Y-104008826D01*
X132572266Y-104017851D01*
X132572268Y-104017851D01*
X132600258Y-104027447D01*
X132600262Y-104027449D01*
X132629581Y-104037511D01*
X132629583Y-104037511D01*
X132638196Y-104040470D01*
X132844566Y-104111352D01*
X132844576Y-104111356D01*
X132845467Y-104111764D01*
X132845484Y-104111774D01*
X132846278Y-104112348D01*
X132846292Y-104112361D01*
X132846960Y-104113079D01*
X132846972Y-104113095D01*
X132847486Y-104113929D01*
X132847495Y-104113946D01*
X132847837Y-104114865D01*
X132847842Y-104114887D01*
X132848008Y-104116163D01*
X132848009Y-104116176D01*
X132848009Y-104282071D01*
X132857840Y-104285443D01*
X132857842Y-104285444D01*
X132857856Y-104285449D01*
X132861863Y-104286836D01*
X132861867Y-104286837D01*
X132861868Y-104286838D01*
X132869947Y-104289647D01*
X132869951Y-104289649D01*
X132881890Y-104293805D01*
X132881891Y-104293805D01*
X132897482Y-104299237D01*
X132916514Y-104305871D01*
X132916521Y-104305874D01*
X132938778Y-104313634D01*
X132964062Y-104322451D01*
X132992155Y-104332249D01*
X133022849Y-104342955D01*
X133046720Y-104351280D01*
X133046720Y-104876213D01*
X133015161Y-104877997D01*
X132986194Y-104883459D01*
X132959667Y-104892601D01*
X132935483Y-104905422D01*
X132913376Y-104922059D01*
X132909496Y-104925583D01*
X132891165Y-104945793D01*
X132876278Y-104968780D01*
X132864819Y-104994488D01*
X132856886Y-105022799D01*
X132854223Y-105038393D01*
X132853546Y-105046505D01*
X132853155Y-105057998D01*
X132853051Y-105071494D01*
X132853230Y-105085611D01*
X132853672Y-105098856D01*
X132854363Y-105109927D01*
X132854960Y-105115455D01*
X132862256Y-105150765D01*
X132873863Y-105184922D01*
X132889672Y-105217804D01*
X132909571Y-105249237D01*
X132933442Y-105279017D01*
X132961153Y-105306931D01*
X132992680Y-105332854D01*
X132997820Y-105336619D01*
X133024659Y-105353916D01*
X133053700Y-105368915D01*
X133084339Y-105381486D01*
X133115794Y-105391410D01*
X133147399Y-105398518D01*
X133178386Y-105402621D01*
X133208037Y-105403548D01*
X133235749Y-105401132D01*
X133241662Y-105400101D01*
X133267401Y-105393153D01*
X133291863Y-105382713D01*
X133314444Y-105369199D01*
X133334407Y-105353083D01*
X133351128Y-105334741D01*
X133355309Y-105328992D01*
X133369056Y-105305088D01*
X133379451Y-105278732D01*
X133386563Y-105250312D01*
X133390395Y-105220340D01*
X133390954Y-105189390D01*
X133388256Y-105157953D01*
X133382327Y-105126616D01*
X133373187Y-105095874D01*
X133360886Y-105066307D01*
X133345387Y-105038308D01*
X133345386Y-105038308D01*
X133340631Y-105031058D01*
X133316431Y-104999464D01*
X133289148Y-104971093D01*
X133259019Y-104946056D01*
X133226359Y-104924564D01*
X133191510Y-104906842D01*
X133154740Y-104893071D01*
X133117835Y-104883748D01*
X133080923Y-104878128D01*
X133046720Y-104876213D01*
X133046720Y-104351280D01*
X133046753Y-104351292D01*
X133048396Y-104351866D01*
X133048397Y-104351866D01*
X133055933Y-104354495D01*
X133091195Y-104366797D01*
X133128427Y-104379787D01*
X133167418Y-104393391D01*
X133207957Y-104407537D01*
X133249835Y-104422150D01*
X133292841Y-104437157D01*
X133336765Y-104452486D01*
X133381397Y-104468062D01*
X133426526Y-104483812D01*
X133471942Y-104499663D01*
X133517436Y-104515541D01*
X133562796Y-104531374D01*
X133607813Y-104547087D01*
X133652276Y-104562608D01*
X133695975Y-104577862D01*
X133695976Y-104577862D01*
X133738701Y-104592777D01*
X133780241Y-104607279D01*
X133820387Y-104621295D01*
X133858928Y-104634751D01*
X133895653Y-104647575D01*
X133930353Y-104659692D01*
X133962818Y-104671029D01*
X133992836Y-104681513D01*
X134020199Y-104691070D01*
X134020206Y-104691073D01*
X134044695Y-104699629D01*
X134066115Y-104707113D01*
X134084236Y-104713447D01*
X134084249Y-104713451D01*
X134098884Y-104718569D01*
X134109812Y-104722393D01*
X134109818Y-104722396D01*
X134116046Y-104724580D01*
X134116130Y-104724009D01*
X134116528Y-104718482D01*
X134116843Y-104710284D01*
X134117090Y-104698983D01*
X134117288Y-104684204D01*
X134117460Y-104665595D01*
X134117594Y-104647970D01*
X134118200Y-104563717D01*
X134118201Y-104563707D01*
X134118304Y-104562732D01*
X134118308Y-104562713D01*
X134118599Y-104561777D01*
X134118606Y-104561759D01*
X134119075Y-104560898D01*
X134119086Y-104560882D01*
X134119713Y-104560129D01*
X134119727Y-104560115D01*
X134120489Y-104559499D01*
X134120505Y-104559488D01*
X134121373Y-104559032D01*
X134121392Y-104559025D01*
X134122332Y-104558747D01*
X134122351Y-104558743D01*
X134123327Y-104558654D01*
X134123347Y-104558655D01*
X134124322Y-104558758D01*
X134124337Y-104558761D01*
X134124939Y-104558925D01*
X134124945Y-104558926D01*
X134290045Y-104615209D01*
X134317898Y-104624706D01*
X134317904Y-104624709D01*
X134345501Y-104634123D01*
X134372385Y-104643297D01*
X134372387Y-104643297D01*
X134398083Y-104652070D01*
X134422123Y-104660281D01*
X134422129Y-104660284D01*
X134444038Y-104667771D01*
X134444039Y-104667771D01*
X134463359Y-104674378D01*
X134463360Y-104674378D01*
X134479617Y-104679943D01*
X134479620Y-104679944D01*
X134492344Y-104684306D01*
X134492349Y-104684308D01*
X134499602Y-104686801D01*
X134499611Y-104686803D01*
X134544061Y-104702109D01*
X134544070Y-104702113D01*
X134544961Y-104702522D01*
X134544978Y-104702532D01*
X134545772Y-104703106D01*
X134545786Y-104703119D01*
X134546453Y-104703838D01*
X134546465Y-104703854D01*
X134546979Y-104704688D01*
X134546988Y-104704705D01*
X134547329Y-104705624D01*
X134547334Y-104705646D01*
X134547499Y-104706919D01*
X134547500Y-104706932D01*
X134547500Y-105049565D01*
X134547488Y-105088953D01*
G37*
G36*
X133855774Y-103319421D02*
G01*
X133855774Y-103319423D01*
X133855773Y-103319480D01*
X133855486Y-103339129D01*
X133855485Y-103339198D01*
X133855485Y-103339199D01*
X133854977Y-103357140D01*
X133854977Y-103357141D01*
X133854973Y-103357235D01*
X133854246Y-103372611D01*
X133854246Y-103372613D01*
X133854236Y-103372772D01*
X133854236Y-103372774D01*
X133853289Y-103384730D01*
X133853289Y-103384732D01*
X133853269Y-103384938D01*
X133853268Y-103384940D01*
X133852835Y-103388515D01*
X133852835Y-103388518D01*
X133852793Y-103388798D01*
X133852792Y-103388801D01*
X133844731Y-103433838D01*
X133844731Y-103433842D01*
X133844637Y-103434261D01*
X133844636Y-103434265D01*
X133833389Y-103476046D01*
X133833387Y-103476051D01*
X133833240Y-103476509D01*
X133833239Y-103476513D01*
X133818694Y-103515231D01*
X133818692Y-103515236D01*
X133818481Y-103515717D01*
X133818478Y-103515722D01*
X133800520Y-103551570D01*
X133800518Y-103551575D01*
X133800245Y-103552054D01*
X133800242Y-103552058D01*
X133778759Y-103585230D01*
X133778756Y-103585235D01*
X133778428Y-103585684D01*
X133778424Y-103585688D01*
X133753301Y-103616376D01*
X133753298Y-103616380D01*
X133752935Y-103616778D01*
X133752931Y-103616782D01*
X133724054Y-103645180D01*
X133724050Y-103645184D01*
X133723675Y-103645517D01*
X133723672Y-103645520D01*
X133690929Y-103671820D01*
X133690926Y-103671822D01*
X133690698Y-103671995D01*
X133690696Y-103671996D01*
X133682457Y-103677872D01*
X133682450Y-103677877D01*
X133674527Y-103683507D01*
X133670469Y-103686515D01*
X133679669Y-103689739D01*
X133691980Y-103693950D01*
X133691980Y-103693949D01*
X133706748Y-103698920D01*
X133723476Y-103704481D01*
X133741611Y-103710444D01*
X133741622Y-103710449D01*
X133821239Y-103736492D01*
X133821248Y-103736495D01*
X133822146Y-103736889D01*
X133822163Y-103736899D01*
X133822966Y-103737461D01*
X133822981Y-103737474D01*
X133823659Y-103738182D01*
X133823671Y-103738197D01*
X133824198Y-103739024D01*
X133824207Y-103739042D01*
X133824562Y-103739955D01*
X133824568Y-103739977D01*
X133824753Y-103741325D01*
X133824754Y-103741339D01*
X133824754Y-104032367D01*
X133824752Y-104075057D01*
X133824752Y-104075058D01*
X133824743Y-104113366D01*
X133824743Y-104113368D01*
X133824723Y-104147527D01*
X133824723Y-104147529D01*
X133824690Y-104177776D01*
X133824690Y-104177780D01*
X133824640Y-104204350D01*
X133824640Y-104204356D01*
X133824570Y-104227484D01*
X133824570Y-104227492D01*
X133824477Y-104247413D01*
X133824477Y-104247425D01*
X133824357Y-104264375D01*
X133824357Y-104264393D01*
X133824208Y-104278606D01*
X133824208Y-104278609D01*
X133824207Y-104278635D01*
X133824024Y-104290346D01*
X133824024Y-104290384D01*
X133823804Y-104299830D01*
X133823804Y-104299831D01*
X133823802Y-104299890D01*
X133823543Y-104307306D01*
X133823539Y-104307399D01*
X133823539Y-104307401D01*
X133823237Y-104313022D01*
X133823237Y-104313024D01*
X133823226Y-104313184D01*
X133823226Y-104313186D01*
X133822877Y-104317247D01*
X133822876Y-104317250D01*
X133822842Y-104317542D01*
X133822842Y-104317544D01*
X133822444Y-104320280D01*
X133822443Y-104320287D01*
X133822317Y-104320888D01*
X133822315Y-104320893D01*
X133821864Y-104322539D01*
X133821861Y-104322549D01*
X133821511Y-104323465D01*
X133821505Y-104323478D01*
X133821244Y-104323937D01*
X133821241Y-104323942D01*
X133820734Y-104324734D01*
X133820728Y-104324742D01*
X133820121Y-104325511D01*
X133820108Y-104325525D01*
X133819363Y-104326162D01*
X133819347Y-104326173D01*
X133818492Y-104326652D01*
X133818478Y-104326659D01*
X133817936Y-104326860D01*
X133817930Y-104326862D01*
X133817364Y-104327035D01*
X133817355Y-104327037D01*
X133816394Y-104327230D01*
X133816374Y-104327232D01*
X133815393Y-104327234D01*
X133815378Y-104327233D01*
X133814805Y-104327144D01*
X133814799Y-104327143D01*
X133814539Y-104327087D01*
X133814534Y-104327085D01*
X133814017Y-104326944D01*
X133814012Y-104326943D01*
X133811281Y-104326040D01*
X133811278Y-104326039D01*
X133811273Y-104326038D01*
X133804471Y-104323777D01*
X133804469Y-104323776D01*
X133793906Y-104320261D01*
X133793905Y-104320261D01*
X133779890Y-104315594D01*
X133762734Y-104309880D01*
X133742745Y-104303221D01*
X133742744Y-104303221D01*
X133720234Y-104295720D01*
X133695512Y-104287481D01*
X133668887Y-104278607D01*
X133640670Y-104269201D01*
X133611171Y-104259367D01*
X133611165Y-104259364D01*
X133603295Y-104256740D01*
X133396631Y-104187836D01*
X133396622Y-104187832D01*
X133395727Y-104187433D01*
X133395710Y-104187424D01*
X133394911Y-104186857D01*
X133394896Y-104186844D01*
X133394222Y-104186132D01*
X133394210Y-104186116D01*
X133393688Y-104185287D01*
X133393680Y-104185270D01*
X133393329Y-104184354D01*
X133393323Y-104184332D01*
X133393146Y-104183059D01*
X133393145Y-104183046D01*
X133392532Y-104118304D01*
X133391954Y-104057102D01*
X133382041Y-104053512D01*
X133371443Y-104049687D01*
X133357504Y-104044682D01*
X133340538Y-104038606D01*
X133320866Y-104031574D01*
X133298807Y-104023700D01*
X133298796Y-104023695D01*
X133274697Y-104015101D01*
X133274683Y-104015097D01*
X133248808Y-104005878D01*
X133221505Y-103996155D01*
X133193093Y-103986045D01*
X133163889Y-103975658D01*
X133134214Y-103965108D01*
X133104384Y-103954508D01*
X133074723Y-103943974D01*
X133045545Y-103933616D01*
X133017172Y-103923549D01*
X132989921Y-103913885D01*
X132964113Y-103904739D01*
X132940081Y-103896228D01*
X132940068Y-103896224D01*
X132918099Y-103888451D01*
X132918088Y-103888446D01*
X132898531Y-103881535D01*
X132881682Y-103875591D01*
X132867877Y-103870733D01*
X132857417Y-103867068D01*
X132853796Y-103865810D01*
X132853664Y-103867740D01*
X132853294Y-103877403D01*
X132852988Y-103890194D01*
X132852987Y-103890206D01*
X132852768Y-103905334D01*
X132852647Y-103922445D01*
X132852627Y-103932858D01*
X132852610Y-103950794D01*
X132852610Y-103950804D01*
X132852561Y-103967169D01*
X132852561Y-103967181D01*
X132852484Y-103981424D01*
X132852484Y-103981440D01*
X132852384Y-103993016D01*
X132852384Y-103993020D01*
X132852383Y-103993048D01*
X132852264Y-104001406D01*
X132852263Y-104001480D01*
X132852263Y-104001482D01*
X132852129Y-104006085D01*
X132852129Y-104006089D01*
X132852101Y-104006495D01*
X132852100Y-104006499D01*
X132852019Y-104007230D01*
X132852018Y-104007240D01*
X132851815Y-104008199D01*
X132851809Y-104008217D01*
X132851423Y-104009118D01*
X132851413Y-104009136D01*
X132850858Y-104009944D01*
X132850846Y-104009959D01*
X132850145Y-104010643D01*
X132850130Y-104010655D01*
X132849308Y-104011190D01*
X132849290Y-104011199D01*
X132848380Y-104011563D01*
X132848361Y-104011568D01*
X132847397Y-104011748D01*
X132847378Y-104011750D01*
X132846398Y-104011738D01*
X132846378Y-104011736D01*
X132845405Y-104011528D01*
X132845396Y-104011525D01*
X132843168Y-104010812D01*
X132843146Y-104010805D01*
X132836831Y-104008752D01*
X132836824Y-104008750D01*
X132836819Y-104008748D01*
X132826734Y-104005458D01*
X132826723Y-104005455D01*
X132813137Y-104001017D01*
X132813131Y-104001014D01*
X132796368Y-103995534D01*
X132796367Y-103995534D01*
X132776717Y-103989105D01*
X132754486Y-103981830D01*
X132754485Y-103981830D01*
X132729975Y-103973805D01*
X132703486Y-103965131D01*
X132675321Y-103955905D01*
X132675315Y-103955902D01*
X132645779Y-103946224D01*
X132634657Y-103942580D01*
X132424530Y-103873715D01*
X132424521Y-103873712D01*
X132423624Y-103873317D01*
X132423607Y-103873307D01*
X132422804Y-103872745D01*
X132422789Y-103872732D01*
X132422112Y-103872024D01*
X132422100Y-103872009D01*
X132421573Y-103871182D01*
X132421564Y-103871164D01*
X132421209Y-103870250D01*
X132421203Y-103870228D01*
X132421019Y-103868893D01*
X132421018Y-103868879D01*
X132420432Y-103567205D01*
X132420432Y-103567203D01*
X132420373Y-103530281D01*
X132420373Y-103530277D01*
X132420342Y-103494653D01*
X132420342Y-103494650D01*
X132420338Y-103460593D01*
X132420338Y-103460589D01*
X132420359Y-103428370D01*
X132420359Y-103428365D01*
X132420405Y-103398255D01*
X132420405Y-103398251D01*
X132420474Y-103370520D01*
X132420474Y-103370514D01*
X132420565Y-103345432D01*
X132420565Y-103345425D01*
X132420678Y-103323263D01*
X132420678Y-103323253D01*
X132420811Y-103304281D01*
X132420811Y-103304266D01*
X132420963Y-103288754D01*
X132420963Y-103288751D01*
X132420964Y-103288727D01*
X132421135Y-103276949D01*
X132421135Y-103276900D01*
X132421323Y-103269121D01*
X132421323Y-103269118D01*
X132421331Y-103268947D01*
X132421331Y-103268946D01*
X132421536Y-103265439D01*
X132421538Y-103265426D01*
X132421786Y-103264137D01*
X132421789Y-103264124D01*
X132421849Y-103263944D01*
X132421853Y-103263935D01*
X132422252Y-103263040D01*
X132422261Y-103263023D01*
X132422828Y-103262223D01*
X132422841Y-103262208D01*
X132423552Y-103261534D01*
X132423568Y-103261522D01*
X132424398Y-103261000D01*
X132424415Y-103260992D01*
X132425330Y-103260642D01*
X132425349Y-103260636D01*
X132426316Y-103260471D01*
X132426336Y-103260470D01*
X132427315Y-103260496D01*
X132427333Y-103260498D01*
X132428160Y-103260675D01*
X132428168Y-103260677D01*
X132430705Y-103261447D01*
X132430706Y-103261448D01*
X132430870Y-103261500D01*
X132430872Y-103261500D01*
X132437185Y-103263656D01*
X132437225Y-103263670D01*
X132446752Y-103267015D01*
X132446772Y-103267022D01*
X132446774Y-103267023D01*
X132458952Y-103271356D01*
X132458966Y-103271361D01*
X132473234Y-103276484D01*
X132473245Y-103276488D01*
X132489042Y-103282202D01*
X132489047Y-103282204D01*
X132489054Y-103282207D01*
X132492514Y-103283464D01*
X132508489Y-103289247D01*
X132522988Y-103294448D01*
X132535468Y-103298877D01*
X132542538Y-103301348D01*
X132540631Y-103298296D01*
X132534563Y-103288821D01*
X132530786Y-103283011D01*
X132530742Y-103282942D01*
X132500041Y-103233973D01*
X132500039Y-103233971D01*
X132499930Y-103233790D01*
X132499929Y-103233787D01*
X132473139Y-103186751D01*
X132473138Y-103186749D01*
X132473023Y-103186534D01*
X132473022Y-103186532D01*
X132450013Y-103141123D01*
X132450012Y-103141121D01*
X132449894Y-103140871D01*
X132449892Y-103140868D01*
X132430536Y-103096776D01*
X132430535Y-103096773D01*
X132430420Y-103096488D01*
X132430419Y-103096485D01*
X132414587Y-103053405D01*
X132414586Y-103053402D01*
X132414481Y-103053085D01*
X132414480Y-103053082D01*
X132402045Y-103010706D01*
X132402044Y-103010703D01*
X132401957Y-103010362D01*
X132401956Y-103010358D01*
X132392788Y-102968378D01*
X132392788Y-102968375D01*
X132392735Y-102968092D01*
X132392734Y-102968090D01*
X132388760Y-102943048D01*
X132388760Y-102943045D01*
X132388727Y-102942800D01*
X132388727Y-102942798D01*
X132387217Y-102928883D01*
X132387216Y-102928881D01*
X132387200Y-102928707D01*
X132387200Y-102928705D01*
X132385943Y-102911537D01*
X132385943Y-102911536D01*
X132385936Y-102911423D01*
X132385936Y-102911422D01*
X132384961Y-102892117D01*
X132384961Y-102892115D01*
X132384958Y-102892027D01*
X132384292Y-102871704D01*
X132384290Y-102871622D01*
X132384290Y-102871621D01*
X132383959Y-102851397D01*
X132383958Y-102851307D01*
X132383958Y-102851305D01*
X132383990Y-102832298D01*
X132383990Y-102832296D01*
X132383992Y-102832177D01*
X132384414Y-102815505D01*
X132384414Y-102815503D01*
X132384422Y-102815313D01*
X132384422Y-102815311D01*
X132385262Y-102802091D01*
X132385262Y-102802089D01*
X132385275Y-102801931D01*
X132385275Y-102801930D01*
X132385300Y-102801668D01*
X132385301Y-102801665D01*
X132385326Y-102801450D01*
X132385326Y-102801448D01*
X132391834Y-102754717D01*
X132391835Y-102754713D01*
X132391916Y-102754273D01*
X132391917Y-102754268D01*
X132402108Y-102710322D01*
X132402109Y-102710318D01*
X132402242Y-102709851D01*
X132402243Y-102709846D01*
X132416119Y-102668681D01*
X132416121Y-102668676D01*
X132416312Y-102668193D01*
X132416314Y-102668188D01*
X132433878Y-102629796D01*
X132433880Y-102629792D01*
X132434133Y-102629310D01*
X132434136Y-102629305D01*
X132455393Y-102593682D01*
X132455396Y-102593677D01*
X132455708Y-102593215D01*
X132455711Y-102593211D01*
X132480664Y-102560351D01*
X132480668Y-102560346D01*
X132481028Y-102559923D01*
X132481032Y-102559919D01*
X132509683Y-102529815D01*
X132509686Y-102529811D01*
X132510080Y-102529440D01*
X132510084Y-102529437D01*
X132542436Y-102502085D01*
X132542440Y-102502082D01*
X132542768Y-102501827D01*
X132542771Y-102501825D01*
X132564014Y-102486697D01*
X132564017Y-102486695D01*
X132564314Y-102486499D01*
X132564317Y-102486497D01*
X132599083Y-102465303D01*
X132599087Y-102465300D01*
X132599470Y-102465089D01*
X132599474Y-102465087D01*
X132635416Y-102447281D01*
X132635420Y-102447280D01*
X132635829Y-102447099D01*
X132635833Y-102447097D01*
X132673672Y-102432396D01*
X132673676Y-102432394D01*
X132674079Y-102432257D01*
X132674083Y-102432256D01*
X132714538Y-102420381D01*
X132714542Y-102420380D01*
X132714899Y-102420290D01*
X132714902Y-102420289D01*
X132756400Y-102411369D01*
X132756402Y-102411369D01*
X132756581Y-102411334D01*
X132756583Y-102411334D01*
X132766217Y-102409627D01*
X132766302Y-102409612D01*
X132766303Y-102409611D01*
X132774812Y-102408255D01*
X132774814Y-102408255D01*
X132774959Y-102408234D01*
X132774960Y-102408234D01*
X132783059Y-102407186D01*
X132783061Y-102407186D01*
X132783241Y-102407166D01*
X132783243Y-102407165D01*
X132791643Y-102406386D01*
X132791645Y-102406386D01*
X132791813Y-102406374D01*
X132791814Y-102406374D01*
X132801229Y-102405820D01*
X132801230Y-102405820D01*
X132801359Y-102405814D01*
X132801361Y-102405814D01*
X132812504Y-102405447D01*
X132812587Y-102405445D01*
X132812588Y-102405445D01*
X132826171Y-102405221D01*
X132826217Y-102405220D01*
X132842953Y-102405099D01*
X132842976Y-102405099D01*
X132863579Y-102405039D01*
X132863582Y-102405039D01*
X132864833Y-102405036D01*
X132864860Y-102405036D01*
X132893334Y-102405124D01*
X132893336Y-102405124D01*
X132893397Y-102405125D01*
X132917789Y-102405494D01*
X132917873Y-102405496D01*
X132917874Y-102405496D01*
X132938045Y-102406143D01*
X132938176Y-102406148D01*
X132938179Y-102406148D01*
X132953990Y-102407069D01*
X132953992Y-102407069D01*
X132954191Y-102407085D01*
X132954193Y-102407085D01*
X132963482Y-102408000D01*
X132963485Y-102408001D01*
X132963753Y-102408035D01*
X132963755Y-102408035D01*
X133032081Y-102418509D01*
X133032081Y-102960381D01*
X133002456Y-102962085D01*
X132975487Y-102966654D01*
X132974134Y-102966982D01*
X132948209Y-102975569D01*
X132925162Y-102987626D01*
X132904897Y-103003070D01*
X132887516Y-103021763D01*
X132873111Y-103043601D01*
X132861808Y-103068479D01*
X132853733Y-103096338D01*
X132850441Y-103114945D01*
X132850442Y-103114945D01*
X132849409Y-103126833D01*
X132849002Y-103141922D01*
X132849189Y-103158790D01*
X132849925Y-103175842D01*
X132851161Y-103191728D01*
X132852836Y-103204918D01*
X132853582Y-103208955D01*
X132862960Y-103242725D01*
X132876495Y-103275105D01*
X132894006Y-103305983D01*
X132915278Y-103335119D01*
X132940071Y-103362258D01*
X132968186Y-103387188D01*
X132999400Y-103409661D01*
X133033455Y-103429419D01*
X133070209Y-103446268D01*
X133092214Y-103454447D01*
X133123838Y-103464016D01*
X133123838Y-103464017D01*
X133155787Y-103471351D01*
X133155787Y-103471350D01*
X133187174Y-103476325D01*
X133217061Y-103478811D01*
X133244555Y-103478689D01*
X133254432Y-103477904D01*
X133284580Y-103472900D01*
X133311506Y-103464581D01*
X133335276Y-103453017D01*
X133355899Y-103438266D01*
X133373389Y-103420355D01*
X133387738Y-103399291D01*
X133398921Y-103375037D01*
X133406869Y-103347579D01*
X133410470Y-103326343D01*
X133412742Y-103291612D01*
X133411066Y-103256424D01*
X133405582Y-103221614D01*
X133396440Y-103188130D01*
X133383724Y-103156662D01*
X133383311Y-103155805D01*
X133373290Y-103136771D01*
X133362374Y-103119486D01*
X133349723Y-103102785D01*
X133334459Y-103085499D01*
X133322100Y-103072786D01*
X133300783Y-103052720D01*
X133280216Y-103036025D01*
X133259074Y-103021719D01*
X133236010Y-103008839D01*
X133227542Y-103004647D01*
X133196486Y-102991285D01*
X133163914Y-102980197D01*
X133130428Y-102971445D01*
X133096811Y-102965157D01*
X133063771Y-102961435D01*
X133032081Y-102960381D01*
X133032081Y-102418509D01*
X133032090Y-102418511D01*
X133032782Y-102418618D01*
X133038730Y-102419530D01*
X133038733Y-102419531D01*
X133039001Y-102419579D01*
X133039004Y-102419579D01*
X133111111Y-102434691D01*
X133111113Y-102434692D01*
X133111393Y-102434759D01*
X133111396Y-102434759D01*
X133180638Y-102453490D01*
X133180641Y-102453491D01*
X133180931Y-102453579D01*
X133180934Y-102453580D01*
X133247320Y-102475933D01*
X133247323Y-102475934D01*
X133247619Y-102476045D01*
X133247622Y-102476046D01*
X133311157Y-102502024D01*
X133311160Y-102502026D01*
X133311460Y-102502160D01*
X133311463Y-102502161D01*
X133372154Y-102531766D01*
X133372157Y-102531768D01*
X133372456Y-102531927D01*
X133372459Y-102531928D01*
X133430312Y-102565165D01*
X133430315Y-102565167D01*
X133430607Y-102565348D01*
X133430610Y-102565350D01*
X133485631Y-102602220D01*
X133485634Y-102602222D01*
X133485916Y-102602426D01*
X133485918Y-102602428D01*
X133538114Y-102642935D01*
X133538117Y-102642937D01*
X133538385Y-102643160D01*
X133538388Y-102643162D01*
X133587765Y-102687309D01*
X133587766Y-102687311D01*
X133587931Y-102687465D01*
X133587933Y-102687467D01*
X133602703Y-102701926D01*
X133602704Y-102701927D01*
X133602851Y-102702077D01*
X133602853Y-102702079D01*
X133647160Y-102749259D01*
X133647162Y-102749261D01*
X133647380Y-102749509D01*
X133647382Y-102749512D01*
X133687307Y-102798086D01*
X133687310Y-102798088D01*
X133687522Y-102798366D01*
X133687524Y-102798369D01*
X133723122Y-102848449D01*
X133723124Y-102848452D01*
X133723325Y-102848758D01*
X133723327Y-102848761D01*
X133754652Y-102900458D01*
X133754653Y-102900461D01*
X133754836Y-102900790D01*
X133754838Y-102900794D01*
X133781945Y-102954220D01*
X133781947Y-102954223D01*
X133782106Y-102954568D01*
X133782107Y-102954572D01*
X133805050Y-103009838D01*
X133805052Y-103009841D01*
X133805183Y-103010195D01*
X133805184Y-103010199D01*
X133824018Y-103067416D01*
X133824019Y-103067419D01*
X133824122Y-103067772D01*
X133824123Y-103067776D01*
X133838902Y-103127056D01*
X133838903Y-103127059D01*
X133838976Y-103127405D01*
X133838976Y-103127409D01*
X133849755Y-103188863D01*
X133849756Y-103188865D01*
X133849791Y-103189095D01*
X133849791Y-103189097D01*
X133852835Y-103212919D01*
X133852835Y-103212922D01*
X133852856Y-103213124D01*
X133852857Y-103213125D01*
X133853890Y-103225049D01*
X133853890Y-103225051D01*
X133853902Y-103225219D01*
X133853902Y-103225221D01*
X133854715Y-103240573D01*
X133854715Y-103240574D01*
X133854719Y-103240673D01*
X133855312Y-103258597D01*
X133855312Y-103258598D01*
X133855314Y-103258668D01*
X133855687Y-103278307D01*
X133855687Y-103278308D01*
X133855688Y-103278366D01*
X133855841Y-103298864D01*
X133855841Y-103298919D01*
X133855774Y-103319421D01*
G37*
G36*
X134579731Y-100403264D02*
G01*
X134579727Y-100403283D01*
X134579442Y-100404221D01*
X134579434Y-100404239D01*
X134578972Y-100405104D01*
X134578961Y-100405120D01*
X134578340Y-100405878D01*
X134578326Y-100405892D01*
X134577568Y-100406513D01*
X134577552Y-100406524D01*
X134576687Y-100406986D01*
X134576669Y-100406994D01*
X134575731Y-100407279D01*
X134575712Y-100407283D01*
X134574719Y-100407379D01*
X134574709Y-100407379D01*
X134247973Y-100406193D01*
X134247963Y-100406192D01*
X134246988Y-100406092D01*
X134246969Y-100406089D01*
X134246032Y-100405801D01*
X134246014Y-100405793D01*
X134245151Y-100405328D01*
X134245134Y-100405317D01*
X134244379Y-100404693D01*
X134244365Y-100404679D01*
X134243746Y-100403919D01*
X134243736Y-100403903D01*
X134243277Y-100403037D01*
X134243269Y-100403019D01*
X134242988Y-100402080D01*
X134242985Y-100402061D01*
X134242892Y-100401153D01*
X134242891Y-100401144D01*
X134241661Y-100277608D01*
X134241661Y-100277598D01*
X134241748Y-100276621D01*
X134241752Y-100276602D01*
X134242027Y-100275662D01*
X134242034Y-100275644D01*
X134242487Y-100274775D01*
X134242498Y-100274758D01*
X134243112Y-100273994D01*
X134243126Y-100273980D01*
X134243878Y-100273351D01*
X134243894Y-100273340D01*
X134244754Y-100272869D01*
X134244772Y-100272862D01*
X134245707Y-100272568D01*
X134245727Y-100272564D01*
X134246751Y-100272458D01*
X134246761Y-100272457D01*
X134574737Y-100272457D01*
X134575712Y-100272553D01*
X134575731Y-100272557D01*
X134576669Y-100272842D01*
X134576687Y-100272850D01*
X134577552Y-100273312D01*
X134577568Y-100273323D01*
X134578326Y-100273944D01*
X134578340Y-100273958D01*
X134578961Y-100274716D01*
X134578972Y-100274732D01*
X134579434Y-100275597D01*
X134579442Y-100275615D01*
X134579727Y-100276553D01*
X134579731Y-100276572D01*
X134579827Y-100277547D01*
X134579827Y-100402289D01*
X134579731Y-100403264D01*
G37*
G36*
X134547016Y-99553533D02*
G01*
X134547016Y-99553537D01*
X134546975Y-99587940D01*
X134546975Y-99587943D01*
X134546932Y-99611198D01*
X134546932Y-99611200D01*
X134546345Y-99885536D01*
X134546344Y-99885546D01*
X134546246Y-99886521D01*
X134546243Y-99886540D01*
X134545956Y-99887477D01*
X134545948Y-99887495D01*
X134545484Y-99888359D01*
X134545473Y-99888376D01*
X134544850Y-99889132D01*
X134544836Y-99889145D01*
X134544077Y-99889765D01*
X134544057Y-99889778D01*
X134542818Y-99890375D01*
X134542806Y-99890380D01*
X133827595Y-100120292D01*
X133771812Y-100138229D01*
X133717176Y-100155807D01*
X133663851Y-100172971D01*
X133611997Y-100189672D01*
X133561780Y-100205855D01*
X133513360Y-100221468D01*
X133466903Y-100236457D01*
X133422569Y-100250771D01*
X133380521Y-100264358D01*
X133380513Y-100264360D01*
X133340932Y-100277159D01*
X133340926Y-100277162D01*
X133303941Y-100289133D01*
X133269732Y-100300217D01*
X133238462Y-100310362D01*
X133210294Y-100319515D01*
X133185390Y-100327624D01*
X133163915Y-100334634D01*
X133146038Y-100340491D01*
X133146031Y-100340494D01*
X133131907Y-100345149D01*
X133127952Y-100346466D01*
X133132933Y-100348096D01*
X133147384Y-100352801D01*
X133147395Y-100352804D01*
X133165609Y-100358716D01*
X133187398Y-100365776D01*
X133187406Y-100365780D01*
X133212590Y-100373928D01*
X133212601Y-100373931D01*
X133241057Y-100383129D01*
X133272597Y-100393316D01*
X133307061Y-100404441D01*
X133344281Y-100416448D01*
X133384098Y-100429287D01*
X133426344Y-100442904D01*
X133470858Y-100457246D01*
X133517473Y-100472260D01*
X133566029Y-100487894D01*
X133616348Y-100504090D01*
X133616359Y-100504093D01*
X133668301Y-100520808D01*
X133721691Y-100537983D01*
X133776364Y-100555566D01*
X133776372Y-100555570D01*
X133827269Y-100571933D01*
X133882986Y-100589850D01*
X133937574Y-100607412D01*
X133937577Y-100607413D01*
X133990873Y-100624570D01*
X134042703Y-100641263D01*
X134042714Y-100641266D01*
X134092933Y-100657450D01*
X134141368Y-100673067D01*
X134141374Y-100673069D01*
X134187854Y-100688066D01*
X134232217Y-100702389D01*
X134232228Y-100702392D01*
X134274322Y-100715993D01*
X134313975Y-100728814D01*
X134313978Y-100728815D01*
X134351025Y-100740805D01*
X134351026Y-100740805D01*
X134385303Y-100751910D01*
X134385306Y-100751911D01*
X134416647Y-100762079D01*
X134416650Y-100762080D01*
X134444893Y-100771255D01*
X134444896Y-100771256D01*
X134469878Y-100779388D01*
X134469881Y-100779389D01*
X134491435Y-100786423D01*
X134491440Y-100786424D01*
X134509403Y-100792308D01*
X134509407Y-100792309D01*
X134509415Y-100792312D01*
X134523619Y-100796990D01*
X134523634Y-100796995D01*
X134533922Y-100800418D01*
X134533955Y-100800429D01*
X134533956Y-100800429D01*
X134540161Y-100802542D01*
X134540163Y-100802543D01*
X134540316Y-100802598D01*
X134540317Y-100802598D01*
X134542276Y-100803337D01*
X134542285Y-100803341D01*
X134543164Y-100803775D01*
X134543181Y-100803786D01*
X134543958Y-100804383D01*
X134543972Y-100804396D01*
X134544617Y-100805134D01*
X134544629Y-100805150D01*
X134545119Y-100805999D01*
X134545127Y-100806017D01*
X134545441Y-100806945D01*
X134545445Y-100806961D01*
X134545552Y-100807610D01*
X134545553Y-100807616D01*
X134545802Y-100810183D01*
X134545802Y-100810187D01*
X134545823Y-100810516D01*
X134545823Y-100810519D01*
X134546043Y-100817675D01*
X134546043Y-100817677D01*
X134546044Y-100817749D01*
X134546236Y-100829460D01*
X134546237Y-100829492D01*
X134546237Y-100829494D01*
X134546401Y-100845735D01*
X134546401Y-100845753D01*
X134546536Y-100866492D01*
X134546536Y-100866504D01*
X134546642Y-100891710D01*
X134546642Y-100891718D01*
X134546720Y-100921363D01*
X134546720Y-100921369D01*
X134546769Y-100955420D01*
X134546769Y-100955424D01*
X134546789Y-100993854D01*
X134546789Y-100993858D01*
X134546781Y-101036634D01*
X134546781Y-101036637D01*
X134546744Y-101083731D01*
X134546744Y-101083733D01*
X134546679Y-101135114D01*
X134546679Y-101135116D01*
X134546585Y-101190754D01*
X134546585Y-101190756D01*
X134546462Y-101250622D01*
X134546462Y-101250624D01*
X134546310Y-101314686D01*
X134546310Y-101314687D01*
X134546130Y-101382917D01*
X134546130Y-101382918D01*
X134545940Y-101448792D01*
X134544036Y-102087191D01*
X134544035Y-102087201D01*
X134543936Y-102088177D01*
X134543933Y-102088196D01*
X134543646Y-102089133D01*
X134543638Y-102089151D01*
X134543173Y-102090014D01*
X134543162Y-102090031D01*
X134542538Y-102090787D01*
X134542524Y-102090800D01*
X134541765Y-102091419D01*
X134541749Y-102091430D01*
X134540883Y-102091890D01*
X134540865Y-102091898D01*
X134539926Y-102092180D01*
X134539906Y-102092184D01*
X134538931Y-102092277D01*
X134538912Y-102092276D01*
X134537936Y-102092177D01*
X134537920Y-102092175D01*
X134537288Y-102092004D01*
X134537282Y-102092002D01*
X134331255Y-102021351D01*
X134125229Y-101950700D01*
X134125219Y-101950696D01*
X134124328Y-101950288D01*
X134124312Y-101950278D01*
X134123517Y-101949705D01*
X134123502Y-101949692D01*
X134122834Y-101948974D01*
X134122822Y-101948959D01*
X134122307Y-101948126D01*
X134122298Y-101948108D01*
X134121955Y-101947189D01*
X134121950Y-101947167D01*
X134121784Y-101945920D01*
X134121783Y-101945908D01*
X134121146Y-101845769D01*
X134120532Y-101749246D01*
X133483178Y-101530183D01*
X133430551Y-101512096D01*
X133379054Y-101494402D01*
X133328873Y-101477163D01*
X133328861Y-101477160D01*
X133280139Y-101460427D01*
X133233061Y-101444263D01*
X133187799Y-101428726D01*
X133144525Y-101413874D01*
X133103420Y-101399772D01*
X133103408Y-101399769D01*
X133064620Y-101386466D01*
X133028333Y-101374025D01*
X132994719Y-101362504D01*
X132963946Y-101351963D01*
X132963940Y-101351960D01*
X132936204Y-101342465D01*
X132936192Y-101342462D01*
X132911620Y-101334056D01*
X132890405Y-101326806D01*
X132872721Y-101320771D01*
X132858738Y-101316010D01*
X132848626Y-101312581D01*
X132847039Y-101312048D01*
X132846974Y-101314058D01*
X132846784Y-101324587D01*
X132846616Y-101338882D01*
X132846473Y-101356564D01*
X132846356Y-101377355D01*
X132846266Y-101400951D01*
X132846204Y-101427047D01*
X132846174Y-101455338D01*
X132846175Y-101485518D01*
X132846209Y-101517292D01*
X132846266Y-101545583D01*
X132846847Y-101783095D01*
X133267967Y-102019262D01*
X133267975Y-102019267D01*
X133268778Y-102019828D01*
X133268793Y-102019841D01*
X133269472Y-102020548D01*
X133269484Y-102020563D01*
X133270012Y-102021389D01*
X133270021Y-102021407D01*
X133270378Y-102022320D01*
X133270384Y-102022342D01*
X133270571Y-102023696D01*
X133270572Y-102023710D01*
X133270572Y-102407126D01*
X133270476Y-102408101D01*
X133270472Y-102408120D01*
X133270187Y-102409058D01*
X133270179Y-102409076D01*
X133269717Y-102409941D01*
X133269706Y-102409957D01*
X133269085Y-102410715D01*
X133269071Y-102410729D01*
X133268313Y-102411350D01*
X133268297Y-102411361D01*
X133267432Y-102411823D01*
X133267414Y-102411831D01*
X133266476Y-102412116D01*
X133266457Y-102412120D01*
X133265482Y-102412216D01*
X133265461Y-102412215D01*
X133264384Y-102412098D01*
X133264373Y-102412097D01*
X133258023Y-102410696D01*
X133258018Y-102410694D01*
X133257455Y-102410534D01*
X133257449Y-102410532D01*
X133254678Y-102409570D01*
X133254581Y-102409536D01*
X133254579Y-102409536D01*
X133247711Y-102406992D01*
X133247710Y-102406991D01*
X133247688Y-102406982D01*
X133247688Y-102406983D01*
X133236938Y-102402940D01*
X133236928Y-102402936D01*
X133236927Y-102402936D01*
X133222507Y-102397474D01*
X133222503Y-102397472D01*
X133222496Y-102397469D01*
X133204622Y-102390670D01*
X133204618Y-102390669D01*
X133183501Y-102382616D01*
X133183498Y-102382615D01*
X133183494Y-102382613D01*
X133159341Y-102373384D01*
X133159339Y-102373383D01*
X133132367Y-102363062D01*
X133132365Y-102363061D01*
X133102787Y-102351728D01*
X133102785Y-102351727D01*
X133070814Y-102339465D01*
X133070813Y-102339465D01*
X133036662Y-102326354D01*
X133036655Y-102326351D01*
X133000542Y-102312476D01*
X133000541Y-102312476D01*
X132962668Y-102297914D01*
X132962666Y-102297913D01*
X132923251Y-102282747D01*
X132923250Y-102282747D01*
X132882505Y-102267059D01*
X132882504Y-102267059D01*
X132840643Y-102250930D01*
X132840636Y-102250927D01*
X132838765Y-102250205D01*
X132426593Y-102091339D01*
X132426584Y-102091335D01*
X132425708Y-102090895D01*
X132425691Y-102090885D01*
X132424918Y-102090282D01*
X132424904Y-102090268D01*
X132424264Y-102089526D01*
X132424253Y-102089510D01*
X132423769Y-102088657D01*
X132423761Y-102088639D01*
X132423454Y-102087709D01*
X132423450Y-102087689D01*
X132423328Y-102086595D01*
X132423327Y-102086584D01*
X132422747Y-101073545D01*
X132422709Y-101005398D01*
X132422675Y-100938426D01*
X132422644Y-100872775D01*
X132422616Y-100808592D01*
X132422591Y-100746026D01*
X132422591Y-100746025D01*
X132422569Y-100685223D01*
X132422551Y-100626333D01*
X132422536Y-100569502D01*
X132422524Y-100514877D01*
X132422524Y-100514876D01*
X132422516Y-100462606D01*
X132422510Y-100412838D01*
X132422508Y-100365720D01*
X132422509Y-100321399D01*
X132422509Y-100321398D01*
X132422513Y-100280022D01*
X132422521Y-100241739D01*
X132422521Y-100241737D01*
X132422532Y-100206693D01*
X132422546Y-100175037D01*
X132422546Y-100175036D01*
X132422563Y-100146916D01*
X132422563Y-100146915D01*
X132422583Y-100122477D01*
X132422583Y-100122475D01*
X132422607Y-100101868D01*
X132422607Y-100101866D01*
X132422634Y-100085237D01*
X132422634Y-100085233D01*
X132422664Y-100072729D01*
X132422664Y-100072720D01*
X132422698Y-100064490D01*
X132422698Y-100064463D01*
X132422734Y-100060654D01*
X132422734Y-100060652D01*
X132422740Y-100060451D01*
X132422740Y-100060449D01*
X132422753Y-100060187D01*
X132422754Y-100060177D01*
X132422898Y-100059208D01*
X132422903Y-100059189D01*
X132423234Y-100058266D01*
X132423242Y-100058249D01*
X132423746Y-100057409D01*
X132423758Y-100057393D01*
X132424417Y-100056667D01*
X132424431Y-100056654D01*
X132425219Y-100056070D01*
X132425237Y-100056059D01*
X132426195Y-100055615D01*
X132426205Y-100055611D01*
X132428404Y-100054863D01*
X132434824Y-100052661D01*
X132445354Y-100049045D01*
X132459854Y-100044061D01*
X132478188Y-100037757D01*
X132478193Y-100037756D01*
X132500222Y-100030179D01*
X132525826Y-100021372D01*
X132554865Y-100011382D01*
X132587206Y-100000254D01*
X132622717Y-99988036D01*
X132661264Y-99974771D01*
X132702713Y-99960507D01*
X132746933Y-99945289D01*
X132793789Y-99929163D01*
X132843148Y-99912174D01*
X132894880Y-99894369D01*
X132948848Y-99875793D01*
X133004922Y-99856492D01*
X133062967Y-99836512D01*
X133122851Y-99815898D01*
X133184440Y-99794696D01*
X133247601Y-99772953D01*
X133312203Y-99750714D01*
X133378110Y-99728024D01*
X133445191Y-99704930D01*
X133482022Y-99692250D01*
X133549689Y-99668957D01*
X133616260Y-99646051D01*
X133616261Y-99646051D01*
X133681603Y-99623576D01*
X133745581Y-99601579D01*
X133745582Y-99601578D01*
X133808064Y-99580104D01*
X133868917Y-99559198D01*
X133868919Y-99559198D01*
X133928008Y-99538906D01*
X133985202Y-99519274D01*
X133985203Y-99519274D01*
X134040368Y-99500348D01*
X134093370Y-99482172D01*
X134093372Y-99482171D01*
X134144079Y-99464792D01*
X134192357Y-99448255D01*
X134192359Y-99448255D01*
X134238071Y-99432606D01*
X134238075Y-99432604D01*
X134281096Y-99417888D01*
X134281097Y-99417888D01*
X134321286Y-99404152D01*
X134321290Y-99404150D01*
X134358520Y-99391437D01*
X134358522Y-99391437D01*
X134392658Y-99379794D01*
X134392660Y-99379793D01*
X134423567Y-99369266D01*
X134423570Y-99369265D01*
X134451116Y-99359900D01*
X134451119Y-99359899D01*
X134475170Y-99351740D01*
X134475174Y-99351739D01*
X134495597Y-99344832D01*
X134495604Y-99344829D01*
X134512266Y-99339221D01*
X134512275Y-99339218D01*
X134512277Y-99339217D01*
X134525045Y-99334953D01*
X134525066Y-99334946D01*
X134533807Y-99332070D01*
X134533809Y-99332070D01*
X134533872Y-99332050D01*
X134538451Y-99330610D01*
X134538454Y-99330609D01*
X134538794Y-99330515D01*
X134538798Y-99330514D01*
X134539494Y-99330348D01*
X134539504Y-99330346D01*
X134540475Y-99330214D01*
X134540494Y-99330213D01*
X134541473Y-99330272D01*
X134541492Y-99330275D01*
X134542440Y-99330524D01*
X134542459Y-99330531D01*
X134543340Y-99330960D01*
X134543356Y-99330970D01*
X134544136Y-99331562D01*
X134544151Y-99331576D01*
X134544801Y-99332310D01*
X134544812Y-99332325D01*
X134545307Y-99333171D01*
X134545316Y-99333189D01*
X134545636Y-99334116D01*
X134545640Y-99334133D01*
X134545756Y-99334850D01*
X134545757Y-99334857D01*
X134545976Y-99337320D01*
X134545976Y-99337323D01*
X134545994Y-99337618D01*
X134545994Y-99337621D01*
X134546195Y-99344416D01*
X134546195Y-99344417D01*
X134546196Y-99344481D01*
X134546378Y-99355322D01*
X134546379Y-99355351D01*
X134546379Y-99355353D01*
X134546541Y-99369955D01*
X134546541Y-99369972D01*
X134546682Y-99388050D01*
X134546682Y-99388061D01*
X134546801Y-99409328D01*
X134546801Y-99409336D01*
X134546896Y-99433507D01*
X134546896Y-99433514D01*
X134546966Y-99460302D01*
X134546966Y-99460307D01*
X134547011Y-99489428D01*
X134547011Y-99489433D01*
X134547028Y-99520600D01*
X134547028Y-99520605D01*
X134547016Y-99553533D01*
G37*
G36*
X132725531Y-98620615D02*
G01*
X132725527Y-98620634D01*
X132725242Y-98621572D01*
X132725234Y-98621590D01*
X132724772Y-98622455D01*
X132724761Y-98622471D01*
X132724140Y-98623229D01*
X132724126Y-98623243D01*
X132723368Y-98623864D01*
X132723352Y-98623875D01*
X132722487Y-98624337D01*
X132722469Y-98624345D01*
X132721531Y-98624630D01*
X132721512Y-98624634D01*
X132720537Y-98624730D01*
X132392626Y-98624730D01*
X132391651Y-98624634D01*
X132391632Y-98624630D01*
X132390694Y-98624345D01*
X132390676Y-98624337D01*
X132389811Y-98623875D01*
X132389795Y-98623864D01*
X132389037Y-98623243D01*
X132389023Y-98623229D01*
X132388402Y-98622471D01*
X132388391Y-98622455D01*
X132387929Y-98621590D01*
X132387921Y-98621572D01*
X132387636Y-98620634D01*
X132387632Y-98620615D01*
X132387536Y-98619640D01*
X132387536Y-98494929D01*
X132387632Y-98493954D01*
X132387636Y-98493935D01*
X132387921Y-98492997D01*
X132387929Y-98492979D01*
X132388391Y-98492114D01*
X132388402Y-98492098D01*
X132389023Y-98491340D01*
X132389037Y-98491326D01*
X132389795Y-98490705D01*
X132389811Y-98490694D01*
X132390676Y-98490232D01*
X132390694Y-98490224D01*
X132391632Y-98489939D01*
X132391651Y-98489935D01*
X132392626Y-98489839D01*
X132720537Y-98489839D01*
X132721512Y-98489935D01*
X132721531Y-98489939D01*
X132722469Y-98490224D01*
X132722487Y-98490232D01*
X132723352Y-98490694D01*
X132723368Y-98490705D01*
X132724126Y-98491326D01*
X132724140Y-98491340D01*
X132724761Y-98492098D01*
X132724772Y-98492114D01*
X132725234Y-98492979D01*
X132725242Y-98492997D01*
X132725527Y-98493935D01*
X132725531Y-98493954D01*
X132725627Y-98494929D01*
X132725627Y-98619640D01*
X132725531Y-98620615D01*
G37*
G36*
X134547404Y-98834926D02*
G01*
X134547400Y-98834945D01*
X134547115Y-98835883D01*
X134547107Y-98835901D01*
X134546645Y-98836766D01*
X134546634Y-98836782D01*
X134546013Y-98837540D01*
X134545999Y-98837554D01*
X134545241Y-98838175D01*
X134545222Y-98838188D01*
X134544072Y-98838759D01*
X134544061Y-98838764D01*
X134534249Y-98842142D01*
X134531451Y-98843107D01*
X134531450Y-98843107D01*
X134524420Y-98845529D01*
X134513295Y-98849363D01*
X134498210Y-98854562D01*
X134479301Y-98861079D01*
X134456702Y-98868867D01*
X134430549Y-98877880D01*
X134400977Y-98888072D01*
X134368122Y-98899395D01*
X134332118Y-98911803D01*
X134293103Y-98925249D01*
X134251209Y-98939687D01*
X134206574Y-98955070D01*
X134159333Y-98971351D01*
X134109620Y-98988484D01*
X134057571Y-99006422D01*
X134003321Y-99025119D01*
X133947007Y-99044527D01*
X133888762Y-99064600D01*
X133828724Y-99085292D01*
X133767025Y-99106556D01*
X133703804Y-99128344D01*
X133639193Y-99150612D01*
X133573330Y-99173311D01*
X133506349Y-99196395D01*
X133480725Y-99205226D01*
X133413410Y-99228425D01*
X133347183Y-99251247D01*
X133282179Y-99273647D01*
X133218532Y-99295578D01*
X133156377Y-99316994D01*
X133095848Y-99337848D01*
X133037079Y-99358095D01*
X132980204Y-99377688D01*
X132925359Y-99396580D01*
X132872676Y-99414726D01*
X132822292Y-99432079D01*
X132774340Y-99448593D01*
X132728954Y-99464222D01*
X132686271Y-99478918D01*
X132686267Y-99478920D01*
X132646417Y-99492639D01*
X132609537Y-99505335D01*
X132575760Y-99516960D01*
X132545221Y-99527468D01*
X132545219Y-99527468D01*
X132518053Y-99536813D01*
X132494394Y-99544949D01*
X132494393Y-99544949D01*
X132474375Y-99551830D01*
X132474373Y-99551831D01*
X132458131Y-99557410D01*
X132458130Y-99557410D01*
X132445799Y-99561641D01*
X132445794Y-99561643D01*
X132437506Y-99564480D01*
X132437503Y-99564481D01*
X132437496Y-99564483D01*
X132433387Y-99565880D01*
X132433327Y-99565900D01*
X132433326Y-99565900D01*
X132432884Y-99566044D01*
X132432875Y-99566047D01*
X132431918Y-99566258D01*
X132431901Y-99566260D01*
X132431260Y-99566295D01*
X132431254Y-99566295D01*
X132430646Y-99566289D01*
X132430636Y-99566288D01*
X132429661Y-99566182D01*
X132429642Y-99566178D01*
X132428707Y-99565884D01*
X132428689Y-99565877D01*
X132427829Y-99565407D01*
X132427814Y-99565397D01*
X132427164Y-99564868D01*
X132427158Y-99564862D01*
X132426615Y-99564339D01*
X132426608Y-99564332D01*
X132425972Y-99563586D01*
X132425959Y-99563567D01*
X132425382Y-99562467D01*
X132425377Y-99562456D01*
X132424896Y-99561173D01*
X132424894Y-99561165D01*
X132424659Y-99560319D01*
X132424657Y-99560310D01*
X132424235Y-99558028D01*
X132424234Y-99558024D01*
X132424178Y-99557631D01*
X132424178Y-99557627D01*
X132423812Y-99554102D01*
X132423811Y-99554100D01*
X132423794Y-99553896D01*
X132423794Y-99553894D01*
X132423481Y-99548886D01*
X132423481Y-99548885D01*
X132423475Y-99548768D01*
X132423475Y-99548767D01*
X132423212Y-99542034D01*
X132423212Y-99542033D01*
X132423210Y-99541963D01*
X132422993Y-99533264D01*
X132422992Y-99533218D01*
X132422992Y-99533217D01*
X132422820Y-99522310D01*
X132422819Y-99522280D01*
X132422819Y-99522278D01*
X132422688Y-99508921D01*
X132422688Y-99508901D01*
X132422594Y-99492854D01*
X132422594Y-99492841D01*
X132422535Y-99473860D01*
X132422535Y-99473850D01*
X132422508Y-99451696D01*
X132422508Y-99451690D01*
X132422510Y-99426121D01*
X132422510Y-99426115D01*
X132422537Y-99396888D01*
X132422537Y-99396885D01*
X132422587Y-99363760D01*
X132422587Y-99363759D01*
X132422656Y-99326494D01*
X132422656Y-99326493D01*
X132422740Y-99285718D01*
X132423327Y-99009164D01*
X132423328Y-99009154D01*
X132423426Y-99008178D01*
X132423429Y-99008159D01*
X132423716Y-99007222D01*
X132423724Y-99007204D01*
X132424187Y-99006341D01*
X132424198Y-99006324D01*
X132424822Y-99005567D01*
X132424836Y-99005554D01*
X132425595Y-99004934D01*
X132425615Y-99004921D01*
X132426857Y-99004323D01*
X132426869Y-99004318D01*
X133139224Y-98775853D01*
X133194932Y-98757983D01*
X133249509Y-98740470D01*
X133302788Y-98723367D01*
X133354609Y-98706726D01*
X133354617Y-98706724D01*
X133404805Y-98690602D01*
X133453214Y-98675045D01*
X133499670Y-98660110D01*
X133544002Y-98645851D01*
X133544008Y-98645848D01*
X133586069Y-98632314D01*
X133625685Y-98619559D01*
X133625693Y-98619557D01*
X133662691Y-98607637D01*
X133696927Y-98596601D01*
X133728215Y-98586506D01*
X133728221Y-98586503D01*
X133756419Y-98577396D01*
X133781342Y-98569336D01*
X133781348Y-98569333D01*
X133802853Y-98562367D01*
X133820762Y-98556551D01*
X133834910Y-98551939D01*
X133839055Y-98550579D01*
X133834488Y-98549039D01*
X133820252Y-98544302D01*
X133802263Y-98538361D01*
X133780688Y-98531269D01*
X133755691Y-98523081D01*
X133727435Y-98513850D01*
X133696085Y-98503627D01*
X133696074Y-98503622D01*
X133661804Y-98492467D01*
X133624753Y-98480423D01*
X133585096Y-98467548D01*
X133585088Y-98467544D01*
X133543011Y-98453898D01*
X133543009Y-98453898D01*
X133542998Y-98453895D01*
X133498616Y-98439515D01*
X133452118Y-98424462D01*
X133403679Y-98408794D01*
X133403677Y-98408794D01*
X133403666Y-98408791D01*
X133353421Y-98392552D01*
X133301548Y-98375799D01*
X133248223Y-98358589D01*
X133248221Y-98358589D01*
X133248210Y-98358586D01*
X133193566Y-98340964D01*
X133140860Y-98323978D01*
X133140852Y-98323974D01*
X132426863Y-98093956D01*
X132426854Y-98093953D01*
X132425955Y-98093563D01*
X132425938Y-98093553D01*
X132425132Y-98092994D01*
X132425117Y-98092981D01*
X132424436Y-98092276D01*
X132424424Y-98092261D01*
X132423894Y-98091437D01*
X132423885Y-98091420D01*
X132423525Y-98090508D01*
X132423519Y-98090485D01*
X132423328Y-98089127D01*
X132423327Y-98089113D01*
X132422740Y-97819956D01*
X132422153Y-97550800D01*
X132422153Y-97550790D01*
X132422247Y-97549814D01*
X132422251Y-97549795D01*
X132422533Y-97548857D01*
X132422541Y-97548839D01*
X132423002Y-97547973D01*
X132423013Y-97547957D01*
X132423633Y-97547198D01*
X132423646Y-97547184D01*
X132424402Y-97546561D01*
X132424419Y-97546550D01*
X132425283Y-97546086D01*
X132425301Y-97546078D01*
X132426238Y-97545791D01*
X132426257Y-97545788D01*
X132427232Y-97545690D01*
X132427252Y-97545689D01*
X132428228Y-97545783D01*
X132428244Y-97545786D01*
X132428910Y-97545965D01*
X132428917Y-97545967D01*
X132444513Y-97551348D01*
X132447690Y-97552442D01*
X132455100Y-97554993D01*
X132466602Y-97558953D01*
X132482061Y-97564274D01*
X132501337Y-97570909D01*
X132524296Y-97578812D01*
X132550799Y-97587934D01*
X132580709Y-97598229D01*
X132613890Y-97609650D01*
X132650205Y-97622149D01*
X132689516Y-97635679D01*
X132731686Y-97650194D01*
X132776579Y-97665646D01*
X132824057Y-97681987D01*
X132873983Y-97699171D01*
X132926221Y-97717150D01*
X132980633Y-97735878D01*
X133037082Y-97755306D01*
X133095432Y-97775389D01*
X133155544Y-97796079D01*
X133217283Y-97817328D01*
X133280511Y-97839089D01*
X133345090Y-97861316D01*
X133410885Y-97883961D01*
X133477758Y-97906977D01*
X133494189Y-97912633D01*
X133561234Y-97935709D01*
X133627204Y-97958418D01*
X133691964Y-97980712D01*
X133755378Y-98002546D01*
X133817311Y-98023872D01*
X133877626Y-98044643D01*
X133936189Y-98064813D01*
X133992863Y-98084335D01*
X134047512Y-98103163D01*
X134100002Y-98121248D01*
X134100006Y-98121250D01*
X134150197Y-98138547D01*
X134197960Y-98155009D01*
X134243156Y-98170589D01*
X134285649Y-98185240D01*
X134285650Y-98185240D01*
X134325304Y-98198916D01*
X134361985Y-98211569D01*
X134395555Y-98223154D01*
X134395559Y-98223156D01*
X134425881Y-98233623D01*
X134452825Y-98242929D01*
X134452827Y-98242929D01*
X134476254Y-98251025D01*
X134476256Y-98251026D01*
X134496030Y-98257867D01*
X134496030Y-98257868D01*
X134496031Y-98257868D01*
X134512017Y-98263405D01*
X134512029Y-98263410D01*
X134524082Y-98267594D01*
X134524083Y-98267594D01*
X134524089Y-98267596D01*
X134532091Y-98270387D01*
X134532092Y-98270387D01*
X134532114Y-98270395D01*
X134535921Y-98271743D01*
X134536022Y-98271780D01*
X134536023Y-98271780D01*
X134536311Y-98271889D01*
X134536313Y-98271890D01*
X134536470Y-98271952D01*
X134536472Y-98271953D01*
X134544366Y-98275251D01*
X134544374Y-98275255D01*
X134545237Y-98275720D01*
X134545254Y-98275731D01*
X134546010Y-98276355D01*
X134546023Y-98276369D01*
X134546643Y-98277129D01*
X134546654Y-98277145D01*
X134547113Y-98278011D01*
X134547121Y-98278029D01*
X134547403Y-98278967D01*
X134547407Y-98278986D01*
X134547500Y-98279947D01*
X134547500Y-98833951D01*
X134547404Y-98834926D01*
G37*
G36*
X134547423Y-97456824D02*
G01*
X134547419Y-97456843D01*
X134547136Y-97457782D01*
X134547128Y-97457800D01*
X134546668Y-97458665D01*
X134546657Y-97458681D01*
X134546036Y-97459440D01*
X134546023Y-97459454D01*
X134545267Y-97460077D01*
X134545250Y-97460088D01*
X134544386Y-97460552D01*
X134544368Y-97460560D01*
X134543431Y-97460846D01*
X134543412Y-97460850D01*
X134542427Y-97460948D01*
X132427262Y-97460948D01*
X132426287Y-97460852D01*
X132426268Y-97460848D01*
X132425330Y-97460563D01*
X132425312Y-97460555D01*
X132424447Y-97460093D01*
X132424431Y-97460082D01*
X132423673Y-97459461D01*
X132423659Y-97459447D01*
X132423038Y-97458689D01*
X132423027Y-97458673D01*
X132422565Y-97457808D01*
X132422557Y-97457790D01*
X132422272Y-97456852D01*
X132422268Y-97456833D01*
X132422172Y-97455858D01*
X132422172Y-96927056D01*
X132422268Y-96926081D01*
X132422272Y-96926062D01*
X132422557Y-96925124D01*
X132422565Y-96925106D01*
X132423027Y-96924241D01*
X132423038Y-96924225D01*
X132423659Y-96923467D01*
X132423673Y-96923453D01*
X132424431Y-96922832D01*
X132424447Y-96922821D01*
X132425312Y-96922359D01*
X132425330Y-96922351D01*
X132426268Y-96922066D01*
X132426287Y-96922062D01*
X132427262Y-96921966D01*
X133126157Y-96921966D01*
X133182648Y-96921962D01*
X133237928Y-96921951D01*
X133291817Y-96921932D01*
X133344143Y-96921906D01*
X133394725Y-96921874D01*
X133443388Y-96921835D01*
X133489951Y-96921790D01*
X133534241Y-96921740D01*
X133576078Y-96921684D01*
X133615286Y-96921623D01*
X133651687Y-96921557D01*
X133685104Y-96921487D01*
X133715359Y-96921412D01*
X133742275Y-96921333D01*
X133765675Y-96921251D01*
X133785380Y-96921166D01*
X133800086Y-96921084D01*
X133789481Y-96916517D01*
X133789476Y-96916515D01*
X133772236Y-96909109D01*
X133751732Y-96900315D01*
X133728158Y-96890216D01*
X133701705Y-96878893D01*
X133701697Y-96878889D01*
X133672577Y-96866433D01*
X133640966Y-96852919D01*
X133607070Y-96838437D01*
X133571084Y-96823067D01*
X133533207Y-96806896D01*
X133493633Y-96790009D01*
X133452558Y-96772486D01*
X133410181Y-96754415D01*
X133371771Y-96738041D01*
X132922882Y-96546706D01*
X132922873Y-96546702D01*
X132922014Y-96546231D01*
X132921998Y-96546220D01*
X132921246Y-96545590D01*
X132921232Y-96545576D01*
X132920618Y-96544812D01*
X132920607Y-96544795D01*
X132920154Y-96543926D01*
X132920147Y-96543908D01*
X132919872Y-96542967D01*
X132919868Y-96542948D01*
X132919782Y-96542038D01*
X132919782Y-96542029D01*
X132918682Y-96177781D01*
X132918682Y-96177772D01*
X132918775Y-96176796D01*
X132918779Y-96176776D01*
X132919061Y-96175838D01*
X132919069Y-96175820D01*
X132919528Y-96174954D01*
X132919539Y-96174938D01*
X132920159Y-96174178D01*
X132920172Y-96174164D01*
X132920928Y-96173540D01*
X132920944Y-96173529D01*
X132921775Y-96173078D01*
X132921784Y-96173074D01*
X133371707Y-95981419D01*
X133798691Y-95799537D01*
X132427268Y-95798395D01*
X132427258Y-95798395D01*
X132426282Y-95798298D01*
X132426263Y-95798294D01*
X132425326Y-95798009D01*
X132425308Y-95798001D01*
X132424444Y-95797538D01*
X132424428Y-95797527D01*
X132423671Y-95796905D01*
X132423657Y-95796891D01*
X132423035Y-95796132D01*
X132423024Y-95796116D01*
X132422563Y-95795252D01*
X132422555Y-95795234D01*
X132422271Y-95794295D01*
X132422267Y-95794276D01*
X132422172Y-95793305D01*
X132422172Y-95292220D01*
X132422268Y-95291245D01*
X132422272Y-95291226D01*
X132422557Y-95290288D01*
X132422565Y-95290270D01*
X132423027Y-95289405D01*
X132423038Y-95289389D01*
X132423659Y-95288631D01*
X132423673Y-95288617D01*
X132424431Y-95287996D01*
X132424447Y-95287985D01*
X132425312Y-95287523D01*
X132425330Y-95287515D01*
X132426268Y-95287230D01*
X132426287Y-95287226D01*
X132427262Y-95287130D01*
X134542410Y-95287130D01*
X134543385Y-95287226D01*
X134543404Y-95287230D01*
X134544342Y-95287515D01*
X134544360Y-95287523D01*
X134545225Y-95287985D01*
X134545241Y-95287996D01*
X134545999Y-95288617D01*
X134546013Y-95288631D01*
X134546634Y-95289389D01*
X134546645Y-95289405D01*
X134547107Y-95290270D01*
X134547115Y-95290288D01*
X134547400Y-95291226D01*
X134547404Y-95291245D01*
X134547500Y-95292220D01*
X134547500Y-95905793D01*
X134547404Y-95906768D01*
X134547400Y-95906787D01*
X134547115Y-95907725D01*
X134547107Y-95907743D01*
X134546645Y-95908608D01*
X134546634Y-95908624D01*
X134546013Y-95909382D01*
X134545999Y-95909396D01*
X134545241Y-95910017D01*
X134545226Y-95910027D01*
X134544496Y-95910431D01*
X134544489Y-95910435D01*
X134031293Y-96140836D01*
X133984985Y-96161628D01*
X133939734Y-96181950D01*
X133895726Y-96201718D01*
X133853143Y-96220849D01*
X133812172Y-96239260D01*
X133772996Y-96256868D01*
X133735802Y-96273589D01*
X133700772Y-96289342D01*
X133668091Y-96304043D01*
X133637943Y-96317609D01*
X133610531Y-96329948D01*
X133610516Y-96329956D01*
X133585989Y-96341004D01*
X133564552Y-96350666D01*
X133546386Y-96358861D01*
X133531679Y-96365504D01*
X133520617Y-96370513D01*
X133513402Y-96373797D01*
X133511892Y-96374495D01*
X133512809Y-96374902D01*
X133512815Y-96374904D01*
X133512819Y-96374906D01*
X133519662Y-96377960D01*
X133519665Y-96377961D01*
X133530352Y-96382739D01*
X133530359Y-96382743D01*
X133544701Y-96389159D01*
X133562524Y-96397136D01*
X133562531Y-96397140D01*
X133583638Y-96406590D01*
X133607858Y-96417436D01*
X133634998Y-96429592D01*
X133664876Y-96442976D01*
X133664877Y-96442976D01*
X133697306Y-96457505D01*
X133732103Y-96473095D01*
X133769082Y-96489665D01*
X133808060Y-96507131D01*
X133848850Y-96525411D01*
X133891269Y-96544422D01*
X133935132Y-96564081D01*
X133980255Y-96584306D01*
X134026452Y-96605014D01*
X134026458Y-96605017D01*
X134030714Y-96606925D01*
X134543332Y-96836716D01*
X134543341Y-96836720D01*
X134544191Y-96837206D01*
X134544207Y-96837218D01*
X134544947Y-96837862D01*
X134544960Y-96837876D01*
X134545560Y-96838651D01*
X134545571Y-96838667D01*
X134546008Y-96839544D01*
X134546015Y-96839563D01*
X134546272Y-96840509D01*
X134546275Y-96840527D01*
X134546345Y-96841351D01*
X134546345Y-96841359D01*
X134546931Y-97148598D01*
X134547517Y-97455838D01*
X134547517Y-97455848D01*
X134547423Y-97456824D01*
G37*
%TD*%
%TO.C,J1*%
G36*
G01*
X127476000Y-107450920D02*
X126526000Y-107450920D01*
G75*
G02*
X126301000Y-107225920I0J225000D01*
G01*
X126301000Y-106775920D01*
G75*
G02*
X126526000Y-106550920I225000J0D01*
G01*
X127476000Y-106550920D01*
G75*
G02*
X127701000Y-106775920I0J-225000D01*
G01*
X127701000Y-107225920D01*
G75*
G02*
X127476000Y-107450920I-225000J0D01*
G01*
G37*
D11*
X127001000Y-105750920D03*
X127001000Y-104500920D03*
%TD*%
D12*
%TO.C,P1*%
X140001000Y-86000920D03*
X138001000Y-86000920D03*
X136001000Y-86000920D03*
X142001000Y-86000920D03*
X144001000Y-86000920D03*
X132001000Y-86000920D03*
X134001000Y-86000920D03*
D13*
X148001000Y-86000920D03*
D12*
X146001000Y-86000920D03*
X130001000Y-86000920D03*
%TD*%
%TO.C,P2*%
X140001000Y-108000920D03*
X138001000Y-108000920D03*
X136001000Y-108000920D03*
X142001000Y-108000920D03*
X144001000Y-108000920D03*
X132001000Y-108000920D03*
X134001000Y-108000920D03*
D13*
X148001000Y-108000920D03*
D12*
X146001000Y-108000920D03*
X130001000Y-108000920D03*
%TD*%
%TO.C,J5*%
G36*
G01*
X127476000Y-92450920D02*
X126526000Y-92450920D01*
G75*
G02*
X126301000Y-92225920I0J225000D01*
G01*
X126301000Y-91775920D01*
G75*
G02*
X126526000Y-91550920I225000J0D01*
G01*
X127476000Y-91550920D01*
G75*
G02*
X127701000Y-91775920I0J-225000D01*
G01*
X127701000Y-92225920D01*
G75*
G02*
X127476000Y-92450920I-225000J0D01*
G01*
G37*
D11*
X127001000Y-90750920D03*
X127001000Y-89500920D03*
X127001000Y-88250920D03*
X127001000Y-87000920D03*
%TD*%
%TO.C,J4*%
G36*
G01*
X150526000Y-88550920D02*
X151476000Y-88550920D01*
G75*
G02*
X151701000Y-88775920I0J-225000D01*
G01*
X151701000Y-89225920D01*
G75*
G02*
X151476000Y-89450920I-225000J0D01*
G01*
X150526000Y-89450920D01*
G75*
G02*
X150301000Y-89225920I0J225000D01*
G01*
X150301000Y-88775920D01*
G75*
G02*
X150526000Y-88550920I225000J0D01*
G01*
G37*
X151001000Y-90250920D03*
%TD*%
%TO.C,J2*%
G36*
G01*
X150526000Y-94550920D02*
X151476000Y-94550920D01*
G75*
G02*
X151701000Y-94775920I0J-225000D01*
G01*
X151701000Y-95225920D01*
G75*
G02*
X151476000Y-95450920I-225000J0D01*
G01*
X150526000Y-95450920D01*
G75*
G02*
X150301000Y-95225920I0J225000D01*
G01*
X150301000Y-94775920D01*
G75*
G02*
X150526000Y-94550920I225000J0D01*
G01*
G37*
X151001000Y-96250920D03*
X151001000Y-97500920D03*
X151001000Y-98750920D03*
%TD*%
%TO.C,J6*%
G36*
G01*
X127476000Y-100450920D02*
X126526000Y-100450920D01*
G75*
G02*
X126301000Y-100225920I0J225000D01*
G01*
X126301000Y-99775920D01*
G75*
G02*
X126526000Y-99550920I225000J0D01*
G01*
X127476000Y-99550920D01*
G75*
G02*
X127701000Y-99775920I0J-225000D01*
G01*
X127701000Y-100225920D01*
G75*
G02*
X127476000Y-100450920I-225000J0D01*
G01*
G37*
X127001000Y-98750920D03*
X127001000Y-97500920D03*
X127001000Y-96250920D03*
%TD*%
%TO.C,J3*%
G36*
G01*
X150526000Y-103050920D02*
X151476000Y-103050920D01*
G75*
G02*
X151701000Y-103275920I0J-225000D01*
G01*
X151701000Y-103725920D01*
G75*
G02*
X151476000Y-103950920I-225000J0D01*
G01*
X150526000Y-103950920D01*
G75*
G02*
X150301000Y-103725920I0J225000D01*
G01*
X150301000Y-103275920D01*
G75*
G02*
X150526000Y-103050920I225000J0D01*
G01*
G37*
X151001000Y-104750920D03*
X151001000Y-106000920D03*
%TD*%
M02*
