%TF.GenerationSoftware,KiCad,Pcbnew,5.1.6-c6e7f7d~86~ubuntu18.04.1*%
%TF.CreationDate,2020-05-19T13:12:04+02:00*%
%TF.ProjectId,cf-deck-carrier,63662d64-6563-46b2-9d63-617272696572,0.1A*%
%TF.SameCoordinates,Original*%
%TF.FileFunction,Copper,L3,Inr*%
%TF.FilePolarity,Positive*%
%FSLAX46Y46*%
G04 Gerber Fmt 4.6, Leading zero omitted, Abs format (unit mm)*
G04 Created by KiCad (PCBNEW 5.1.6-c6e7f7d~86~ubuntu18.04.1) date 2020-05-19 13:12:04*
%MOMM*%
%LPD*%
G01*
G04 APERTURE LIST*
%TA.AperFunction,Profile*%
%ADD10C,0.150000*%
%TD*%
%TA.AperFunction,ViaPad*%
%ADD11O,1.300000X0.800000*%
%TD*%
%TA.AperFunction,ViaPad*%
%ADD12C,1.050000*%
%TD*%
%TA.AperFunction,ViaPad*%
%ADD13R,1.050000X1.050000*%
%TD*%
%TA.AperFunction,ViaPad*%
%ADD14C,0.635000*%
%TD*%
%TA.AperFunction,Conductor*%
%ADD15C,0.304800*%
%TD*%
%TA.AperFunction,Conductor*%
%ADD16C,0.203200*%
%TD*%
G04 APERTURE END LIST*
D10*
X125501000Y-83000920D02*
X122501000Y-86000920D01*
X152501000Y-83000920D02*
X125501000Y-83000920D01*
X155501000Y-86000920D02*
X152501000Y-83000920D01*
X125501000Y-111000920D02*
X122501000Y-108000920D01*
X152501000Y-111000920D02*
X125501000Y-111000920D01*
X155501000Y-108000920D02*
X152501000Y-111000920D01*
X155501000Y-86000920D02*
X155501000Y-108000920D01*
X122501000Y-108000920D02*
X122501000Y-86000920D01*
%TO.N,VUSB*%
%TO.C,J1*%
%TA.AperFunction,ViaPad*%
G36*
G01*
X127451000Y-107400920D02*
X126551000Y-107400920D01*
G75*
G02*
X126351000Y-107200920I0J200000D01*
G01*
X126351000Y-106800920D01*
G75*
G02*
X126551000Y-106600920I200000J0D01*
G01*
X127451000Y-106600920D01*
G75*
G02*
X127651000Y-106800920I0J-200000D01*
G01*
X127651000Y-107200920D01*
G75*
G02*
X127451000Y-107400920I-200000J0D01*
G01*
G37*
%TD.AperFunction*%
D11*
%TO.N,VCOM*%
X127001000Y-105750920D03*
%TO.N,GND*%
X127001000Y-104500920D03*
%TD*%
D12*
%TO.N,/SCL*%
%TO.C,P1*%
X140001000Y-86000920D03*
%TO.N,/IO1*%
X138001000Y-86000920D03*
%TO.N,/IO2*%
X136001000Y-86000920D03*
%TO.N,/SDA*%
X142001000Y-86000920D03*
%TO.N,/TX1*%
X144001000Y-86000920D03*
%TO.N,/IO4*%
X132001000Y-86000920D03*
%TO.N,/IO3*%
X134001000Y-86000920D03*
D13*
%TO.N,VCC*%
X148001000Y-86000920D03*
D12*
%TO.N,/RX1*%
X146001000Y-86000920D03*
%TO.N,GND*%
X130001000Y-86000920D03*
%TD*%
%TO.N,/MOSI*%
%TO.C,P2*%
X140001000Y-108000920D03*
%TO.N,Net-(P2-Pad6)*%
X138001000Y-108000920D03*
%TO.N,Net-(P2-Pad7)*%
X136001000Y-108000920D03*
%TO.N,/MISO*%
X142001000Y-108000920D03*
%TO.N,/SCK*%
X144001000Y-108000920D03*
%TO.N,VCOM*%
X132001000Y-108000920D03*
%TO.N,/OW*%
X134001000Y-108000920D03*
D13*
%TO.N,/TX2*%
X148001000Y-108000920D03*
D12*
%TO.N,/RX2*%
X146001000Y-108000920D03*
%TO.N,VUSB*%
X130001000Y-108000920D03*
%TD*%
%TO.N,/OW*%
%TO.C,J5*%
%TA.AperFunction,ViaPad*%
G36*
G01*
X127451000Y-92400920D02*
X126551000Y-92400920D01*
G75*
G02*
X126351000Y-92200920I0J200000D01*
G01*
X126351000Y-91800920D01*
G75*
G02*
X126551000Y-91600920I200000J0D01*
G01*
X127451000Y-91600920D01*
G75*
G02*
X127651000Y-91800920I0J-200000D01*
G01*
X127651000Y-92200920D01*
G75*
G02*
X127451000Y-92400920I-200000J0D01*
G01*
G37*
%TD.AperFunction*%
D11*
%TO.N,/IO1*%
X127001000Y-90750920D03*
%TO.N,/IO2*%
X127001000Y-89500920D03*
%TO.N,/IO3*%
X127001000Y-88250920D03*
%TO.N,/IO4*%
X127001000Y-87000920D03*
%TD*%
%TO.N,/SCL*%
%TO.C,J4*%
%TA.AperFunction,ViaPad*%
G36*
G01*
X150551000Y-88600920D02*
X151451000Y-88600920D01*
G75*
G02*
X151651000Y-88800920I0J-200000D01*
G01*
X151651000Y-89200920D01*
G75*
G02*
X151451000Y-89400920I-200000J0D01*
G01*
X150551000Y-89400920D01*
G75*
G02*
X150351000Y-89200920I0J200000D01*
G01*
X150351000Y-88800920D01*
G75*
G02*
X150551000Y-88600920I200000J0D01*
G01*
G37*
%TD.AperFunction*%
%TO.N,/SDA*%
X151001000Y-90250920D03*
%TD*%
%TO.N,/RX1*%
%TO.C,J2*%
%TA.AperFunction,ViaPad*%
G36*
G01*
X150551000Y-94600920D02*
X151451000Y-94600920D01*
G75*
G02*
X151651000Y-94800920I0J-200000D01*
G01*
X151651000Y-95200920D01*
G75*
G02*
X151451000Y-95400920I-200000J0D01*
G01*
X150551000Y-95400920D01*
G75*
G02*
X150351000Y-95200920I0J200000D01*
G01*
X150351000Y-94800920D01*
G75*
G02*
X150551000Y-94600920I200000J0D01*
G01*
G37*
%TD.AperFunction*%
%TO.N,/TX1*%
X151001000Y-96250920D03*
%TO.N,/RX2*%
X151001000Y-97500920D03*
%TO.N,/TX2*%
X151001000Y-98750920D03*
%TD*%
%TO.N,GND*%
%TO.C,J6*%
%TA.AperFunction,ViaPad*%
G36*
G01*
X127451000Y-100400920D02*
X126551000Y-100400920D01*
G75*
G02*
X126351000Y-100200920I0J200000D01*
G01*
X126351000Y-99800920D01*
G75*
G02*
X126551000Y-99600920I200000J0D01*
G01*
X127451000Y-99600920D01*
G75*
G02*
X127651000Y-99800920I0J-200000D01*
G01*
X127651000Y-100200920D01*
G75*
G02*
X127451000Y-100400920I-200000J0D01*
G01*
G37*
%TD.AperFunction*%
%TO.N,VCOM*%
X127001000Y-98750920D03*
%TO.N,/TX_AUX*%
X127001000Y-97500920D03*
%TO.N,/RX_AUX*%
X127001000Y-96250920D03*
%TD*%
%TO.N,/MOSI*%
%TO.C,J3*%
%TA.AperFunction,ViaPad*%
G36*
G01*
X150551000Y-103100920D02*
X151451000Y-103100920D01*
G75*
G02*
X151651000Y-103300920I0J-200000D01*
G01*
X151651000Y-103700920D01*
G75*
G02*
X151451000Y-103900920I-200000J0D01*
G01*
X150551000Y-103900920D01*
G75*
G02*
X150351000Y-103700920I0J200000D01*
G01*
X150351000Y-103300920D01*
G75*
G02*
X150551000Y-103100920I200000J0D01*
G01*
G37*
%TD.AperFunction*%
%TO.N,/MISO*%
X151001000Y-104750920D03*
%TO.N,/SCK*%
X151001000Y-106000920D03*
%TD*%
D14*
%TO.N,GND*%
X148001000Y-99000920D03*
X131501000Y-92000920D03*
%TO.N,VCC*%
X139501000Y-95000920D03*
X130001000Y-95000920D03*
X130001000Y-103000920D03*
X148001000Y-103000920D03*
%TO.N,/SDA*%
X133501000Y-94000920D03*
X140501000Y-90504459D03*
%TO.N,/OW*%
X147001000Y-103500920D03*
%TO.N,/RX_AUX*%
X144929490Y-91486694D03*
%TO.N,/TX_AUX*%
X145501000Y-97000920D03*
%TD*%
D15*
%TO.N,VCOM*%
X128501000Y-105000920D02*
X127751000Y-105750920D01*
X128501000Y-99500920D02*
X128501000Y-105000920D01*
X127751000Y-105750920D02*
X127001000Y-105750920D01*
X127001000Y-98750920D02*
X127751000Y-98750920D01*
X127751000Y-98750920D02*
X128501000Y-99500920D01*
D16*
%TO.N,/RX2*%
X146001000Y-106998012D02*
X149645390Y-103353622D01*
X146001000Y-108000920D02*
X146001000Y-106998012D01*
X149645390Y-103353622D02*
X149645390Y-98356530D01*
X149645390Y-98356530D02*
X150501000Y-97500920D01*
X150501000Y-97500920D02*
X151001000Y-97500920D01*
%TO.N,/TX2*%
X150001000Y-103500920D02*
X150001000Y-99750920D01*
X148001000Y-108000920D02*
X148001000Y-105500920D01*
X150001000Y-99750920D02*
X151001000Y-98750920D01*
X148001000Y-105500920D02*
X150001000Y-103500920D01*
%TO.N,/RX1*%
X146001000Y-91500920D02*
X146001000Y-86000920D01*
X151001000Y-95000920D02*
X149501000Y-95000920D01*
X149501000Y-95000920D02*
X146001000Y-91500920D01*
%TO.N,/TX1*%
X144001000Y-86743382D02*
X144001000Y-86000920D01*
X144001000Y-87328008D02*
X144001000Y-86743382D01*
X145501000Y-91655098D02*
X145501000Y-88828008D01*
X145501000Y-88828008D02*
X144001000Y-87328008D01*
X151001000Y-96250920D02*
X150096822Y-96250920D01*
X150096822Y-96250920D02*
X145501000Y-91655098D01*
%TO.N,/SCK*%
X145001000Y-109000920D02*
X144001000Y-108000920D01*
X149501000Y-109000920D02*
X145001000Y-109000920D01*
X151001000Y-106000920D02*
X151001000Y-107500920D01*
X151001000Y-107500920D02*
X149501000Y-109000920D01*
%TO.N,/SDA*%
X136997461Y-90504459D02*
X140501000Y-90504459D01*
X133501000Y-94000920D02*
X136997461Y-90504459D01*
%TO.N,/OW*%
X133001000Y-109000920D02*
X134001000Y-108000920D01*
X126501000Y-109000920D02*
X133001000Y-109000920D01*
X125501000Y-108000920D02*
X126501000Y-109000920D01*
X127001000Y-92000920D02*
X125501000Y-93500920D01*
X125501000Y-93500920D02*
X125501000Y-108000920D01*
X134001000Y-108000920D02*
X138501000Y-103500920D01*
X138501000Y-103500920D02*
X147001000Y-103500920D01*
%TO.N,/IO4*%
X131001000Y-87000920D02*
X132001000Y-86000920D01*
X127001000Y-87000920D02*
X131001000Y-87000920D01*
%TO.N,/IO3*%
X131751000Y-88250920D02*
X134001000Y-86000920D01*
X127001000Y-88250920D02*
X131751000Y-88250920D01*
%TO.N,/IO2*%
X132501000Y-89500920D02*
X136001000Y-86000920D01*
X127001000Y-89500920D02*
X132501000Y-89500920D01*
%TO.N,/IO1*%
X127350986Y-90400934D02*
X133600986Y-90400934D01*
X127001000Y-90750920D02*
X127350986Y-90400934D01*
X133600986Y-90400934D02*
X137476001Y-86525919D01*
X137476001Y-86525919D02*
X138001000Y-86000920D01*
%TO.N,/RX_AUX*%
X139415264Y-97000920D02*
X144929490Y-91486694D01*
X127001000Y-96250920D02*
X127751000Y-97000920D01*
X127751000Y-97000920D02*
X139415264Y-97000920D01*
%TO.N,/TX_AUX*%
X127001000Y-97500920D02*
X145001000Y-97500920D01*
X145001000Y-97500920D02*
X145501000Y-97000920D01*
%TD*%
M02*
