%TF.GenerationSoftware,KiCad,Pcbnew,5.1.6-c6e7f7d~86~ubuntu18.04.1*%
%TF.CreationDate,2020-05-19T14:30:42+02:00*%
%TF.ProjectId,cf-deck-carrier,63662d64-6563-46b2-9d63-617272696572,0.1A*%
%TF.SameCoordinates,Original*%
%TF.FileFunction,Legend,Bot*%
%TF.FilePolarity,Positive*%
%FSLAX46Y46*%
G04 Gerber Fmt 4.6, Leading zero omitted, Abs format (unit mm)*
G04 Created by KiCad (PCBNEW 5.1.6-c6e7f7d~86~ubuntu18.04.1) date 2020-05-19 14:30:42*
%MOMM*%
%LPD*%
G01*
G04 APERTURE LIST*
%ADD10C,0.600000*%
%ADD11C,0.150000*%
%ADD12C,0.120000*%
%ADD13C,0.200000*%
%ADD14C,0.100000*%
%ADD15R,1.400000X1.400000*%
%ADD16O,1.400000X0.900000*%
%ADD17C,0.950000*%
%ADD18R,1.100000X1.700000*%
%ADD19R,0.750000X1.160000*%
G04 APERTURE END LIST*
D10*
X132001000Y-100250920D02*
X132001000Y-101750920D01*
D11*
X146491476Y-93134253D02*
X146110523Y-93134253D01*
X146567666Y-93362824D02*
X146301000Y-92562824D01*
X146034333Y-93362824D01*
X145767666Y-92562824D02*
X145767666Y-93210443D01*
X145729571Y-93286634D01*
X145691476Y-93324729D01*
X145615285Y-93362824D01*
X145462904Y-93362824D01*
X145386714Y-93324729D01*
X145348619Y-93286634D01*
X145310523Y-93210443D01*
X145310523Y-92562824D01*
X145005761Y-92562824D02*
X144472428Y-93362824D01*
X144472428Y-92562824D02*
X145005761Y-93362824D01*
X143522428Y-92112824D02*
X143979571Y-92112824D01*
X143751000Y-92112824D02*
X143751000Y-91312824D01*
X143827190Y-91427110D01*
X143903380Y-91503300D01*
X143979571Y-91541396D01*
X147479571Y-91389015D02*
X147441476Y-91350920D01*
X147365285Y-91312824D01*
X147174809Y-91312824D01*
X147098619Y-91350920D01*
X147060523Y-91389015D01*
X147022428Y-91465205D01*
X147022428Y-91541396D01*
X147060523Y-91655681D01*
X147517666Y-92112824D01*
X147022428Y-92112824D01*
X145634333Y-92112824D02*
X145901000Y-91731872D01*
X146091476Y-92112824D02*
X146091476Y-91312824D01*
X145786714Y-91312824D01*
X145710523Y-91350920D01*
X145672428Y-91389015D01*
X145634333Y-91465205D01*
X145634333Y-91579491D01*
X145672428Y-91655681D01*
X145710523Y-91693777D01*
X145786714Y-91731872D01*
X146091476Y-91731872D01*
X145367666Y-91312824D02*
X144834333Y-92112824D01*
X144834333Y-91312824D02*
X145367666Y-92112824D01*
X143522428Y-94612824D02*
X143979571Y-94612824D01*
X143751000Y-94612824D02*
X143751000Y-93812824D01*
X143827190Y-93927110D01*
X143903380Y-94003300D01*
X143979571Y-94041396D01*
X147479571Y-93889015D02*
X147441476Y-93850920D01*
X147365285Y-93812824D01*
X147174809Y-93812824D01*
X147098619Y-93850920D01*
X147060523Y-93889015D01*
X147022428Y-93965205D01*
X147022428Y-94041396D01*
X147060523Y-94155681D01*
X147517666Y-94612824D01*
X147022428Y-94612824D01*
X146110523Y-93812824D02*
X145653380Y-93812824D01*
X145881952Y-94612824D02*
X145881952Y-93812824D01*
X145462904Y-93812824D02*
X144929571Y-94612824D01*
X144929571Y-93812824D02*
X145462904Y-94612824D01*
D12*
%TO.C,SW1*%
X142751000Y-91050920D02*
X142751000Y-94950920D01*
X142801000Y-91050920D02*
X148201000Y-91050920D01*
X148201000Y-94950920D02*
X148201000Y-91050920D01*
X142801000Y-94950920D02*
X148201000Y-94950920D01*
%TO.C,J1*%
X122441000Y-102890920D02*
X122441000Y-105750920D01*
X128161000Y-102890920D02*
X122441000Y-102890920D01*
X128161000Y-103960920D02*
X128161000Y-102890920D01*
X127861000Y-103960920D02*
X128161000Y-103960920D01*
X127861000Y-105750920D02*
X127861000Y-103960920D01*
X122441000Y-108610920D02*
X122441000Y-105750920D01*
X128161000Y-108610920D02*
X122441000Y-108610920D01*
X128161000Y-107540920D02*
X128161000Y-108610920D01*
X127861000Y-107540920D02*
X128161000Y-107540920D01*
X127861000Y-105750920D02*
X127861000Y-107540920D01*
X128451000Y-107250920D02*
X128451000Y-107750920D01*
X128151000Y-107250920D02*
X128451000Y-107250920D01*
%TO.C,U2*%
X131441000Y-93000920D02*
X131441000Y-89550920D01*
X131441000Y-93000920D02*
X131441000Y-94950920D01*
X136561000Y-93000920D02*
X136561000Y-91050920D01*
X136561000Y-93000920D02*
X136561000Y-94950920D01*
D13*
%TO.C,P1*%
X149301000Y-87200920D02*
X146901000Y-87200920D01*
X149301000Y-84800920D02*
X149301000Y-87200920D01*
X149301000Y-84800920D02*
X148901000Y-84800920D01*
X147101000Y-84800920D02*
X144901000Y-84800920D01*
X145101000Y-87200920D02*
X142701000Y-87200920D01*
X143101000Y-84800920D02*
X140901000Y-84800920D01*
X140901000Y-87200920D02*
X138901000Y-87200920D01*
X137101000Y-87200920D02*
X134901000Y-87200920D01*
X133101000Y-87200920D02*
X130901000Y-87200920D01*
X139101000Y-84800920D02*
X136901000Y-84800920D01*
X135101000Y-84800920D02*
X132901000Y-84800920D01*
X128701000Y-87200920D02*
X129101000Y-87200920D01*
X128701000Y-84800920D02*
X128701000Y-87200920D01*
X131101000Y-84800920D02*
X128701000Y-84800920D01*
%TO.C,P2*%
X149301000Y-109200920D02*
X146901000Y-109200920D01*
X149301000Y-106800920D02*
X149301000Y-109200920D01*
X149301000Y-106800920D02*
X148901000Y-106800920D01*
X147101000Y-106800920D02*
X144901000Y-106800920D01*
X145101000Y-109200920D02*
X142701000Y-109200920D01*
X143101000Y-106800920D02*
X140901000Y-106800920D01*
X140901000Y-109200920D02*
X138901000Y-109200920D01*
X137101000Y-109200920D02*
X134901000Y-109200920D01*
X133101000Y-109200920D02*
X130901000Y-109200920D01*
X139101000Y-106800920D02*
X136901000Y-106800920D01*
X135101000Y-106800920D02*
X132901000Y-106800920D01*
X128701000Y-109200920D02*
X129101000Y-109200920D01*
X128701000Y-106800920D02*
X128701000Y-109200920D01*
X131101000Y-106800920D02*
X128701000Y-106800920D01*
D12*
%TO.C,J5*%
X122441000Y-85390920D02*
X122441000Y-89500920D01*
X128161000Y-85390920D02*
X122441000Y-85390920D01*
X128161000Y-86460920D02*
X128161000Y-85390920D01*
X127861000Y-86460920D02*
X128161000Y-86460920D01*
X127861000Y-89500920D02*
X127861000Y-86460920D01*
X122441000Y-93610920D02*
X122441000Y-89500920D01*
X128161000Y-93610920D02*
X122441000Y-93610920D01*
X128161000Y-92540920D02*
X128161000Y-93610920D01*
X127861000Y-92540920D02*
X128161000Y-92540920D01*
X127861000Y-89500920D02*
X127861000Y-92540920D01*
X128451000Y-92250920D02*
X128451000Y-92750920D01*
X128151000Y-92250920D02*
X128451000Y-92250920D01*
%TO.C,J4*%
X155561000Y-91860920D02*
X155561000Y-89625920D01*
X149841000Y-91860920D02*
X155561000Y-91860920D01*
X149841000Y-90790920D02*
X149841000Y-91860920D01*
X150141000Y-90790920D02*
X149841000Y-90790920D01*
X150141000Y-89625920D02*
X150141000Y-90790920D01*
X155561000Y-87390920D02*
X155561000Y-89625920D01*
X149841000Y-87390920D02*
X155561000Y-87390920D01*
X149841000Y-88460920D02*
X149841000Y-87390920D01*
X150141000Y-88460920D02*
X149841000Y-88460920D01*
X150141000Y-89625920D02*
X150141000Y-88460920D01*
X149551000Y-88750920D02*
X149551000Y-88250920D01*
X149851000Y-88750920D02*
X149551000Y-88750920D01*
%TO.C,J2*%
X155561000Y-100360920D02*
X155561000Y-96875920D01*
X149841000Y-100360920D02*
X155561000Y-100360920D01*
X149841000Y-99290920D02*
X149841000Y-100360920D01*
X150141000Y-99290920D02*
X149841000Y-99290920D01*
X150141000Y-96875920D02*
X150141000Y-99290920D01*
X155561000Y-93390920D02*
X155561000Y-96875920D01*
X149841000Y-93390920D02*
X155561000Y-93390920D01*
X149841000Y-94460920D02*
X149841000Y-93390920D01*
X150141000Y-94460920D02*
X149841000Y-94460920D01*
X150141000Y-96875920D02*
X150141000Y-94460920D01*
X149551000Y-94750920D02*
X149551000Y-94250920D01*
X149851000Y-94750920D02*
X149551000Y-94750920D01*
%TO.C,J6*%
X122441000Y-94640920D02*
X122441000Y-98125920D01*
X128161000Y-94640920D02*
X122441000Y-94640920D01*
X128161000Y-95710920D02*
X128161000Y-94640920D01*
X127861000Y-95710920D02*
X128161000Y-95710920D01*
X127861000Y-98125920D02*
X127861000Y-95710920D01*
X122441000Y-101610920D02*
X122441000Y-98125920D01*
X128161000Y-101610920D02*
X122441000Y-101610920D01*
X128161000Y-100540920D02*
X128161000Y-101610920D01*
X127861000Y-100540920D02*
X128161000Y-100540920D01*
X127861000Y-98125920D02*
X127861000Y-100540920D01*
X128451000Y-100250920D02*
X128451000Y-100750920D01*
X128151000Y-100250920D02*
X128451000Y-100250920D01*
%TO.C,J3*%
X155561000Y-107610920D02*
X155561000Y-104750920D01*
X149841000Y-107610920D02*
X155561000Y-107610920D01*
X149841000Y-106540920D02*
X149841000Y-107610920D01*
X150141000Y-106540920D02*
X149841000Y-106540920D01*
X150141000Y-104750920D02*
X150141000Y-106540920D01*
X155561000Y-101890920D02*
X155561000Y-104750920D01*
X149841000Y-101890920D02*
X155561000Y-101890920D01*
X149841000Y-102960920D02*
X149841000Y-101890920D01*
X150141000Y-102960920D02*
X149841000Y-102960920D01*
X150141000Y-104750920D02*
X150141000Y-102960920D01*
X149551000Y-103250920D02*
X149551000Y-102750920D01*
X149851000Y-103250920D02*
X149551000Y-103250920D01*
%TO.C,U3*%
X141691000Y-101000920D02*
X141691000Y-97550920D01*
X141691000Y-101000920D02*
X141691000Y-102950920D01*
X146811000Y-101000920D02*
X146811000Y-99050920D01*
X146811000Y-101000920D02*
X146811000Y-102950920D01*
%TO.C,U1*%
X131391000Y-101900920D02*
X131391000Y-99450920D01*
X134611000Y-100100920D02*
X134611000Y-101900920D01*
%TO.C,R3*%
X139541000Y-101262172D02*
X139541000Y-100739668D01*
X140961000Y-101262172D02*
X140961000Y-100739668D01*
%TO.C,R2*%
X137791000Y-93262172D02*
X137791000Y-92739668D01*
X139211000Y-93262172D02*
X139211000Y-92739668D01*
%TO.C,R1*%
X139791000Y-93262172D02*
X139791000Y-92739668D01*
X141211000Y-93262172D02*
X141211000Y-92739668D01*
%TO.C,C5*%
X147291000Y-101262172D02*
X147291000Y-100739668D01*
X148711000Y-101262172D02*
X148711000Y-100739668D01*
%TO.C,C4*%
X129291000Y-93262172D02*
X129291000Y-92739668D01*
X130711000Y-93262172D02*
X130711000Y-92739668D01*
%TO.C,C3*%
X129291000Y-101262172D02*
X129291000Y-100739668D01*
X130711000Y-101262172D02*
X130711000Y-100739668D01*
%TO.C,C2*%
X135291000Y-101262172D02*
X135291000Y-100739668D01*
X136711000Y-101262172D02*
X136711000Y-100739668D01*
%TO.C,C1*%
X137291000Y-101262172D02*
X137291000Y-100739668D01*
X138711000Y-101262172D02*
X138711000Y-100739668D01*
D11*
%TO.C,EXP_ORIENTATION*%
X141801000Y-96000920D02*
X141401000Y-96350920D01*
X141801000Y-96000920D02*
X141401000Y-95650920D01*
X140701000Y-96000920D02*
X141801000Y-96000920D01*
X140701446Y-96000920D02*
G75*
G03*
X140701446Y-96000920I-700446J0D01*
G01*
X140001000Y-96000920D02*
X139526000Y-95525920D01*
X140001000Y-96000920D02*
X140476000Y-95525920D01*
X140001000Y-96000920D02*
X140476000Y-96475920D01*
X140001000Y-96000920D02*
X139526000Y-96475920D01*
%TO.C,SW1*%
X149405761Y-91667586D02*
X149453380Y-91810443D01*
X149453380Y-92048539D01*
X149405761Y-92143777D01*
X149358142Y-92191396D01*
X149262904Y-92239015D01*
X149167666Y-92239015D01*
X149072428Y-92191396D01*
X149024809Y-92143777D01*
X148977190Y-92048539D01*
X148929571Y-91858062D01*
X148881952Y-91762824D01*
X148834333Y-91715205D01*
X148739095Y-91667586D01*
X148643857Y-91667586D01*
X148548619Y-91715205D01*
X148501000Y-91762824D01*
X148453380Y-91858062D01*
X148453380Y-92096158D01*
X148501000Y-92239015D01*
X148453380Y-92572348D02*
X149453380Y-92810443D01*
X148739095Y-93000920D01*
X149453380Y-93191396D01*
X148453380Y-93429491D01*
X149453380Y-94334253D02*
X149453380Y-93762824D01*
X149453380Y-94048539D02*
X148453380Y-94048539D01*
X148596238Y-93953300D01*
X148691476Y-93858062D01*
X148739095Y-93762824D01*
%TO.C,J1*%
X128453380Y-105667586D02*
X129167666Y-105667586D01*
X129310523Y-105619967D01*
X129405761Y-105524729D01*
X129453380Y-105381872D01*
X129453380Y-105286634D01*
X129453380Y-106667586D02*
X129453380Y-106096158D01*
X129453380Y-106381872D02*
X128453380Y-106381872D01*
X128596238Y-106286634D01*
X128691476Y-106191396D01*
X128739095Y-106096158D01*
%TO.C,U2*%
X130053380Y-88739015D02*
X130862904Y-88739015D01*
X130958142Y-88786634D01*
X131005761Y-88834253D01*
X131053380Y-88929491D01*
X131053380Y-89119967D01*
X131005761Y-89215205D01*
X130958142Y-89262824D01*
X130862904Y-89310443D01*
X130053380Y-89310443D01*
X130148619Y-89739015D02*
X130101000Y-89786634D01*
X130053380Y-89881872D01*
X130053380Y-90119967D01*
X130101000Y-90215205D01*
X130148619Y-90262824D01*
X130243857Y-90310443D01*
X130339095Y-90310443D01*
X130481952Y-90262824D01*
X131053380Y-89691396D01*
X131053380Y-90310443D01*
%TO.C,P1*%
D14*
X146370047Y-84227110D02*
X146370047Y-83727110D01*
X146179571Y-83727110D01*
X146131952Y-83750920D01*
X146108142Y-83774729D01*
X146084333Y-83822348D01*
X146084333Y-83893777D01*
X146108142Y-83941396D01*
X146131952Y-83965205D01*
X146179571Y-83989015D01*
X146370047Y-83989015D01*
X145608142Y-84227110D02*
X145893857Y-84227110D01*
X145751000Y-84227110D02*
X145751000Y-83727110D01*
X145798619Y-83798539D01*
X145846238Y-83846158D01*
X145893857Y-83869967D01*
D13*
X147772428Y-88362824D02*
X148229571Y-88362824D01*
X148001000Y-88362824D02*
X148001000Y-87562824D01*
X148077190Y-87677110D01*
X148153380Y-87753300D01*
X148229571Y-87791396D01*
X130153380Y-84462824D02*
X130610523Y-84462824D01*
X130381952Y-84462824D02*
X130381952Y-83662824D01*
X130458142Y-83777110D01*
X130534333Y-83853300D01*
X130610523Y-83891396D01*
X129658142Y-83662824D02*
X129581952Y-83662824D01*
X129505761Y-83700920D01*
X129467666Y-83739015D01*
X129429571Y-83815205D01*
X129391476Y-83967586D01*
X129391476Y-84158062D01*
X129429571Y-84310443D01*
X129467666Y-84386634D01*
X129505761Y-84424729D01*
X129581952Y-84462824D01*
X129658142Y-84462824D01*
X129734333Y-84424729D01*
X129772428Y-84386634D01*
X129810523Y-84310443D01*
X129848619Y-84158062D01*
X129848619Y-83967586D01*
X129810523Y-83815205D01*
X129772428Y-83739015D01*
X129734333Y-83700920D01*
X129658142Y-83662824D01*
%TO.C,P2*%
D14*
X146370047Y-106227110D02*
X146370047Y-105727110D01*
X146179571Y-105727110D01*
X146131952Y-105750920D01*
X146108142Y-105774729D01*
X146084333Y-105822348D01*
X146084333Y-105893777D01*
X146108142Y-105941396D01*
X146131952Y-105965205D01*
X146179571Y-105989015D01*
X146370047Y-105989015D01*
X145893857Y-105774729D02*
X145870047Y-105750920D01*
X145822428Y-105727110D01*
X145703380Y-105727110D01*
X145655761Y-105750920D01*
X145631952Y-105774729D01*
X145608142Y-105822348D01*
X145608142Y-105869967D01*
X145631952Y-105941396D01*
X145917666Y-106227110D01*
X145608142Y-106227110D01*
D13*
X147772428Y-110362824D02*
X148229571Y-110362824D01*
X148001000Y-110362824D02*
X148001000Y-109562824D01*
X148077190Y-109677110D01*
X148153380Y-109753300D01*
X148229571Y-109791396D01*
X128653380Y-110362824D02*
X129110523Y-110362824D01*
X128881952Y-110362824D02*
X128881952Y-109562824D01*
X128958142Y-109677110D01*
X129034333Y-109753300D01*
X129110523Y-109791396D01*
X128158142Y-109562824D02*
X128081952Y-109562824D01*
X128005761Y-109600920D01*
X127967666Y-109639015D01*
X127929571Y-109715205D01*
X127891476Y-109867586D01*
X127891476Y-110058062D01*
X127929571Y-110210443D01*
X127967666Y-110286634D01*
X128005761Y-110324729D01*
X128081952Y-110362824D01*
X128158142Y-110362824D01*
X128234333Y-110324729D01*
X128272428Y-110286634D01*
X128310523Y-110210443D01*
X128348619Y-110058062D01*
X128348619Y-109867586D01*
X128310523Y-109715205D01*
X128272428Y-109639015D01*
X128234333Y-109600920D01*
X128158142Y-109562824D01*
%TO.C,J5*%
D11*
X128403380Y-89167586D02*
X129117666Y-89167586D01*
X129260523Y-89119967D01*
X129355761Y-89024729D01*
X129403380Y-88881872D01*
X129403380Y-88786634D01*
X128403380Y-90119967D02*
X128403380Y-89643777D01*
X128879571Y-89596158D01*
X128831952Y-89643777D01*
X128784333Y-89739015D01*
X128784333Y-89977110D01*
X128831952Y-90072348D01*
X128879571Y-90119967D01*
X128974809Y-90167586D01*
X129212904Y-90167586D01*
X129308142Y-90119967D01*
X129355761Y-90072348D01*
X129403380Y-89977110D01*
X129403380Y-89739015D01*
X129355761Y-89643777D01*
X129308142Y-89596158D01*
%TO.C,J4*%
X148453380Y-89417586D02*
X149167666Y-89417586D01*
X149310523Y-89369967D01*
X149405761Y-89274729D01*
X149453380Y-89131872D01*
X149453380Y-89036634D01*
X148786714Y-90322348D02*
X149453380Y-90322348D01*
X148405761Y-90084253D02*
X149120047Y-89846158D01*
X149120047Y-90465205D01*
%TO.C,J2*%
X148503380Y-95917586D02*
X149217666Y-95917586D01*
X149360523Y-95869967D01*
X149455761Y-95774729D01*
X149503380Y-95631872D01*
X149503380Y-95536634D01*
X148598619Y-96346158D02*
X148551000Y-96393777D01*
X148503380Y-96489015D01*
X148503380Y-96727110D01*
X148551000Y-96822348D01*
X148598619Y-96869967D01*
X148693857Y-96917586D01*
X148789095Y-96917586D01*
X148931952Y-96869967D01*
X149503380Y-96298539D01*
X149503380Y-96917586D01*
%TO.C,J6*%
X128403380Y-97787586D02*
X129117666Y-97787586D01*
X129260523Y-97739967D01*
X129355761Y-97644729D01*
X129403380Y-97501872D01*
X129403380Y-97406634D01*
X128403380Y-98692348D02*
X128403380Y-98501872D01*
X128451000Y-98406634D01*
X128498619Y-98359015D01*
X128641476Y-98263777D01*
X128831952Y-98216158D01*
X129212904Y-98216158D01*
X129308142Y-98263777D01*
X129355761Y-98311396D01*
X129403380Y-98406634D01*
X129403380Y-98597110D01*
X129355761Y-98692348D01*
X129308142Y-98739967D01*
X129212904Y-98787586D01*
X128974809Y-98787586D01*
X128879571Y-98739967D01*
X128831952Y-98692348D01*
X128784333Y-98597110D01*
X128784333Y-98406634D01*
X128831952Y-98311396D01*
X128879571Y-98263777D01*
X128974809Y-98216158D01*
%TO.C,J3*%
X148503380Y-104417586D02*
X149217666Y-104417586D01*
X149360523Y-104369967D01*
X149455761Y-104274729D01*
X149503380Y-104131872D01*
X149503380Y-104036634D01*
X148503380Y-104798539D02*
X148503380Y-105417586D01*
X148884333Y-105084253D01*
X148884333Y-105227110D01*
X148931952Y-105322348D01*
X148979571Y-105369967D01*
X149074809Y-105417586D01*
X149312904Y-105417586D01*
X149408142Y-105369967D01*
X149455761Y-105322348D01*
X149503380Y-105227110D01*
X149503380Y-104941396D01*
X149455761Y-104846158D01*
X149408142Y-104798539D01*
%TO.C,U3*%
X140303380Y-103239015D02*
X141112904Y-103239015D01*
X141208142Y-103286634D01*
X141255761Y-103334253D01*
X141303380Y-103429491D01*
X141303380Y-103619967D01*
X141255761Y-103715205D01*
X141208142Y-103762824D01*
X141112904Y-103810443D01*
X140303380Y-103810443D01*
X140303380Y-104191396D02*
X140303380Y-104810443D01*
X140684333Y-104477110D01*
X140684333Y-104619967D01*
X140731952Y-104715205D01*
X140779571Y-104762824D01*
X140874809Y-104810443D01*
X141112904Y-104810443D01*
X141208142Y-104762824D01*
X141255761Y-104715205D01*
X141303380Y-104619967D01*
X141303380Y-104334253D01*
X141255761Y-104239015D01*
X141208142Y-104191396D01*
%TO.C,U1*%
X132453380Y-97239015D02*
X133262904Y-97239015D01*
X133358142Y-97286634D01*
X133405761Y-97334253D01*
X133453380Y-97429491D01*
X133453380Y-97619967D01*
X133405761Y-97715205D01*
X133358142Y-97762824D01*
X133262904Y-97810443D01*
X132453380Y-97810443D01*
X133453380Y-98810443D02*
X133453380Y-98239015D01*
X133453380Y-98524729D02*
X132453380Y-98524729D01*
X132596238Y-98429491D01*
X132691476Y-98334253D01*
X132739095Y-98239015D01*
%TO.C,R3*%
X140703380Y-97834253D02*
X140227190Y-97500920D01*
X140703380Y-97262824D02*
X139703380Y-97262824D01*
X139703380Y-97643777D01*
X139751000Y-97739015D01*
X139798619Y-97786634D01*
X139893857Y-97834253D01*
X140036714Y-97834253D01*
X140131952Y-97786634D01*
X140179571Y-97739015D01*
X140227190Y-97643777D01*
X140227190Y-97262824D01*
X139703380Y-98167586D02*
X139703380Y-98786634D01*
X140084333Y-98453300D01*
X140084333Y-98596158D01*
X140131952Y-98691396D01*
X140179571Y-98739015D01*
X140274809Y-98786634D01*
X140512904Y-98786634D01*
X140608142Y-98739015D01*
X140655761Y-98691396D01*
X140703380Y-98596158D01*
X140703380Y-98310443D01*
X140655761Y-98215205D01*
X140608142Y-98167586D01*
%TO.C,R2*%
X138953380Y-89834253D02*
X138477190Y-89500920D01*
X138953380Y-89262824D02*
X137953380Y-89262824D01*
X137953380Y-89643777D01*
X138001000Y-89739015D01*
X138048619Y-89786634D01*
X138143857Y-89834253D01*
X138286714Y-89834253D01*
X138381952Y-89786634D01*
X138429571Y-89739015D01*
X138477190Y-89643777D01*
X138477190Y-89262824D01*
X138048619Y-90215205D02*
X138001000Y-90262824D01*
X137953380Y-90358062D01*
X137953380Y-90596158D01*
X138001000Y-90691396D01*
X138048619Y-90739015D01*
X138143857Y-90786634D01*
X138239095Y-90786634D01*
X138381952Y-90739015D01*
X138953380Y-90167586D01*
X138953380Y-90786634D01*
%TO.C,R1*%
X140953380Y-89834253D02*
X140477190Y-89500920D01*
X140953380Y-89262824D02*
X139953380Y-89262824D01*
X139953380Y-89643777D01*
X140001000Y-89739015D01*
X140048619Y-89786634D01*
X140143857Y-89834253D01*
X140286714Y-89834253D01*
X140381952Y-89786634D01*
X140429571Y-89739015D01*
X140477190Y-89643777D01*
X140477190Y-89262824D01*
X140953380Y-90786634D02*
X140953380Y-90215205D01*
X140953380Y-90500920D02*
X139953380Y-90500920D01*
X140096238Y-90405681D01*
X140191476Y-90310443D01*
X140239095Y-90215205D01*
%TO.C,C5*%
X148358142Y-97834253D02*
X148405761Y-97786634D01*
X148453380Y-97643777D01*
X148453380Y-97548539D01*
X148405761Y-97405681D01*
X148310523Y-97310443D01*
X148215285Y-97262824D01*
X148024809Y-97215205D01*
X147881952Y-97215205D01*
X147691476Y-97262824D01*
X147596238Y-97310443D01*
X147501000Y-97405681D01*
X147453380Y-97548539D01*
X147453380Y-97643777D01*
X147501000Y-97786634D01*
X147548619Y-97834253D01*
X147453380Y-98739015D02*
X147453380Y-98262824D01*
X147929571Y-98215205D01*
X147881952Y-98262824D01*
X147834333Y-98358062D01*
X147834333Y-98596158D01*
X147881952Y-98691396D01*
X147929571Y-98739015D01*
X148024809Y-98786634D01*
X148262904Y-98786634D01*
X148358142Y-98739015D01*
X148405761Y-98691396D01*
X148453380Y-98596158D01*
X148453380Y-98358062D01*
X148405761Y-98262824D01*
X148358142Y-98215205D01*
%TO.C,C4*%
X130358142Y-95834253D02*
X130405761Y-95786634D01*
X130453380Y-95643777D01*
X130453380Y-95548539D01*
X130405761Y-95405681D01*
X130310523Y-95310443D01*
X130215285Y-95262824D01*
X130024809Y-95215205D01*
X129881952Y-95215205D01*
X129691476Y-95262824D01*
X129596238Y-95310443D01*
X129501000Y-95405681D01*
X129453380Y-95548539D01*
X129453380Y-95643777D01*
X129501000Y-95786634D01*
X129548619Y-95834253D01*
X129786714Y-96691396D02*
X130453380Y-96691396D01*
X129405761Y-96453300D02*
X130120047Y-96215205D01*
X130120047Y-96834253D01*
%TO.C,C3*%
X130358142Y-103834253D02*
X130405761Y-103786634D01*
X130453380Y-103643777D01*
X130453380Y-103548539D01*
X130405761Y-103405681D01*
X130310523Y-103310443D01*
X130215285Y-103262824D01*
X130024809Y-103215205D01*
X129881952Y-103215205D01*
X129691476Y-103262824D01*
X129596238Y-103310443D01*
X129501000Y-103405681D01*
X129453380Y-103548539D01*
X129453380Y-103643777D01*
X129501000Y-103786634D01*
X129548619Y-103834253D01*
X129453380Y-104167586D02*
X129453380Y-104786634D01*
X129834333Y-104453300D01*
X129834333Y-104596158D01*
X129881952Y-104691396D01*
X129929571Y-104739015D01*
X130024809Y-104786634D01*
X130262904Y-104786634D01*
X130358142Y-104739015D01*
X130405761Y-104691396D01*
X130453380Y-104596158D01*
X130453380Y-104310443D01*
X130405761Y-104215205D01*
X130358142Y-104167586D01*
%TO.C,C2*%
X136358142Y-97834253D02*
X136405761Y-97786634D01*
X136453380Y-97643777D01*
X136453380Y-97548539D01*
X136405761Y-97405681D01*
X136310523Y-97310443D01*
X136215285Y-97262824D01*
X136024809Y-97215205D01*
X135881952Y-97215205D01*
X135691476Y-97262824D01*
X135596238Y-97310443D01*
X135501000Y-97405681D01*
X135453380Y-97548539D01*
X135453380Y-97643777D01*
X135501000Y-97786634D01*
X135548619Y-97834253D01*
X135548619Y-98215205D02*
X135501000Y-98262824D01*
X135453380Y-98358062D01*
X135453380Y-98596158D01*
X135501000Y-98691396D01*
X135548619Y-98739015D01*
X135643857Y-98786634D01*
X135739095Y-98786634D01*
X135881952Y-98739015D01*
X136453380Y-98167586D01*
X136453380Y-98786634D01*
%TO.C,C1*%
X138358142Y-97834253D02*
X138405761Y-97786634D01*
X138453380Y-97643777D01*
X138453380Y-97548539D01*
X138405761Y-97405681D01*
X138310523Y-97310443D01*
X138215285Y-97262824D01*
X138024809Y-97215205D01*
X137881952Y-97215205D01*
X137691476Y-97262824D01*
X137596238Y-97310443D01*
X137501000Y-97405681D01*
X137453380Y-97548539D01*
X137453380Y-97643777D01*
X137501000Y-97786634D01*
X137548619Y-97834253D01*
X138453380Y-98786634D02*
X138453380Y-98215205D01*
X138453380Y-98500920D02*
X137453380Y-98500920D01*
X137596238Y-98405681D01*
X137691476Y-98310443D01*
X137739095Y-98215205D01*
%TD*%
%LPC*%
D15*
%TO.C,SW1*%
X143751000Y-90350920D03*
X145501000Y-90350920D03*
X147251000Y-90350920D03*
X143751000Y-95650920D03*
X145501000Y-95650920D03*
X147251000Y-95650920D03*
%TD*%
%TO.C,J1*%
G36*
G01*
X127476000Y-107450920D02*
X126526000Y-107450920D01*
G75*
G02*
X126301000Y-107225920I0J225000D01*
G01*
X126301000Y-106775920D01*
G75*
G02*
X126526000Y-106550920I225000J0D01*
G01*
X127476000Y-106550920D01*
G75*
G02*
X127701000Y-106775920I0J-225000D01*
G01*
X127701000Y-107225920D01*
G75*
G02*
X127476000Y-107450920I-225000J0D01*
G01*
G37*
D16*
X127001000Y-105750920D03*
X127001000Y-104500920D03*
%TD*%
%TO.C,U2*%
G36*
G01*
X131921000Y-94450920D02*
X132271000Y-94450920D01*
G75*
G02*
X132446000Y-94625920I0J-175000D01*
G01*
X132446000Y-96325920D01*
G75*
G02*
X132271000Y-96500920I-175000J0D01*
G01*
X131921000Y-96500920D01*
G75*
G02*
X131746000Y-96325920I0J175000D01*
G01*
X131746000Y-94625920D01*
G75*
G02*
X131921000Y-94450920I175000J0D01*
G01*
G37*
G36*
G01*
X133191000Y-94450920D02*
X133541000Y-94450920D01*
G75*
G02*
X133716000Y-94625920I0J-175000D01*
G01*
X133716000Y-96325920D01*
G75*
G02*
X133541000Y-96500920I-175000J0D01*
G01*
X133191000Y-96500920D01*
G75*
G02*
X133016000Y-96325920I0J175000D01*
G01*
X133016000Y-94625920D01*
G75*
G02*
X133191000Y-94450920I175000J0D01*
G01*
G37*
G36*
G01*
X134461000Y-94450920D02*
X134811000Y-94450920D01*
G75*
G02*
X134986000Y-94625920I0J-175000D01*
G01*
X134986000Y-96325920D01*
G75*
G02*
X134811000Y-96500920I-175000J0D01*
G01*
X134461000Y-96500920D01*
G75*
G02*
X134286000Y-96325920I0J175000D01*
G01*
X134286000Y-94625920D01*
G75*
G02*
X134461000Y-94450920I175000J0D01*
G01*
G37*
G36*
G01*
X135731000Y-94450920D02*
X136081000Y-94450920D01*
G75*
G02*
X136256000Y-94625920I0J-175000D01*
G01*
X136256000Y-96325920D01*
G75*
G02*
X136081000Y-96500920I-175000J0D01*
G01*
X135731000Y-96500920D01*
G75*
G02*
X135556000Y-96325920I0J175000D01*
G01*
X135556000Y-94625920D01*
G75*
G02*
X135731000Y-94450920I175000J0D01*
G01*
G37*
G36*
G01*
X135731000Y-89500920D02*
X136081000Y-89500920D01*
G75*
G02*
X136256000Y-89675920I0J-175000D01*
G01*
X136256000Y-91375920D01*
G75*
G02*
X136081000Y-91550920I-175000J0D01*
G01*
X135731000Y-91550920D01*
G75*
G02*
X135556000Y-91375920I0J175000D01*
G01*
X135556000Y-89675920D01*
G75*
G02*
X135731000Y-89500920I175000J0D01*
G01*
G37*
G36*
G01*
X134461000Y-89500920D02*
X134811000Y-89500920D01*
G75*
G02*
X134986000Y-89675920I0J-175000D01*
G01*
X134986000Y-91375920D01*
G75*
G02*
X134811000Y-91550920I-175000J0D01*
G01*
X134461000Y-91550920D01*
G75*
G02*
X134286000Y-91375920I0J175000D01*
G01*
X134286000Y-89675920D01*
G75*
G02*
X134461000Y-89500920I175000J0D01*
G01*
G37*
G36*
G01*
X133191000Y-89500920D02*
X133541000Y-89500920D01*
G75*
G02*
X133716000Y-89675920I0J-175000D01*
G01*
X133716000Y-91375920D01*
G75*
G02*
X133541000Y-91550920I-175000J0D01*
G01*
X133191000Y-91550920D01*
G75*
G02*
X133016000Y-91375920I0J175000D01*
G01*
X133016000Y-89675920D01*
G75*
G02*
X133191000Y-89500920I175000J0D01*
G01*
G37*
G36*
G01*
X131921000Y-89500920D02*
X132271000Y-89500920D01*
G75*
G02*
X132446000Y-89675920I0J-175000D01*
G01*
X132446000Y-91375920D01*
G75*
G02*
X132271000Y-91550920I-175000J0D01*
G01*
X131921000Y-91550920D01*
G75*
G02*
X131746000Y-91375920I0J175000D01*
G01*
X131746000Y-89675920D01*
G75*
G02*
X131921000Y-89500920I175000J0D01*
G01*
G37*
%TD*%
D17*
%TO.C,P1*%
X130001000Y-86000920D03*
X132001000Y-86000920D03*
X134001000Y-86000920D03*
X136001000Y-86000920D03*
X138001000Y-86000920D03*
X140001000Y-86000920D03*
X142001000Y-86000920D03*
X144001000Y-86000920D03*
X146001000Y-86000920D03*
X148001000Y-86000920D03*
D18*
X130001000Y-87600920D03*
X132001000Y-84400920D03*
X134001000Y-87600920D03*
X136001000Y-84400920D03*
X138001000Y-87600920D03*
X140001000Y-84400920D03*
X142001000Y-87600920D03*
X144001000Y-84400920D03*
X146001000Y-87600920D03*
X148001000Y-84400920D03*
%TD*%
D17*
%TO.C,P2*%
X130001000Y-108000920D03*
X132001000Y-108000920D03*
X134001000Y-108000920D03*
X136001000Y-108000920D03*
X138001000Y-108000920D03*
X140001000Y-108000920D03*
X142001000Y-108000920D03*
X144001000Y-108000920D03*
X146001000Y-108000920D03*
X148001000Y-108000920D03*
D18*
X130001000Y-109600920D03*
X132001000Y-106400920D03*
X134001000Y-109600920D03*
X136001000Y-106400920D03*
X138001000Y-109600920D03*
X140001000Y-106400920D03*
X142001000Y-109600920D03*
X144001000Y-106400920D03*
X146001000Y-109600920D03*
X148001000Y-106400920D03*
%TD*%
%TO.C,J5*%
G36*
G01*
X127476000Y-92450920D02*
X126526000Y-92450920D01*
G75*
G02*
X126301000Y-92225920I0J225000D01*
G01*
X126301000Y-91775920D01*
G75*
G02*
X126526000Y-91550920I225000J0D01*
G01*
X127476000Y-91550920D01*
G75*
G02*
X127701000Y-91775920I0J-225000D01*
G01*
X127701000Y-92225920D01*
G75*
G02*
X127476000Y-92450920I-225000J0D01*
G01*
G37*
D16*
X127001000Y-90750920D03*
X127001000Y-89500920D03*
X127001000Y-88250920D03*
X127001000Y-87000920D03*
%TD*%
%TO.C,J4*%
G36*
G01*
X150526000Y-88550920D02*
X151476000Y-88550920D01*
G75*
G02*
X151701000Y-88775920I0J-225000D01*
G01*
X151701000Y-89225920D01*
G75*
G02*
X151476000Y-89450920I-225000J0D01*
G01*
X150526000Y-89450920D01*
G75*
G02*
X150301000Y-89225920I0J225000D01*
G01*
X150301000Y-88775920D01*
G75*
G02*
X150526000Y-88550920I225000J0D01*
G01*
G37*
X151001000Y-90250920D03*
%TD*%
%TO.C,J2*%
G36*
G01*
X150526000Y-94550920D02*
X151476000Y-94550920D01*
G75*
G02*
X151701000Y-94775920I0J-225000D01*
G01*
X151701000Y-95225920D01*
G75*
G02*
X151476000Y-95450920I-225000J0D01*
G01*
X150526000Y-95450920D01*
G75*
G02*
X150301000Y-95225920I0J225000D01*
G01*
X150301000Y-94775920D01*
G75*
G02*
X150526000Y-94550920I225000J0D01*
G01*
G37*
X151001000Y-96250920D03*
X151001000Y-97500920D03*
X151001000Y-98750920D03*
%TD*%
%TO.C,J6*%
G36*
G01*
X127476000Y-100450920D02*
X126526000Y-100450920D01*
G75*
G02*
X126301000Y-100225920I0J225000D01*
G01*
X126301000Y-99775920D01*
G75*
G02*
X126526000Y-99550920I225000J0D01*
G01*
X127476000Y-99550920D01*
G75*
G02*
X127701000Y-99775920I0J-225000D01*
G01*
X127701000Y-100225920D01*
G75*
G02*
X127476000Y-100450920I-225000J0D01*
G01*
G37*
X127001000Y-98750920D03*
X127001000Y-97500920D03*
X127001000Y-96250920D03*
%TD*%
%TO.C,J3*%
G36*
G01*
X150526000Y-103050920D02*
X151476000Y-103050920D01*
G75*
G02*
X151701000Y-103275920I0J-225000D01*
G01*
X151701000Y-103725920D01*
G75*
G02*
X151476000Y-103950920I-225000J0D01*
G01*
X150526000Y-103950920D01*
G75*
G02*
X150301000Y-103725920I0J225000D01*
G01*
X150301000Y-103275920D01*
G75*
G02*
X150526000Y-103050920I225000J0D01*
G01*
G37*
X151001000Y-104750920D03*
X151001000Y-106000920D03*
%TD*%
%TO.C,U3*%
G36*
G01*
X142171000Y-102450920D02*
X142521000Y-102450920D01*
G75*
G02*
X142696000Y-102625920I0J-175000D01*
G01*
X142696000Y-104325920D01*
G75*
G02*
X142521000Y-104500920I-175000J0D01*
G01*
X142171000Y-104500920D01*
G75*
G02*
X141996000Y-104325920I0J175000D01*
G01*
X141996000Y-102625920D01*
G75*
G02*
X142171000Y-102450920I175000J0D01*
G01*
G37*
G36*
G01*
X143441000Y-102450920D02*
X143791000Y-102450920D01*
G75*
G02*
X143966000Y-102625920I0J-175000D01*
G01*
X143966000Y-104325920D01*
G75*
G02*
X143791000Y-104500920I-175000J0D01*
G01*
X143441000Y-104500920D01*
G75*
G02*
X143266000Y-104325920I0J175000D01*
G01*
X143266000Y-102625920D01*
G75*
G02*
X143441000Y-102450920I175000J0D01*
G01*
G37*
G36*
G01*
X144711000Y-102450920D02*
X145061000Y-102450920D01*
G75*
G02*
X145236000Y-102625920I0J-175000D01*
G01*
X145236000Y-104325920D01*
G75*
G02*
X145061000Y-104500920I-175000J0D01*
G01*
X144711000Y-104500920D01*
G75*
G02*
X144536000Y-104325920I0J175000D01*
G01*
X144536000Y-102625920D01*
G75*
G02*
X144711000Y-102450920I175000J0D01*
G01*
G37*
G36*
G01*
X145981000Y-102450920D02*
X146331000Y-102450920D01*
G75*
G02*
X146506000Y-102625920I0J-175000D01*
G01*
X146506000Y-104325920D01*
G75*
G02*
X146331000Y-104500920I-175000J0D01*
G01*
X145981000Y-104500920D01*
G75*
G02*
X145806000Y-104325920I0J175000D01*
G01*
X145806000Y-102625920D01*
G75*
G02*
X145981000Y-102450920I175000J0D01*
G01*
G37*
G36*
G01*
X145981000Y-97500920D02*
X146331000Y-97500920D01*
G75*
G02*
X146506000Y-97675920I0J-175000D01*
G01*
X146506000Y-99375920D01*
G75*
G02*
X146331000Y-99550920I-175000J0D01*
G01*
X145981000Y-99550920D01*
G75*
G02*
X145806000Y-99375920I0J175000D01*
G01*
X145806000Y-97675920D01*
G75*
G02*
X145981000Y-97500920I175000J0D01*
G01*
G37*
G36*
G01*
X144711000Y-97500920D02*
X145061000Y-97500920D01*
G75*
G02*
X145236000Y-97675920I0J-175000D01*
G01*
X145236000Y-99375920D01*
G75*
G02*
X145061000Y-99550920I-175000J0D01*
G01*
X144711000Y-99550920D01*
G75*
G02*
X144536000Y-99375920I0J175000D01*
G01*
X144536000Y-97675920D01*
G75*
G02*
X144711000Y-97500920I175000J0D01*
G01*
G37*
G36*
G01*
X143441000Y-97500920D02*
X143791000Y-97500920D01*
G75*
G02*
X143966000Y-97675920I0J-175000D01*
G01*
X143966000Y-99375920D01*
G75*
G02*
X143791000Y-99550920I-175000J0D01*
G01*
X143441000Y-99550920D01*
G75*
G02*
X143266000Y-99375920I0J175000D01*
G01*
X143266000Y-97675920D01*
G75*
G02*
X143441000Y-97500920I175000J0D01*
G01*
G37*
G36*
G01*
X142171000Y-97500920D02*
X142521000Y-97500920D01*
G75*
G02*
X142696000Y-97675920I0J-175000D01*
G01*
X142696000Y-99375920D01*
G75*
G02*
X142521000Y-99550920I-175000J0D01*
G01*
X142171000Y-99550920D01*
G75*
G02*
X141996000Y-99375920I0J175000D01*
G01*
X141996000Y-97675920D01*
G75*
G02*
X142171000Y-97500920I175000J0D01*
G01*
G37*
%TD*%
D19*
%TO.C,U1*%
X132051000Y-102100920D03*
X133951000Y-102100920D03*
X133951000Y-99900920D03*
X133001000Y-99900920D03*
X132051000Y-99900920D03*
%TD*%
%TO.C,R3*%
G36*
G01*
X140729262Y-100600920D02*
X139772738Y-100600920D01*
G75*
G02*
X139501000Y-100329182I0J271738D01*
G01*
X139501000Y-99622658D01*
G75*
G02*
X139772738Y-99350920I271738J0D01*
G01*
X140729262Y-99350920D01*
G75*
G02*
X141001000Y-99622658I0J-271738D01*
G01*
X141001000Y-100329182D01*
G75*
G02*
X140729262Y-100600920I-271738J0D01*
G01*
G37*
G36*
G01*
X140729262Y-102650920D02*
X139772738Y-102650920D01*
G75*
G02*
X139501000Y-102379182I0J271738D01*
G01*
X139501000Y-101672658D01*
G75*
G02*
X139772738Y-101400920I271738J0D01*
G01*
X140729262Y-101400920D01*
G75*
G02*
X141001000Y-101672658I0J-271738D01*
G01*
X141001000Y-102379182D01*
G75*
G02*
X140729262Y-102650920I-271738J0D01*
G01*
G37*
%TD*%
%TO.C,R2*%
G36*
G01*
X138979262Y-92600920D02*
X138022738Y-92600920D01*
G75*
G02*
X137751000Y-92329182I0J271738D01*
G01*
X137751000Y-91622658D01*
G75*
G02*
X138022738Y-91350920I271738J0D01*
G01*
X138979262Y-91350920D01*
G75*
G02*
X139251000Y-91622658I0J-271738D01*
G01*
X139251000Y-92329182D01*
G75*
G02*
X138979262Y-92600920I-271738J0D01*
G01*
G37*
G36*
G01*
X138979262Y-94650920D02*
X138022738Y-94650920D01*
G75*
G02*
X137751000Y-94379182I0J271738D01*
G01*
X137751000Y-93672658D01*
G75*
G02*
X138022738Y-93400920I271738J0D01*
G01*
X138979262Y-93400920D01*
G75*
G02*
X139251000Y-93672658I0J-271738D01*
G01*
X139251000Y-94379182D01*
G75*
G02*
X138979262Y-94650920I-271738J0D01*
G01*
G37*
%TD*%
%TO.C,R1*%
G36*
G01*
X140979262Y-92600920D02*
X140022738Y-92600920D01*
G75*
G02*
X139751000Y-92329182I0J271738D01*
G01*
X139751000Y-91622658D01*
G75*
G02*
X140022738Y-91350920I271738J0D01*
G01*
X140979262Y-91350920D01*
G75*
G02*
X141251000Y-91622658I0J-271738D01*
G01*
X141251000Y-92329182D01*
G75*
G02*
X140979262Y-92600920I-271738J0D01*
G01*
G37*
G36*
G01*
X140979262Y-94650920D02*
X140022738Y-94650920D01*
G75*
G02*
X139751000Y-94379182I0J271738D01*
G01*
X139751000Y-93672658D01*
G75*
G02*
X140022738Y-93400920I271738J0D01*
G01*
X140979262Y-93400920D01*
G75*
G02*
X141251000Y-93672658I0J-271738D01*
G01*
X141251000Y-94379182D01*
G75*
G02*
X140979262Y-94650920I-271738J0D01*
G01*
G37*
%TD*%
%TO.C,C5*%
G36*
G01*
X148479262Y-100600920D02*
X147522738Y-100600920D01*
G75*
G02*
X147251000Y-100329182I0J271738D01*
G01*
X147251000Y-99622658D01*
G75*
G02*
X147522738Y-99350920I271738J0D01*
G01*
X148479262Y-99350920D01*
G75*
G02*
X148751000Y-99622658I0J-271738D01*
G01*
X148751000Y-100329182D01*
G75*
G02*
X148479262Y-100600920I-271738J0D01*
G01*
G37*
G36*
G01*
X148479262Y-102650920D02*
X147522738Y-102650920D01*
G75*
G02*
X147251000Y-102379182I0J271738D01*
G01*
X147251000Y-101672658D01*
G75*
G02*
X147522738Y-101400920I271738J0D01*
G01*
X148479262Y-101400920D01*
G75*
G02*
X148751000Y-101672658I0J-271738D01*
G01*
X148751000Y-102379182D01*
G75*
G02*
X148479262Y-102650920I-271738J0D01*
G01*
G37*
%TD*%
%TO.C,C4*%
G36*
G01*
X130479262Y-92600920D02*
X129522738Y-92600920D01*
G75*
G02*
X129251000Y-92329182I0J271738D01*
G01*
X129251000Y-91622658D01*
G75*
G02*
X129522738Y-91350920I271738J0D01*
G01*
X130479262Y-91350920D01*
G75*
G02*
X130751000Y-91622658I0J-271738D01*
G01*
X130751000Y-92329182D01*
G75*
G02*
X130479262Y-92600920I-271738J0D01*
G01*
G37*
G36*
G01*
X130479262Y-94650920D02*
X129522738Y-94650920D01*
G75*
G02*
X129251000Y-94379182I0J271738D01*
G01*
X129251000Y-93672658D01*
G75*
G02*
X129522738Y-93400920I271738J0D01*
G01*
X130479262Y-93400920D01*
G75*
G02*
X130751000Y-93672658I0J-271738D01*
G01*
X130751000Y-94379182D01*
G75*
G02*
X130479262Y-94650920I-271738J0D01*
G01*
G37*
%TD*%
%TO.C,C3*%
G36*
G01*
X130479262Y-100600920D02*
X129522738Y-100600920D01*
G75*
G02*
X129251000Y-100329182I0J271738D01*
G01*
X129251000Y-99622658D01*
G75*
G02*
X129522738Y-99350920I271738J0D01*
G01*
X130479262Y-99350920D01*
G75*
G02*
X130751000Y-99622658I0J-271738D01*
G01*
X130751000Y-100329182D01*
G75*
G02*
X130479262Y-100600920I-271738J0D01*
G01*
G37*
G36*
G01*
X130479262Y-102650920D02*
X129522738Y-102650920D01*
G75*
G02*
X129251000Y-102379182I0J271738D01*
G01*
X129251000Y-101672658D01*
G75*
G02*
X129522738Y-101400920I271738J0D01*
G01*
X130479262Y-101400920D01*
G75*
G02*
X130751000Y-101672658I0J-271738D01*
G01*
X130751000Y-102379182D01*
G75*
G02*
X130479262Y-102650920I-271738J0D01*
G01*
G37*
%TD*%
%TO.C,C2*%
G36*
G01*
X136479262Y-100600920D02*
X135522738Y-100600920D01*
G75*
G02*
X135251000Y-100329182I0J271738D01*
G01*
X135251000Y-99622658D01*
G75*
G02*
X135522738Y-99350920I271738J0D01*
G01*
X136479262Y-99350920D01*
G75*
G02*
X136751000Y-99622658I0J-271738D01*
G01*
X136751000Y-100329182D01*
G75*
G02*
X136479262Y-100600920I-271738J0D01*
G01*
G37*
G36*
G01*
X136479262Y-102650920D02*
X135522738Y-102650920D01*
G75*
G02*
X135251000Y-102379182I0J271738D01*
G01*
X135251000Y-101672658D01*
G75*
G02*
X135522738Y-101400920I271738J0D01*
G01*
X136479262Y-101400920D01*
G75*
G02*
X136751000Y-101672658I0J-271738D01*
G01*
X136751000Y-102379182D01*
G75*
G02*
X136479262Y-102650920I-271738J0D01*
G01*
G37*
%TD*%
%TO.C,C1*%
G36*
G01*
X138479262Y-100600920D02*
X137522738Y-100600920D01*
G75*
G02*
X137251000Y-100329182I0J271738D01*
G01*
X137251000Y-99622658D01*
G75*
G02*
X137522738Y-99350920I271738J0D01*
G01*
X138479262Y-99350920D01*
G75*
G02*
X138751000Y-99622658I0J-271738D01*
G01*
X138751000Y-100329182D01*
G75*
G02*
X138479262Y-100600920I-271738J0D01*
G01*
G37*
G36*
G01*
X138479262Y-102650920D02*
X137522738Y-102650920D01*
G75*
G02*
X137251000Y-102379182I0J271738D01*
G01*
X137251000Y-101672658D01*
G75*
G02*
X137522738Y-101400920I271738J0D01*
G01*
X138479262Y-101400920D01*
G75*
G02*
X138751000Y-101672658I0J-271738D01*
G01*
X138751000Y-102379182D01*
G75*
G02*
X138479262Y-102650920I-271738J0D01*
G01*
G37*
%TD*%
M02*
