<?xml version="1.0" encoding="UTF-8" standalone="no"?>
<!-- Creator: CorelDRAW X5 -->

<svg
   xmlns:dc="http://purl.org/dc/elements/1.1/"
   xmlns:cc="http://creativecommons.org/ns#"
   xmlns:rdf="http://www.w3.org/1999/02/22-rdf-syntax-ns#"
   xmlns:svg="http://www.w3.org/2000/svg"
   xmlns="http://www.w3.org/2000/svg"
   xmlns:sodipodi="http://sodipodi.sourceforge.net/DTD/sodipodi-0.dtd"
   xmlns:inkscape="http://www.inkscape.org/namespaces/inkscape"
   xml:space="preserve"
   width="1594.0161"
   height="375.83917"
   style="fill-rule:evenodd"
   viewBox="0 0 40893.208 9642.2398"
   id="svg2"
   version="1.1"
   inkscape:version="0.48.4 r9939"
   sodipodi:docname="MavLab_logo001.svg"><metadata
     id="metadata31"><rdf:RDF><cc:Work
         rdf:about=""><dc:format>image/svg+xml</dc:format><dc:type
           rdf:resource="http://purl.org/dc/dcmitype/StillImage" /><dc:title /></cc:Work></rdf:RDF></metadata><sodipodi:namedview
     pagecolor="#ffffff"
     bordercolor="#666666"
     borderopacity="1"
     objecttolerance="10"
     gridtolerance="10"
     guidetolerance="10"
     inkscape:pageopacity="1"
     inkscape:pageshadow="2"
     inkscape:window-width="1920"
     inkscape:window-height="1056"
     id="namedview29"
     showgrid="false"
     inkscape:zoom="0.17560976"
     inkscape:cx="1015.2157"
     inkscape:cy="231.53477"
     inkscape:window-x="1920"
     inkscape:window-y="24"
     inkscape:window-maximized="1"
     inkscape:current-layer="svg2"
     fit-margin-top="0"
     fit-margin-left="0"
     fit-margin-right="0"
     fit-margin-bottom="0" /><defs
     id="defs4"><style
       type="text/css"
       id="style6">
    .fil0 {fill:none}
    .fil3 {fill:black}
    .fil1 {fill:#00AFEF;fill-rule:nonzero}
    .fil2 {fill:black;fill-rule:nonzero}
   </style></defs><g
     style="fill-rule:evenodd"
     id="Layer_x0020_1"
     transform="matrix(3.4559999,0,0,3.4559999,-1.3164444,0)"><metadata
       id="CorelCorpID_0Corel-Layer" /><g
       id="_316778176"><polygon
         class="fil0"
         points="0,0 11833,0 11833,2790 0,2790 "
         id="polygon11"
         style="fill:none" /><path
         class="fil1"
         d="m 11242,412 -13,39 -90,0 13,-39 20,0 41,-120 -18,0 -19,33 -33,0 24,-71 165,0 -22,71 -33,0 3,-33 -16,0 -41,120 19,0 z m 136,0 -13,39 -87,0 13,-39 20,0 41,-120 -20,0 13,-39 86,0 -2,97 66,-97 92,0 -13,39 -20,0 -41,120 20,0 -13,39 -86,0 13,-39 15,0 43,-116 -78,115 -31,0 3,-109 -36,111 16,0 z"
         id="path13"
         inkscape:connector-curvature="0"
         style="fill:#00afef;fill-rule:nonzero" /><path
         class="fil1"
         d="m 7018,2081 245,-437 398,0 -333,865 -1517,0 752,-2183 767,0 -147,428 -206,0 -456,1327 497,0 z m 1527,428 48,-133 c -91,62 -173,107 -245,133 -72,27 -146,40 -223,40 -168,0 -293,-60 -376,-179 -83,-120 -108,-277 -75,-474 43,-257 149,-464 318,-622 169,-158 368,-237 596,-237 92,0 170,16 233,48 63,32 117,83 161,152 l 55,-167 601,0 -146,437 -133,0 -202,567 154,0 -143,437 -622,0 z m 30,-1024 c -89,0 -164,29 -226,88 -62,59 -102,138 -118,239 -14,85 -4,151 31,197 35,46 91,70 168,70 82,0 154,-31 217,-94 63,-63 102,-143 119,-242 13,-80 3,-142 -31,-188 -34,-46 -88,-69 -160,-69 z m 1633,330 c -13,78 -1,140 37,188 38,48 94,72 168,72 82,0 156,-30 221,-91 65,-61 106,-135 120,-224 12,-73 -1,-133 -40,-181 -39,-47 -96,-71 -170,-71 -84,0 -157,28 -220,85 -63,57 -102,130 -117,221 z m -148,-1056 -175,0 148,-434 709,0 -282,819 c 58,-35 118,-63 178,-81 61,-18 122,-27 184,-27 174,0 306,62 398,186 92,124 121,285 88,483 -40,241 -142,441 -306,601 -163,160 -345,240 -545,240 -102,0 -187,-19 -256,-56 -68,-38 -122,-95 -161,-172 l -64,191 -700,0 148,-431 175,0 460,-1319 z"
         id="path15"
         inkscape:connector-curvature="0"
         style="fill:#00afef;fill-rule:nonzero" /><polygon
         class="fil2"
         points="315,2509 315,325 948,325 1432,1403 1915,325 2548,325 2548,2509 2002,2509 2002,1062 1604,1996 1230,1996 832,1062 832,2509 "
         id="polygon17"
         style="fill:#000000;fill-rule:nonzero" /><g
         id="g19"><polygon
           class="fil2"
           points="3678,1028 3201,2509 2647,2509 3398,326 3971,326 4723,2509 4153,2509 "
           id="polygon21"
           style="fill:#000000;fill-rule:nonzero" /><polygon
           class="fil3"
           points="3621,2206 3749,2206 3749,2543 3621,2543 "
           id="polygon23"
           style="fill:#000000" /></g><polygon
         class="fil2"
         points="5532,1807 6008,326 6563,326 5811,2509 5238,2509 4487,326 5056,326 "
         id="polygon25"
         style="fill:#000000;fill-rule:nonzero" /><polygon
         class="fil3"
         points="5461,291 5589,291 5589,628 5461,628 "
         id="polygon27"
         style="fill:#000000" /></g></g></svg>